<?xml version="1.0" standalone="no"?>
<!DOCTYPE svg PUBLIC "-//W3C//DTD SVG 1.1//EN" "http://www.w3.org/Graphics/SVG/1.1/DTD/svg11.dtd" >
<svg>
<metadata>
Created by FontForge 20090914 at Thu Jul 24 18:46:53 2014
 By www-data
Copyright (c) 2002, 2005 Parachute&#194;&#168;, www.parachute.gr.  All rights reserved.
</metadata>
<defs>
<font id="PFDinTextCondPro-XBlack" horiz-adv-x="1818" >
  <font-face 
    font-family="PF Din Text Cond Pro XBlack"
    font-weight="1000"
    font-stretch="normal"
    units-per-em="1000"
    panose-1="2 0 5 0 0 0 0 2 0 4"
    ascent="750"
    descent="-250"
    x-height="496"
    cap-height="696"
    bbox="-241 -322.003 1760 976"
    underline-thickness="50"
    underline-position="-50"
    unicode-range="U+0020-U+FB05"
  />
<missing-glyph horiz-adv-x="460" 
d="M0 700h460v-700h-460v700zM323 95l-93 167l-92 -167h185zM323 605h-187l94 -165zM95 199l83 152l-83 153v-305zM365 199v304l-83 -154z" />
    <glyph glyph-name="fj" unicode="fj" horiz-adv-x="597" 
d="M542 -39c0 -50.667 -14.833 -90.667 -44.5 -120s-75.834 -44 -138.501 -44h-69v152h24c16.667 0 28.834 4 36.501 12s11.5 22.667 11.5 44v362h-108v-367h-180v367h-50v130h50v58c0 32 5.66699 60 17 84s27 44 47 60s43.5 28 70.5 36s56.167 12 87.5 12
c34 0 68.333 -4.5 103 -13.5s67.667 -28.833 99 -59.5l-88 -122c-14 14 -27.667 24.167 -41 30.5s-31 9.5 -53 9.5c-13.333 0 -24 -2.16699 -32 -6.5s-14.167 -9.5 -18.5 -15.5s-7.33301 -12.5 -9 -19.5s-2.5 -12.833 -2.5 -17.5v-36h288v-536z" />
    <glyph glyph-name="ffj" unicode="ffj" horiz-adv-x="882" 
d="M253 0l-178.999 0.000976562v366h-51v130h50v48c0 30.667 5.66699 57.667 17 81s27 42.833 47 58.5s43.5 27.5 70.5 35.5s56.167 12 87.5 12c21.333 0 43 -1.66699 65 -5s43.667 -9.66602 65 -18.999c40 32.667 91.667 49 155 49c34 0 68.5 -4.33301 103.5 -13
s68.167 -28.334 99.5 -59.001l-88 -122c-14 13.333 -27.833 23.333 -41.5 30s-31.5 10 -53.5 10c-12.667 0 -23 -2.16699 -31 -6.5s-14.333 -9.5 -19 -15.5s-7.83398 -12.5 -9.50098 -19.5s-2.5 -12.833 -2.5 -17.5v-47h289v-534c0 -56 -16.5 -97.5 -49.5 -124.5
s-85.167 -40.5 -156.5 -40.5h-47v152h25c16 0 27.833 4.16699 35.5 12.5s11.5 23.166 11.5 44.499v360h-108v-366h-179v366h-106v-366zM358.001 496.001v74l-16.5 4c-5.66699 1.33301 -12.5 2 -20.5 2c-15.333 0 -27.5 -2.33301 -36.5 -7s-15.833 -10.5 -20.5 -17.5
s-7.66699 -14.167 -9 -21.5s-2 -13.333 -2 -18v-16h105z" />
    <glyph glyph-name="ff" unicode="ff" horiz-adv-x="646" 
d="M253 366v-366h-179v366h-51v130h50v46c0 30.667 5.66699 57.667 17 81s26.666 42.833 45.999 58.5s42.333 27.5 69 35.5s55 12 85 12c21.333 0 42 -1.33301 62 -4s39.667 -7.66699 59 -15c30.667 26.667 74.667 40 132 40h84v-150h-47
c-15.333 0 -25.666 -3.66699 -30.999 -11s-8 -18 -8 -32v-61h85v-130h-85v-366h-180v366h-108zM361 496l-0.00195312 72c-13.333 4 -28.666 6 -45.999 6c-14 0 -25.167 -2.5 -33.5 -7.5s-14.666 -10.833 -18.999 -17.5s-7 -13.667 -8 -21s-1.5 -13.333 -1.5 -18v-14h108z
" />
    <glyph glyph-name="fi" unicode="fi" horiz-adv-x="597" 
d="M362 0l0.00390625 366.998h-108v-367h-180v367h-50v130h50v62c0 30.667 5.66699 57.834 17 81.501s27 43.334 47 59.001s43.5 27.5 70.5 35.5s56.167 12 87.5 12c14.667 0 30.667 -0.666992 48 -2s34.666 -4.33301 51.999 -9s34.666 -11.5 51.999 -20.5
s34 -20.833 50 -35.5l-83 -123c-14 12.667 -28 21.667 -42 27s-31.667 8 -53 8c-14 0 -25.333 -2.16699 -34 -6.5s-15.334 -9.5 -20.001 -15.5s-7.83398 -12.5 -9.50098 -19.5s-2.5 -12.833 -2.5 -17.5v-36h288v-497h-180z" />
    <glyph glyph-name="fl" unicode="fl" horiz-adv-x="626" 
d="M528 -2c-32 0 -58.332 3.8291 -78.999 11.4961s-37.167 18.667 -49.5 33s-21 31.833 -26 52.5s-7.5 44.334 -7.5 71.001v419c-7.33301 2.66699 -16.333 4.5 -27 5.5s-19.667 1.5 -27 1.5c-13.333 0 -24 -2.16699 -32 -6.5s-14.333 -9.5 -19 -15.5
s-7.66699 -12.5 -9 -19.5s-2 -12.833 -2 -17.5v-36h75v-130h-75v-367h-180v367h-46v130h46v62c0 30.667 5.5 57.834 16.5 81.501s26.667 43.334 47 59.001s44.666 27.5 72.999 35.5s59.5 12 93.5 12c20.667 0 51.667 -2 93 -6s92.333 -16.333 153 -37v-518
c0 -11.333 2.5 -20.666 7.5 -27.999s14.833 -11 29.5 -11h16v-149h-71z" />
    <glyph glyph-name="ffi" unicode="ffi" horiz-adv-x="882" 
d="M827 496l-0.000976562 -495.999h-181v366h-108v-366h-179v366h-106v-366h-179v366h-51v130h50v48c0 30.667 5.66699 57.667 17 81s27 42.833 47 58.5s43.5 27.5 70.5 35.5s56.167 12 87.5 12c21.333 0 43 -1.66699 65 -5s43.667 -9.66602 65 -18.999
c19.333 16 42.333 28.167 69 36.5s55.334 12.5 86.001 12.5c15.333 0 31.5 -0.666992 48.5 -2s34.333 -4.33301 52 -9s35.167 -11.334 52.5 -20.001s34 -20.334 50 -35.001l-84 -123c-13.333 12.667 -27 21.667 -41 27s-31.667 8 -53 8c-14 0 -25.333 -2.16699 -34 -6.5
s-15.5 -9.5 -20.5 -15.5s-8.33301 -12.5 -10 -19.5s-2.5 -12.833 -2.5 -17.5v-47h289zM357.999 545.001c0 1.33301 0.166992 5.16797 0.5 11.501s0.5 10.166 0.5 11.499c-13.333 4 -28.333 6 -45 6c-21.333 0 -36.833 -6.33301 -46.5 -19s-14.5 -27 -14.5 -43v-16h105v49z
" />
    <glyph glyph-name="ffl" unicode="ffl" horiz-adv-x="905" 
d="M356 571c-12 4 -26.333 6 -43 6c-13.333 0 -24 -2.16699 -32 -6.5s-14.167 -9.5 -18.5 -15.5s-7.33301 -12.5 -9 -19.5s-2.5 -12.833 -2.5 -17.5v-21h105v74zM598 602c-13.333 0 -24.002 -2.16699 -32.002 -6.5s-14.167 -9.5 -18.5 -15.5s-7.33301 -12.333 -9 -19
s-2.5 -12.334 -2.5 -17.001v-47h70v-130h-70v-367h-180v367h-105v-367h-180v367h-47v130h47v47c0 30.667 5.66699 57.834 17 81.501s27 43.167 47 58.5s43.5 27 70.5 35s56.167 12 87.5 12c21.333 0 42.833 -1.5 64.5 -4.5s43.167 -9.16699 64.5 -18.5
c19.333 15.333 42.333 27.333 69 36s55.667 13 87 13c10 0 22.833 -0.166992 38.5 -0.5s34 -1.83301 55 -4.5s44.333 -6.83398 70 -12.501s53.5 -13.834 83.5 -24.501v-529c0 -11.333 2.5 -20.666 7.5 -27.999s14.833 -11 29.5 -11h16v-149h-71
c-32 0 -58.333 3.83301 -79 11.5s-37.167 18.667 -49.5 33s-21 31.833 -26 52.5s-7.5 44.334 -7.5 71.001v429c-5.33301 2.66699 -12.666 4.5 -21.999 5.5s-17.666 1.5 -24.999 1.5z" />
    <glyph glyph-name="ft" unicode="ft" horiz-adv-x="648" 
d="M534 366l-0.000976562 -163.999c0 -18.667 3.33301 -31.334 10 -38.001s18.667 -10 36 -10h30v-154h-83c-60 0 -104 14 -132 42s-42 71.667 -42 131v193l-99 1v-367h-180v367h-50v130h50v64c0 62 15.833 107 47.5 135s76.5 42 134.5 42h65v-150h-28
c-15.333 0 -25.666 -3.66699 -30.999 -11s-8 -18 -8 -32v-48h101v138h178v-138h75v-131h-74z" />
    <glyph glyph-name=".notdef" horiz-adv-x="460" 
d="M0 700h460v-700h-460v700zM323 95l-93 167l-92 -167h185zM323 605h-187l94 -165zM95 199l83 152l-83 153v-305zM365 199v304l-83 -154z" />
    <glyph glyph-name="space" unicode=" " horiz-adv-x="270" 
 />
    <glyph glyph-name="exclam" unicode="!" horiz-adv-x="332" 
d="M248 208h-162l-12 488h185zM76 0v153h182v-153h-182z" />
    <glyph glyph-name="quotedbl" unicode="&#x22;" horiz-adv-x="393" 
d="M217 445v251h131v-251h-131zM45 445v251h130v-251h-130z" />
    <glyph glyph-name="numbersign" unicode="#" horiz-adv-x="578" 
d="M30 309h87l13 82h-73v107h90l33 198h131l-32 -198h72l33 198h132l-32 -198h77v-107h-95l-13 -82h79v-105h-96l-32 -204h-134l33 204h-71l-32 -204h-134l33 204h-69v105zM249 309h72l13 82h-72z" />
    <glyph glyph-name="dollar" unicode="$" horiz-adv-x="543" 
d="M516 213c0 -63.333 -18.166 -113.837 -54.499 -151.504s-86.5 -59.167 -150.5 -64.5v-93h-67v93c-48 3.33301 -88.667 15.833 -122 37.5s-61.666 50.834 -84.999 87.501l120 106c36 -50.667 75 -76 117 -76c23.333 0 39.833 5.16699 49.5 15.5s14.5 22.833 14.5 37.5
c0 10 -1.83301 18.833 -5.5 26.5s-9.5 14.5 -17.5 20.5s-18.167 11.833 -30.5 17.5s-27.5 11.834 -45.5 18.501c-28 10.667 -53 22.167 -75 34.5s-40.5 26.5 -55.5 42.5s-26.333 34 -34 54s-11.5 43.667 -11.5 71c0 28 4.33301 54.167 13 78.5s21 45.666 37 63.999
s35 33.5 57 45.5s46.667 20 74 24v91h67v-89c42.667 -3.33301 79.667 -13 111 -29s58.666 -40 81.999 -72l-110 -119c-18 22.667 -36.667 38.334 -56 47.001s-37.333 13 -54 13c-15.333 0 -27.333 -4.16699 -36 -12.5s-13 -19.166 -13 -32.499
c0 -14.667 7.83301 -26.667 23.5 -36s40.5 -20.666 74.5 -33.999c35.333 -13.333 64.666 -27.333 87.999 -42s42 -30.5 56 -47.5s24 -35.833 30 -56.5s9 -44 9 -70z" />
    <glyph glyph-name="percent" unicode="%" horiz-adv-x="885" 
d="M836 122c0 -37.333 -13.498 -68.0029 -40.498 -92.0029s-63.5 -36 -109.5 -36c-22.667 0 -43.167 3.33301 -61.5 10s-34 15.834 -47 27.501s-23.167 25.334 -30.5 41.001s-11 32.834 -11 51.501v192c0 18.667 3.66699 35.834 11 51.501s17.666 29.167 30.999 40.5
s29.166 20.166 47.499 26.499s38.5 9.5 60.5 9.5c46 0 82.5 -12.167 109.5 -36.5s40.5 -55.5 40.5 -93.5v-192zM704.002 316.997c0 14.667 -6 22 -18 22c-12.667 0 -19 -7.33301 -19 -22v-197c0 -14 6.33301 -21 19 -21c12 0 18 7 18 21v197zM348.002 401.997
c0 -37.333 -13.498 -68.0029 -40.498 -92.0029s-63.5 -36 -109.5 -36c-22.667 0 -43.167 3.33301 -61.5 10s-34 15.834 -47 27.501s-23.167 25.334 -30.5 41.001s-11 32.834 -11 51.501v192c0 18.667 3.66699 35.834 11 51.501s17.666 29.167 30.999 40.5
s29.166 20.166 47.499 26.499s38.5 9.5 60.5 9.5c46 0 82.5 -12.167 109.5 -36.5s40.5 -55.5 40.5 -93.5v-192zM216.004 596.994c0 14.667 -6 22 -18 22c-12.667 0 -19 -7.33301 -19 -22v-197c0 -14 6.33301 -21 19 -21c12 0 18 7 18 21v197zM321.004 -17.0059h-131l370 730
h131z" />
    <glyph glyph-name="ampersand" unicode="&#x26;" horiz-adv-x="639" 
d="M400 40c-19.333 -15.333 -41.501 -26.832 -66.501 -34.499s-51.167 -11.5 -78.5 -11.5c-36 0 -66.667 5.33301 -92 16s-46.333 24.667 -63 42s-28.834 37.5 -36.501 60.5s-11.5 46.833 -11.5 71.5c0 38.667 8 75 24 109s44.333 65 85 93
c-14 18.667 -26.833 39.5 -38.5 62.5s-17.5 48.5 -17.5 76.5c0 52.667 17.5 95.167 52.5 127.5s85.167 48.5 150.5 48.5c13.333 0 28.5 -0.833008 45.5 -2.5s34.667 -5.66699 53 -12s36.5 -15.833 54.5 -28.5s34.333 -29.667 49 -51l-99 -97
c-21.333 20.667 -39.166 33.334 -53.499 38.001s-26.166 7 -35.499 7c-13.333 0 -23.666 -4.33301 -30.999 -13s-11 -18.667 -11 -30c0 -8.66699 4.33301 -20.834 13 -36.501s19.5 -33.167 32.5 -52.5l42 -60.5l42.5 -59.5c3.33301 10 6.16602 19.667 8.49902 29
s4.83301 20.666 7.5 33.999l148 -36c-4.66699 -28 -12.5 -58 -23.5 -90s-23.833 -60.667 -38.5 -86l111 -154h-196zM246.999 262.001c-7.33301 -7.33301 -13.502 -17.167 -18.502 -29.5s-7.5 -26.5 -7.5 -42.5c0 -15.333 3.83301 -27.5 11.5 -36.5
s18.834 -13.5 33.501 -13.5c18.667 0 36.334 7 53.001 21z" />
    <glyph glyph-name="quotesingle" unicode="'" horiz-adv-x="232" 
d="M50 445v251h130v-251h-130z" />
    <glyph glyph-name="parenleft" unicode="(" horiz-adv-x="382" 
d="M249 -143c-26.667 32 -51.3311 65.9951 -73.998 101.995s-42.334 73 -59.001 111s-29.834 77 -39.501 117s-14.5 80 -14.5 120c0 40.667 4.83301 80.834 14.5 120.501s22.667 78.334 39 116.001s35.333 73.834 57 108.501s44.834 67 69.501 97l115 -64
c-19.333 -29.333 -36.333 -59.666 -51 -90.999s-26.834 -63.166 -36.501 -95.499s-17 -64.333 -22 -96s-7.5 -62.167 -7.5 -91.5c0 -64.667 10.167 -130.167 30.5 -196.5s48.833 -127.5 85.5 -183.5z" />
    <glyph glyph-name="parenright" unicode=")" horiz-adv-x="382" 
d="M354 307c0 -40 -4.66309 -79.9971 -13.9961 -119.997s-22.333 -79 -39 -117s-36.334 -74.833 -59.001 -110.5s-47.334 -69.5 -74.001 -101.5l-108 73c37.333 55.333 66.166 116.333 86.499 183s30.5 132.334 30.5 197.001c0 29.333 -2.5 59.833 -7.5 91.5
s-12.5 63.667 -22.5 96s-22.333 64.166 -37 95.499s-31.667 61.666 -51 90.999l115 64c24.667 -30.667 48 -63.167 70 -97.5s41.167 -70.333 57.5 -108s29.166 -76.334 38.499 -116.001s14 -79.834 14 -120.501z" />
    <glyph glyph-name="asterisk" unicode="*" horiz-adv-x="468" 
d="M395 397l-107 -77.001l-52 88c-2.66699 -3.33301 -6.66699 -9.33301 -12 -18l-16.5 -27l-16 -26.5l-10.5 -17.5l-106 77l74 87c-4.66699 0.666992 -12 2.5 -22 5.5s-20.667 6 -32 9l-32 8.5c-10 2.66699 -17 4.33398 -21 5.00098l36 113l100 -41
c-0.666992 4 -1.5 11.167 -2.5 21.5s-2.16699 21 -3.5 32s-2.5 21.667 -3.5 32s-1.5 17.5 -1.5 21.5h139l-11 -107c4 2 10.833 4.83301 20.5 8.5s19.667 7.66699 30 12l29 12.5c9 4 15.167 6.66699 18.5 8l39 -113l-111 -27z" />
    <glyph glyph-name="plus" unicode="+" horiz-adv-x="543" 
d="M345 240v-159h-149v159h-161v137h161v156h149v-156h161v-137h-161z" />
    <glyph glyph-name="comma" unicode="," horiz-adv-x="309" 
d="M62 -163l34 161h-35v174h190v-164l-78 -171h-111z" />
    <glyph glyph-name="hyphen" unicode="-" horiz-adv-x="440" 
d="M51 190v147h346v-147h-346z" />
    <glyph glyph-name="period" unicode="." horiz-adv-x="304" 
d="M57 0v172h190v-172h-190z" />
    <glyph glyph-name="slash" unicode="/" horiz-adv-x="374" 
d="M152 -41h-151l219 766h152z" />
    <glyph glyph-name="zero" unicode="0" horiz-adv-x="543" 
d="M493 192c0 -29.333 -5.16602 -56 -15.499 -80s-24.833 -44.667 -43.5 -62s-41.334 -30.833 -68.001 -40.5s-56.334 -14.5 -89.001 -14.5s-62.334 4.83301 -89.001 14.5s-49.5 23.167 -68.5 40.5s-33.667 38 -44 62s-15.5 50.667 -15.5 80v311
c0 29.333 5.33301 56.166 16 80.499s25.5 45.166 44.5 62.499s41.833 30.833 68.5 40.5s56 14.5 88 14.5c32.667 0 62.334 -4.83301 89.001 -14.5s49.334 -23.167 68.001 -40.5s33.167 -38.166 43.5 -62.499s15.5 -51.166 15.5 -80.499v-311zM312.001 502
c0 31.333 -11.667 47 -35 47c-11.333 0 -20.166 -3.83301 -26.499 -11.5s-9.5 -19.5 -9.5 -35.5v-310c0 -16 3.16699 -27.5 9.5 -34.5s15.166 -10.5 26.499 -10.5c23.333 0 35 15 35 45v310z" />
    <glyph glyph-name="one" unicode="1" horiz-adv-x="543" 
d="M225 0v507l-97 -71v174l117 86h160v-696h-180z" />
    <glyph glyph-name="two" unicode="2" horiz-adv-x="543" 
d="M53 498c2.66699 32.667 10.001 61.668 22.001 87.001s27.5 46.666 46.5 63.999s41 30.333 66 39s51.833 13 80.5 13c66 0 118.167 -16.167 156.5 -48.5s57.5 -78.833 57.5 -139.5c0 -28 -4 -53.667 -12 -77s-20.333 -47.333 -37 -72l-156 -219h201v-145h-418v124l222 312
c6 9.33301 10.833 19.333 14.5 30s5.5 22.667 5.5 36c0 12.667 -2.5 23.5 -7.5 32.5s-14.167 13.5 -27.5 13.5c-11.333 0 -20.333 -5 -27 -15s-11.334 -30 -14.001 -60z" />
    <glyph glyph-name="three" unicode="3" horiz-adv-x="543" 
d="M410 359c16 -8 28.8271 -17.4951 38.4941 -28.4951s17.167 -23 22.5 -36s8.83301 -26.333 10.5 -40s2.5 -26.5 2.5 -38.5c0 -32.667 -4.16699 -62.5 -12.5 -89.5s-21.333 -50.333 -39 -70s-40.5 -34.834 -68.5 -45.501s-61.667 -16 -101 -16
c-29.333 0 -56.666 3.5 -81.999 10.5s-47.833 18.167 -67.5 33.5s-35.667 35.166 -48 59.499s-19.833 54.166 -22.5 89.499l87 11.5c28.667 3.66699 57.667 7.16699 87 10.5c0 -14.667 1.33301 -26.334 4 -35.001s6 -15.167 10 -19.5s8.5 -7 13.5 -8s9.83301 -1.5 14.5 -1.5
c9.33301 0 18.166 3.33301 26.499 10s12.5 20.667 12.5 42v18c0 28 -4.66699 48 -14 60s-23.666 18 -42.999 18h-52v128h56c21.333 0 35.5 7.33301 42.5 22s10.5 34.334 10.5 59.001c0 13.333 -3 24.166 -9 32.499s-14.667 12.5 -26 12.5c-4 0 -8.16699 -0.666992 -12.5 -2
s-8.33301 -4.16602 -12 -8.49902s-7 -11 -10 -20s-5.5 -21.5 -7.5 -37.5l-85.5 13.5l-85.5 12.5c2.66699 31.333 10.334 59.166 23.001 83.499s28.834 44.666 48.501 60.999s42.334 28.833 68.001 37.5s52.834 13 81.501 13c42.667 0 77.5 -6 104.5 -18
s48.333 -27.5 64 -46.5s26.5 -40.667 32.5 -65s9 -48.833 9 -73.5c0 -11.333 -1.16699 -23.5 -3.5 -36.5s-6.16602 -25.667 -11.499 -38s-12.5 -24 -21.5 -35s-20.5 -19.833 -34.5 -26.5v-3z" />
    <glyph glyph-name="four" unicode="4" horiz-adv-x="543" 
d="M471 384v-144h46v-144h-46v-96h-176v96h-266v120l183 480h173l-172 -456h82v144h176z" />
    <glyph glyph-name="five" unicode="5" horiz-adv-x="543" 
d="M493 273c0 -40.667 -2.82715 -77.9941 -8.49414 -111.994s-16.334 -63.333 -32.001 -88s-37.834 -43.834 -66.501 -57.501s-66 -20.5 -112 -20.5c-28 0 -54.667 3.33301 -80 10s-47.833 17.667 -67.5 33s-35.834 35.166 -48.501 59.499s-20 54.166 -22 89.499l175 27
c0 -16 1.5 -28.667 4.5 -38s6.5 -16.166 10.5 -20.499s8.16699 -7 12.5 -8s8.5 -1.5 12.5 -1.5c13.333 0 23 6.5 29 19.5s9 29.5 9 49.5v63c0 17.333 -2.66699 30.666 -8 39.999s-15 14 -29 14c-2 0 -7.33301 -1.33301 -16 -4s-17.334 -12.334 -26.001 -29.001h-153v397h399
v-144h-225v-86c10.667 4.66699 22.167 8.16699 34.5 10.5s23.5 3.5 33.5 3.5c33.333 0 61.166 -4.66699 83.499 -14s40.166 -22.833 53.499 -40.5s22.833 -39.334 28.5 -65.001s8.5 -54.834 8.5 -87.501z" />
    <glyph glyph-name="six" unicode="6" horiz-adv-x="543" 
d="M277 286c-13.333 0 -22.667 -6.5 -28 -19.5s-8 -29.833 -8 -50.5s2.5 -37.334 7.5 -50.001s14.5 -19 28.5 -19c15.333 0 25.333 6.33301 30 19s7 29.334 7 50.001s-2.66699 37.5 -8 50.5s-15 19.5 -29 19.5zM273.999 -5c-39.333 0 -72.668 5.83496 -100.001 17.502
s-49.333 27.167 -66 46.5s-28.667 41.666 -36 66.999s-11 51.666 -11 78.999c0 14 0.5 27.5 1.5 40.5s3.66699 27.833 8 44.5s10.833 35.834 19.5 57.501s20.334 48.167 35.001 79.5l127 269h190l-65 -138.5l-65 -138.5c3.33301 0.666992 8.33301 1 15 1
c21.333 0 42 -2.83301 62 -8.5s37.833 -15.667 53.5 -30s28.167 -33.833 37.5 -58.5s14 -56.334 14 -95.001c0 -34.667 -4.5 -66.334 -13.5 -95.001s-22.5 -53.167 -40.5 -73.5s-40.833 -36.166 -68.5 -47.499s-60.167 -17 -97.5 -17z" />
    <glyph glyph-name="seven" unicode="7" horiz-adv-x="543" 
d="M271 0h-179l202 552h-73v-80h-162v224h423v-131z" />
    <glyph glyph-name="eight" unicode="8" horiz-adv-x="543" 
d="M274 554c-15.333 0 -25.168 -7 -29.501 -21s-6.5 -30 -6.5 -48c0 -16 2.33301 -29.667 7 -41s14.667 -17 30 -17c10.667 0 19.334 4.66699 26.001 14s10 26.333 10 51c0 15.333 -2.33301 29.5 -7 42.5s-14.667 19.5 -30 19.5zM273.998 297
c-8 0 -14.833 -2.33105 -20.5 -6.99805s-10.167 -10.5 -13.5 -17.5s-5.66602 -15.167 -6.99902 -24.5s-2 -18.333 -2 -27c0 -20 2.83301 -38 8.5 -54s17.5 -24 35.5 -24c9.33301 0 16.666 2.33301 21.999 7s9.5 10.667 12.5 18s5 15.666 6 24.999s1.5 18.666 1.5 27.999
c0 19.333 -3 36.833 -9 52.5s-17.333 23.5 -34 23.5zM273.998 701.002c38 0 70.5039 -5.33594 97.5039 -16.0029s49.167 -25 66.5 -43s30.166 -39 38.499 -63s12.5 -49.333 12.5 -76c0 -12 -1.16699 -24.667 -3.5 -38s-6.16602 -26.333 -11.499 -39
s-12.833 -24.334 -22.5 -35.001s-21.834 -19.334 -36.501 -26.001v-2c15.333 -6.66699 28.166 -15.334 38.499 -26.001s18.666 -22.5 24.999 -35.5s10.833 -26.667 13.5 -41s4 -28.166 4 -41.499c0 -72.667 -19.667 -128.167 -59 -166.5s-93 -57.5 -161 -57.5
c-36.667 0 -69 5.33301 -97 16s-51.333 25.5 -70 44.5s-32.834 41.167 -42.501 66.5s-14.5 53 -14.5 83c0 12.667 1 26.334 3 41.001s5.66699 29 11 43s13.166 27.333 23.499 40s23.5 23.334 39.5 32.001v3c-14 6.66699 -25.5 15.334 -34.5 26.001
s-16.167 22.334 -21.5 35.001s-9 25.834 -11 39.501s-3 26.5 -3 38.5c0 28 5.16699 54 15.5 78s24.833 45 43.5 63s41.334 32 68.001 42s56 15 88 15z" />
    <glyph glyph-name="nine" unicode="9" horiz-adv-x="543" 
d="M279 410c13.333 0 22.667 6.5 28 19.5s8 29.833 8 50.5s-2.5 37.334 -7.5 50.001s-14.5 19 -28.5 19c-15.333 0 -25.333 -6.33301 -30 -19s-7 -29.334 -7 -50.001s2.66699 -37.5 8 -50.5s15 -19.5 29 -19.5zM282.001 701c39.333 0 72.668 -5.83496 100.001 -17.502
s49.333 -27.167 66 -46.5s28.667 -41.666 36 -66.999s11 -51.666 11 -78.999c0 -14 -0.5 -27.5 -1.5 -40.5s-3.66699 -27.833 -8 -44.5s-10.833 -35.834 -19.5 -57.501s-20.334 -48.167 -35.001 -79.5l-127 -269h-190l65 138.5l65 138.5
c-3.33301 -0.666992 -8.33301 -1 -15 -1c-21.333 0 -42 2.83301 -62 8.5s-37.833 15.667 -53.5 30s-28.167 33.833 -37.5 58.5s-14 56.334 -14 95.001c0 34.667 4.5 66.334 13.5 95.001s22.5 53.167 40.5 73.5s40.833 36.166 68.5 47.499s60.167 17 97.5 17z" />
    <glyph glyph-name="colon" unicode=":" horiz-adv-x="310" 
d="M61 0v172h190v-172h-190zM60 277v172h190v-172h-190z" />
    <glyph glyph-name="semicolon" unicode=";" horiz-adv-x="310" 
d="M60 277v172h190v-172h-190zM62 -163l34 161h-35v174h190v-164l-78 -171h-111z" />
    <glyph glyph-name="less" unicode="&#x3c;" horiz-adv-x="543" 
d="M29 244v124l475 212v-158l-273 -117l271 -115v-159z" />
    <glyph glyph-name="equal" unicode="=" horiz-adv-x="543" 
d="M40 331v132h459v-132h-459zM40 137v133h459v-133h-459z" />
    <glyph glyph-name="greater" unicode="&#x3e;" horiz-adv-x="543" 
d="M32 189l271 116l-136.5 58l-136.5 59v158l474 -213v-123l-472 -213v158z" />
    <glyph glyph-name="question" unicode="?" horiz-adv-x="522" 
d="M38 492c7.33301 70 30.666 122.332 69.999 156.999s91 52 155 52c69.333 0 123 -16.167 161 -48.5s57 -77.833 57 -136.5c0 -32 -6.5 -60 -19.5 -84s-27.167 -45.667 -42.5 -65l-30 -46.5c-8 -13 -14.5 -24.667 -19.5 -35s-8.5 -20.333 -10.5 -30s-3 -20.5 -3 -32.5v-22
h-177v45c0 11.333 0.833008 22.333 2.5 33s4.5 21.5 8.5 32.5s9.83301 22.667 17.5 35s17.5 26.166 29.5 41.499l24 38c6.66699 10.667 12 20.167 16 28.5s6.83301 16.333 8.5 24s2.5 15.834 2.5 24.501c0 14 -2.66699 25 -8 33s-13.666 12 -24.999 12
c-10.667 0 -20.167 -5.16699 -28.5 -15.5s-13.833 -30.166 -16.5 -59.499zM178 -0.000976562v153h180v-153h-180z" />
    <glyph glyph-name="at" unicode="@" horiz-adv-x="913" 
d="M631 282c0 -17.333 3.33594 -29.4971 10.0029 -36.4971s15 -10.5 25 -10.5c23.333 0 40.333 12.5 51 37.5s16 62.833 16 113.5c0 38.667 -6.16699 74 -18.5 106s-29.833 59.5 -52.5 82.5s-50 40.667 -82 53s-68 18.5 -108 18.5c-46.667 0 -88.167 -8.33301 -124.5 -25
s-67 -39.334 -92 -68.001s-44 -61.834 -57 -99.501s-19.5 -77.5 -19.5 -119.5c0 -47.333 7.16699 -90.166 21.5 -128.499s34.5 -70.833 60.5 -97.5s57.167 -47.167 93.5 -61.5s76.166 -21.5 119.499 -21.5c40.667 0 77.667 3.83301 111 11.5s68.666 20.167 105.999 37.5
l42 -105c-44 -18.667 -85.833 -32.667 -125.5 -42s-82.5 -14 -128.5 -14c-60 0 -115.667 8.83301 -167 26.5s-95.666 44.167 -132.999 79.5s-66.5 79.333 -87.5 132s-31.5 114 -31.5 184c0 60 9.83301 115.667 29.5 167s47.5 95.833 83.5 133.5s79.167 67.167 129.5 88.5
s106.5 32 168.5 32c61.333 0 115.666 -9.33301 162.999 -28s87.333 -44.334 120 -77.001s57.334 -71.5 74.001 -116.5s25 -93.833 25 -146.5c0 -84.667 -19.333 -150.834 -58 -198.501s-92.334 -71.5 -161.001 -71.5c-32 0 -58.5 6 -79.5 18s-36.5 27.667 -46.5 47
c-11.333 -15.333 -27.5 -28.833 -48.5 -40.5s-45.5 -17.5 -73.5 -17.5c-38.667 0 -68.167 10.667 -88.5 32s-30.5 53 -30.5 95c0 20 3.16699 38.333 9.5 55s16 31.167 29 43.5s29.5 22 49.5 29s44 10.5 72 10.5h55v24c0 7.33301 -2.66699 14.5 -8 21.5
s-15.333 10.5 -30 10.5c-13.333 0 -25 -2.16699 -35 -6.5s-20 -13.833 -30 -28.5l-95 69c17.333 32.667 41.333 55.5 72 68.5s65 19.5 103 19.5c52.667 0 94.667 -12.333 126 -37s46.666 -64.667 45.999 -120v-129zM419.003 271.003c0 -8 1.83301 -14.5 5.5 -19.5
s11.167 -7.5 22.5 -7.5c9.33301 0 17.5 2.83301 24.5 8.5s10.5 14.5 10.5 26.5v23h-29c-22.667 0 -34 -10.333 -34 -31z" />
    <glyph glyph-name="A" unicode="A" horiz-adv-x="618" 
d="M388 123h-159l-27 -123h-194l196 696h211l194 -696h-193zM306 482l-26 -131l-16 -78h89l-16 81l-25 128h-6z" />
    <glyph glyph-name="B" unicode="B" horiz-adv-x="584" 
d="M341 490c0 22 -6.50098 36.667 -19.501 44s-28.833 11 -47.5 11h-37v-113h38c20.667 0 36.834 4.16699 48.501 12.5s17.5 23.5 17.5 45.5zM349.999 221c0 26 -7.66895 43.667 -23.002 53s-34.666 14 -57.999 14h-32v-137h32c24.667 0 44.334 4.83301 59.001 14.5
s22 28.167 22 55.5zM313.997 696c74 0 129 -17.166 165 -51.499s54 -82.166 54 -143.499c0 -30.667 -6.16699 -58.334 -18.5 -83.001s-34.5 -43.334 -66.5 -56.001c18 -5.33301 32.833 -13.5 44.5 -24.5s21.167 -23.167 28.5 -36.5s12.5 -27.666 15.5 -42.999
s4.5 -30.333 4.5 -45c0 -68.667 -19.667 -121.334 -59 -158.001s-92 -55 -158 -55h-274v696h264z" />
    <glyph glyph-name="C" unicode="C" horiz-adv-x="555" 
d="M283 704c36.667 0 68.8262 -4.83398 96.4932 -14.501s51.334 -23 71.001 -40s35.167 -37.167 46.5 -60.5s19.333 -48.666 24 -75.999l-170 -43c-5.33301 28 -13.333 47.667 -24 59s-23.667 17 -39 17c-14 0 -25 -4.16699 -33 -12.5s-13.667 -18.5 -17 -30.5
c-1.33301 -8 -2.33301 -16.333 -3 -25s-1 -17.667 -1 -27v-207c0 -19.333 1.33301 -36.666 4 -51.999c2.66699 -12 7.83398 -21.833 15.501 -29.5s18.834 -11.5 33.501 -11.5s27.834 5.66699 39.501 17s20.167 31.333 25.5 60l173 -41
c-5.33301 -29.333 -14.166 -55.833 -26.499 -79.5s-28.166 -43.834 -47.499 -60.501s-42.5 -29.667 -69.5 -39s-58.167 -14 -93.5 -14c-72.667 0 -129 16.833 -169 50.5s-63 81.167 -69 142.5c-2 30 -3 60.333 -3 91v170c0 19.333 1 39 3 59
c2.66699 28.667 9.83398 55 21.501 79s27.334 44.667 47.001 62s43.167 31 70.5 41s58.666 15 93.999 15z" />
    <glyph glyph-name="D" unicode="D" horiz-adv-x="588" 
d="M354 398c0 19.333 -0.5 38.5 -1.5 57.5s-3.16699 33.167 -6.5 42.5c-8.66699 29.333 -31.667 44 -69 44h-39v-389h40c29.333 0 49.333 8.83301 60 26.5s16 42.167 16 73.5v145zM313 696c54 0 98.334 -8.83398 133.001 -26.501s59.667 -46.167 75 -85.5
c10 -25.333 16 -57.5 18 -96.5s3 -83.5 3 -133.5c0 -52 -1 -97.5 -3 -136.5s-8 -71.167 -18 -96.5c-8.66699 -22 -20.5 -40.833 -35.5 -56.5s-32.333 -28.167 -52 -37.5s-40.834 -16.166 -63.501 -20.499s-46 -6.5 -70 -6.5h-249v696h262z" />
    <glyph glyph-name="E" unicode="E" horiz-adv-x="532" 
d="M50 0v696h447v-156h-258v-107h217v-156h-217v-120h258v-157h-447z" />
    <glyph glyph-name="F" unicode="F" horiz-adv-x="524" 
d="M239 540v-113h222v-158h-222v-269h-189v696h447v-156h-258z" />
    <glyph glyph-name="G" unicode="G" horiz-adv-x="578" 
d="M292 -6c-74.667 0 -132.335 17.3301 -173.002 51.9971s-63.667 83.334 -69 146.001c-2 26 -3 52.333 -3 79v156c0 26 1 52.667 3 80c3.33301 28.667 11 55 23 79s28.167 44.667 48.5 62s44.333 31 72 41s59.167 15 94.5 15c36.667 0 68.834 -4.83301 96.501 -14.5
s51.167 -23 70.5 -40s34.833 -37.167 46.5 -60.5s20.167 -48.333 25.5 -75l-171 -43c-5.33301 28 -13.833 47.5 -25.5 58.5s-24.834 16.5 -39.501 16.5c-15.333 0 -27.333 -4.16699 -36 -12.5s-14.667 -18.5 -18 -30.5c-1.33301 -7.33301 -2.16602 -15.166 -2.49902 -23.499
s-0.5 -16.833 -0.5 -25.5v-218c0 -8 0.333008 -16.167 1 -24.5s1.66699 -16.166 3 -23.499c3.33301 -12 9.33301 -21.833 18 -29.5s20.334 -11.5 35.001 -11.5c22.667 0 38.5 6.5 47.5 19.5s13.5 27.833 13.5 44.5v49h-60v134h245v-159c0 -18.667 -1 -36.334 -3 -53.001
c-3.33301 -28.667 -11.333 -54.667 -24 -78s-29.5 -43.166 -50.5 -59.499s-45.667 -28.833 -74 -37.5s-59.5 -13 -93.5 -13z" />
    <glyph glyph-name="H" unicode="H" horiz-adv-x="593" 
d="M356 0v272h-117v-272h-189v696h189v-264h117v264h187v-696h-187z" />
    <glyph glyph-name="I" unicode="I" horiz-adv-x="309" 
d="M60 0v696h189v-696h-189z" />
    <glyph glyph-name="J" unicode="J" horiz-adv-x="499" 
d="M444 212c0 -39.333 -6.33203 -72.668 -18.999 -100.001s-29.834 -49.666 -51.501 -66.999s-46.5 -30 -74.5 -38s-57.333 -12 -88 -12c-20 0 -39.5 1.33301 -58.5 4s-37.167 7.5 -54.5 14.5s-34 16.833 -50 29.5s-31.333 29 -46 49l115 116c16.667 -18.667 32 -31 46 -37
s26.667 -9 38 -9c18 0 31.833 5.83301 41.5 17.5s14.5 26.167 14.5 43.5v473h187v-484z" />
    <glyph glyph-name="K" unicode="K" horiz-adv-x="617" 
d="M395 412l108.5 -206.5l108.5 -205.5h-213l-59.5 123.5l-59.5 124.5l-42 -55v-193h-188v696h188v-212h6l56 79l93 133h206z" />
    <glyph glyph-name="L" unicode="L" horiz-adv-x="517" 
d="M50 0v696h189v-539h258v-157h-447z" />
    <glyph glyph-name="M" unicode="M" horiz-adv-x="745" 
d="M374 364l63 159l69 173h189v-696h-183v293h-4l-37 -103l-26 -78h-144l-28 80l-36 104h-4v-296h-183v696h186l65 -164l67 -168h6z" />
    <glyph glyph-name="N" unicode="N" horiz-adv-x="622" 
d="M389 383v313h183v-696h-164l-92 170l-77 148h-5v-318h-184v696h165l90 -160l79 -153h5z" />
    <glyph glyph-name="O" unicode="O" horiz-adv-x="582" 
d="M346 433c0 12 -0.166992 23.665 -0.5 34.998s-1.5 22.666 -3.5 33.999c-2.66699 13.333 -8.66699 23.833 -18 31.5s-20.666 11.5 -33.999 11.5s-24.833 -4 -34.5 -12s-15.5 -18.667 -17.5 -32c-1.33301 -11.333 -2.33301 -22.666 -3 -33.999s-1 -22.666 -1 -33.999v-171
c0 -12 0.333008 -23.667 1 -35s1.66699 -22.666 3 -33.999c2.66699 -14 8.66699 -24.333 18 -31s20.666 -10 33.999 -10c37.333 0 56 22.333 56 67v214zM534 274.998c0 -30 -1.67188 -59.668 -5.00488 -89.001s-11.666 -56.666 -24.999 -81.999
c-18 -35.333 -45.167 -62.5 -81.5 -81.5s-80.5 -28.5 -132.5 -28.5c-54 0 -99.167 9 -135.5 27s-63.166 44 -80.499 78c-13.333 24.667 -21.166 53 -23.499 85s-3.5 62.333 -3.5 91v148c0 16.667 0.666992 33 2 49s3.33301 31.667 6 47
c8.66699 56.667 32.834 101.667 72.501 135s93.834 50 162.501 50c41.333 0 77.333 -5.66699 108 -17s56 -27.5 76 -48.5s35 -46.167 45 -75.5s15 -62 15 -98v-190z" />
    <glyph glyph-name="P" unicode="P" horiz-adv-x="561" 
d="M536 478c0 -34 -5.33203 -64.501 -15.999 -91.501s-25.834 -50.167 -45.501 -69.5s-43.5 -34.166 -71.5 -44.499s-59 -15.5 -93 -15.5h-73v-257h-187v696h259c34 0 64.833 -4.16699 92.5 -12.5s51.5 -21.5 71.5 -39.5s35.5 -40.667 46.5 -68s16.5 -60 16.5 -98z
M352.001 478.999c0 22.667 -5.66797 39.333 -17.001 50s-26.666 16 -45.999 16h-52v-137h53c16.667 0 31.167 5.5 43.5 16.5s18.5 29.167 18.5 54.5z" />
    <glyph glyph-name="Q" unicode="Q" horiz-adv-x="590" 
d="M534 275c0 -36.667 -3.00098 -70.333 -9.00098 -101c-2.66699 -17.333 -7.33398 -34 -14.001 -50l76 -67l-81 -91l-72 64c-37.333 -24 -85.333 -36 -144 -36c-71.333 0 -126.333 16.5 -165 49.5s-62 77.833 -70 134.5c-3.33301 15.333 -5.5 31 -6.5 47
s-1.5 32.667 -1.5 50v148c0 16.667 0.666992 33 2 49s3.33301 31.667 6 47c8.66699 56.667 32.834 101.667 72.501 135s93.834 50 162.501 50c41.333 0 77.333 -5.66699 108 -17s56 -27.5 76 -48.5s35 -46.167 45 -75.5s15 -62 15 -98v-190zM328.999 286.001l17 -15.002v165
c0 12 -0.166992 23.667 -0.5 35s-1.5 22.666 -3.5 33.999c-2.66699 13.333 -8.66699 23.333 -18 30s-20.666 10 -33.999 10s-24.833 -3.5 -34.5 -10.5s-15.5 -17.167 -17.5 -30.5c-1.33301 -11.333 -2.33301 -22.666 -3 -33.999s-1 -22.666 -1 -33.999v-174
c0 -12 0.333008 -23.667 1 -35s1.66699 -22.666 3 -33.999c2.66699 -14 8.66699 -24.333 18 -31s20.666 -10 33.999 -10h7l-46 42z" />
    <glyph glyph-name="R" unicode="R" horiz-adv-x="583" 
d="M359 0l-86.001 264.001h-37v-264h-186v696h269c66.667 0 119.834 -17.667 159.501 -53s59.5 -89 59.5 -161c0 -40.667 -7.83301 -75.834 -23.5 -105.501s-40.5 -54.167 -74.5 -73.5l111 -303h-192zM347.999 479.001c0 21.333 -5.33398 37.667 -16.001 49s-25 17 -43 17
h-53v-130h55c6.66699 0 13.334 1 20.001 3s12.667 5.5 18 10.5s9.83301 11.667 13.5 20s5.5 18.5 5.5 30.5z" />
    <glyph glyph-name="S" unicode="S" horiz-adv-x="562" 
d="M529 212c0 -68.667 -22.335 -122.003 -67.002 -160.003s-105.667 -57 -183 -57c-59.333 0 -108.833 11 -148.5 33s-73.5 53.333 -101.5 94l126 105c19.333 -26 39.166 -45 59.499 -57s41.166 -18 62.499 -18c24 0 41 5 51 15s15 22.333 15 37
c0 10 -1.83301 18.833 -5.5 26.5s-9.66699 14.5 -18 20.5s-19 11.833 -32 17.5s-28.833 11.834 -47.5 18.501c-29.333 10.667 -55.5 22.334 -78.5 35.001s-42.333 26.834 -58 42.501s-27.5 33.667 -35.5 54s-12 44.166 -12 71.499c0 30.667 5.66699 59.167 17 85.5
s27 49 47 68s43.833 33.833 71.5 44.5s58.167 16 91.5 16c53.333 0 98.833 -8 136.5 -24s69.834 -42 96.501 -78l-115 -118c-18.667 22 -38.167 37.333 -58.5 46s-39.166 13 -56.499 13c-15.333 0 -27.5 -4 -36.5 -12s-13.5 -18.667 -13.5 -32c0 -14.667 8 -26.667 24 -36
s42 -20.666 78 -33.999c36.667 -13.333 67.334 -27.333 92.001 -42s44.334 -30.667 59.001 -48s25 -36.333 31 -57s9 -44 9 -70z" />
    <glyph glyph-name="T" unicode="T" horiz-adv-x="508" 
d="M348 540v-540h-188v540h-147v156h482v-156h-147z" />
    <glyph glyph-name="U" unicode="U" horiz-adv-x="591" 
d="M541 231c0 -34 -5.16699 -65.5 -15.5 -94.5s-25.666 -54 -45.999 -75s-46 -37.333 -77 -49s-67.5 -17.5 -109.5 -17.5s-78.167 5.83301 -108.5 17.5s-55.5 27.834 -75.5 48.501s-34.833 45.5 -44.5 74.5s-14.5 60.833 -14.5 95.5v465h187v-474
c0 -24.667 5.33301 -42.334 16 -53.001s25 -16 43 -16c17.333 0 31.166 6.33301 41.499 19s15.5 29.667 15.5 51v473h188v-465z" />
    <glyph glyph-name="V" unicode="V" horiz-adv-x="602" 
d="M399 696h193l-184 -696h-213l-93 348l-92 348h195l53 -257l41 -210h5l41 211z" />
    <glyph glyph-name="W" unicode="W" horiz-adv-x="810" 
d="M404 348l-35.999 -170l-39 -178h-189l-130 696h190c5.33301 -42 10.333 -84 15 -126s9.66699 -84 15 -126l18 -137h4c4.66699 23.333 9.66699 46.5 15 69.5s10.333 46.167 15 69.5c7.33301 42 15.166 83.667 23.499 125s16.166 83 23.499 125h157l46 -253l27 -133h4
c3.33301 22 6.33301 44 9 66l8 66l29 254h191l-130 -696h-190c-5.33301 30 -11.166 59.833 -17.499 89.5l-19.5 89.5l-34 169h-5z" />
    <glyph glyph-name="X" unicode="X" horiz-adv-x="605" 
d="M304 524l75 172h202l-180 -337l192 -359h-203l-83 195h-6l-88 -195h-202l190 359l-178 337h202l73 -172h6z" />
    <glyph glyph-name="Y" unicode="Y" horiz-adv-x="571" 
d="M287 446l16 49l16 49l46 152h194l-182 -433v-263h-186v263l-182 433h196l23.5 -76l22.5 -76l33 -98h3z" />
    <glyph glyph-name="Z" unicode="Z" horiz-adv-x="508" 
d="M30 0v143l243 399h-233v154h438v-140l-243 -399h243v-157h-448z" />
    <glyph glyph-name="bracketleft" unicode="[" horiz-adv-x="341" 
d="M61 -98v796h249v-115h-76v-565h76v-116h-249z" />
    <glyph glyph-name="backslash" unicode="\" horiz-adv-x="374" 
d="M2 725h152l219 -766h-151z" />
    <glyph glyph-name="bracketright" unicode="]" horiz-adv-x="341" 
d="M31 -98v116h76v565h-76v115h249v-796h-249z" />
    <glyph glyph-name="asciicircum" unicode="^" horiz-adv-x="547" 
d="M267 507c-4 -10 -9.66699 -26.168 -17 -48.501l-23 -70.5l-22.5 -70.5c-7 -22.333 -12.5 -38.166 -16.5 -47.499h-169l176 425h153l176 -426h-168l-81 238h-8z" />
    <glyph glyph-name="underscore" unicode="_" horiz-adv-x="500" 
d="M0 -169v110h499v-110h-499z" />
    <glyph glyph-name="grave" unicode="`" horiz-adv-x="451" 
d="M262 535l-135 201l132 65l99 -220z" />
    <glyph glyph-name="a" unicode="a" horiz-adv-x="503" 
d="M257 510c62.667 0 112.667 -14.502 150 -43.502s56 -76.167 56 -141.5v-325h-176v39h-4c-15.333 -15.333 -32.833 -27 -52.5 -35s-39.834 -12 -60.501 -12c-45.333 0 -80 12 -104 36s-36 61 -36 111c0 22.667 3.66699 43.834 11 63.501s18.666 36.834 33.999 51.501
s34.833 26 58.5 34s51.834 12 84.501 12h66v28c0 9.33301 -2.66699 18 -8 26s-17.666 12 -36.999 12c-16.667 0 -30.834 -2.33301 -42.501 -7s-23.5 -15.667 -35.5 -33l-110 81c19.333 38 46.833 64.667 82.5 80s76.834 23 123.501 23zM208 159.998
c0 -9.33301 2.33398 -17.333 7.00098 -24s13.667 -10 27 -10c11.333 0 21.166 3.5 29.499 10.5s12.5 17.5 12.5 31.5v30h-35c-12.667 0 -22.667 -3.5 -30 -10.5s-11 -16.167 -11 -27.5z" />
    <glyph glyph-name="b" unicode="b" horiz-adv-x="520" 
d="M265 355c-10 0 -17.6709 -3.17285 -23.0039 -9.50586s-9.16602 -14.666 -11.499 -24.999s-3.66602 -22.166 -3.99902 -35.499s-0.5 -26.666 -0.5 -39.999c0 -14 0.333008 -27.167 1 -39.5s2.33398 -23.166 5.00098 -32.499s6.5 -16.666 11.5 -21.999s11.833 -8 20.5 -8
c14 0 24.167 7.83301 30.5 23.5s9.5 42.834 9.5 81.501s-3.16699 66.167 -9.5 82.5s-16.166 24.5 -29.499 24.5zM223.996 465.994c0.666992 -0.666992 1.66699 -1.00098 3 -1.00098c15.333 15.333 32.833 26 52.5 32s36.5 9 50.5 9c34 0 61.333 -6.16699 82 -18.5
s36.5 -29.666 47.5 -51.999s18.333 -48.833 22 -79.5s5.5 -64 5.5 -100c0 -40 -2.16699 -76.167 -6.5 -108.5s-12.5 -60 -24.5 -83s-28.833 -40.667 -50.5 -53s-49.5 -18.5 -83.5 -18.5c-6 0 -13.167 0.5 -21.5 1.5s-17.166 3 -26.499 6s-18.333 7.33301 -27 13
s-16.334 13.5 -23.001 23.5h-4v-37h-178v732h183c0 -44.667 -0.166992 -89.167 -0.5 -133.5s-0.5 -88.5 -0.5 -132.5z" />
    <glyph glyph-name="c" unicode="c" horiz-adv-x="468" 
d="M248 508c50 0 92.4951 -11.835 127.495 -35.502s58.167 -56.5 69.5 -98.5l-145 -64c-3.33301 18 -9.16602 30.5 -17.499 37.5s-16.5 10.5 -24.5 10.5s-15 -1.5 -21 -4.5s-11 -8.5 -15 -16.5s-6.83301 -19 -8.5 -33s-2.5 -32.333 -2.5 -55c0 -42 3.66699 -70.333 11 -85
c4 -6.66699 8.66699 -11.667 14 -15s13 -5 23 -5c8 0 16.833 3.83301 26.5 11.5s17.834 20.5 24.501 38.5l140 -63c-19.333 -48.667 -46.666 -83.667 -81.999 -105s-77.333 -32 -126 -32s-88.667 10.333 -120 31s-53.666 47.334 -66.999 80.001
c-7.33301 17.333 -13 39 -17 65s-6 52.333 -6 79c0 30 2.33301 58.833 7 86.5s11.334 50.167 20.001 67.5c16.667 32.667 40.167 58.334 70.5 77.001s69.833 28 118.5 28z" />
    <glyph glyph-name="d" unicode="d" horiz-adv-x="520" 
d="M257 355c-16 0 -26.833 -9.99902 -32.5 -29.999s-8.5 -47 -8.5 -81c0 -38 2.83301 -64.333 8.5 -79s15.834 -22 30.501 -22c16 0 26.833 8.66699 32.5 26s8.5 44.666 8.5 81.999c0 24 -1 43 -3 57s-4.83301 24.5 -8.5 31.5s-7.83398 11.333 -12.501 13
s-9.66699 2.5 -15 2.5zM292 472.001c0.666992 0.666992 1.66699 0.998047 3 0.998047v259h182v-732h-177v41h-4c-7.33301 -10 -16 -18.167 -26 -24.5s-20.167 -11.166 -30.5 -14.499s-20 -5.66602 -29 -6.99902s-16.5 -2 -22.5 -2c-34 0 -61.333 5.83301 -82 17.5
s-36.5 28.5 -47.5 50.5s-18.167 48.667 -21.5 80s-5 67 -5 107c0 34 1.83301 66.5 5.5 97.5s11.167 58.5 22.5 82.5s27.5 43 48.5 57s48.5 21 82.5 21c14 0 30.5 -2 49.5 -6s36.167 -13.333 51.5 -28z" />
    <glyph glyph-name="e" unicode="e" horiz-adv-x="494" 
d="M257 -7c-54 0 -98.334 10.168 -133.001 30.501s-58.667 48.5 -72 84.5c-7.33301 19.333 -12.333 40.833 -15 64.5s-4 48.167 -4 73.5c0 34 3.33301 65.5 10 94.5s16.334 54.167 29.001 75.5c16.667 28 39.834 50.333 69.501 67s67.5 25 113.5 25
c60.667 0 108 -14 142 -42s54.333 -66.333 61 -115c2.66699 -15.333 4.5 -31.5 5.5 -48.5s1.5 -34.167 1.5 -51.5v-36h-253c0 -30 3.83301 -50.667 11.5 -62s20.167 -17 37.5 -17c7.33301 0 15.833 2.66699 25.5 8s20.167 18 31.5 38l136 -72
c-16.667 -34.667 -40.334 -62.834 -71.001 -84.501s-72.667 -32.5 -126 -32.5zM252.999 368.001c-22.667 0 -35.001 -20.333 -37.001 -61h74c-0.666992 12.667 -2 23.5 -4 32.5s-5.66699 15.833 -11 20.5c-5.33301 5.33301 -12.666 8 -21.999 8z" />
    <glyph glyph-name="f" unicode="f" horiz-adv-x="359" 
d="M254 367l-0.000976562 -367h-180v367h-50v130h50v52c0 62 15.833 107 47.5 135s76.5 42 134.5 42h84v-150h-47c-15.333 0 -25.666 -3.5 -30.999 -10.5s-8 -17.5 -8 -31.5v-37h85v-130h-85z" />
    <glyph glyph-name="g" unicode="g" horiz-adv-x="520" 
d="M254 164c8.66699 0 15.667 2.33398 21 7.00098s9.33301 11.167 12 19.5s4.33398 17.833 5.00098 28.5s1 22 1 34c0 14 -0.166992 27.167 -0.5 39.5s-1.5 23.166 -3.5 32.499s-5.33301 16.666 -10 21.999s-11.667 8 -21 8c-15.333 0 -26.333 -7.66699 -33 -23
s-10 -42.666 -10 -81.999c0 -33.333 3.16699 -56 9.5 -68s16.166 -18 29.499 -18zM477 17.001c0 -71.333 -17.834 -126.998 -53.501 -166.998s-93.167 -60 -172.5 -60c-49.333 0 -89.833 7.66699 -121.5 23s-57.5 36.666 -77.5 63.999l108 106
c16.667 -17.333 31.5 -28.5 44.5 -33.5s23.5 -7.5 31.5 -7.5c23.333 0 39.333 7 48 21s13 32.667 13 56v34c-0.666992 0.666992 -1.66699 1 -3 1c-15.333 -15.333 -33.166 -26 -53.499 -32s-37.5 -9 -51.5 -9c-33.333 0 -60.166 6 -80.499 18s-36.166 28.667 -47.499 50
s-19 46.666 -23 75.999s-6 61.333 -6 96c0 38 2.33301 72.5 7 103.5s13.167 57.5 25.5 79.5s29.166 39 50.499 51s48.666 18 81.999 18c6 0 13.167 -0.5 21.5 -1.5s17.166 -3 26.499 -6s18.333 -7.33301 27 -13s16.334 -13.5 23.001 -23.5h4v37h178v-481z" />
    <glyph glyph-name="h" unicode="h" horiz-adv-x="526" 
d="M226 454c20 22 41.168 36.5 63.501 43.5s40.833 10.5 55.5 10.5c26 0 48 -3.66699 66 -11s32.5 -17.833 43.5 -31.5s19 -30.167 24 -49.5s7.5 -41 7.5 -65v-351h-182v290c0 16.667 -2.83301 29.5 -8.5 38.5s-15.834 13.5 -30.501 13.5s-25.167 -5.5 -31.5 -16.5
s-9.5 -23.167 -9.5 -36.5v-289h-181v732h179v-277z" />
    <glyph glyph-name="i" unicode="i" horiz-adv-x="291" 
d="M55 0v497h181v-497h-181zM55 569v142h181v-142h-181z" />
    <glyph glyph-name="j" unicode="j" horiz-adv-x="296" 
d="M60 569v142h181v-142h-181zM240 -39c0 -50.667 -14.833 -90.666 -44.5 -119.999s-75.834 -44 -138.501 -44h-74v152h29c16.667 0 28.834 4.16699 36.501 12.5s11.5 23.166 11.5 44.499v491h180v-536z" />
    <glyph glyph-name="k" unicode="k" horiz-adv-x="545" 
d="M228 373l94 123h207l-162 -191l170 -305h-206l-82 165l-26 -31v-134h-180v726h180l1 -352z" />
    <glyph glyph-name="l" unicode="l" horiz-adv-x="315" 
d="M216 -2c-31.333 0 -57.333 3.83105 -78 11.498s-37.167 18.667 -49.5 33s-21 31.833 -26 52.5s-7.5 44.334 -7.5 71.001v561h180v-541c0 -11.333 2.5 -20.666 7.5 -27.999s14.833 -11 29.5 -11h16v-149h-72z" />
    <glyph glyph-name="m" unicode="m" horiz-adv-x="768" 
d="M225 450c20 22.667 41.167 38.001 63.5 46.001s40.5 12 54.5 12c28 0 51.833 -5.33301 71.5 -16s34.5 -25.334 44.5 -44.001c13.333 13.333 26.333 24 39 32s24.5 14 35.5 18s21 6.66699 30 8s16.5 2 22.5 2c26.667 0 49.167 -3.66699 67.5 -11s33 -17.833 44 -31.5
s18.833 -30.167 23.5 -49.5s7 -41 7 -65v-351h-181v288c0 16.667 -2.16699 29.5 -6.5 38.5s-13.833 13.5 -28.5 13.5c-12.667 0 -21.5 -4.5 -26.5 -13.5s-8.16699 -19.833 -9.5 -32.5v-294h-181v288c0 16.667 -2.16699 29.5 -6.5 38.5s-13.833 13.5 -28.5 13.5
c-14 0 -23.5 -5.5 -28.5 -16.5s-7.5 -23.167 -7.5 -36.5v-287h-181v497h179v-46z" />
    <glyph glyph-name="n" unicode="n" horiz-adv-x="526" 
d="M226 453c20 22 41.168 36.667 63.501 44s40.833 11 55.5 11c26 0 48 -3.66699 66 -11s32.5 -17.833 43.5 -31.5s19 -30.167 24 -49.5s7.5 -41 7.5 -65v-351h-182v290c0 16.667 -2.83301 29.5 -8.5 38.5s-15.834 13.5 -30.501 13.5s-25.167 -5.5 -31.5 -16.5
s-9.5 -23.167 -9.5 -36.5v-289h-181v497h179v-43z" />
    <glyph glyph-name="o" unicode="o" horiz-adv-x="510" 
d="M260 509c50 0 90.166 -9.16699 120.499 -27.5s52.5 -40.5 66.5 -66.5c11.333 -20 19.166 -44.5 23.499 -73.5s6.5 -59.5 6.5 -91.5c0 -23.333 -2 -47.833 -6 -73.5s-9.66699 -48.167 -17 -67.5c-8.66699 -23.333 -20.167 -42.333 -34.5 -57s-30.5 -26.5 -48.5 -35.5
s-37.5 -15.167 -58.5 -18.5s-42.167 -5 -63.5 -5c-49.333 0 -89.666 8.83301 -120.999 26.5s-53.666 40.167 -66.999 67.5c-10 20 -17.167 44.667 -21.5 74s-6.5 59 -6.5 89c0 26.667 2 53.167 6 79.5s10 48.833 18 67.5c14 32.667 38.167 59.5 72.5 80.5
s77.833 31.5 130.5 31.5zM254.999 142c8.66699 0 15.333 1.83203 20 5.49902s8.66699 8.16699 12 13.5c4 7.33301 6.66699 18.833 8 34.5s2 33.167 2 52.5c0 18.667 -0.5 36 -1.5 52s-3.16699 28.667 -6.5 38c-6 14.667 -17 22 -33 22c-9.33301 0 -16.333 -2 -21 -6
s-8.66699 -9.66699 -12 -17c-4 -8.66699 -6.66699 -20 -8 -34s-2 -32.333 -2 -55c0 -21.333 0.666992 -39.166 2 -53.499s4.33301 -25.833 9 -34.5c6 -12 16.333 -18 31 -18z" />
    <glyph glyph-name="p" unicode="p" horiz-adv-x="520" 
d="M263 142c15.333 0 25.999 10 31.999 30s9 46.667 9 80c0 37.333 -3.33301 63.5 -10 78.5s-16.667 22.5 -30 22.5c-16.667 0 -27.667 -8 -33 -24s-8 -44 -8 -84c0 -21.333 0.833008 -38.666 2.5 -51.999s4.33398 -23.833 8.00098 -31.5s8 -12.834 13 -15.501
s10.5 -4 16.5 -4zM227.999 24c-0.666992 -0.666992 -1.66602 -1 -2.99902 -1v-221h-183v694h178v-41h4c7.33301 10 16 18.167 26 24.5s20 11.333 30 15s19.5 6.16699 28.5 7.5s16.5 2 22.5 2c32.667 0 59.167 -5.83301 79.5 -17.5s36.166 -28.5 47.499 -50.5
s19 -49.167 23 -81.5s6 -68.833 6 -109.5c0 -34 -1.66699 -66.333 -5 -97s-10.5 -57.667 -21.5 -81s-27 -42 -48 -56s-48.833 -21 -83.5 -21c-14 0 -30.5 2 -49.5 6s-36.167 13.333 -51.5 28z" />
    <glyph glyph-name="q" unicode="q" horiz-adv-x="520" 
d="M256 142c13.333 0 23.333 6.33301 30 19s10 33.667 10 63v36c0 38 -3.16699 63.833 -9.5 77.5s-16.5 20.5 -30.5 20.5c-13.333 0 -23.333 -7.5 -30 -22.5s-10 -43.167 -10 -84.5v-9c0 -32 2.83301 -56.667 8.5 -74s16.167 -26 31.5 -26zM295 33
c-1.33301 0 -2.33398 0.333008 -3.00098 1c-15.333 -16 -32.833 -27 -52.5 -33s-36.167 -9 -49.5 -9c-36 0 -64.333 6.5 -85 19.5s-36.5 30.667 -47.5 53s-18 48.833 -21 79.5s-4.5 63.667 -4.5 99c0 88.667 12.167 154.5 36.5 197.5s67.166 64.5 128.499 64.5
c6.66699 0 14.334 -0.5 23.001 -1.5s17.5 -3.16699 26.5 -6.5s17.833 -8 26.5 -14s16.334 -13.667 23.001 -23h4v36h177v-694h-182v231z" />
    <glyph glyph-name="r" unicode="r" horiz-adv-x="418" 
d="M239 440c14.667 26 32.834 43.833 54.501 53.5s43.167 14.5 64.5 14.5c7.33301 0 16.166 -1 26.499 -3s19.166 -4.33301 26.499 -7l-24 -177c-24 7.33301 -45 11 -63 11c-25.333 0 -46.166 -6.5 -62.499 -19.5s-24.5 -36.167 -24.5 -69.5v-243h-181v497h180v-56z" />
    <glyph glyph-name="s" unicode="s" horiz-adv-x="470" 
d="M438 159c0 -49.333 -18.5039 -89 -55.5039 -119s-87.167 -45 -150.5 -45c-45.333 0 -85.166 6.66699 -119.499 20s-63.833 38.666 -88.5 75.999l108 91c7.33301 -8.66699 14 -16.167 20 -22.5s12.333 -11.666 19 -15.999s14 -7.5 22 -9.5s17.333 -3 28 -3
c14 0 24.833 3 32.5 9s11.5 13 11.5 21c0 16.667 -13.667 27.667 -41 33c-22.667 4.66699 -44.667 10.5 -66 17.5s-40.166 16.5 -56.499 28.5s-29.5 26.833 -39.5 44.5s-15 39.5 -15 65.5c0 24.667 5.16699 47 15.5 67s24.333 36.833 42 50.5s38.167 24.167 61.5 31.5
s48 11 74 11c46 0 83.667 -5.83301 113 -17.5s55.666 -30.167 78.999 -55.5l-89 -108c-12 13.333 -25.333 24 -40 32s-32 12 -52 12c-13.333 0 -22.833 -2.66699 -28.5 -8s-8.5 -10.666 -8.5 -15.999c0 -8.66699 5 -15.334 15 -20.001s21.333 -8.33398 34 -11.001
c20.667 -4 41.334 -9.5 62.001 -16.5s39.334 -16.5 56.001 -28.5s30.334 -27.167 41.001 -45.5s16 -41.166 16 -68.499z" />
    <glyph glyph-name="t" unicode="t" horiz-adv-x="372" 
d="M258 366v-163.999c0 -18.667 3.33301 -31.334 10 -38.001s18.667 -10 36 -10h30v-154h-83c-60 0 -104 14 -132 42s-42 71.667 -42 131v193h-52v131h54v138h178v-138h75v-131h-74z" />
    <glyph glyph-name="u" unicode="u" horiz-adv-x="526" 
d="M300 44c-20 -22 -41.001 -36.332 -63.001 -42.999s-40 -10 -54 -10c-52.667 0 -89.667 14.167 -111 42.5s-32 66.5 -32 114.5v349h182v-288c0 -16 2.83301 -28.667 8.5 -38s15.834 -14 30.501 -14s25.167 5.66699 31.5 17s9.5 23.666 9.5 36.999v286h181v-497h-179v43z
" />
    <glyph glyph-name="v" unicode="v" horiz-adv-x="542" 
d="M276 199l28 129l36 168h192l-160 -496h-202l-160 496h195l37 -168l28 -129h6z" />
    <glyph glyph-name="w" unicode="w" horiz-adv-x="775" 
d="M385 241l-32 -135l-28 -106h-186l-129 496h191l23 -143l20 -133h5l28 134l28 142h168l28 -143l27 -133h5l21 137l22 139h189l-129 -496h-186l-28 109l-32 132h-5z" />
    <glyph glyph-name="x" unicode="x" horiz-adv-x="530" 
d="M263 129l-54.002 -129h-197l144 253l-68.5 122.5l-68.5 122.5h197l25 -61.5l24 -61.5h2c8.66699 20.667 16.834 41.167 24.501 61.5s15.834 40.833 24.501 61.5h194l-139 -245l146 -253h-196l-54 129h-4z" />
    <glyph glyph-name="y" unicode="y" horiz-adv-x="518" 
d="M259 206l25.999 140c0.666992 6 2.33398 16 5.00098 30l9 45c3.33301 16 6.33301 31.167 9 45.5s4.66699 24.5 6 30.5h192l-168 -547c-16.667 -56 -40.5 -94.5 -71.5 -115.5s-69.167 -31.5 -114.5 -31.5h-81v154h30c12.667 0 23 2 31 6s14.667 12.667 20 26l10 25
l-154 483h193l29 -155l26 -137z" />
    <glyph glyph-name="z" unicode="z" horiz-adv-x="454" 
d="M30 0v129l184 232h-172v136h382v-122l-188 -234h188v-141h-394z" />
    <glyph glyph-name="braceleft" unicode="{" horiz-adv-x="364" 
d="M195 304c46.667 -24 69.999 -64.3359 69.999 -121.003v-122c0 -15.333 3.83301 -26 11.5 -32s17.167 -9 28.5 -9h31v-117h-115c-17.333 0 -33.666 3 -48.999 9s-28.666 14.333 -39.999 25s-20.333 23.667 -27 39s-10 32.333 -10 51v137
c0 28.667 -5.83301 49.667 -17.5 63s-28.167 20.333 -49.5 21v107c22 1.33301 38.667 8.66602 50 21.999s17 34.333 17 63v131c0 18.667 3.33301 35.834 10 51.501s15.667 28.834 27 39.501s24.666 19 39.999 25s31.666 9 48.999 9h115v-118h-32
c-11.333 0 -20.666 -3.33301 -27.999 -10s-11 -17.667 -11 -33v-115c0 -27.333 -6.33301 -51.166 -19 -71.499s-29.667 -35.166 -51 -44.499z" />
    <glyph glyph-name="bar" unicode="|" horiz-adv-x="301" 
d="M71 -194v924h159v-924h-159z" />
    <glyph glyph-name="braceright" unicode="}" horiz-adv-x="364" 
d="M170 300c-21.333 11.333 -38.3301 27.668 -50.9971 49.001s-19 45 -19 71v115c0 15.333 -3.66699 26.333 -11 33s-16.666 10 -27.999 10h-32v118h116c17.333 0 33.666 -3 48.999 -9s28.666 -14.333 39.999 -25s20.166 -23.834 26.499 -39.501s9.5 -32.834 9.5 -51.501
v-131c0 -28.667 5.83301 -49.667 17.5 -63s28.167 -20.666 49.5 -21.999v-107c-21.333 -0.666992 -37.833 -7.66699 -49.5 -21s-17.5 -34.333 -17.5 -63v-137c0 -38 -12 -68.167 -36 -90.5s-53.667 -33.5 -89 -33.5h-116v117h32c11.333 0 20.666 3 27.999 9s11 16.667 11 32
v122c0 28.667 5.66699 53.5 17 74.5s29 35.167 53 42.5z" />
    <glyph glyph-name="asciitilde" unicode="~" horiz-adv-x="537" 
d="M190 385c16 0 31.3359 -3 46.0029 -9s28.5 -12.5 41.5 -19.5s25.333 -13.333 37 -19s22.167 -8.5 31.5 -8.5c13.333 0 26.5 4.5 39.5 13.5s26.833 23.5 41.5 43.5l82 -49c-20.667 -45.333 -42.834 -78.5 -66.501 -99.5s-49.5 -31.5 -77.5 -31.5
c-16 0 -31.333 2.83301 -46 8.5s-28.834 12 -42.501 19s-26.667 13.333 -39 19s-23.833 8.5 -34.5 8.5c-13.333 0 -27.333 -3.83301 -42 -11.5s-30.334 -23.167 -47.001 -46.5l-80 52c20 41.333 42 73.333 66 96s54 34 90 34z" />
    <glyph glyph-name="exclamdown" unicode="&#xa1;" horiz-adv-x="332" 
d="M259 -199h-185l12 488h162zM258 497v-153h-182v153h182z" />
    <glyph glyph-name="cent" unicode="&#xa2;" horiz-adv-x="543" 
d="M243 -4c-39.333 4.66699 -72.0029 16.833 -98.0029 36.5s-44.667 43.834 -56 72.501c-7.33301 17.333 -12.666 39 -15.999 65s-5 52.333 -5 79c0 30 2.33301 58.833 7 86.5s11.334 50.167 20.001 67.5c13.333 27.333 32.333 49.833 57 67.5s55 29.167 91 34.5v112h74
v-111c42 -5.33301 76.333 -20.333 103 -45s45 -53.667 55 -87l-139 -64c-3.33301 18 -9.16602 30.5 -17.499 37.5s-16.5 10.5 -24.5 10.5s-15 -1.5 -21 -4.5s-11 -8.5 -15 -16.5s-6.83301 -19 -8.5 -33s-2.5 -32.333 -2.5 -55c0 -42 3.66699 -70.333 11 -85
c4 -6.66699 8.66699 -11.667 14 -15s13 -5 23 -5c8 0 16.833 3.83301 26.5 11.5s17.834 20.5 24.501 38.5l138 -63c-17.333 -40.667 -39.833 -71.834 -67.5 -93.501s-60.834 -35.167 -99.501 -40.5v-120h-74v119z" />
    <glyph glyph-name="sterling" unicode="&#xa3;" horiz-adv-x="543" 
d="M283 701c54 0 99.6709 -12.9961 137.004 -38.9961s64.666 -64.333 81.999 -115l-143 -66c-14.667 42.667 -35.667 64 -63 64c-14 0 -25.667 -4.33301 -35 -13s-14 -20 -14 -34c0 -16.667 3.16699 -34.5 9.5 -53.5s12.166 -41.167 17.499 -66.5h129v-116h-118
c-1.33301 -20.667 -4.66602 -40.834 -9.99902 -60.501s-12.666 -37.834 -21.999 -54.501h228v-147h-433v132c33.333 39.333 52.666 82.666 57.999 129.999h-58v116h49c-6 23.333 -12.333 45.5 -19 66.5s-10 43.167 -10 66.5c0 25.333 4.16699 49.5 12.5 72.5
s21.166 43.167 38.499 60.5s39.666 31.166 66.999 41.499s59.666 15.5 96.999 15.5z" />
    <glyph glyph-name="currency" unicode="&#xa4;" horiz-adv-x="543" 
d="M25 455l88.998 89.999l61 -62c14 6.66699 29.5 11.834 46.5 15.501s33.5 5.5 49.5 5.5s32.333 -1.83301 49 -5.5s32.667 -9.5 48 -17.5l60 64l89 -90l-61 -62c6.66699 -14 11.834 -29.167 15.501 -45.5s5.5 -32.5 5.5 -48.5c0 -15.333 -2.16699 -31.5 -6.5 -48.5
s-9.5 -32.833 -15.5 -47.5l12 -11.5l19 -18l19 -18.5l12 -12l-89 -90l-62 62c-28.667 -14.667 -60.334 -22 -95.001 -22c-35.333 0 -67.333 7.33301 -96 22l-61 -62l-89 90l62 61c-7.33301 15.333 -12.666 30.833 -15.999 46.5s-5 31.834 -5 48.501
c0 15.333 1.83301 31.166 5.5 47.499s8.83398 31.833 15.501 46.5zM191.998 298.999c0 -22 7.66699 -40.667 23 -56s34 -23 56 -23c21.333 0 39.833 7.5 55.5 22.5s23.5 33.833 23.5 56.5c0 21.333 -7.5 40 -22.5 56s-33.833 24 -56.5 24c-22 0 -40.667 -8 -56 -24
s-23 -34.667 -23 -56z" />
    <glyph glyph-name="yen" unicode="&#xa5;" horiz-adv-x="543" 
d="M76 236h104v27l-7 16h-96v88h62l-62.5 165l-62.5 164h190l17.5 -63.5l16.5 -63.5l32 -127h4l15.5 63l15.5 63l34 128h189l-62.5 -164l-62.5 -165h67v-88h-102l-6 -16v-27h108v-86h-108v-150h-182v150h-104v86z" />
    <glyph glyph-name="brokenbar" unicode="&#xa6;" horiz-adv-x="303" 
d="M71 305v421h161v-421h-161zM232 225v-424h-161v424h161z" />
    <glyph glyph-name="section" unicode="&#xa7;" horiz-adv-x="502" 
d="M459 299c0 -23.333 -5.3291 -43.6631 -15.9961 -60.9961s-24.334 -31.666 -41.001 -42.999c17.333 -14.667 29.333 -31.667 36 -51s10 -37.666 10 -54.999c0 -25.333 -5.33301 -48.166 -16 -68.499s-25.334 -37.833 -44.001 -52.5s-40.5 -25.834 -65.5 -33.501
s-51.833 -11.5 -80.5 -11.5c-38 0 -75.667 7 -113 21s-69.333 34.667 -96 62l80 96c22 -20 44.667 -35 68 -45s43 -15 59 -15c18.667 0 33 4 43 12s15 18.667 15 32c0 14 -8.16699 27.333 -24.5 40s-47.166 27.667 -92.499 45c-20.667 10 -39.5 20 -56.5 30
s-31.5 21.167 -43.5 33.5s-21.167 26.666 -27.5 42.999s-9.5 35.5 -9.5 57.5c0 21.333 6 41.166 18 59.499s26.667 32.5 44 42.5c-16.667 15.333 -28.334 31.166 -35.001 47.499s-10 33.5 -10 51.5c0 24 5.16699 46.167 15.5 66.5s24.333 37.666 42 51.999
s38.167 25.666 61.5 33.999s48.333 12.5 75 12.5c32 0 63.5 -4.33301 94.5 -13s62.167 -26 93.5 -52l-71 -97c-25.333 17.333 -46.833 28.5 -64.5 33.5s-34.834 7.5 -51.501 7.5c-17.333 0 -29.833 -3.66699 -37.5 -11s-11.5 -15.333 -11.5 -24
c0 -7.33301 3.5 -14.333 10.5 -21s15.667 -13 26 -19s21.166 -11.667 32.499 -17l31 -15l55 -28c18 -9.33301 34.167 -20.5 48.5 -33.5s26 -28.333 35 -46s13.5 -39.834 13.5 -66.501zM320.004 293.003c0 8.66699 -2 15.6689 -6 21.002s-10.5 10.5 -19.5 15.5
s-21 10.667 -36 17l-56.5 24.5c-6.66699 -3.33301 -12 -7.83301 -16 -13.5s-6 -11.834 -6 -18.501c0 -8 3.83301 -15.5 11.5 -22.5s17.5 -13.5 29.5 -19.5s25.333 -11.833 40 -17.5s29 -11.5 43 -17.5c10.667 9.33301 16 19.666 16 30.999z" />
    <glyph glyph-name="dieresis" unicode="&#xa8;" horiz-adv-x="482" 
d="M279 555v133h147v-133h-147zM64 555v133h146v-133h-146z" />
    <glyph glyph-name="copyright" unicode="&#xa9;" horiz-adv-x="794" 
d="M393 -21c-52.667 0 -100.167 9.16797 -142.5 27.501s-78.5 43.666 -108.5 75.999s-53 71 -69 116s-24 94.5 -24 148.5c0 53.333 8.16699 102.5 24.5 147.5s39.5 84 69.5 117s66.167 58.667 108.5 77s89.5 27.5 141.5 27.5c51.333 0 98.166 -9.16699 140.499 -27.5
s78.5 -43.833 108.5 -76.5s53.333 -71.5 70 -116.5s25 -94.5 25 -148.5c0 -53.333 -8.33301 -102.333 -25 -147s-40 -83.5 -70 -116.5s-66.167 -58.667 -108.5 -77s-89.166 -27.5 -140.499 -27.5zM393 614.001c-36 0 -68.333 -7.00293 -97 -21.0029s-53 -33 -73 -57
s-35.333 -52.167 -46 -84.5s-16 -67.166 -16 -104.499s5.5 -72.166 16.5 -104.499s26.5 -60.333 46.5 -84s44.333 -42.334 73 -56.001s60.667 -20.5 96 -20.5c36 0 68.333 6.83301 97 20.5s53 32.334 73 56.001s35.5 51.667 46.5 84s16.5 67.166 16.5 104.499
c0 38 -5.5 73.333 -16.5 106s-26.667 60.834 -47 84.501s-44.833 42.334 -73.5 56.001s-60.667 20.5 -96 20.5zM393 566.998c22.667 0 42.666 -3.33008 59.999 -9.99707s32 -15.834 44 -27.501s21.5 -25.167 28.5 -40.5s12.167 -32 15.5 -50l-109 -26
c-1.33301 14 -5 25.833 -11 35.5s-14.667 14.5 -26 14.5c-12 0 -20.667 -4 -26 -12s-8 -17.333 -8 -28v-162c0 -10 2.83301 -18.833 8.5 -26.5s14.167 -11.5 25.5 -11.5c20.667 0 33 17.333 37 52l111 -27c-6.66699 -36.667 -21.667 -67.334 -45 -92.001
s-57.666 -37 -102.999 -37c-44 0 -78.667 10.833 -104 32.5s-39.666 51.834 -42.999 90.501c-0.666992 6.66699 -1.16699 13.167 -1.5 19.5s-0.5 13.166 -0.5 20.499v103c0 9.33301 0.166992 18.666 0.5 27.999s0.833008 18.666 1.5 27.999
c3.33301 36.667 17.166 66.834 41.499 90.501s58.833 35.5 103.5 35.5z" />
    <glyph glyph-name="ordfeminine" unicode="&#xaa;" horiz-adv-x="345" 
d="M190 304c-10 -10 -21.5 -17.334 -34.5 -22.001s-25.833 -7 -38.5 -7c-65.333 0 -98 31.333 -98 94c0 30 10.833 54 32.5 72s55.5 27 101.5 27h37v15c0 4.66699 -1.33301 9.33398 -4 14.001s-9.66699 7 -21 7c-10.667 0 -19.5 -1.5 -26.5 -4.5
s-14.833 -9.83301 -23.5 -20.5l-81 56c14.667 24.667 34.167 42 58.5 52s52.833 15 85.5 15c44 0 78.667 -9 104 -27s38 -48 38 -90v-205h-128v24h-2zM146 380.999c0 -5.33301 1 -9.66699 3 -13s7 -5 15 -5c7.33301 0 13.5 2 18.5 6s7.5 9.66699 7.5 17v17h-20
c-16 0 -24 -7.33301 -24 -22z" />
    <glyph glyph-name="guillemotleft" unicode="&#xab;" horiz-adv-x="644" 
d="M178 28l-131 207l131 207h175l-129 -207l129 -207h-175zM417 28l-131 207l131 207h175l-129 -207l129 -207h-175z" />
    <glyph glyph-name="logicalnot" unicode="&#xac;" horiz-adv-x="543" 
d="M506 81h-149v159h-322v137h471v-296z" />
    <glyph glyph-name="sfthyphen" unicode="&#xad;" horiz-adv-x="440" 
d="M51 190v147h346v-147h-346z" />
    <glyph glyph-name="registered" unicode="&#xae;" horiz-adv-x="514" 
d="M260 229c-34 0 -64.834 6 -92.501 18s-51.167 28.5 -70.5 49.5s-34.166 45.833 -44.499 74.5s-15.5 60 -15.5 94s5.33301 65.5 16 94.5s25.834 54 45.501 75s43.167 37.5 70.5 49.5s57.666 18 90.999 18s63.666 -6 90.999 -18s50.833 -28.5 70.5 -49.5
s34.834 -46 45.501 -75s16 -60.5 16 -94.5s-5.5 -65.333 -16.5 -94s-26.333 -53.5 -46 -74.5s-43.167 -37.5 -70.5 -49.5s-57.333 -18 -90 -18zM259.999 638c-24 0 -45.499 -4.5 -64.499 -13.5s-35.167 -21.167 -48.5 -36.5s-23.5 -33.5 -30.5 -54.5
s-10.5 -43.5 -10.5 -67.5s3.66699 -46.5 11 -67.5s17.666 -39 30.999 -54s29.5 -26.833 48.5 -35.5s40.167 -13 63.5 -13c24 0 45.333 4.33301 64 13s34.5 20.667 47.5 36s23 33.333 30 54s10.5 43 10.5 67s-3.5 46.5 -10.5 67.5s-17.167 39.167 -30.5 54.5
s-29.333 27.5 -48 36.5s-39.667 13.5 -63 13.5zM243 347l-66.001 -0.000976562v246h91c22.667 0 41.834 -6.16699 57.501 -18.5s23.5 -31.166 23.5 -56.499c0 -28 -11 -48.667 -33 -62l42 -109h-70l-32 96h-13v-96zM242.999 539.999v-45h16c6 0 11.333 1.83301 16 5.5
s7 9.16699 7 16.5c0 15.333 -7 23 -21 23h-18z" />
    <glyph glyph-name="macron" unicode="&#xaf;" horiz-adv-x="469" 
d="M93 567v124h304v-124h-304z" />
    <glyph glyph-name="degree" unicode="&#xb0;" horiz-adv-x="419" 
d="M373 545c0 -21.333 -4.16699 -41.5 -12.5 -60.5s-19.833 -35.5 -34.5 -49.5s-31.834 -25.167 -51.501 -33.5s-40.834 -12.5 -63.501 -12.5c-22 0 -42.833 4.16699 -62.5 12.5s-36.834 19.5 -51.501 33.5s-26.167 30.5 -34.5 49.5s-12.5 39.167 -12.5 60.5
s4.16699 41.5 12.5 60.5s19.833 35.5 34.5 49.5s31.834 25.167 51.501 33.5s40.5 12.5 62.5 12.5c22.667 0 43.834 -4.16699 63.501 -12.5s36.834 -19.5 51.501 -33.5s26.167 -30.5 34.5 -49.5s12.5 -39.167 12.5 -60.5zM269 545c0 16 -5.5 29.5 -16.5 40.5
s-24.833 16.5 -41.5 16.5s-30.334 -5.5 -41.001 -16.5s-16 -24.5 -16 -40.5c0 -15.333 5.33301 -28.666 16 -39.999s24.334 -17 41.001 -17s30.5 5.66699 41.5 17s16.5 24.666 16.5 39.999z" />
    <glyph glyph-name="plusminus" unicode="&#xb1;" horiz-adv-x="543" 
d="M42 0v131h459v-131h-459zM346 297v-136h-149v136h-161v136h161v139h149v-139h161v-136h-161z" />
    <glyph glyph-name="twosuperior" unicode="&#xb2;" horiz-adv-x="372" 
d="M42 370v84l146 194c3.33301 5.33301 6.16602 10.833 8.49902 16.5s3.5 12.167 3.5 19.5c0 6 -1.16699 11.333 -3.5 16s-6.83301 7 -13.5 7c-5.33301 0 -9.83301 -3.16699 -13.5 -9.5s-6.16699 -18.5 -7.5 -36.5l-128 15c2 22 7.33301 41.5 16 58.5
s19.834 31.5 33.501 43.5s29.167 21 46.5 27s36 9 56 9c45.333 0 81.333 -10.5 108 -31.5s40 -50.5 40 -88.5c0 -17.333 -3 -34 -9 -50s-14.333 -31.667 -25 -47l-94 -127h125v-100h-289z" />
    <glyph glyph-name="threesuperior" unicode="&#xb3;" horiz-adv-x="372" 
d="M192 814c29.333 0 53.332 -3.83594 71.999 -11.5029s33.334 -17.667 44.001 -30s18 -26.166 22 -41.499s6 -30.666 6 -45.999c0 -13.333 -3.5 -28.333 -10.5 -45s-20.167 -30 -39.5 -40c12.667 -4 22.5 -9.66699 29.5 -17s12.167 -15.166 15.5 -23.499
s5.33301 -16.666 6 -24.999s1 -15.833 1 -22.5c0 -20.667 -2.83301 -40 -8.5 -58s-14.834 -33.5 -27.501 -46.5s-28.667 -23.167 -48 -30.5s-42.333 -11 -69 -11c-20 0 -38.667 2.33301 -56 7s-32.833 12 -46.5 22s-24.667 23.167 -33 39.5s-13.5 36.166 -15.5 59.499
l124 14v-4c0 -16 2.33301 -25.833 7 -29.5s9.33398 -5.5 14.001 -5.5c5.33301 0 10.333 3.16699 15 9.5s7 17.166 7 32.499c0 13.333 -2.33301 23.5 -7 30.5s-12.667 10.5 -24 10.5h-33v87h37c18 0 27 12.667 27 38c0 6.66699 -1.16699 13.167 -3.5 19.5
s-7.16602 9.5 -14.499 9.5c-4.66699 0 -9.33398 -2.66699 -14.001 -8s-8 -16.666 -10 -33.999c-20 3.33301 -40.167 6.33301 -60.5 9l-60.5 8c4.66699 42 21.5 74.667 50.5 98s63.5 35 103.5 35z" />
    <glyph glyph-name="acute" unicode="&#xb4;" horiz-adv-x="451" 
d="M136 578l99 219l134 -61l-136 -203z" />
    <glyph glyph-name="mu" unicode="&#xb5;" horiz-adv-x="526" 
d="M40 497l181.999 0.00195312v-295c0 -13.333 3.16699 -24.166 9.5 -32.499s16.166 -12.5 29.499 -12.5c14.667 0 25.167 5.66699 31.5 17s9.5 23.666 9.5 36.999v286h181v-497h-179v43l-4 1c-13.333 -14.667 -26.666 -25.334 -39.999 -32.001
s-25.666 -11.334 -36.999 -14.001v-196h-183v695z" />
    <glyph glyph-name="mu" unicode="&#x3bc;" horiz-adv-x="526" 
d="M40 497l181.999 0.00195312v-295c0 -13.333 3.16699 -24.166 9.5 -32.499s16.166 -12.5 29.499 -12.5c14.667 0 25.167 5.66699 31.5 17s9.5 23.666 9.5 36.999v286h181v-497h-179v43l-4 1c-13.333 -14.667 -26.666 -25.334 -39.999 -32.001
s-25.666 -11.334 -36.999 -14.001v-196h-183v695z" />
    <glyph glyph-name="paragraph" unicode="&#xb6;" horiz-adv-x="574" 
d="M195 318c-29.333 2.66699 -54.333 9.66699 -75 21s-37.5 25.833 -50.5 43.5s-22.5 37.667 -28.5 60s-9 45.833 -9 70.5c0 24 3.66699 48.167 11 72.5s19 46 35 65s36.667 34.5 62 46.5s56 18 92 18h304v-109h-49v-677h-120v677h-49v-677h-123v389z" />
    <glyph glyph-name="periodcentered" unicode="&#xb7;" horiz-adv-x="310" 
d="M60 211v173h190v-173h-190z" />
    <glyph glyph-name="cedilla" unicode="&#xb8;" horiz-adv-x="447" 
d="M272 41l-34.001 -79.998c22 -2 40.167 -6.16699 54.5 -12.5s25.5 -14 33.5 -23s13.667 -18.667 17 -29s5 -20.5 5 -30.5c0 -9.33301 -2.16699 -20 -6.5 -32s-11.666 -23.333 -21.999 -34s-24 -19.5 -41 -26.5s-38.5 -10.5 -64.5 -10.5
c-11.333 0 -26.666 1.16699 -45.999 3.5s-40.333 8.16602 -63 17.499c4 12 7.66699 23.833 11 35.5s7 23.5 11 35.5c14.667 -5.33301 27.667 -9 39 -11s21.666 -3 30.999 -3c13.333 0 24.166 2.83301 32.499 8.5s12.5 13.167 12.5 22.5c0 7.33301 -2.33301 13.166 -7 17.499
s-12 6.5 -22 6.5c-5.33301 0 -9.66602 -0.333008 -12.999 -1l-43 30l43 116h72z" />
    <glyph glyph-name="onesuperior" unicode="&#xb9;" horiz-adv-x="372" 
d="M141 370v299l-63 -43v125l80 54h118v-435h-135z" />
    <glyph glyph-name="ordmasculine" unicode="&#xba;" horiz-adv-x="347" 
d="M176 601c28.667 0 52.665 -3.66699 71.998 -11s34.833 -17.833 46.5 -31.5s19.834 -30.167 24.501 -49.5s7 -41 7 -65c0 -32 -3.66699 -59 -11 -81s-17.833 -39.667 -31.5 -53s-30.167 -22.833 -49.5 -28.5s-41 -8.5 -65 -8.5c-30 0 -54.833 4.33301 -74.5 13
s-35 20.334 -46 35.001s-18.667 32 -23 52s-6.5 41 -6.5 63c0 24.667 2.66699 47.167 8 67.5s14.333 37.666 27 51.999s28.834 25.5 48.501 33.5s44.167 12 73.5 12zM173.998 376c10.667 0 17 5.49902 19 16.499s3 25.5 3 43.5c0 15.333 -0.833008 29.5 -2.5 42.5
s-8.16699 19.5 -19.5 19.5c-9.33301 0 -15.333 -4.66699 -18 -14s-4 -21.666 -4 -36.999v-12c0 -17.333 0.833008 -31 2.5 -41s8.16699 -16 19.5 -18z" />
    <glyph glyph-name="guillemotright" unicode="&#xbb;" horiz-adv-x="644" 
d="M292 28l129 207l-129 207h174l131 -207l-131 -207h-174zM53 28l129 207l-129 207h174l131 -207l-131 -207h-174z" />
    <glyph glyph-name="onequarter" unicode="&#xbc;" horiz-adv-x="885" 
d="M151 280v299l-63 -43v125l80 54h118v-435h-135zM297 -17h-131l370 730h131zM767 240v-83h30v-99h-30v-58h-120v58h-182v80l120 297h121l-110 -278h51v83h120z" />
    <glyph glyph-name="onehalf" unicode="&#xbd;" horiz-adv-x="885" 
d="M284 -17h-131l370 730h131zM511 0v84l146 194c3.33301 5.33301 6.16602 10.833 8.49902 16.5s3.5 12.167 3.5 19.5c0 6 -1.16699 11.333 -3.5 16s-6.83301 7 -13.5 7c-5.33301 0 -9.83301 -3.16699 -13.5 -9.5s-6.16699 -18.5 -7.5 -36.5l-128 15
c2 22 7.33301 41.5 16 58.5s19.834 31.5 33.501 43.5s29.167 21 46.5 27s36 9 56 9c45.333 0 81.333 -10.5 108 -31.5s40 -50.5 40 -88.5c0 -17.333 -3 -34 -9 -50s-14.333 -31.667 -25 -47l-94 -127h125v-100h-289zM145 280v299l-63 -43v125l80 54h118v-435h-135z" />
    <glyph glyph-name="threequarters" unicode="&#xbe;" horiz-adv-x="885" 
d="M332 -17h-131l370 730h131zM211 724c29.333 0 53.332 -3.83594 71.999 -11.5029s33.334 -17.667 44.001 -30s18 -26.166 22 -41.499s6 -30.666 6 -45.999c0 -13.333 -3.5 -28.333 -10.5 -45s-20.167 -30 -39.5 -40c12.667 -4 22.5 -9.66699 29.5 -17
s12.167 -15.166 15.5 -23.499s5.33301 -16.666 6 -24.999s1 -15.833 1 -22.5c0 -20.667 -2.83301 -40 -8.5 -58s-14.834 -33.5 -27.501 -46.5s-28.667 -23.167 -48 -30.5s-42.333 -11 -69 -11c-20 0 -38.667 2.33301 -56 7s-32.833 12 -46.5 22s-24.667 23.167 -33 39.5
s-13.5 36.166 -15.5 59.499l124 14v-4c0 -16 2.33301 -25.833 7 -29.5s9.33398 -5.5 14.001 -5.5c5.33301 0 10.333 3.16699 15 9.5s7 17.166 7 32.499c0 13.333 -2.33301 23.5 -7 30.5s-12.667 10.5 -24 10.5h-33v87h37c18 0 27 12.667 27 38
c0 6.66699 -1.16699 13.167 -3.5 19.5s-7.16602 9.5 -14.499 9.5c-4.66699 0 -9.33398 -2.66699 -14.001 -8s-8 -16.666 -10 -33.999c-20 3.33301 -40.167 6.33301 -60.5 9l-60.5 8c4.66699 42 21.5 74.667 50.5 98s63.5 35 103.5 35zM800.999 239.997v-83h30v-99h-30v-58
h-120v58h-182v80l120 297h121l-110 -278h51v83h120z" />
    <glyph glyph-name="questiondown" unicode="&#xbf;" horiz-adv-x="522" 
d="M495 5c-7.33301 -70.667 -30.667 -123.335 -70 -158.002s-91 -52 -155 -52c-69.333 0 -123 16.333 -161 49s-57 78.334 -57 137.001c0 31.333 6.5 59 19.5 83s27.167 46 42.5 66l30 46c8 12.667 14.5 24.334 19.5 35.001s8.5 20.834 10.5 30.501s3 20.167 3 31.5v22h177
v-45c0 -11.333 -0.833008 -22.166 -2.5 -32.499s-4.5 -21 -8.5 -32s-9.83301 -22.833 -17.5 -35.5s-17.5 -26.334 -29.5 -41.001l-24 -38c-6.66699 -10.667 -12 -20.167 -16 -28.5s-6.83301 -16.333 -8.5 -24s-2.5 -15.834 -2.5 -24.501c0 -30 11 -45 33 -45
c10.667 0 20.167 5.16699 28.5 15.5s13.833 29.833 16.5 58.5zM354.999 496.999v-153h-180v153h180z" />
    <glyph glyph-name="Agrave" unicode="&#xc0;" horiz-adv-x="618" 
d="M388 123h-159l-27 -123h-194l196 696h211l194 -696h-193zM306 482l-26 -131l-16 -78h89l-16 81l-25 128h-6zM320 720l-220 96l78 121l197 -131z" />
    <glyph glyph-name="Aacute" unicode="&#xc1;" horiz-adv-x="618" 
d="M388 123h-159l-27 -123h-194l196 696h211l194 -696h-193zM306 482l-26 -131l-16 -78h89l-16 81l-25 128h-6zM210 806l197 131l78 -121l-219 -96z" />
    <glyph glyph-name="Acircumflex" unicode="&#xc2;" horiz-adv-x="618" 
d="M388 123h-159l-27 -123h-194l196 696h211l194 -696h-193zM306 482l-26 -131l-16 -78h89l-16 81l-25 128h-6zM309 807l-139 -86l-58 64l141 141h113l139 -142l-58 -64z" />
    <glyph glyph-name="Atilde" unicode="&#xc3;" horiz-adv-x="618" 
d="M388 123h-159l-27 -123h-194l196 696h211l194 -696h-193zM306 482l-26 -131l-16 -78h89l-16 81l-25 128h-6zM381 735c-10.667 0 -21.166 2 -31.499 6s-20.333 8.5 -30 13.5s-19.334 9.5 -29.001 13.5s-19.5 6 -29.5 6c-9.33301 0 -20 -2.83301 -32 -8.5
s-24 -17.167 -36 -34.5l-79 44c15.333 42 34.333 72.333 57 91s46.667 28 72 28c13.333 0 25.833 -2.16699 37.5 -6.5s22.5 -9 32.5 -14s19.5 -9.5 28.5 -13.5s18.167 -6 27.5 -6c10 0 19.5 3 28.5 9s18.833 16.667 29.5 32l77 -42c-15.333 -44.667 -34 -75.5 -56 -92.5
s-44.333 -25.5 -67 -25.5z" />
    <glyph glyph-name="Adieresis" unicode="&#xc4;" horiz-adv-x="618" 
d="M388 123h-159l-27 -123h-194l196 696h211l194 -696h-193zM306 482l-26 -131l-16 -78h89l-16 81l-25 128h-6zM343 737v133h147v-133h-147zM128 737v133h146v-133h-146z" />
    <glyph glyph-name="Aring" unicode="&#xc5;" horiz-adv-x="618" 
d="M180 813c0 16.667 3.33105 32.334 9.99805 47.001s16 27.5 28 38.5s25.833 19.667 41.5 26s32.5 9.5 50.5 9.5c17.333 0 33.833 -3.16699 49.5 -9.5s29.334 -15 41.001 -26s20.834 -23.833 27.501 -38.5s10 -30.334 10 -47.001c0 -28.667 -9 -53.667 -27 -75
s-41 -35.333 -69 -42h73l194 -696h-193l-28 123h-159l-27 -123h-194l196 696h71c-28 6.66699 -50.833 20.667 -68.5 42s-26.5 46.333 -26.5 75zM305.998 482l-26 -131l-16 -78h89l-16 81l-25 128h-6zM349.998 813c0 10 -3.83301 18.667 -11.5 26s-17.167 11 -28.5 11
c-12 0 -21.833 -3.66699 -29.5 -11s-11.5 -16 -11.5 -26c0 -10.667 3.83301 -19.834 11.5 -27.501s17.5 -11.5 29.5 -11.5c11.333 0 20.833 3.83301 28.5 11.5s11.5 16.834 11.5 27.501z" />
    <glyph glyph-name="AE" unicode="&#xc6;" horiz-adv-x="895" 
d="M434 0v129h-177l-54 -129h-196l312 696h541v-156h-238v-107h197v-156h-197v-120h238v-157h-426zM321 278h113v256h-6z" />
    <glyph glyph-name="Ccedilla" unicode="&#xc7;" horiz-adv-x="555" 
d="M283 704c36.667 0 68.8271 -4.83105 96.4941 -14.498s51.334 -23 71.001 -40s35.167 -37.167 46.5 -60.5s19.333 -48.666 24 -75.999l-170 -43c-5.33301 28 -13.333 47.667 -24 59s-23.667 17 -39 17c-14 0 -25 -4.16699 -33 -12.5s-13.667 -18.5 -17 -30.5
c-1.33301 -8 -2.33301 -16.333 -3 -25s-1 -17.667 -1 -27v-207c0 -19.333 1.33301 -36.666 4 -51.999c2.66699 -12 7.83398 -21.833 15.501 -29.5s18.834 -11.5 33.501 -11.5s27.834 5.66699 39.501 17s20.167 31.333 25.5 60l173 -41c-5.33301 -28.667 -14 -54.667 -26 -78
s-27.333 -43.333 -46 -60s-41 -29.834 -67 -39.501s-56 -14.834 -90 -15.501c-2.66699 -5.33301 -5.16699 -10.833 -7.5 -16.5s-4.5 -11.167 -6.5 -16.5c22 -2 40.167 -6.16699 54.5 -12.5s25.5 -14 33.5 -23s13.667 -18.667 17 -29s5 -20.5 5 -30.5
c0 -9.33301 -2.16699 -20 -6.5 -32s-11.666 -23.333 -21.999 -34s-24 -19.5 -41 -26.5s-38.5 -10.5 -64.5 -10.5c-11.333 0 -26.666 1.16699 -45.999 3.5s-40.333 8.16602 -63 17.499c4 12 7.66699 23.833 11 35.5s7 23.5 11 35.5c14.667 -5.33301 27.667 -9 39 -11
s21.666 -3 30.999 -3c13.333 0 24.166 2.83301 32.499 8.5s12.5 13.167 12.5 22.5c0 7.33301 -2.33301 13.166 -7 17.499s-12 6.5 -22 6.5c-5.33301 0 -9.66602 -0.333008 -12.999 -1l-43 30l27 74c-54 8.66699 -95.833 29.167 -125.5 61.5s-47.167 74.5 -52.5 126.5
c-2 30 -3 60.333 -3 91v170c0 19.333 1 39 3 59c2.66699 28.667 9.83398 55 21.501 79s27.334 44.667 47.001 62s43.167 31 70.5 41s58.666 15 93.999 15z" />
    <glyph glyph-name="Egrave" unicode="&#xc8;" horiz-adv-x="532" 
d="M50 0v696h447v-156h-258v-107h217v-156h-217v-120h258v-157h-447zM303 720l-220 96l78 121l197 -131z" />
    <glyph glyph-name="Eacute" unicode="&#xc9;" horiz-adv-x="532" 
d="M50 0v696h447v-156h-258v-107h217v-156h-217v-120h258v-157h-447zM174 806l197 131l78 -121l-219 -96z" />
    <glyph glyph-name="Ecircumflex" unicode="&#xca;" horiz-adv-x="532" 
d="M50 0v696h447v-156h-258v-107h217v-156h-217v-120h258v-157h-447zM274 807l-139 -86l-58 64l141 141h113l139 -142l-58 -64z" />
    <glyph glyph-name="Edieresis" unicode="&#xcb;" horiz-adv-x="532" 
d="M50 0v696h447v-156h-258v-107h217v-156h-217v-120h258v-157h-447zM303 737v133h147v-133h-147zM88 737v133h146v-133h-146z" />
    <glyph glyph-name="Igrave" unicode="&#xcc;" horiz-adv-x="309" 
d="M60 0v696h189v-696h-189zM166 720l-220 96l78 121l197 -131z" />
    <glyph glyph-name="Iacute" unicode="&#xcd;" horiz-adv-x="309" 
d="M60 0v696h189v-696h-189zM71 806l197 131l78 -121l-219 -96z" />
    <glyph glyph-name="Icircumflex" unicode="&#xce;" horiz-adv-x="309" 
d="M60 0v696h189v-696h-189zM160 807l-139 -86l-58 64l141 141h113l139 -142l-58 -64z" />
    <glyph glyph-name="Idieresis" unicode="&#xcf;" horiz-adv-x="309" 
d="M60 0v696h189v-696h-189zM193 737v133h147v-133h-147zM-22 737v133h146v-133h-146z" />
    <glyph glyph-name="Eth" unicode="&#xd0;" horiz-adv-x="588" 
d="M16 397l35.001 -0.000976562v299h262c54 0 98.333 -8.83301 133 -26.5s59.667 -46.167 75 -85.5c10 -25.333 16 -57.5 18 -96.5s3 -83.5 3 -133.5c0 -52 -1 -97.5 -3 -136.5s-8 -71.167 -18 -96.5c-8.66699 -22 -20.5 -40.833 -35.5 -56.5s-32.333 -28.167 -52 -37.5
s-40.834 -16.166 -63.501 -20.499s-46 -6.5 -70 -6.5h-249v309h-35v88zM354.001 397.999c0 19.333 -0.5 38.5 -1.5 57.5s-3.16699 33.167 -6.5 42.5c-8.66699 29.333 -31.667 44 -69 44h-39v-145h71v-88h-71v-156h40c29.333 0 49.333 8.83301 60 26.5s16 42.167 16 73.5v145
z" />
    <glyph glyph-name="Ntilde" unicode="&#xd1;" horiz-adv-x="622" 
d="M389 383v313h183v-696h-164l-92 170l-77 148h-5v-318h-184v696h165l90 -160l79 -153h5zM382 733c-10.667 0 -21.166 2 -31.499 6s-20.333 8.5 -30 13.5s-19.334 9.5 -29.001 13.5s-19.5 6 -29.5 6c-9.33301 0 -20 -2.83301 -32 -8.5s-24 -17.167 -36 -34.5l-79 44
c15.333 42 34.333 72.333 57 91s46.667 28 72 28c13.333 0 25.833 -2.16699 37.5 -6.5s22.5 -9 32.5 -14s19.5 -9.5 28.5 -13.5s18.167 -6 27.5 -6c10 0 19.5 3 28.5 9s18.833 16.667 29.5 32l77 -42c-15.333 -44.667 -34 -75.5 -56 -92.5s-44.333 -25.5 -67 -25.5z" />
    <glyph glyph-name="Ograve" unicode="&#xd2;" horiz-adv-x="582" 
d="M346 433c0 12 -0.166992 23.665 -0.5 34.998s-1.5 22.666 -3.5 33.999c-2.66699 13.333 -8.66699 23.833 -18 31.5s-20.666 11.5 -33.999 11.5s-24.833 -4 -34.5 -12s-15.5 -18.667 -17.5 -32c-1.33301 -11.333 -2.33301 -22.666 -3 -33.999s-1 -22.666 -1 -33.999v-171
c0 -12 0.333008 -23.667 1 -35s1.66699 -22.666 3 -33.999c2.66699 -14 8.66699 -24.333 18 -31s20.666 -10 33.999 -10c37.333 0 56 22.333 56 67v214zM534 274.998c0 -30 -1.67188 -59.668 -5.00488 -89.001s-11.666 -56.666 -24.999 -81.999
c-18 -35.333 -45.167 -62.5 -81.5 -81.5s-80.5 -28.5 -132.5 -28.5c-54 0 -99.167 9 -135.5 27s-63.166 44 -80.499 78c-13.333 24.667 -21.166 53 -23.499 85s-3.5 62.333 -3.5 91v148c0 16.667 0.666992 33 2 49s3.33301 31.667 6 47
c8.66699 56.667 32.834 101.667 72.501 135s93.834 50 162.501 50c41.333 0 77.333 -5.66699 108 -17s56 -27.5 76 -48.5s35 -46.167 45 -75.5s15 -62 15 -98v-190zM316.995 719.997l-220 96l78 121l197 -131z" />
    <glyph glyph-name="Oacute" unicode="&#xd3;" horiz-adv-x="582" 
d="M346 433c0 12 -0.166992 23.665 -0.5 34.998s-1.5 22.666 -3.5 33.999c-2.66699 13.333 -8.66699 23.833 -18 31.5s-20.666 11.5 -33.999 11.5s-24.833 -4 -34.5 -12s-15.5 -18.667 -17.5 -32c-1.33301 -11.333 -2.33301 -22.666 -3 -33.999s-1 -22.666 -1 -33.999v-171
c0 -12 0.333008 -23.667 1 -35s1.66699 -22.666 3 -33.999c2.66699 -14 8.66699 -24.333 18 -31s20.666 -10 33.999 -10c37.333 0 56 22.333 56 67v214zM534 274.998c0 -30 -1.67188 -59.668 -5.00488 -89.001s-11.666 -56.666 -24.999 -81.999
c-18 -35.333 -45.167 -62.5 -81.5 -81.5s-80.5 -28.5 -132.5 -28.5c-54 0 -99.167 9 -135.5 27s-63.166 44 -80.499 78c-13.333 24.667 -21.166 53 -23.499 85s-3.5 62.333 -3.5 91v148c0 16.667 0.666992 33 2 49s3.33301 31.667 6 47
c8.66699 56.667 32.834 101.667 72.501 135s93.834 50 162.501 50c41.333 0 77.333 -5.66699 108 -17s56 -27.5 76 -48.5s35 -46.167 45 -75.5s15 -62 15 -98v-190zM197.995 805.997l197 131l78 -121l-219 -96z" />
    <glyph glyph-name="Ocircumflex" unicode="&#xd4;" horiz-adv-x="582" 
d="M346 433c0 12 -0.166992 23.665 -0.5 34.998s-1.5 22.666 -3.5 33.999c-2.66699 13.333 -8.66699 23.833 -18 31.5s-20.666 11.5 -33.999 11.5s-24.833 -4 -34.5 -12s-15.5 -18.667 -17.5 -32c-1.33301 -11.333 -2.33301 -22.666 -3 -33.999s-1 -22.666 -1 -33.999v-171
c0 -12 0.333008 -23.667 1 -35s1.66699 -22.666 3 -33.999c2.66699 -14 8.66699 -24.333 18 -31s20.666 -10 33.999 -10c37.333 0 56 22.333 56 67v214zM534 274.998c0 -30 -1.67188 -59.668 -5.00488 -89.001s-11.666 -56.666 -24.999 -81.999
c-18 -35.333 -45.167 -62.5 -81.5 -81.5s-80.5 -28.5 -132.5 -28.5c-54 0 -99.167 9 -135.5 27s-63.166 44 -80.499 78c-13.333 24.667 -21.166 53 -23.499 85s-3.5 62.333 -3.5 91v148c0 16.667 0.666992 33 2 49s3.33301 31.667 6 47
c8.66699 56.667 32.834 101.667 72.501 135s93.834 50 162.501 50c41.333 0 77.333 -5.66699 108 -17s56 -27.5 76 -48.5s35 -46.167 45 -75.5s15 -62 15 -98v-190zM290.995 806.997l-139 -86l-58 64l141 141h113l139 -142l-58 -64z" />
    <glyph glyph-name="Otilde" unicode="&#xd5;" horiz-adv-x="582" 
d="M346 433c0 12 -0.166992 23.665 -0.5 34.998s-1.5 22.666 -3.5 33.999c-2.66699 13.333 -8.66699 23.833 -18 31.5s-20.666 11.5 -33.999 11.5s-24.833 -4 -34.5 -12s-15.5 -18.667 -17.5 -32c-1.33301 -11.333 -2.33301 -22.666 -3 -33.999s-1 -22.666 -1 -33.999v-171
c0 -12 0.333008 -23.667 1 -35s1.66699 -22.666 3 -33.999c2.66699 -14 8.66699 -24.333 18 -31s20.666 -10 33.999 -10c37.333 0 56 22.333 56 67v214zM534 274.998c0 -30 -1.67188 -59.668 -5.00488 -89.001s-11.666 -56.666 -24.999 -81.999
c-18 -35.333 -45.167 -62.5 -81.5 -81.5s-80.5 -28.5 -132.5 -28.5c-54 0 -99.167 9 -135.5 27s-63.166 44 -80.499 78c-13.333 24.667 -21.166 53 -23.499 85s-3.5 62.333 -3.5 91v148c0 16.667 0.666992 33 2 49s3.33301 31.667 6 47
c8.66699 56.667 32.834 101.667 72.501 135s93.834 50 162.501 50c41.333 0 77.333 -5.66699 108 -17s56 -27.5 76 -48.5s35 -46.167 45 -75.5s15 -62 15 -98v-190zM362.995 739.997c-10.667 0 -21.166 2 -31.499 6s-20.333 8.5 -30 13.5s-19.334 9.5 -29.001 13.5
s-19.5 6 -29.5 6c-9.33301 0 -20 -2.83301 -32 -8.5s-24 -17.167 -36 -34.5l-79 44c15.333 42 34.333 72.333 57 91s46.667 28 72 28c13.333 0 25.833 -2.16699 37.5 -6.5s22.5 -9 32.5 -14s19.5 -9.5 28.5 -13.5s18.167 -6 27.5 -6c10 0 19.5 3 28.5 9
s18.833 16.667 29.5 32l77 -42c-15.333 -44.667 -34 -75.5 -56 -92.5s-44.333 -25.5 -67 -25.5z" />
    <glyph glyph-name="Odieresis" unicode="&#xd6;" horiz-adv-x="582" 
d="M346 433c0 12 -0.166992 23.665 -0.5 34.998s-1.5 22.666 -3.5 33.999c-2.66699 13.333 -8.66699 23.833 -18 31.5s-20.666 11.5 -33.999 11.5s-24.833 -4 -34.5 -12s-15.5 -18.667 -17.5 -32c-1.33301 -11.333 -2.33301 -22.666 -3 -33.999s-1 -22.666 -1 -33.999v-171
c0 -12 0.333008 -23.667 1 -35s1.66699 -22.666 3 -33.999c2.66699 -14 8.66699 -24.333 18 -31s20.666 -10 33.999 -10c37.333 0 56 22.333 56 67v214zM534 274.998c0 -30 -1.67188 -59.668 -5.00488 -89.001s-11.666 -56.666 -24.999 -81.999
c-18 -35.333 -45.167 -62.5 -81.5 -81.5s-80.5 -28.5 -132.5 -28.5c-54 0 -99.167 9 -135.5 27s-63.166 44 -80.499 78c-13.333 24.667 -21.166 53 -23.499 85s-3.5 62.333 -3.5 91v148c0 16.667 0.666992 33 2 49s3.33301 31.667 6 47
c8.66699 56.667 32.834 101.667 72.501 135s93.834 50 162.501 50c41.333 0 77.333 -5.66699 108 -17s56 -27.5 76 -48.5s35 -46.167 45 -75.5s15 -62 15 -98v-190zM323.995 736.997v133h147v-133h-147zM108.995 736.997v133h146v-133h-146z" />
    <glyph glyph-name="multiply" unicode="&#xd7;" horiz-adv-x="543" 
d="M371 310l140 -141l-98 -97l-139 140l-140 -140l-97 97l140 140l-139 138l97 99l140 -140l140 141l96 -97z" />
    <glyph glyph-name="Oslash" unicode="&#xd8;" horiz-adv-x="582" 
d="M48 24l34.998 57.999l-9 17c-13.333 24.667 -21.166 53 -23.499 85s-3.5 62.333 -3.5 91v148c0 16.667 0.666992 33 2 49s3.33301 31.667 6 47c8.66699 56.667 32.834 101.667 72.501 135s93.834 50 162.501 50c61.333 0 111.666 -13 150.999 -39l27 43l56 -34l-34 -55
c29.333 -40.667 44 -92 44 -154v-190c0 -30 -1.66699 -59.667 -5 -89s-11.666 -56.666 -24.999 -81.999c-18 -35.333 -45.167 -62.5 -81.5 -81.5s-80.5 -28.5 -132.5 -28.5c-68.667 0 -122.334 14 -161.001 42l-29 -46zM345.998 385.999l-109.999 -177.001
c0 -3.33301 0.166992 -6.16602 0.5 -8.49902s0.833008 -4.83301 1.5 -7.5c2.66699 -14 8.66699 -24.333 18 -31s20.666 -10 33.999 -10c37.333 0 56 22.333 56 67v167zM233.999 326.998l107.999 174.998c-2.66699 13.333 -8.66699 23.833 -18 31.5
s-20.666 11.5 -33.999 11.5s-24.833 -4 -34.5 -12s-15.5 -18.667 -17.5 -32c-1.33301 -11.333 -2.33301 -22.666 -3 -33.999s-1 -22.666 -1 -33.999v-106z" />
    <glyph glyph-name="Ugrave" unicode="&#xd9;" horiz-adv-x="591" 
d="M541 231c0 -34 -5.16699 -65.5 -15.5 -94.5s-25.666 -54 -45.999 -75s-46 -37.333 -77 -49s-67.5 -17.5 -109.5 -17.5s-78.167 5.83301 -108.5 17.5s-55.5 27.834 -75.5 48.501s-34.833 45.5 -44.5 74.5s-14.5 60.833 -14.5 95.5v465h187v-474
c0 -24.667 5.33301 -42.334 16 -53.001s25 -16 43 -16c17.333 0 31.166 6.33301 41.499 19s15.5 29.667 15.5 51v473h188v-465zM328 720l-220 96l78 121l197 -131z" />
    <glyph glyph-name="Uacute" unicode="&#xda;" horiz-adv-x="591" 
d="M541 231c0 -34 -5.16699 -65.5 -15.5 -94.5s-25.666 -54 -45.999 -75s-46 -37.333 -77 -49s-67.5 -17.5 -109.5 -17.5s-78.167 5.83301 -108.5 17.5s-55.5 27.834 -75.5 48.501s-34.833 45.5 -44.5 74.5s-14.5 60.833 -14.5 95.5v465h187v-474
c0 -24.667 5.33301 -42.334 16 -53.001s25 -16 43 -16c17.333 0 31.166 6.33301 41.499 19s15.5 29.667 15.5 51v473h188v-465zM198 806l197 131l78 -121l-219 -96z" />
    <glyph glyph-name="Ucircumflex" unicode="&#xdb;" horiz-adv-x="591" 
d="M541 231c0 -34 -5.16699 -65.5 -15.5 -94.5s-25.666 -54 -45.999 -75s-46 -37.333 -77 -49s-67.5 -17.5 -109.5 -17.5s-78.167 5.83301 -108.5 17.5s-55.5 27.834 -75.5 48.501s-34.833 45.5 -44.5 74.5s-14.5 60.833 -14.5 95.5v465h187v-474
c0 -24.667 5.33301 -42.334 16 -53.001s25 -16 43 -16c17.333 0 31.166 6.33301 41.499 19s15.5 29.667 15.5 51v473h188v-465zM295 807l-139 -86l-58 64l141 141h113l139 -142l-58 -64z" />
    <glyph glyph-name="Udieresis" unicode="&#xdc;" horiz-adv-x="591" 
d="M541 231c0 -34 -5.16699 -65.5 -15.5 -94.5s-25.666 -54 -45.999 -75s-46 -37.333 -77 -49s-67.5 -17.5 -109.5 -17.5s-78.167 5.83301 -108.5 17.5s-55.5 27.834 -75.5 48.501s-34.833 45.5 -44.5 74.5s-14.5 60.833 -14.5 95.5v465h187v-474
c0 -24.667 5.33301 -42.334 16 -53.001s25 -16 43 -16c17.333 0 31.166 6.33301 41.499 19s15.5 29.667 15.5 51v473h188v-465zM328 737v133h147v-133h-147zM113 737v133h146v-133h-146z" />
    <glyph glyph-name="Yacute" unicode="&#xdd;" horiz-adv-x="571" 
d="M287 446l16 49l16 49l46 152h194l-182 -433v-263h-186v263l-182 433h196l23.5 -76l22.5 -76l33 -98h3zM193 806l197 131l78 -121l-219 -96z" />
    <glyph glyph-name="Thorn" unicode="&#xde;" horiz-adv-x="561" 
d="M536 372c0 -34 -5.33203 -64.5 -15.999 -91.5s-25.834 -50.167 -45.501 -69.5s-43.5 -34.166 -71.5 -44.499s-59 -15.5 -93 -15.5h-73v-151h-187v696h186v-106h73c34 0 64.833 -4.33301 92.5 -13s51.5 -21.834 71.5 -39.501s35.5 -40.167 46.5 -67.5s16.5 -60 16.5 -98z
M352.001 373c0 22.667 -5.66797 39.333 -17.001 50s-26.666 16 -45.999 16h-52v-137h53c16.667 0 31.167 5.5 43.5 16.5s18.5 29.167 18.5 54.5z" />
    <glyph glyph-name="germandbls" unicode="&#xdf;" horiz-adv-x="526" 
d="M409 414c32.667 -8.66699 54.8311 -29.5029 66.498 -62.5029s17.5 -73.833 17.5 -122.5c0 -36 -2.66699 -68.5 -8 -97.5s-15.166 -53.667 -29.499 -74s-34.166 -36 -59.499 -47s-58 -16.5 -98 -16.5c-6.66699 0 -13.5 0.166992 -20.5 0.5s-14.167 0.833008 -21.5 1.5v142
c19.333 0 33.5 6.83301 42.5 20.5s13.5 39.834 13.5 78.501c0 20 -0.666992 36.833 -2 50.5s-4.33301 24.834 -9 33.501s-11 14.834 -19 18.501s-18.333 5.83398 -31 6.50098v117c14.667 0.666992 25 6.16699 31 16.5s9 23.166 9 38.499v25
c0 9.33301 -2.33301 18.666 -7 27.999s-13.667 14 -27 14c-12.667 0 -22 -4.33301 -28 -13s-9 -19.667 -9 -33v-539h-178v498c0 32 4.33301 61.667 13 89s21.667 51.333 39 72s39.5 36.834 66.5 48.501s59.167 17.5 96.5 17.5c36.667 0 68.167 -4.83301 94.5 -14.5
s48 -23 65 -40s29.667 -36.833 38 -59.5s12.5 -46.667 12.5 -72c0 -22.667 -4 -45.667 -12 -69s-23.333 -42 -46 -56z" />
    <glyph glyph-name="agrave" unicode="&#xe0;" horiz-adv-x="503" 
d="M257 510c62.667 0 112.667 -14.502 150 -43.502s56 -76.167 56 -141.5v-325h-176v39h-4c-15.333 -15.333 -32.833 -27 -52.5 -35s-39.834 -12 -60.501 -12c-45.333 0 -80 12 -104 36s-36 61 -36 111c0 22.667 3.66699 43.834 11 63.501s18.666 36.834 33.999 51.501
s34.833 26 58.5 34s51.834 12 84.501 12h66v28c0 9.33301 -2.66699 18 -8 26s-17.666 12 -36.999 12c-16.667 0 -30.834 -2.33301 -42.501 -7s-23.5 -15.667 -35.5 -33l-110 81c19.333 38 46.833 64.667 82.5 80s76.834 23 123.501 23zM208 159.998
c0 -9.33301 2.33398 -17.333 7.00098 -24s13.667 -10 27 -10c11.333 0 21.166 3.5 29.499 10.5s12.5 17.5 12.5 31.5v30h-35c-12.667 0 -22.667 -3.5 -30 -10.5s-11 -16.167 -11 -27.5zM256.001 534.998l-135 201l132 65l99 -220z" />
    <glyph glyph-name="aacute" unicode="&#xe1;" horiz-adv-x="503" 
d="M257 510c62.667 0 112.667 -14.502 150 -43.502s56 -76.167 56 -141.5v-325h-176v39h-4c-15.333 -15.333 -32.833 -27 -52.5 -35s-39.834 -12 -60.501 -12c-45.333 0 -80 12 -104 36s-36 61 -36 111c0 22.667 3.66699 43.834 11 63.501s18.666 36.834 33.999 51.501
s34.833 26 58.5 34s51.834 12 84.501 12h66v28c0 9.33301 -2.66699 18 -8 26s-17.666 12 -36.999 12c-16.667 0 -30.834 -2.33301 -42.501 -7s-23.5 -15.667 -35.5 -33l-110 81c19.333 38 46.833 64.667 82.5 80s76.834 23 123.501 23zM208 159.998
c0 -9.33301 2.33398 -17.333 7.00098 -24s13.667 -10 27 -10c11.333 0 21.166 3.5 29.499 10.5s12.5 17.5 12.5 31.5v30h-35c-12.667 0 -22.667 -3.5 -30 -10.5s-11 -16.167 -11 -27.5zM189.001 577.998l99 219l134 -61l-136 -203z" />
    <glyph glyph-name="acircumflex" unicode="&#xe2;" horiz-adv-x="503" 
d="M257 510c62.667 0 112.667 -14.502 150 -43.502s56 -76.167 56 -141.5v-325h-176v39h-4c-15.333 -15.333 -32.833 -27 -52.5 -35s-39.834 -12 -60.501 -12c-45.333 0 -80 12 -104 36s-36 61 -36 111c0 22.667 3.66699 43.834 11 63.501s18.666 36.834 33.999 51.501
s34.833 26 58.5 34s51.834 12 84.501 12h66v28c0 9.33301 -2.66699 18 -8 26s-17.666 12 -36.999 12c-16.667 0 -30.834 -2.33301 -42.501 -7s-23.5 -15.667 -35.5 -33l-110 81c19.333 38 46.833 64.667 82.5 80s76.834 23 123.501 23zM208 159.998
c0 -9.33301 2.33398 -17.333 7.00098 -24s13.667 -10 27 -10c11.333 0 21.166 3.5 29.499 10.5s12.5 17.5 12.5 31.5v30h-35c-12.667 0 -22.667 -3.5 -30 -10.5s-11 -16.167 -11 -27.5zM258.001 627.998l-132 -104l-67 60l144 165h113l141 -165l-68 -61z" />
    <glyph glyph-name="atilde" unicode="&#xe3;" horiz-adv-x="503" 
d="M257 510c62.667 0 112.667 -14.502 150 -43.502s56 -76.167 56 -141.5v-325h-176v39h-4c-15.333 -15.333 -32.833 -27 -52.5 -35s-39.834 -12 -60.501 -12c-45.333 0 -80 12 -104 36s-36 61 -36 111c0 22.667 3.66699 43.834 11 63.501s18.666 36.834 33.999 51.501
s34.833 26 58.5 34s51.834 12 84.501 12h66v28c0 9.33301 -2.66699 18 -8 26s-17.666 12 -36.999 12c-16.667 0 -30.834 -2.33301 -42.501 -7s-23.5 -15.667 -35.5 -33l-110 81c19.333 38 46.833 64.667 82.5 80s76.834 23 123.501 23zM208 159.998
c0 -9.33301 2.33398 -17.333 7.00098 -24s13.667 -10 27 -10c11.333 0 21.166 3.5 29.499 10.5s12.5 17.5 12.5 31.5v30h-35c-12.667 0 -22.667 -3.5 -30 -10.5s-11 -16.167 -11 -27.5zM331.001 553.998c-10.667 0 -21.166 2 -31.499 6s-20.333 8.5 -30 13.5
s-19.334 9.5 -29.001 13.5s-19.5 6 -29.5 6c-9.33301 0 -20 -2.83301 -32 -8.5s-24 -17.167 -36 -34.5l-79 44c15.333 42 34.333 72.333 57 91s46.667 28 72 28c13.333 0 25.833 -2.16699 37.5 -6.5s22.5 -9 32.5 -14s19.5 -9.5 28.5 -13.5s18.167 -6 27.5 -6
c10 0 19.5 3 28.5 9s18.833 16.667 29.5 32l77 -42c-15.333 -44.667 -34 -75.5 -56 -92.5s-44.333 -25.5 -67 -25.5z" />
    <glyph glyph-name="adieresis" unicode="&#xe4;" horiz-adv-x="503" 
d="M257 510c62.667 0 112.667 -14.502 150 -43.502s56 -76.167 56 -141.5v-325h-176v39h-4c-15.333 -15.333 -32.833 -27 -52.5 -35s-39.834 -12 -60.501 -12c-45.333 0 -80 12 -104 36s-36 61 -36 111c0 22.667 3.66699 43.834 11 63.501s18.666 36.834 33.999 51.501
s34.833 26 58.5 34s51.834 12 84.501 12h66v28c0 9.33301 -2.66699 18 -8 26s-17.666 12 -36.999 12c-16.667 0 -30.834 -2.33301 -42.501 -7s-23.5 -15.667 -35.5 -33l-110 81c19.333 38 46.833 64.667 82.5 80s76.834 23 123.501 23zM208 159.998
c0 -9.33301 2.33398 -17.333 7.00098 -24s13.667 -10 27 -10c11.333 0 21.166 3.5 29.499 10.5s12.5 17.5 12.5 31.5v30h-35c-12.667 0 -22.667 -3.5 -30 -10.5s-11 -16.167 -11 -27.5zM300.001 554.998v133h147v-133h-147zM85.001 554.998v133h146v-133h-146z" />
    <glyph glyph-name="aring" unicode="&#xe5;" horiz-adv-x="503" 
d="M257 510c62.667 0 112.667 -14.502 150 -43.502s56 -76.167 56 -141.5v-325h-176v39h-4c-15.333 -15.333 -32.833 -27 -52.5 -35s-39.834 -12 -60.501 -12c-45.333 0 -80 12 -104 36s-36 61 -36 111c0 22.667 3.66699 43.834 11 63.501s18.666 36.834 33.999 51.501
s34.833 26 58.5 34s51.834 12 84.501 12h66v28c0 9.33301 -2.66699 18 -8 26s-17.666 12 -36.999 12c-16.667 0 -30.834 -2.33301 -42.501 -7s-23.5 -15.667 -35.5 -33l-110 81c19.333 38 46.833 64.667 82.5 80s76.834 23 123.501 23zM208 159.998
c0 -9.33301 2.33398 -17.333 7.00098 -24s13.667 -10 27 -10c11.333 0 21.166 3.5 29.499 10.5s12.5 17.5 12.5 31.5v30h-35c-12.667 0 -22.667 -3.5 -30 -10.5s-11 -16.167 -11 -27.5zM132.001 655.998c0 16.667 3.33496 32.334 10.002 47.001s16 27.5 28 38.5
s25.833 19.667 41.5 26s32.5 9.5 50.5 9.5c17.333 0 33.833 -3.16699 49.5 -9.5s29.334 -15 41.001 -26s20.834 -23.833 27.501 -38.5s10 -30.334 10 -47.001c0 -17.333 -3.33301 -33.333 -10 -48s-15.834 -27.334 -27.501 -38.001s-25.334 -19.167 -41.001 -25.5
s-32.5 -9.5 -50.5 -9.5s-34.833 3.16699 -50.5 9.5s-29.334 14.833 -41.001 25.5s-20.834 23.334 -27.501 38.001s-10 30.667 -10 48zM302.003 655.998c0 10 -3.83301 18.667 -11.5 26s-17.167 11 -28.5 11c-12 0 -21.833 -3.66699 -29.5 -11s-11.5 -16 -11.5 -26
c0 -10.667 3.83301 -19.834 11.5 -27.501s17.5 -11.5 29.5 -11.5c11.333 0 20.833 3.83301 28.5 11.5s11.5 16.834 11.5 27.501z" />
    <glyph glyph-name="ae" unicode="&#xe6;" horiz-adv-x="750" 
d="M257 510c26.667 0 51.833 -3.5 75.5 -10.5s42.834 -17.167 57.501 -30.5c16 14 33.667 24 53 30s41.666 9 66.999 9c60.667 0 108 -14 142 -42s54.333 -66.333 61 -115c2.66699 -15.333 4.5 -31.5 5.5 -48.5s1.5 -34.167 1.5 -51.5v-47h-253
c0 -15.333 1.16699 -27.333 3.5 -36s5.66602 -15.5 9.99902 -20.5s9.5 -8.16699 15.5 -9.5s12.667 -2 20 -2s15.833 2.66699 25.5 8s20.167 18 31.5 38l136 -72c-16.667 -34.667 -40.334 -62.834 -71.001 -84.501s-72.667 -32.5 -126 -32.5c-38 0 -71.333 5.33301 -100 16
s-52.334 25.667 -71.001 45c-23.333 -23.333 -47.5 -39.666 -72.5 -48.999s-54.5 -14 -88.5 -14c-45.333 0 -81.666 12.167 -108.999 36.5s-41 61.5 -41 111.5c0 22.667 3.66699 44 11 64s18.666 37.333 33.999 52s34.833 26.167 58.5 34.5s51.834 12.5 84.501 12.5h66v26
c0 2.66699 -0.5 6.16699 -1.5 10.5s-3.16699 8.5 -6.5 12.5s-8 7.5 -14 10.5s-13.667 4.5 -23 4.5c-13.333 0 -26.666 -2.33301 -39.999 -7s-26 -15.667 -38 -33l-110 81c19.333 38 46.833 64.667 82.5 80s76.834 23 123.501 23zM207.999 160
c0 -9.33301 2.33398 -17.333 7.00098 -24s13.667 -10 27 -10c11.333 0 21.166 3.5 29.499 10.5s12.5 17.5 12.5 31.5v35h-35c-12.667 0 -22.667 -4.33301 -30 -13s-11 -18.667 -11 -30zM508 368c-12 0 -20.834 -6 -26.501 -18s-9.16699 -27.667 -10.5 -47h74
c-0.666992 12.667 -2 24.167 -4 34.5s-5.66699 17.833 -11 22.5c-5.33301 5.33301 -12.666 8 -21.999 8z" />
    <glyph glyph-name="ccedilla" unicode="&#xe7;" horiz-adv-x="468" 
d="M248 508c50 0 92.498 -11.832 127.498 -35.499s58.167 -56.5 69.5 -98.5l-145 -64c-3.33301 18 -9.16602 30.5 -17.499 37.5s-16.5 10.5 -24.5 10.5s-15 -1.5 -21 -4.5s-11 -8.5 -15 -16.5s-6.83301 -19 -8.5 -33s-2.5 -32.333 -2.5 -55c0 -42 3.66699 -70.333 11 -85
c4 -6.66699 8.66699 -11.667 14 -15s13 -5 23 -5c8 0 16.833 3.83301 26.5 11.5s17.834 20.5 24.501 38.5l140 -63c-18 -46 -43.333 -79.667 -76 -101s-71 -33 -115 -35c-2.66699 -5.33301 -5.16699 -10.833 -7.5 -16.5s-4.5 -11.5 -6.5 -17.5
c22 -2 40.167 -6.16699 54.5 -12.5s25.5 -14 33.5 -23s13.667 -18.667 17 -29s5 -20.5 5 -30.5c0 -9.33301 -2.16699 -20 -6.5 -32s-11.666 -23.333 -21.999 -34s-24 -19.5 -41 -26.5s-38.5 -10.5 -64.5 -10.5c-11.333 0 -26.666 1.16699 -45.999 3.5
s-40.333 8.16602 -63 17.499c4 12 7.66699 23.833 11 35.5s7 23.5 11 35.5c14.667 -5.33301 27.667 -9 39 -11s21.666 -3 30.999 -3c13.333 0 24.166 2.83301 32.499 8.5s12.5 13.167 12.5 22.5c0 7.33301 -2.33301 13.166 -7 17.499s-12 6.5 -22 6.5
c-5.33301 0 -9.66602 -0.333008 -12.999 -1l-43 30l27 74c-34.667 6 -63.334 18.5 -86.001 37.5s-39.334 41.833 -50.001 68.5c-7.33301 17.333 -13 39 -17 65s-6 52.333 -6 79c0 30 2.33301 58.833 7 86.5s11.334 50.167 20.001 67.5
c16.667 32.667 40.167 58.334 70.5 77.001s69.833 28 118.5 28z" />
    <glyph glyph-name="egrave" unicode="&#xe8;" horiz-adv-x="494" 
d="M257 -7c-54 0 -98.334 10.168 -133.001 30.501s-58.667 48.5 -72 84.5c-7.33301 19.333 -12.333 40.833 -15 64.5s-4 48.167 -4 73.5c0 34 3.33301 65.5 10 94.5s16.334 54.167 29.001 75.5c16.667 28 39.834 50.333 69.501 67s67.5 25 113.5 25
c60.667 0 108 -14 142 -42s54.333 -66.333 61 -115c2.66699 -15.333 4.5 -31.5 5.5 -48.5s1.5 -34.167 1.5 -51.5v-36h-253c0 -30 3.83301 -50.667 11.5 -62s20.167 -17 37.5 -17c7.33301 0 15.833 2.66699 25.5 8s20.167 18 31.5 38l136 -72
c-16.667 -34.667 -40.334 -62.834 -71.001 -84.501s-72.667 -32.5 -126 -32.5zM252.999 368.001c-22.667 0 -35.001 -20.333 -37.001 -61h74c-0.666992 12.667 -2 23.5 -4 32.5s-5.66699 15.833 -11 20.5c-5.33301 5.33301 -12.666 8 -21.999 8zM244.998 535.001l-135 201
l132 65l99 -220z" />
    <glyph glyph-name="eacute" unicode="&#xe9;" horiz-adv-x="494" 
d="M257 -7c-54 0 -98.334 10.168 -133.001 30.501s-58.667 48.5 -72 84.5c-7.33301 19.333 -12.333 40.833 -15 64.5s-4 48.167 -4 73.5c0 34 3.33301 65.5 10 94.5s16.334 54.167 29.001 75.5c16.667 28 39.834 50.333 69.501 67s67.5 25 113.5 25
c60.667 0 108 -14 142 -42s54.333 -66.333 61 -115c2.66699 -15.333 4.5 -31.5 5.5 -48.5s1.5 -34.167 1.5 -51.5v-36h-253c0 -30 3.83301 -50.667 11.5 -62s20.167 -17 37.5 -17c7.33301 0 15.833 2.66699 25.5 8s20.167 18 31.5 38l136 -72
c-16.667 -34.667 -40.334 -62.834 -71.001 -84.501s-72.667 -32.5 -126 -32.5zM252.999 368.001c-22.667 0 -35.001 -20.333 -37.001 -61h74c-0.666992 12.667 -2 23.5 -4 32.5s-5.66699 15.833 -11 20.5c-5.33301 5.33301 -12.666 8 -21.999 8zM170.998 578.001l99 219
l134 -61l-136 -203z" />
    <glyph glyph-name="ecircumflex" unicode="&#xea;" horiz-adv-x="494" 
d="M257 -7c-54 0 -98.334 10.168 -133.001 30.501s-58.667 48.5 -72 84.5c-7.33301 19.333 -12.333 40.833 -15 64.5s-4 48.167 -4 73.5c0 34 3.33301 65.5 10 94.5s16.334 54.167 29.001 75.5c16.667 28 39.834 50.333 69.501 67s67.5 25 113.5 25
c60.667 0 108 -14 142 -42s54.333 -66.333 61 -115c2.66699 -15.333 4.5 -31.5 5.5 -48.5s1.5 -34.167 1.5 -51.5v-36h-253c0 -30 3.83301 -50.667 11.5 -62s20.167 -17 37.5 -17c7.33301 0 15.833 2.66699 25.5 8s20.167 18 31.5 38l136 -72
c-16.667 -34.667 -40.334 -62.834 -71.001 -84.501s-72.667 -32.5 -126 -32.5zM252.999 368.001c-22.667 0 -35.001 -20.333 -37.001 -61h74c-0.666992 12.667 -2 23.5 -4 32.5s-5.66699 15.833 -11 20.5c-5.33301 5.33301 -12.666 8 -21.999 8zM252.998 628.001l-132 -104
l-67 60l144 165h113l141 -165l-68 -61z" />
    <glyph glyph-name="edieresis" unicode="&#xeb;" horiz-adv-x="494" 
d="M257 -7c-54 0 -98.334 10.168 -133.001 30.501s-58.667 48.5 -72 84.5c-7.33301 19.333 -12.333 40.833 -15 64.5s-4 48.167 -4 73.5c0 34 3.33301 65.5 10 94.5s16.334 54.167 29.001 75.5c16.667 28 39.834 50.333 69.501 67s67.5 25 113.5 25
c60.667 0 108 -14 142 -42s54.333 -66.333 61 -115c2.66699 -15.333 4.5 -31.5 5.5 -48.5s1.5 -34.167 1.5 -51.5v-36h-253c0 -30 3.83301 -50.667 11.5 -62s20.167 -17 37.5 -17c7.33301 0 15.833 2.66699 25.5 8s20.167 18 31.5 38l136 -72
c-16.667 -34.667 -40.334 -62.834 -71.001 -84.501s-72.667 -32.5 -126 -32.5zM252.999 368.001c-22.667 0 -35.001 -20.333 -37.001 -61h74c-0.666992 12.667 -2 23.5 -4 32.5s-5.66699 15.833 -11 20.5c-5.33301 5.33301 -12.666 8 -21.999 8zM294.998 555.001v133h147
v-133h-147zM79.998 555.001v133h146v-133h-146z" />
    <glyph glyph-name="igrave" unicode="&#xec;" horiz-adv-x="291" 
d="M55 0v497h181v-497h-181zM115 535l-135 201l132 65l99 -220z" />
    <glyph glyph-name="iacute" unicode="&#xed;" horiz-adv-x="291" 
d="M55 0v497h181v-497h-181zM75 578l99 219l134 -61l-136 -203z" />
    <glyph glyph-name="icircumflex" unicode="&#xee;" horiz-adv-x="358" 
d="M88 0v497h181v-497h-181zM179 628l-132 -104l-67 60l144 165h113l141 -165l-68 -61z" />
    <glyph glyph-name="idieresis" unicode="&#xef;" horiz-adv-x="322" 
d="M70 0v497h181v-497h-181zM195 555v133h147v-133h-147zM-20 555v133h146v-133h-146z" />
    <glyph glyph-name="eth" unicode="&#xf0;" horiz-adv-x="520" 
d="M409 647c31.333 -36.667 52.168 -81.9961 62.501 -135.996s15.5 -115.667 15.5 -185c0 -59.333 -4.33301 -110 -13 -152s-22.5 -76.333 -41.5 -103s-43.667 -46.334 -74 -59.001s-67.166 -19 -110.499 -19s-79 6.33301 -107 19s-50 30 -66 52s-27.167 47.833 -33.5 77.5
s-9.5 61.167 -9.5 94.5c0 31.333 3.33301 61.333 10 90s18 53.834 34 75.501s37.167 39 63.5 52s59.166 19.5 98.499 19.5c11.333 -0.666992 24.166 -2.16699 38.499 -4.5s27.5 -6.5 39.5 -12.5c-1.33301 15.333 -3.5 29.166 -6.5 41.499s-7.83301 24.166 -14.5 35.499
l-43 -43l-59 56l39 41c-26 12 -59 20 -99 24l21 136c40 -2.66699 75.333 -7.83398 106 -15.501s57.667 -17.834 81 -30.501l51 52l64 -59zM253.002 334.004c-5.33301 0 -10.333 -1.16699 -15 -3.5s-8.66699 -7 -12 -14s-6 -17 -8 -30s-3 -30.5 -3 -52.5
c0 -30 2.33301 -53 7 -69s15 -24 31 -24c12.667 0 22.167 6.83301 28.5 20.5s9.5 36.5 9.5 68.5v18c0 30 -2.83301 51.833 -8.5 65.5s-15.5 20.5 -29.5 20.5z" />
    <glyph glyph-name="ntilde" unicode="&#xf1;" horiz-adv-x="526" 
d="M226 453c20 22 41.168 36.667 63.501 44s40.833 11 55.5 11c26 0 48 -3.66699 66 -11s32.5 -17.833 43.5 -31.5s19 -30.167 24 -49.5s7.5 -41 7.5 -65v-351h-182v290c0 16.667 -2.83301 29.5 -8.5 38.5s-15.834 13.5 -30.501 13.5s-25.167 -5.5 -31.5 -16.5
s-9.5 -23.167 -9.5 -36.5v-289h-181v497h179v-43zM327.001 560c-10.667 0 -21.166 2 -31.499 6s-20.333 8.5 -30 13.5s-19.334 9.5 -29.001 13.5s-19.5 6 -29.5 6c-9.33301 0 -20 -2.83301 -32 -8.5s-24 -17.167 -36 -34.5l-79 44c15.333 42 34.333 72.333 57 91
s46.667 28 72 28c13.333 0 25.833 -2.16699 37.5 -6.5s22.5 -9 32.5 -14s19.5 -9.5 28.5 -13.5s18.167 -6 27.5 -6c10 0 19.5 3 28.5 9s18.833 16.667 29.5 32l77 -42c-15.333 -44.667 -34 -75.5 -56 -92.5s-44.333 -25.5 -67 -25.5z" />
    <glyph glyph-name="ograve" unicode="&#xf2;" horiz-adv-x="510" 
d="M260 509c50 0 90.166 -9.16699 120.499 -27.5s52.5 -40.5 66.5 -66.5c11.333 -20 19.166 -44.5 23.499 -73.5s6.5 -59.5 6.5 -91.5c0 -23.333 -2 -47.833 -6 -73.5s-9.66699 -48.167 -17 -67.5c-8.66699 -23.333 -20.167 -42.333 -34.5 -57s-30.5 -26.5 -48.5 -35.5
s-37.5 -15.167 -58.5 -18.5s-42.167 -5 -63.5 -5c-49.333 0 -89.666 8.83301 -120.999 26.5s-53.666 40.167 -66.999 67.5c-10 20 -17.167 44.667 -21.5 74s-6.5 59 -6.5 89c0 26.667 2 53.167 6 79.5s10 48.833 18 67.5c14 32.667 38.167 59.5 72.5 80.5
s77.833 31.5 130.5 31.5zM254.999 142c8.66699 0 15.333 1.83203 20 5.49902s8.66699 8.16699 12 13.5c4 7.33301 6.66699 18.833 8 34.5s2 33.167 2 52.5c0 18.667 -0.5 36 -1.5 52s-3.16699 28.667 -6.5 38c-6 14.667 -17 22 -33 22c-9.33301 0 -16.333 -2 -21 -6
s-8.66699 -9.66699 -12 -17c-4 -8.66699 -6.66699 -20 -8 -34s-2 -32.333 -2 -55c0 -21.333 0.666992 -39.166 2 -53.499s4.33301 -25.833 9 -34.5c6 -12 16.333 -18 31 -18zM240.998 534.999l-135 201l132 65l99 -220z" />
    <glyph glyph-name="oacute" unicode="&#xf3;" horiz-adv-x="510" 
d="M260 509c50 0 90.166 -9.16699 120.499 -27.5s52.5 -40.5 66.5 -66.5c11.333 -20 19.166 -44.5 23.499 -73.5s6.5 -59.5 6.5 -91.5c0 -23.333 -2 -47.833 -6 -73.5s-9.66699 -48.167 -17 -67.5c-8.66699 -23.333 -20.167 -42.333 -34.5 -57s-30.5 -26.5 -48.5 -35.5
s-37.5 -15.167 -58.5 -18.5s-42.167 -5 -63.5 -5c-49.333 0 -89.666 8.83301 -120.999 26.5s-53.666 40.167 -66.999 67.5c-10 20 -17.167 44.667 -21.5 74s-6.5 59 -6.5 89c0 26.667 2 53.167 6 79.5s10 48.833 18 67.5c14 32.667 38.167 59.5 72.5 80.5
s77.833 31.5 130.5 31.5zM254.999 142c8.66699 0 15.333 1.83203 20 5.49902s8.66699 8.16699 12 13.5c4 7.33301 6.66699 18.833 8 34.5s2 33.167 2 52.5c0 18.667 -0.5 36 -1.5 52s-3.16699 28.667 -6.5 38c-6 14.667 -17 22 -33 22c-9.33301 0 -16.333 -2 -21 -6
s-8.66699 -9.66699 -12 -17c-4 -8.66699 -6.66699 -20 -8 -34s-2 -32.333 -2 -55c0 -21.333 0.666992 -39.166 2 -53.499s4.33301 -25.833 9 -34.5c6 -12 16.333 -18 31 -18zM182.998 577.999l99 219l134 -61l-136 -203z" />
    <glyph glyph-name="ocircumflex" unicode="&#xf4;" horiz-adv-x="510" 
d="M260 509c50 0 90.166 -9.16699 120.499 -27.5s52.5 -40.5 66.5 -66.5c11.333 -20 19.166 -44.5 23.499 -73.5s6.5 -59.5 6.5 -91.5c0 -23.333 -2 -47.833 -6 -73.5s-9.66699 -48.167 -17 -67.5c-8.66699 -23.333 -20.167 -42.333 -34.5 -57s-30.5 -26.5 -48.5 -35.5
s-37.5 -15.167 -58.5 -18.5s-42.167 -5 -63.5 -5c-49.333 0 -89.666 8.83301 -120.999 26.5s-53.666 40.167 -66.999 67.5c-10 20 -17.167 44.667 -21.5 74s-6.5 59 -6.5 89c0 26.667 2 53.167 6 79.5s10 48.833 18 67.5c14 32.667 38.167 59.5 72.5 80.5
s77.833 31.5 130.5 31.5zM254.999 142c8.66699 0 15.333 1.83203 20 5.49902s8.66699 8.16699 12 13.5c4 7.33301 6.66699 18.833 8 34.5s2 33.167 2 52.5c0 18.667 -0.5 36 -1.5 52s-3.16699 28.667 -6.5 38c-6 14.667 -17 22 -33 22c-9.33301 0 -16.333 -2 -21 -6
s-8.66699 -9.66699 -12 -17c-4 -8.66699 -6.66699 -20 -8 -34s-2 -32.333 -2 -55c0 -21.333 0.666992 -39.166 2 -53.499s4.33301 -25.833 9 -34.5c6 -12 16.333 -18 31 -18zM255.998 627.999l-132 -104l-67 60l144 165h113l141 -165l-68 -61z" />
    <glyph glyph-name="otilde" unicode="&#xf5;" horiz-adv-x="510" 
d="M260 509c50 0 90.166 -9.16699 120.499 -27.5s52.5 -40.5 66.5 -66.5c11.333 -20 19.166 -44.5 23.499 -73.5s6.5 -59.5 6.5 -91.5c0 -23.333 -2 -47.833 -6 -73.5s-9.66699 -48.167 -17 -67.5c-8.66699 -23.333 -20.167 -42.333 -34.5 -57s-30.5 -26.5 -48.5 -35.5
s-37.5 -15.167 -58.5 -18.5s-42.167 -5 -63.5 -5c-49.333 0 -89.666 8.83301 -120.999 26.5s-53.666 40.167 -66.999 67.5c-10 20 -17.167 44.667 -21.5 74s-6.5 59 -6.5 89c0 26.667 2 53.167 6 79.5s10 48.833 18 67.5c14 32.667 38.167 59.5 72.5 80.5
s77.833 31.5 130.5 31.5zM254.999 142c8.66699 0 15.333 1.83203 20 5.49902s8.66699 8.16699 12 13.5c4 7.33301 6.66699 18.833 8 34.5s2 33.167 2 52.5c0 18.667 -0.5 36 -1.5 52s-3.16699 28.667 -6.5 38c-6 14.667 -17 22 -33 22c-9.33301 0 -16.333 -2 -21 -6
s-8.66699 -9.66699 -12 -17c-4 -8.66699 -6.66699 -20 -8 -34s-2 -32.333 -2 -55c0 -21.333 0.666992 -39.166 2 -53.499s4.33301 -25.833 9 -34.5c6 -12 16.333 -18 31 -18zM327.998 559.999c-10.667 0 -21.166 2 -31.499 6s-20.333 8.5 -30 13.5s-19.334 9.5 -29.001 13.5
s-19.5 6 -29.5 6c-9.33301 0 -20 -2.83301 -32 -8.5s-24 -17.167 -36 -34.5l-79 44c15.333 42 34.333 72.333 57 91s46.667 28 72 28c13.333 0 25.833 -2.16699 37.5 -6.5s22.5 -9 32.5 -14s19.5 -9.5 28.5 -13.5s18.167 -6 27.5 -6c10 0 19.5 3 28.5 9
s18.833 16.667 29.5 32l77 -42c-15.333 -44.667 -34 -75.5 -56 -92.5s-44.333 -25.5 -67 -25.5z" />
    <glyph glyph-name="odieresis" unicode="&#xf6;" horiz-adv-x="510" 
d="M260 509c50 0 90.166 -9.16699 120.499 -27.5s52.5 -40.5 66.5 -66.5c11.333 -20 19.166 -44.5 23.499 -73.5s6.5 -59.5 6.5 -91.5c0 -23.333 -2 -47.833 -6 -73.5s-9.66699 -48.167 -17 -67.5c-8.66699 -23.333 -20.167 -42.333 -34.5 -57s-30.5 -26.5 -48.5 -35.5
s-37.5 -15.167 -58.5 -18.5s-42.167 -5 -63.5 -5c-49.333 0 -89.666 8.83301 -120.999 26.5s-53.666 40.167 -66.999 67.5c-10 20 -17.167 44.667 -21.5 74s-6.5 59 -6.5 89c0 26.667 2 53.167 6 79.5s10 48.833 18 67.5c14 32.667 38.167 59.5 72.5 80.5
s77.833 31.5 130.5 31.5zM254.999 142c8.66699 0 15.333 1.83203 20 5.49902s8.66699 8.16699 12 13.5c4 7.33301 6.66699 18.833 8 34.5s2 33.167 2 52.5c0 18.667 -0.5 36 -1.5 52s-3.16699 28.667 -6.5 38c-6 14.667 -17 22 -33 22c-9.33301 0 -16.333 -2 -21 -6
s-8.66699 -9.66699 -12 -17c-4 -8.66699 -6.66699 -20 -8 -34s-2 -32.333 -2 -55c0 -21.333 0.666992 -39.166 2 -53.499s4.33301 -25.833 9 -34.5c6 -12 16.333 -18 31 -18zM290.998 554.999v133h147v-133h-147zM75.998 554.999v133h146v-133h-146z" />
    <glyph glyph-name="divide" unicode="&#xf7;" horiz-adv-x="543" 
d="M370 482c0 -12.667 -2.5 -24.5 -7.5 -35.5s-11.833 -20.667 -20.5 -29s-18.834 -15 -30.501 -20s-24.167 -7.5 -37.5 -7.5s-25.833 2.5 -37.5 7.5s-21.834 11.667 -30.501 20s-15.5 18 -20.5 29s-7.5 22.833 -7.5 35.5c0 26.667 9.33301 49.167 28 67.5
s41.334 27.5 68.001 27.5s49.334 -9.16699 68.001 -27.5s28 -40.833 28 -67.5zM370 100c0 -13.333 -2.5 -25.666 -7.5 -36.999s-11.833 -21.333 -20.5 -30s-18.834 -15.5 -30.501 -20.5s-24.167 -7.5 -37.5 -7.5s-25.833 2.5 -37.5 7.5s-21.834 11.833 -30.501 20.5
s-15.5 18.667 -20.5 30s-7.5 23.666 -7.5 36.999c0 12.667 2.5 24.667 7.5 36s11.833 21.166 20.5 29.499s18.834 15 30.501 20s24.167 7.5 37.5 7.5s25.833 -2.5 37.5 -7.5s21.834 -11.667 30.501 -20s15.5 -18.166 20.5 -29.499s7.5 -23.333 7.5 -36zM42 230v131h459v-131
h-459z" />
    <glyph glyph-name="oslash" unicode="&#xf8;" horiz-adv-x="510" 
d="M260 509c28.667 0 54.002 -3.16699 76.002 -9.5s41 -15.166 57 -26.499l29 37l41 -33l-31 -40l8 -10.5c2.66699 -3.66699 5 -7.5 7 -11.5c11.333 -20 19.166 -44.5 23.499 -73.5s6.5 -59.5 6.5 -91.5c0 -23.333 -2 -47.833 -6 -73.5s-9.66699 -48.167 -17 -67.5
c-8.66699 -23.333 -20.167 -42.333 -34.5 -57s-30.5 -26.5 -48.5 -35.5s-37.5 -15.167 -58.5 -18.5s-42.167 -5 -63.5 -5c-29.333 0 -55.333 3.16699 -78 9.5s-42.334 15.166 -59.001 26.499l-31 -40l-39 32l33 42v1c-5.33301 8 -10 15.667 -14 23
c-10 20 -17.167 44.667 -21.5 74s-6.5 59 -6.5 89c0 26.667 2 53.167 6 79.5s10 48.833 18 67.5c14 32.667 38.167 59.5 72.5 80.5s77.833 31.5 130.5 31.5zM255.002 142c8.66699 0 15.333 1.83301 20 5.5s8.66699 8.16699 12 13.5c4 7.33301 6.66699 18.833 8 34.5
s2 33.167 2 52.5v16l-76 -97l3 -7c6 -12 16.333 -18 31 -18zM213.001 241l76 97c-6 14.667 -17 22 -33 22c-9.33301 0 -16.333 -2 -21 -6s-8.66699 -9.66699 -12 -17c-4 -8.66699 -6.66699 -20 -8 -34s-2 -32.333 -2 -55v-7z" />
    <glyph glyph-name="ugrave" unicode="&#xf9;" horiz-adv-x="526" 
d="M300 44c-20 -22 -41.001 -36.332 -63.001 -42.999s-40 -10 -54 -10c-52.667 0 -89.667 14.167 -111 42.5s-32 66.5 -32 114.5v349h182v-288c0 -16 2.83301 -28.667 8.5 -38s15.834 -14 30.501 -14s25.167 5.66699 31.5 17s9.5 23.666 9.5 36.999v286h181v-497h-179v43z
M236.999 535.001l-135 201l132 65l99 -220z" />
    <glyph glyph-name="uacute" unicode="&#xfa;" horiz-adv-x="526" 
d="M300 44c-20 -22 -41.001 -36.332 -63.001 -42.999s-40 -10 -54 -10c-52.667 0 -89.667 14.167 -111 42.5s-32 66.5 -32 114.5v349h182v-288c0 -16 2.83301 -28.667 8.5 -38s15.834 -14 30.501 -14s25.167 5.66699 31.5 17s9.5 23.666 9.5 36.999v286h181v-497h-179v43z
M175.999 578.001l99 219l134 -61l-136 -203z" />
    <glyph glyph-name="ucircumflex" unicode="&#xfb;" horiz-adv-x="526" 
d="M300 44c-20 -22 -41.001 -36.332 -63.001 -42.999s-40 -10 -54 -10c-52.667 0 -89.667 14.167 -111 42.5s-32 66.5 -32 114.5v349h182v-288c0 -16 2.83301 -28.667 8.5 -38s15.834 -14 30.501 -14s25.167 5.66699 31.5 17s9.5 23.666 9.5 36.999v286h181v-497h-179v43z
M263.999 628.001l-132 -104l-67 60l144 165h113l141 -165l-68 -61z" />
    <glyph glyph-name="udieresis" unicode="&#xfc;" horiz-adv-x="526" 
d="M300 44c-20 -22 -41.001 -36.332 -63.001 -42.999s-40 -10 -54 -10c-52.667 0 -89.667 14.167 -111 42.5s-32 66.5 -32 114.5v349h182v-288c0 -16 2.83301 -28.667 8.5 -38s15.834 -14 30.501 -14s25.167 5.66699 31.5 17s9.5 23.666 9.5 36.999v286h181v-497h-179v43z
M296.999 555.001v133h147v-133h-147zM81.999 555.001v133h146v-133h-146z" />
    <glyph glyph-name="yacute" unicode="&#xfd;" horiz-adv-x="518" 
d="M259 206l25.999 140c0.666992 6 2.33398 16 5.00098 30l9 45c3.33301 16 6.33301 31.167 9 45.5s4.66699 24.5 6 30.5h192l-168 -547c-16.667 -56 -40.5 -94.5 -71.5 -115.5s-69.167 -31.5 -114.5 -31.5h-81v154h30c12.667 0 23 2 31 6s14.667 12.667 20 26l10 25
l-154 483h193l29 -155l26 -137zM180.999 578l99 219l134 -61l-136 -203z" />
    <glyph glyph-name="thorn" unicode="&#xfe;" horiz-adv-x="520" 
d="M263 142c15.333 0 25.999 10 31.999 30s9 46.667 9 80c0 38 -2.83301 64.333 -8.5 79s-16.167 22 -31.5 22c-16.667 0 -27.667 -8 -33 -24s-8 -44 -8 -84c0 -21.333 0.833008 -38.666 2.5 -51.999s4.33398 -23.833 8.00098 -31.5s8 -12.834 13 -15.501s10.5 -4 16.5 -4z
M227.999 24c-0.666992 -0.666992 -1.66699 -0.998047 -3 -0.998047v-221h-183v915h178v-262h4c7.33301 10 16 18.167 26 24.5s20 11.333 30 15s19.5 6.16699 28.5 7.5s16.5 2 22.5 2c34 0 61.167 -6 81.5 -18s36 -29.167 47 -51.5s18.333 -49.5 22 -81.5s5.5 -68 5.5 -108
c0 -32.667 -1.5 -64.334 -4.5 -95.001s-10 -57.834 -21 -81.501s-26.833 -42.667 -47.5 -57s-49 -21.5 -85 -21.5c-14 0 -30.5 2 -49.5 6s-36.167 13.333 -51.5 28z" />
    <glyph glyph-name="ydieresis" unicode="&#xff;" horiz-adv-x="518" 
d="M259 206l25.999 140c0.666992 6 2.33398 16 5.00098 30l9 45c3.33301 16 6.33301 31.167 9 45.5s4.66699 24.5 6 30.5h192l-168 -547c-16.667 -56 -40.5 -94.5 -71.5 -115.5s-69.167 -31.5 -114.5 -31.5h-81v154h30c12.667 0 23 2 31 6s14.667 12.667 20 26l10 25
l-154 483h193l29 -155l26 -137zM291.999 555v133h147v-133h-147zM76.999 555v133h146v-133h-146z" />
    <glyph glyph-name="Amacron" unicode="&#x100;" horiz-adv-x="618" 
d="M388 123h-159l-27 -123h-194l196 696h211l194 -696h-193zM306 482l-26 -131l-16 -78h89l-16 81l-25 128h-6zM158 750v124h304v-124h-304z" />
    <glyph glyph-name="amacron" unicode="&#x101;" horiz-adv-x="503" 
d="M257 510c62.667 0 112.667 -14.502 150 -43.502s56 -76.167 56 -141.5v-325h-176v39h-4c-15.333 -15.333 -32.833 -27 -52.5 -35s-39.834 -12 -60.501 -12c-45.333 0 -80 12 -104 36s-36 61 -36 111c0 22.667 3.66699 43.834 11 63.501s18.666 36.834 33.999 51.501
s34.833 26 58.5 34s51.834 12 84.501 12h66v28c0 9.33301 -2.66699 18 -8 26s-17.666 12 -36.999 12c-16.667 0 -30.834 -2.33301 -42.501 -7s-23.5 -15.667 -35.5 -33l-110 81c19.333 38 46.833 64.667 82.5 80s76.834 23 123.501 23zM208 159.998
c0 -9.33301 2.33398 -17.333 7.00098 -24s13.667 -10 27 -10c11.333 0 21.166 3.5 29.499 10.5s12.5 17.5 12.5 31.5v30h-35c-12.667 0 -22.667 -3.5 -30 -10.5s-11 -16.167 -11 -27.5zM110.001 566.998v124h304v-124h-304z" />
    <glyph glyph-name="Abreve" unicode="&#x102;" horiz-adv-x="618" 
d="M388 123h-159l-27 -123h-194l196 696h211l194 -696h-193zM306 482l-26 -131l-16 -78h89l-16 81l-25 128h-6zM308 722c-32.667 0 -60 5.66602 -82 16.999s-40 25.833 -54 43.5s-24.167 36.667 -30.5 57s-9.83301 39.5 -10.5 57.5h110
c0.666992 -8.66699 2.5 -17.334 5.5 -26.001s7.16699 -16.5 12.5 -23.5s11.833 -12.833 19.5 -17.5s17.167 -7 28.5 -7c12 0 22 2.33301 30 7s14.667 10.5 20 17.5s9.33301 14.833 12 23.5s4.33398 17.334 5.00098 26.001h112c-0.666992 -18 -4.33398 -37.167 -11.001 -57.5
s-17 -39.166 -31 -56.499s-32.167 -31.833 -54.5 -43.5s-49.5 -17.5 -81.5 -17.5z" />
    <glyph glyph-name="abreve" unicode="&#x103;" horiz-adv-x="503" 
d="M257 510c62.667 0 112.667 -14.502 150 -43.502s56 -76.167 56 -141.5v-325h-176v39h-4c-15.333 -15.333 -32.833 -27 -52.5 -35s-39.834 -12 -60.501 -12c-45.333 0 -80 12 -104 36s-36 61 -36 111c0 22.667 3.66699 43.834 11 63.501s18.666 36.834 33.999 51.501
s34.833 26 58.5 34s51.834 12 84.501 12h66v28c0 9.33301 -2.66699 18 -8 26s-17.666 12 -36.999 12c-16.667 0 -30.834 -2.33301 -42.501 -7s-23.5 -15.667 -35.5 -33l-110 81c19.333 38 46.833 64.667 82.5 80s76.834 23 123.501 23zM208 159.998
c0 -9.33301 2.33398 -17.333 7.00098 -24s13.667 -10 27 -10c11.333 0 21.166 3.5 29.499 10.5s12.5 17.5 12.5 31.5v30h-35c-12.667 0 -22.667 -3.5 -30 -10.5s-11 -16.167 -11 -27.5zM263.001 535.998c-32.667 0 -60.1641 5.83398 -82.4971 17.501
s-40.333 26.334 -54 44.001s-23.834 36.667 -30.501 57s-10.334 39.5 -11.001 57.5h111c1.33301 -19.333 7.5 -36.333 18.5 -51s26.833 -22 47.5 -22c22 0 38.333 7.66699 49 23s16.667 32 18 50h111c-0.666992 -17.333 -4.33398 -36.333 -11.001 -57
s-17 -39.834 -31 -57.501s-32 -32.334 -54 -44.001s-49 -17.5 -81 -17.5z" />
    <glyph glyph-name="Aogonek" unicode="&#x104;" horiz-adv-x="618" 
d="M367 -111c0 13.333 3.66699 30.498 11 51.498s19.666 42.167 36.999 63.5l-27 119h-159l-27 -123h-194l196 696h211l194 -696h-107c-9.33301 -17.333 -15.666 -33.166 -18.999 -47.499s-5 -26.166 -5 -35.499c0 -14.667 4.5 -24.667 13.5 -30s20.167 -8.33301 33.5 -9
c17.333 0 36 3 56 9l24 -76c-17.333 -9.33301 -36.833 -16.333 -58.5 -21s-41.167 -7 -58.5 -7c-36 0 -65.167 9.16699 -87.5 27.5s-33.5 44.5 -33.5 78.5zM306 481.998l-26 -131l-16 -78h89l-16 81l-25 128h-6z" />
    <glyph glyph-name="aogonek" unicode="&#x105;" horiz-adv-x="503" 
d="M239 -111c0 13.333 3.66699 30.4961 11 51.4961s19.666 41.833 36.999 62.5v36h-4c-15.333 -15.333 -32.833 -27 -52.5 -35s-39.834 -12 -60.501 -12c-45.333 0 -80 12 -104 36s-36 61 -36 111c0 22.667 3.66699 43.834 11 63.501s18.666 36.834 33.999 51.501
s34.833 26 58.5 34s51.834 12 84.501 12h66v28c0 9.33301 -2.66699 18 -8 26s-17.666 12 -36.999 12c-16.667 0 -30.834 -2.33301 -42.501 -7s-23.5 -15.667 -35.5 -33l-110 81c19.333 38 46.833 64.667 82.5 80s76.834 23 123.501 23c62.667 0 112.667 -14.5 150 -43.5
s56 -76.167 56 -141.5v-325h-89c-9.33301 -17.333 -15.666 -33.166 -18.999 -47.499s-5 -26.166 -5 -35.499c0 -14.667 4.5 -24.667 13.5 -30s20.167 -8.33301 33.5 -9c17.333 0 36 3 56 9l24 -76c-17.333 -9.33301 -36.833 -16.333 -58.5 -21s-41.167 -7 -58.5 -7
c-36 0 -65.167 9.16699 -87.5 27.5s-33.5 44.5 -33.5 78.5zM208 159.996c0 -9.33301 2.33398 -17.333 7.00098 -24s13.667 -10 27 -10c11.333 0 21.166 3.5 29.499 10.5s12.5 17.5 12.5 31.5v30h-35c-12.667 0 -22.667 -3.5 -30 -10.5s-11 -16.167 -11 -27.5z" />
    <glyph glyph-name="Cacute" unicode="&#x106;" horiz-adv-x="555" 
d="M283 704c36.667 0 68.8262 -4.83398 96.4932 -14.501s51.334 -23 71.001 -40s35.167 -37.167 46.5 -60.5s19.333 -48.666 24 -75.999l-170 -43c-5.33301 28 -13.333 47.667 -24 59s-23.667 17 -39 17c-14 0 -25 -4.16699 -33 -12.5s-13.667 -18.5 -17 -30.5
c-1.33301 -8 -2.33301 -16.333 -3 -25s-1 -17.667 -1 -27v-207c0 -19.333 1.33301 -36.666 4 -51.999c2.66699 -12 7.83398 -21.833 15.501 -29.5s18.834 -11.5 33.501 -11.5s27.834 5.66699 39.501 17s20.167 31.333 25.5 60l173 -41
c-5.33301 -29.333 -14.166 -55.833 -26.499 -79.5s-28.166 -43.834 -47.499 -60.501s-42.5 -29.667 -69.5 -39s-58.167 -14 -93.5 -14c-72.667 0 -129 16.833 -169 50.5s-63 81.167 -69 142.5c-2 30 -3 60.333 -3 91v170c0 19.333 1 39 3 59
c2.66699 28.667 9.83398 55 21.501 79s27.334 44.667 47.001 62s43.167 31 70.5 41s58.666 15 93.999 15zM185.992 805.999l197 131l78 -121l-219 -96z" />
    <glyph glyph-name="cacute" unicode="&#x107;" horiz-adv-x="468" 
d="M248 508c50 0 92.4951 -11.835 127.495 -35.502s58.167 -56.5 69.5 -98.5l-145 -64c-3.33301 18 -9.16602 30.5 -17.499 37.5s-16.5 10.5 -24.5 10.5s-15 -1.5 -21 -4.5s-11 -8.5 -15 -16.5s-6.83301 -19 -8.5 -33s-2.5 -32.333 -2.5 -55c0 -42 3.66699 -70.333 11 -85
c4 -6.66699 8.66699 -11.667 14 -15s13 -5 23 -5c8 0 16.833 3.83301 26.5 11.5s17.834 20.5 24.501 38.5l140 -63c-19.333 -48.667 -46.666 -83.667 -81.999 -105s-77.333 -32 -126 -32s-88.667 10.333 -120 31s-53.666 47.334 -66.999 80.001
c-7.33301 17.333 -13 39 -17 65s-6 52.333 -6 79c0 30 2.33301 58.833 7 86.5s11.334 50.167 20.001 67.5c16.667 32.667 40.167 58.334 70.5 77.001s69.833 28 118.5 28zM159.995 577.998l99 219l134 -61l-136 -203z" />
    <glyph glyph-name="Ccircumflex" unicode="&#x108;" horiz-adv-x="555" 
d="M283 704c36.667 0 68.8262 -4.83398 96.4932 -14.501s51.334 -23 71.001 -40s35.167 -37.167 46.5 -60.5s19.333 -48.666 24 -75.999l-170 -43c-5.33301 28 -13.333 47.667 -24 59s-23.667 17 -39 17c-14 0 -25 -4.16699 -33 -12.5s-13.667 -18.5 -17 -30.5
c-1.33301 -8 -2.33301 -16.333 -3 -25s-1 -17.667 -1 -27v-207c0 -19.333 1.33301 -36.666 4 -51.999c2.66699 -12 7.83398 -21.833 15.501 -29.5s18.834 -11.5 33.501 -11.5s27.834 5.66699 39.501 17s20.167 31.333 25.5 60l173 -41
c-5.33301 -29.333 -14.166 -55.833 -26.499 -79.5s-28.166 -43.834 -47.499 -60.501s-42.5 -29.667 -69.5 -39s-58.167 -14 -93.5 -14c-72.667 0 -129 16.833 -169 50.5s-63 81.167 -69 142.5c-2 30 -3 60.333 -3 91v170c0 19.333 1 39 3 59
c2.66699 28.667 9.83398 55 21.501 79s27.334 44.667 47.001 62s43.167 31 70.5 41s58.666 15 93.999 15zM284.992 806.999l-139 -86l-58 64l141 141h113l139 -142l-58 -64z" />
    <glyph glyph-name="ccircumflex" unicode="&#x109;" horiz-adv-x="468" 
d="M248 508c50 0 92.4951 -11.835 127.495 -35.502s58.167 -56.5 69.5 -98.5l-145 -64c-3.33301 18 -9.16602 30.5 -17.499 37.5s-16.5 10.5 -24.5 10.5s-15 -1.5 -21 -4.5s-11 -8.5 -15 -16.5s-6.83301 -19 -8.5 -33s-2.5 -32.333 -2.5 -55c0 -42 3.66699 -70.333 11 -85
c4 -6.66699 8.66699 -11.667 14 -15s13 -5 23 -5c8 0 16.833 3.83301 26.5 11.5s17.834 20.5 24.501 38.5l140 -63c-19.333 -48.667 -46.666 -83.667 -81.999 -105s-77.333 -32 -126 -32s-88.667 10.333 -120 31s-53.666 47.334 -66.999 80.001
c-7.33301 17.333 -13 39 -17 65s-6 52.333 -6 79c0 30 2.33301 58.833 7 86.5s11.334 50.167 20.001 67.5c16.667 32.667 40.167 58.334 70.5 77.001s69.833 28 118.5 28zM244.995 627.998l-132 -104l-67 60l144 165h113l141 -165l-68 -61z" />
    <glyph glyph-name="Cdotaccent" unicode="&#x10a;" horiz-adv-x="555" 
d="M283 704c36.667 0 68.8262 -4.83398 96.4932 -14.501s51.334 -23 71.001 -40s35.167 -37.167 46.5 -60.5s19.333 -48.666 24 -75.999l-170 -43c-5.33301 28 -13.333 47.667 -24 59s-23.667 17 -39 17c-14 0 -25 -4.16699 -33 -12.5s-13.667 -18.5 -17 -30.5
c-1.33301 -8 -2.33301 -16.333 -3 -25s-1 -17.667 -1 -27v-207c0 -19.333 1.33301 -36.666 4 -51.999c2.66699 -12 7.83398 -21.833 15.501 -29.5s18.834 -11.5 33.501 -11.5s27.834 5.66699 39.501 17s20.167 31.333 25.5 60l173 -41
c-5.33301 -29.333 -14.166 -55.833 -26.499 -79.5s-28.166 -43.834 -47.499 -60.501s-42.5 -29.667 -69.5 -39s-58.167 -14 -93.5 -14c-72.667 0 -129 16.833 -169 50.5s-63 81.167 -69 142.5c-2 30 -3 60.333 -3 91v170c0 19.333 1 39 3 59
c2.66699 28.667 9.83398 55 21.501 79s27.334 44.667 47.001 62s43.167 31 70.5 41s58.666 15 93.999 15zM190.992 742.999v139h173v-139h-173z" />
    <glyph glyph-name="cdotaccent" unicode="&#x10b;" horiz-adv-x="468" 
d="M248 508c50 0 92.4951 -11.835 127.495 -35.502s58.167 -56.5 69.5 -98.5l-145 -64c-3.33301 18 -9.16602 30.5 -17.499 37.5s-16.5 10.5 -24.5 10.5s-15 -1.5 -21 -4.5s-11 -8.5 -15 -16.5s-6.83301 -19 -8.5 -33s-2.5 -32.333 -2.5 -55c0 -42 3.66699 -70.333 11 -85
c4 -6.66699 8.66699 -11.667 14 -15s13 -5 23 -5c8 0 16.833 3.83301 26.5 11.5s17.834 20.5 24.501 38.5l140 -63c-19.333 -48.667 -46.666 -83.667 -81.999 -105s-77.333 -32 -126 -32s-88.667 10.333 -120 31s-53.666 47.334 -66.999 80.001
c-7.33301 17.333 -13 39 -17 65s-6 52.333 -6 79c0 30 2.33301 58.833 7 86.5s11.334 50.167 20.001 67.5c16.667 32.667 40.167 58.334 70.5 77.001s69.833 28 118.5 28zM149.995 568.998v139h173v-139h-173z" />
    <glyph glyph-name="Ccaron" unicode="&#x10c;" horiz-adv-x="555" 
d="M283 704c36.667 0 68.8262 -4.83398 96.4932 -14.501s51.334 -23 71.001 -40s35.167 -37.167 46.5 -60.5s19.333 -48.666 24 -75.999l-170 -43c-5.33301 28 -13.333 47.667 -24 59s-23.667 17 -39 17c-14 0 -25 -4.16699 -33 -12.5s-13.667 -18.5 -17 -30.5
c-1.33301 -8 -2.33301 -16.333 -3 -25s-1 -17.667 -1 -27v-207c0 -19.333 1.33301 -36.666 4 -51.999c2.66699 -12 7.83398 -21.833 15.501 -29.5s18.834 -11.5 33.501 -11.5s27.834 5.66699 39.501 17s20.167 31.333 25.5 60l173 -41
c-5.33301 -29.333 -14.166 -55.833 -26.499 -79.5s-28.166 -43.834 -47.499 -60.501s-42.5 -29.667 -69.5 -39s-58.167 -14 -93.5 -14c-72.667 0 -129 16.833 -169 50.5s-63 81.167 -69 142.5c-2 30 -3 60.333 -3 91v170c0 19.333 1 39 3 59
c2.66699 28.667 9.83398 55 21.501 79s27.334 44.667 47.001 62s43.167 31 70.5 41s58.666 15 93.999 15zM420.992 929.999l58 -64l-139 -141h-113l-141 140l58 65l139 -86z" />
    <glyph glyph-name="ccaron" unicode="&#x10d;" horiz-adv-x="468" 
d="M248 508c50 0 92.4951 -11.835 127.495 -35.502s58.167 -56.5 69.5 -98.5l-145 -64c-3.33301 18 -9.16602 30.5 -17.499 37.5s-16.5 10.5 -24.5 10.5s-15 -1.5 -21 -4.5s-11 -8.5 -15 -16.5s-6.83301 -19 -8.5 -33s-2.5 -32.333 -2.5 -55c0 -42 3.66699 -70.333 11 -85
c4 -6.66699 8.66699 -11.667 14 -15s13 -5 23 -5c8 0 16.833 3.83301 26.5 11.5s17.834 20.5 24.501 38.5l140 -63c-19.333 -48.667 -46.666 -83.667 -81.999 -105s-77.333 -32 -126 -32s-88.667 10.333 -120 31s-53.666 47.334 -66.999 80.001
c-7.33301 17.333 -13 39 -17 65s-6 52.333 -6 79c0 30 2.33301 58.833 7 86.5s11.334 50.167 20.001 67.5c16.667 32.667 40.167 58.334 70.5 77.001s69.833 28 118.5 28zM373.995 760.998l68 -59l-141 -165h-113l-144 165l68 59l132 -103z" />
    <glyph glyph-name="Dcaron" unicode="&#x10e;" horiz-adv-x="588" 
d="M354 398c0 19.333 -0.5 38.5 -1.5 57.5s-3.16699 33.167 -6.5 42.5c-8.66699 29.333 -31.667 44 -69 44h-39v-389h40c29.333 0 49.333 8.83301 60 26.5s16 42.167 16 73.5v145zM313 696c54 0 98.334 -8.83398 133.001 -26.501s59.667 -46.167 75 -85.5
c10 -25.333 16 -57.5 18 -96.5s3 -83.5 3 -133.5c0 -52 -1 -97.5 -3 -136.5s-8 -71.167 -18 -96.5c-8.66699 -22 -20.5 -40.833 -35.5 -56.5s-32.333 -28.167 -52 -37.5s-40.834 -16.166 -63.501 -20.499s-46 -6.5 -70 -6.5h-249v696h262zM409.001 929.999l58 -64l-139 -141
h-113l-141 140l58 65l139 -86z" />
    <glyph glyph-name="dcaron" unicode="&#x10f;" horiz-adv-x="697" 
d="M538 461l28 120h-30v147h160v-139l-63 -128h-95zM257 355c-16 0 -26.833 -9.99902 -32.5 -29.999s-8.5 -47 -8.5 -81c0 -38 2.83301 -64.333 8.5 -79s15.834 -22 30.501 -22c16 0 26.833 8.66699 32.5 26s8.5 44.666 8.5 81.999c0 24 -1 43 -3 57
s-4.83301 24.5 -8.5 31.5s-7.83398 11.333 -12.501 13s-9.66699 2.5 -15 2.5zM292 472.001c0.666992 0.666992 1.66699 0.998047 3 0.998047v259h182v-732h-177v41h-4c-7.33301 -10 -16 -18.167 -26 -24.5s-20.167 -11.166 -30.5 -14.499s-20 -5.66602 -29 -6.99902
s-16.5 -2 -22.5 -2c-34 0 -61.333 5.83301 -82 17.5s-36.5 28.5 -47.5 50.5s-18.167 48.667 -21.5 80s-5 67 -5 107c0 34 1.83301 66.5 5.5 97.5s11.167 58.5 22.5 82.5s27.5 43 48.5 57s48.5 21 82.5 21c14 0 30.5 -2 49.5 -6s36.167 -13.333 51.5 -28z" />
    <glyph glyph-name="Dcroat" unicode="&#x110;" horiz-adv-x="588" 
d="M16 397l35.001 -0.000976562v299h262c54 0 98.333 -8.83301 133 -26.5s59.667 -46.167 75 -85.5c10 -25.333 16 -57.5 18 -96.5s3 -83.5 3 -133.5c0 -52 -1 -97.5 -3 -136.5s-8 -71.167 -18 -96.5c-8.66699 -22 -20.5 -40.833 -35.5 -56.5s-32.333 -28.167 -52 -37.5
s-40.834 -16.166 -63.501 -20.499s-46 -6.5 -70 -6.5h-249v309h-35v88zM354.001 397.999c0 19.333 -0.5 38.5 -1.5 57.5s-3.16699 33.167 -6.5 42.5c-8.66699 29.333 -31.667 44 -69 44h-39v-145h71v-88h-71v-156h40c29.333 0 49.333 8.83301 60 26.5s16 42.167 16 73.5v145
z" />
    <glyph glyph-name="dcroat" unicode="&#x111;" horiz-adv-x="531" 
d="M292 452c0.666992 0.666992 1.66699 0.998047 3 0.998047v89h-106v109h106v81h182v-81h44v-109h-44v-542h-177v41h-4c-7.33301 -10 -16 -18.167 -26 -24.5s-20.167 -11.166 -30.5 -14.499s-20 -5.66602 -29 -6.99902s-16.5 -2 -22.5 -2c-34 0 -61.333 5.5 -82 16.5
s-36.5 27 -47.5 48s-18.167 46.667 -21.5 77s-5 64.833 -5 103.5c0 33.333 2 65 6 95s11.667 56.333 23 79s27.333 40.667 48 54s48 20 82 20c14 0 30.5 -2 49.5 -6s36.167 -13.333 51.5 -28zM257 334.998c-18 0 -29.334 -8.66602 -34.001 -25.999s-7 -42.333 -7 -75
c0 -18.667 0.5 -34 1.5 -46s3 -21.333 6 -28s7 -11.167 12 -13.5s11.5 -3.5 19.5 -3.5c18.667 0 30.167 7.16699 34.5 21.5s6.5 38.166 6.5 71.499c0 21.333 -0.666992 38.5 -2 51.5s-3.66602 23 -6.99902 30s-7.5 11.667 -12.5 14s-10.833 3.5 -17.5 3.5z" />
    <glyph glyph-name="Emacron" unicode="&#x112;" horiz-adv-x="532" 
d="M50 0v696h447v-156h-258v-107h217v-156h-217v-120h258v-157h-447zM121 750v124h304v-124h-304z" />
    <glyph glyph-name="emacron" unicode="&#x113;" horiz-adv-x="494" 
d="M257 -7c-54 0 -98.334 10.168 -133.001 30.501s-58.667 48.5 -72 84.5c-7.33301 19.333 -12.333 40.833 -15 64.5s-4 48.167 -4 73.5c0 34 3.33301 65.5 10 94.5s16.334 54.167 29.001 75.5c16.667 28 39.834 50.333 69.501 67s67.5 25 113.5 25
c60.667 0 108 -14 142 -42s54.333 -66.333 61 -115c2.66699 -15.333 4.5 -31.5 5.5 -48.5s1.5 -34.167 1.5 -51.5v-36h-253c0 -30 3.83301 -50.667 11.5 -62s20.167 -17 37.5 -17c7.33301 0 15.833 2.66699 25.5 8s20.167 18 31.5 38l136 -72
c-16.667 -34.667 -40.334 -62.834 -71.001 -84.501s-72.667 -32.5 -126 -32.5zM252.999 368.001c-22.667 0 -35.001 -20.333 -37.001 -61h74c-0.666992 12.667 -2 23.5 -4 32.5s-5.66699 15.833 -11 20.5c-5.33301 5.33301 -12.666 8 -21.999 8zM101.998 567.001v124h304
v-124h-304z" />
    <glyph glyph-name="Ebreve" unicode="&#x114;" horiz-adv-x="532" 
d="M50 0v696h447v-156h-258v-107h217v-156h-217v-120h258v-157h-447zM272 723c-32.667 0 -60 5.66602 -82 16.999s-40 25.833 -54 43.5s-24.167 36.667 -30.5 57s-9.83301 39.5 -10.5 57.5h110c0.666992 -8.66699 2.5 -17.334 5.5 -26.001s7.16699 -16.5 12.5 -23.5
s11.833 -12.833 19.5 -17.5s17.167 -7 28.5 -7c12 0 22 2.33301 30 7s14.667 10.5 20 17.5s9.33301 14.833 12 23.5s4.33398 17.334 5.00098 26.001h112c-0.666992 -18 -4.33398 -37.167 -11.001 -57.5s-17 -39.166 -31 -56.499s-32.167 -31.833 -54.5 -43.5
s-49.5 -17.5 -81.5 -17.5z" />
    <glyph glyph-name="ebreve" unicode="&#x115;" horiz-adv-x="494" 
d="M257 -7c-54 0 -98.334 10.168 -133.001 30.501s-58.667 48.5 -72 84.5c-7.33301 19.333 -12.333 40.833 -15 64.5s-4 48.167 -4 73.5c0 34 3.33301 65.5 10 94.5s16.334 54.167 29.001 75.5c16.667 28 39.834 50.333 69.501 67s67.5 25 113.5 25
c60.667 0 108 -14 142 -42s54.333 -66.333 61 -115c2.66699 -15.333 4.5 -31.5 5.5 -48.5s1.5 -34.167 1.5 -51.5v-36h-253c0 -30 3.83301 -50.667 11.5 -62s20.167 -17 37.5 -17c7.33301 0 15.833 2.66699 25.5 8s20.167 18 31.5 38l136 -72
c-16.667 -34.667 -40.334 -62.834 -71.001 -84.501s-72.667 -32.5 -126 -32.5zM252.999 368.001c-22.667 0 -35.001 -20.333 -37.001 -61h74c-0.666992 12.667 -2 23.5 -4 32.5s-5.66699 15.833 -11 20.5c-5.33301 5.33301 -12.666 8 -21.999 8zM261.998 536.001
c-32.667 0 -60.1641 5.83398 -82.4971 17.501s-40.333 26.334 -54 44.001s-23.834 36.667 -30.501 57s-10.334 39.5 -11.001 57.5h111c1.33301 -19.333 7.5 -36.333 18.5 -51s26.833 -22 47.5 -22c22 0 38.333 7.66699 49 23s16.667 32 18 50h111
c-0.666992 -17.333 -4.33398 -36.333 -11.001 -57s-17 -39.834 -31 -57.501s-32 -32.334 -54 -44.001s-49 -17.5 -81 -17.5z" />
    <glyph glyph-name="Edotaccent" unicode="&#x116;" horiz-adv-x="532" 
d="M50 0v696h447v-156h-258v-107h217v-156h-217v-120h258v-157h-447zM184 739v139h173v-139h-173z" />
    <glyph glyph-name="edotaccent" unicode="&#x117;" horiz-adv-x="494" 
d="M257 -7c-54 0 -98.334 10.168 -133.001 30.501s-58.667 48.5 -72 84.5c-7.33301 19.333 -12.333 40.833 -15 64.5s-4 48.167 -4 73.5c0 34 3.33301 65.5 10 94.5s16.334 54.167 29.001 75.5c16.667 28 39.834 50.333 69.501 67s67.5 25 113.5 25
c60.667 0 108 -14 142 -42s54.333 -66.333 61 -115c2.66699 -15.333 4.5 -31.5 5.5 -48.5s1.5 -34.167 1.5 -51.5v-36h-253c0 -30 3.83301 -50.667 11.5 -62s20.167 -17 37.5 -17c7.33301 0 15.833 2.66699 25.5 8s20.167 18 31.5 38l136 -72
c-16.667 -34.667 -40.334 -62.834 -71.001 -84.501s-72.667 -32.5 -126 -32.5zM252.999 368.001c-22.667 0 -35.001 -20.333 -37.001 -61h74c-0.666992 12.667 -2 23.5 -4 32.5s-5.66699 15.833 -11 20.5c-5.33301 5.33301 -12.666 8 -21.999 8zM165.998 569.001v139h173
v-139h-173z" />
    <glyph glyph-name="Eogonek" unicode="&#x118;" horiz-adv-x="532" 
d="M350 -111c0 13.333 3.33105 29.998 9.99805 49.998s18.334 40.333 35.001 61h-345v696h447v-156h-258v-107h217v-156h-217v-120h258v-157h-12c-9.33301 -17.333 -15.666 -33.166 -18.999 -47.499s-5 -26.166 -5 -35.499c0 -14.667 4.5 -24.667 13.5 -30
s20.167 -8.33301 33.5 -9c17.333 0 36 3 56 9l24 -76c-17.333 -9.33301 -36.833 -16.333 -58.5 -21s-41.167 -7 -58.5 -7c-36 0 -65.167 9.16699 -87.5 27.5s-33.5 44.5 -33.5 78.5z" />
    <glyph glyph-name="eogonek" unicode="&#x119;" horiz-adv-x="494" 
d="M261 -81c0 9.33301 1.66504 20.501 4.99805 33.501s9 26.833 17 41.5c-4.66699 0 -9 -0.166992 -13 -0.5s-8.33301 -0.5 -13 -0.5c-54 0 -98.333 10.167 -133 30.5s-58.667 48.5 -72 84.5c-7.33301 19.333 -12.333 40.833 -15 64.5s-4 48.167 -4 73.5
c0 34 3.33301 65.5 10 94.5s16.334 54.167 29.001 75.5c16.667 28 39.834 50.333 69.501 67s67.5 25 113.5 25c60.667 0 108 -14 142 -42s54.333 -66.333 61 -115c2.66699 -15.333 4.5 -31.5 5.5 -48.5s1.5 -34.167 1.5 -51.5v-36h-253c0 -30 3.83301 -50.667 11.5 -62
s20.167 -17 37.5 -17c7.33301 0 15.833 2.66699 25.5 8s20.167 18 31.5 38l136 -72c-13.333 -29.333 -31 -53 -53 -71c-11.333 -19.333 -19 -36.833 -23 -52.5s-6 -28.834 -6 -39.501c0 -14.667 4.5 -24.667 13.5 -30s20.167 -8.33301 33.5 -9c17.333 0 36 3 56 9l24 -76
c-17.333 -9.33301 -36.833 -16.333 -58.5 -21s-41.167 -7 -58.5 -7c-36 0 -65.167 9.16699 -87.5 27.5s-33.5 44.5 -33.5 78.5zM252.998 368.001c-22.667 0 -35.001 -20.333 -37.001 -61h74c-0.666992 12.667 -2 23.5 -4 32.5s-5.66699 15.833 -11 20.5
c-5.33301 5.33301 -12.666 8 -21.999 8z" />
    <glyph glyph-name="Ecaron" unicode="&#x11a;" horiz-adv-x="532" 
d="M50 0v696h447v-156h-258v-107h217v-156h-217v-120h258v-157h-447zM402 930l58 -64l-139 -141h-113l-141 140l58 65l139 -86z" />
    <glyph glyph-name="ecaron" unicode="&#x11b;" horiz-adv-x="494" 
d="M257 -7c-54 0 -98.334 10.168 -133.001 30.501s-58.667 48.5 -72 84.5c-7.33301 19.333 -12.333 40.833 -15 64.5s-4 48.167 -4 73.5c0 34 3.33301 65.5 10 94.5s16.334 54.167 29.001 75.5c16.667 28 39.834 50.333 69.501 67s67.5 25 113.5 25
c60.667 0 108 -14 142 -42s54.333 -66.333 61 -115c2.66699 -15.333 4.5 -31.5 5.5 -48.5s1.5 -34.167 1.5 -51.5v-36h-253c0 -30 3.83301 -50.667 11.5 -62s20.167 -17 37.5 -17c7.33301 0 15.833 2.66699 25.5 8s20.167 18 31.5 38l136 -72
c-16.667 -34.667 -40.334 -62.834 -71.001 -84.501s-72.667 -32.5 -126 -32.5zM252.999 368.001c-22.667 0 -35.001 -20.333 -37.001 -61h74c-0.666992 12.667 -2 23.5 -4 32.5s-5.66699 15.833 -11 20.5c-5.33301 5.33301 -12.666 8 -21.999 8zM376.998 761.001l68 -59
l-141 -165h-113l-144 165l68 59l132 -103z" />
    <glyph glyph-name="Gcircumflex" unicode="&#x11c;" horiz-adv-x="578" 
d="M292 -6c-74.667 0 -132.335 17.3301 -173.002 51.9971s-63.667 83.334 -69 146.001c-2 26 -3 52.333 -3 79v156c0 26 1 52.667 3 80c3.33301 28.667 11 55 23 79s28.167 44.667 48.5 62s44.333 31 72 41s59.167 15 94.5 15c36.667 0 68.834 -4.83301 96.501 -14.5
s51.167 -23 70.5 -40s34.833 -37.167 46.5 -60.5s20.167 -48.333 25.5 -75l-171 -43c-5.33301 28 -13.833 47.5 -25.5 58.5s-24.834 16.5 -39.501 16.5c-15.333 0 -27.333 -4.16699 -36 -12.5s-14.667 -18.5 -18 -30.5c-1.33301 -7.33301 -2.16602 -15.166 -2.49902 -23.499
s-0.5 -16.833 -0.5 -25.5v-218c0 -8 0.333008 -16.167 1 -24.5s1.66699 -16.166 3 -23.499c3.33301 -12 9.33301 -21.833 18 -29.5s20.334 -11.5 35.001 -11.5c22.667 0 38.5 6.5 47.5 19.5s13.5 27.833 13.5 44.5v49h-60v134h245v-159c0 -18.667 -1 -36.334 -3 -53.001
c-3.33301 -28.667 -11.333 -54.667 -24 -78s-29.5 -43.166 -50.5 -59.499s-45.667 -28.833 -74 -37.5s-59.5 -13 -93.5 -13zM285.999 798.997l-139 -86l-58 64l141 141h113l139 -142l-58 -64z" />
    <glyph glyph-name="gcircumflex" unicode="&#x11d;" horiz-adv-x="520" 
d="M254 164c8.66699 0 15.667 2.33398 21 7.00098s9.33301 11.167 12 19.5s4.33398 17.833 5.00098 28.5s1 22 1 34c0 14 -0.166992 27.167 -0.5 39.5s-1.5 23.166 -3.5 32.499s-5.33301 16.666 -10 21.999s-11.667 8 -21 8c-15.333 0 -26.333 -7.66699 -33 -23
s-10 -42.666 -10 -81.999c0 -33.333 3.16699 -56 9.5 -68s16.166 -18 29.499 -18zM477 17.001c0 -71.333 -17.834 -126.998 -53.501 -166.998s-93.167 -60 -172.5 -60c-49.333 0 -89.833 7.66699 -121.5 23s-57.5 36.666 -77.5 63.999l108 106
c16.667 -17.333 31.5 -28.5 44.5 -33.5s23.5 -7.5 31.5 -7.5c23.333 0 39.333 7 48 21s13 32.667 13 56v34c-0.666992 0.666992 -1.66699 1 -3 1c-15.333 -15.333 -33.166 -26 -53.499 -32s-37.5 -9 -51.5 -9c-33.333 0 -60.166 6 -80.499 18s-36.166 28.667 -47.499 50
s-19 46.666 -23 75.999s-6 61.333 -6 96c0 38 2.33301 72.5 7 103.5s13.167 57.5 25.5 79.5s29.166 39 50.499 51s48.666 18 81.999 18c6 0 13.167 -0.5 21.5 -1.5s17.166 -3 26.499 -6s18.333 -7.33301 27 -13s16.334 -13.5 23.001 -23.5h4v37h178v-481zM265.999 628.003
l-132 -104l-67 60l144 165h113l141 -165l-68 -61z" />
    <glyph glyph-name="Gbreve" unicode="&#x11e;" horiz-adv-x="578" 
d="M292 -6c-74.667 0 -132.335 17.3301 -173.002 51.9971s-63.667 83.334 -69 146.001c-2 26 -3 52.333 -3 79v156c0 26 1 52.667 3 80c3.33301 28.667 11 55 23 79s28.167 44.667 48.5 62s44.333 31 72 41s59.167 15 94.5 15c36.667 0 68.834 -4.83301 96.501 -14.5
s51.167 -23 70.5 -40s34.833 -37.167 46.5 -60.5s20.167 -48.333 25.5 -75l-171 -43c-5.33301 28 -13.833 47.5 -25.5 58.5s-24.834 16.5 -39.501 16.5c-15.333 0 -27.333 -4.16699 -36 -12.5s-14.667 -18.5 -18 -30.5c-1.33301 -7.33301 -2.16602 -15.166 -2.49902 -23.499
s-0.5 -16.833 -0.5 -25.5v-218c0 -8 0.333008 -16.167 1 -24.5s1.66699 -16.166 3 -23.499c3.33301 -12 9.33301 -21.833 18 -29.5s20.334 -11.5 35.001 -11.5c22.667 0 38.5 6.5 47.5 19.5s13.5 27.833 13.5 44.5v49h-60v134h245v-159c0 -18.667 -1 -36.334 -3 -53.001
c-3.33301 -28.667 -11.333 -54.667 -24 -78s-29.5 -43.166 -50.5 -59.499s-45.667 -28.833 -74 -37.5s-59.5 -13 -93.5 -13zM275.999 723.997c-32.667 0 -60 5.66602 -82 16.999s-40 25.833 -54 43.5s-24.167 36.667 -30.5 57s-9.83301 39.5 -10.5 57.5h110
c0.666992 -8.66699 2.5 -17.334 5.5 -26.001s7.16699 -16.5 12.5 -23.5s11.833 -12.833 19.5 -17.5s17.167 -7 28.5 -7c12 0 22 2.33301 30 7s14.667 10.5 20 17.5s9.33301 14.833 12 23.5s4.33398 17.334 5.00098 26.001h112c-0.666992 -18 -4.33398 -37.167 -11.001 -57.5
s-17 -39.166 -31 -56.499s-32.167 -31.833 -54.5 -43.5s-49.5 -17.5 -81.5 -17.5z" />
    <glyph glyph-name="gbreve" unicode="&#x11f;" horiz-adv-x="520" 
d="M254 164c8.66699 0 15.667 2.33398 21 7.00098s9.33301 11.167 12 19.5s4.33398 17.833 5.00098 28.5s1 22 1 34c0 14 -0.166992 27.167 -0.5 39.5s-1.5 23.166 -3.5 32.499s-5.33301 16.666 -10 21.999s-11.667 8 -21 8c-15.333 0 -26.333 -7.66699 -33 -23
s-10 -42.666 -10 -81.999c0 -33.333 3.16699 -56 9.5 -68s16.166 -18 29.499 -18zM477 17.001c0 -71.333 -17.834 -126.998 -53.501 -166.998s-93.167 -60 -172.5 -60c-49.333 0 -89.833 7.66699 -121.5 23s-57.5 36.666 -77.5 63.999l108 106
c16.667 -17.333 31.5 -28.5 44.5 -33.5s23.5 -7.5 31.5 -7.5c23.333 0 39.333 7 48 21s13 32.667 13 56v34c-0.666992 0.666992 -1.66699 1 -3 1c-15.333 -15.333 -33.166 -26 -53.499 -32s-37.5 -9 -51.5 -9c-33.333 0 -60.166 6 -80.499 18s-36.166 28.667 -47.499 50
s-19 46.666 -23 75.999s-6 61.333 -6 96c0 38 2.33301 72.5 7 103.5s13.167 57.5 25.5 79.5s29.166 39 50.499 51s48.666 18 81.999 18c6 0 13.167 -0.5 21.5 -1.5s17.166 -3 26.499 -6s18.333 -7.33301 27 -13s16.334 -13.5 23.001 -23.5h4v37h178v-481zM274.999 536.003
c-32.667 0 -60.1641 5.83398 -82.4971 17.501s-40.333 26.334 -54 44.001s-23.834 36.667 -30.501 57s-10.334 39.5 -11.001 57.5h111c1.33301 -19.333 7.5 -36.333 18.5 -51s26.833 -22 47.5 -22c22 0 38.333 7.66699 49 23s16.667 32 18 50h111
c-0.666992 -17.333 -4.33398 -36.333 -11.001 -57s-17 -39.834 -31 -57.501s-32 -32.334 -54 -44.001s-49 -17.5 -81 -17.5z" />
    <glyph glyph-name="Gdotaccent" unicode="&#x120;" horiz-adv-x="578" 
d="M292 -6c-74.667 0 -132.335 17.3301 -173.002 51.9971s-63.667 83.334 -69 146.001c-2 26 -3 52.333 -3 79v156c0 26 1 52.667 3 80c3.33301 28.667 11 55 23 79s28.167 44.667 48.5 62s44.333 31 72 41s59.167 15 94.5 15c36.667 0 68.834 -4.83301 96.501 -14.5
s51.167 -23 70.5 -40s34.833 -37.167 46.5 -60.5s20.167 -48.333 25.5 -75l-171 -43c-5.33301 28 -13.833 47.5 -25.5 58.5s-24.834 16.5 -39.501 16.5c-15.333 0 -27.333 -4.16699 -36 -12.5s-14.667 -18.5 -18 -30.5c-1.33301 -7.33301 -2.16602 -15.166 -2.49902 -23.499
s-0.5 -16.833 -0.5 -25.5v-218c0 -8 0.333008 -16.167 1 -24.5s1.66699 -16.166 3 -23.499c3.33301 -12 9.33301 -21.833 18 -29.5s20.334 -11.5 35.001 -11.5c22.667 0 38.5 6.5 47.5 19.5s13.5 27.833 13.5 44.5v49h-60v134h245v-159c0 -18.667 -1 -36.334 -3 -53.001
c-3.33301 -28.667 -11.333 -54.667 -24 -78s-29.5 -43.166 -50.5 -59.499s-45.667 -28.833 -74 -37.5s-59.5 -13 -93.5 -13zM186.999 738.997v139h173v-139h-173z" />
    <glyph glyph-name="gdotaccent" unicode="&#x121;" horiz-adv-x="520" 
d="M254 164c8.66699 0 15.667 2.33398 21 7.00098s9.33301 11.167 12 19.5s4.33398 17.833 5.00098 28.5s1 22 1 34c0 14 -0.166992 27.167 -0.5 39.5s-1.5 23.166 -3.5 32.499s-5.33301 16.666 -10 21.999s-11.667 8 -21 8c-15.333 0 -26.333 -7.66699 -33 -23
s-10 -42.666 -10 -81.999c0 -33.333 3.16699 -56 9.5 -68s16.166 -18 29.499 -18zM477 17.001c0 -71.333 -17.834 -126.998 -53.501 -166.998s-93.167 -60 -172.5 -60c-49.333 0 -89.833 7.66699 -121.5 23s-57.5 36.666 -77.5 63.999l108 106
c16.667 -17.333 31.5 -28.5 44.5 -33.5s23.5 -7.5 31.5 -7.5c23.333 0 39.333 7 48 21s13 32.667 13 56v34c-0.666992 0.666992 -1.66699 1 -3 1c-15.333 -15.333 -33.166 -26 -53.499 -32s-37.5 -9 -51.5 -9c-33.333 0 -60.166 6 -80.499 18s-36.166 28.667 -47.499 50
s-19 46.666 -23 75.999s-6 61.333 -6 96c0 38 2.33301 72.5 7 103.5s13.167 57.5 25.5 79.5s29.166 39 50.499 51s48.666 18 81.999 18c6 0 13.167 -0.5 21.5 -1.5s17.166 -3 26.499 -6s18.333 -7.33301 27 -13s16.334 -13.5 23.001 -23.5h4v37h178v-481zM175.999 569.003
v139h173v-139h-173z" />
    <glyph glyph-name="Gcommaaccent" unicode="&#x122;" horiz-adv-x="578" 
d="M292 -6c-74.667 0 -132.335 17.3301 -173.002 51.9971s-63.667 83.334 -69 146.001c-2 26 -3 52.333 -3 79v156c0 26 1 52.667 3 80c3.33301 28.667 11 55 23 79s28.167 44.667 48.5 62s44.333 31 72 41s59.167 15 94.5 15c36.667 0 68.834 -4.83301 96.501 -14.5
s51.167 -23 70.5 -40s34.833 -37.167 46.5 -60.5s20.167 -48.333 25.5 -75l-171 -43c-5.33301 28 -13.833 47.5 -25.5 58.5s-24.834 16.5 -39.501 16.5c-15.333 0 -27.333 -4.16699 -36 -12.5s-14.667 -18.5 -18 -30.5c-1.33301 -7.33301 -2.16602 -15.166 -2.49902 -23.499
s-0.5 -16.833 -0.5 -25.5v-218c0 -8 0.333008 -16.167 1 -24.5s1.66699 -16.166 3 -23.499c3.33301 -12 9.33301 -21.833 18 -29.5s20.334 -11.5 35.001 -11.5c22.667 0 38.5 6.5 47.5 19.5s13.5 27.833 13.5 44.5v49h-60v134h245v-159c0 -18.667 -1 -36.334 -3 -53.001
c-3.33301 -28.667 -11.333 -54.667 -24 -78s-29.5 -43.166 -50.5 -59.499s-45.667 -28.833 -74 -37.5s-59.5 -13 -93.5 -13zM206.999 -322.003l28 120h-30v147h160v-139l-63 -128h-95z" />
    <glyph glyph-name="gcommaaccent" unicode="&#x123;" horiz-adv-x="520" 
d="M477 17c0 -71.333 -17.834 -126.998 -53.501 -166.998s-93.167 -60 -172.5 -60c-49.333 0 -89.833 7.66699 -121.5 23s-57.5 36.666 -77.5 63.999l108 106c16.667 -17.333 31.5 -28.5 44.5 -33.5s23.5 -7.5 31.5 -7.5c23.333 0 39.333 7 48 21s13 32.667 13 56v34
c-0.666992 0.666992 -1.66699 1 -3 1c-15.333 -15.333 -33.166 -26 -53.499 -32s-37.5 -9 -51.5 -9c-33.333 0 -60.166 6 -80.499 18s-36.166 28.667 -47.499 50s-19 46.666 -23 75.999s-6 61.333 -6 96c0 38 2.33301 72.5 7 103.5s13.167 57.5 25.5 79.5
s29.166 39 50.499 51s48.666 18 81.999 18c6 0 13.167 -0.5 21.5 -1.5s17.166 -3 26.499 -6s18.333 -7.33301 27 -13s16.334 -13.5 23.001 -23.5h4v37h178v-481zM249.999 834.002h95c-5.33301 -20 -10 -40 -14 -60s-8.66699 -40 -14 -60h30v-146h-160v138zM253.999 164.002
c8.66699 0 15.667 2.33398 21 7.00098s9.33301 11.167 12 19.5s4.33398 17.833 5.00098 28.5s1 22 1 34c0 14 -0.166992 27.167 -0.5 39.5s-1.5 23.166 -3.5 32.499s-5.33301 16.666 -10 21.999s-11.667 8 -21 8c-15.333 0 -26.333 -7.66699 -33 -23
s-10 -42.666 -10 -81.999c0 -33.333 3.16699 -56 9.5 -68s16.166 -18 29.499 -18z" />
    <glyph glyph-name="Hcircumflex" unicode="&#x124;" horiz-adv-x="593" 
d="M356 0v272h-117v-272h-189v696h189v-264h117v264h187v-696h-187zM301 807l-139 -86l-58 64l141 141h113l139 -142l-58 -64z" />
    <glyph glyph-name="hcircumflex" unicode="&#x125;" horiz-adv-x="526" 
d="M226 454c20 22 41.168 36.5 63.501 43.5s40.833 10.5 55.5 10.5c26 0 48 -3.66699 66 -11s32.5 -17.833 43.5 -31.5s19 -30.167 24 -49.5s7.5 -41 7.5 -65v-351h-182v290c0 16.667 -2.83301 29.5 -8.5 38.5s-15.834 13.5 -30.501 13.5s-25.167 -5.5 -31.5 -16.5
s-9.5 -23.167 -9.5 -36.5v-289h-181v732h179v-277zM137.001 820l-139 -86l-58 64l141 141h113l139 -142l-58 -64z" />
    <glyph glyph-name="Hbar" unicode="&#x126;" horiz-adv-x="593" 
d="M356 0v272h-117v-272h-189v503h-34v97h34v96h189v-96h117v96h187v-96h40v-97h-40v-503h-187zM356 432v71h-117v-71h117z" />
    <glyph glyph-name="hbar" unicode="&#x127;" horiz-adv-x="532" 
d="M232 433c20 22 41.168 36.5 63.501 43.5s40.833 10.5 55.5 10.5c26 0 48 -3.66699 66 -11s32.5 -17.833 43.5 -31.5s19 -30.167 24 -49.5s7.5 -41 7.5 -65v-330h-182v269c0 16.667 -2.83301 29.5 -8.5 38.5s-15.834 13.5 -30.501 13.5s-25.167 -5.5 -31.5 -16.5
s-9.5 -23.167 -9.5 -36.5v-268h-181v540h-41v108h41v84h179v-84h158v-108h-158v-106z" />
    <glyph glyph-name="Itilde" unicode="&#x128;" horiz-adv-x="309" 
d="M60 0v696h189v-696h-189zM227 730c-10.667 0 -21.166 2 -31.499 6s-20.333 8.5 -30 13.5s-19.334 9.5 -29.001 13.5s-19.5 6 -29.5 6c-9.33301 0 -20 -2.83301 -32 -8.5s-24 -17.167 -36 -34.5l-79 44c15.333 42 34.333 72.333 57 91s46.667 28 72 28
c13.333 0 25.833 -2.16699 37.5 -6.5s22.5 -9 32.5 -14s19.5 -9.5 28.5 -13.5s18.167 -6 27.5 -6c10 0 19.5 3 28.5 9s18.833 16.667 29.5 32l77 -42c-15.333 -44.667 -34 -75.5 -56 -92.5s-44.333 -25.5 -67 -25.5z" />
    <glyph glyph-name="itilde" unicode="&#x129;" horiz-adv-x="350" 
d="M247 560c-10.667 0 -21.166 2 -31.499 6s-20.333 8.5 -30 13.5s-19.334 9.5 -29.001 13.5s-19.5 6 -29.5 6c-9.33301 0 -20 -2.83301 -32 -8.5s-24 -17.167 -36 -34.5l-79 44c15.333 42 34.333 72.333 57 91s46.667 28 72 28c13.333 0 25.833 -2.16699 37.5 -6.5
s22.5 -9 32.5 -14s19.5 -9.5 28.5 -13.5s18.167 -6 27.5 -6c10 0 19.5 3 28.5 9s18.833 16.667 29.5 32l77 -42c-15.333 -44.667 -34 -75.5 -56 -92.5s-44.333 -25.5 -67 -25.5zM83.001 0v497h181v-497h-181z" />
    <glyph glyph-name="Imacron" unicode="&#x12a;" horiz-adv-x="309" 
d="M60 0v696h189v-696h-189zM-1 750v124h304v-124h-304z" />
    <glyph glyph-name="imacron" unicode="&#x12b;" horiz-adv-x="291" 
d="M55 0v497h181v-497h-181zM-7 567v124h304v-124h-304z" />
    <glyph glyph-name="Ibreve" unicode="&#x12c;" horiz-adv-x="309" 
d="M152 739c-32.667 0 -60 5.66602 -82 16.999s-40 25.833 -54 43.5s-24.167 36.667 -30.5 57s-9.83301 39.5 -10.5 57.5h110c0.666992 -8.66699 2.5 -17.334 5.5 -26.001s7.16699 -16.5 12.5 -23.5s11.833 -12.833 19.5 -17.5s17.167 -7 28.5 -7c12 0 22 2.33301 30 7
s14.667 10.5 20 17.5s9.33301 14.833 12 23.5s4.33398 17.334 5.00098 26.001h112c-0.666992 -18 -4.33398 -37.167 -11.001 -57.5s-17 -39.166 -31 -56.499s-32.167 -31.833 -54.5 -43.5s-49.5 -17.5 -81.5 -17.5zM60 -0.000976562v696h189v-696h-189z" />
    <glyph glyph-name="ibreve" unicode="&#x12d;" horiz-adv-x="315" 
d="M70 0v497h181v-497h-181zM158 536c-32.667 0 -60.1641 5.83398 -82.4971 17.501s-40.333 26.334 -54 44.001s-23.834 36.667 -30.501 57s-10.334 39.5 -11.001 57.5h111c1.33301 -19.333 7.5 -36.333 18.5 -51s26.833 -22 47.5 -22c22 0 38.333 7.66699 49 23
s16.667 32 18 50h111c-0.666992 -17.333 -4.33398 -36.333 -11.001 -57s-17 -39.834 -31 -57.501s-32 -32.334 -54 -44.001s-49 -17.5 -81 -17.5z" />
    <glyph glyph-name="Iogonek" unicode="&#x12e;" horiz-adv-x="309" 
d="M53 -110c0 13.333 3.33301 30 10 50s18 40 34 60h-37v696h189v-696h-62c-9.33301 -17.333 -15.5 -33 -18.5 -47s-4.5 -25.667 -4.5 -35c0 -14.667 4.5 -24.667 13.5 -30s20.167 -8.33301 33.5 -9c17.333 0 36 3 56 9l24 -76c-17.333 -9.33301 -36.833 -16.333 -58.5 -21
s-41.167 -7 -58.5 -7c-36 0 -65.167 9.16699 -87.5 27.5s-33.5 44.5 -33.5 78.5z" />
    <glyph glyph-name="iogonek" unicode="&#x12f;" horiz-adv-x="291" 
d="M44 -110c0 13.333 3.33301 30 10 50s18 40 34 60h-33v497h181v-497h-58c-9.33301 -17.333 -15.5 -33 -18.5 -47s-4.5 -25.667 -4.5 -35c0 -14.667 4.5 -24.667 13.5 -30s20.167 -8.33301 33.5 -9c17.333 0 36 3 56 9l24 -76c-17.333 -9.33301 -36.833 -16.333 -58.5 -21
s-41.167 -7 -58.5 -7c-36 0 -65.167 9.16699 -87.5 27.5s-33.5 44.5 -33.5 78.5zM55 569v142h181v-142h-181z" />
    <glyph glyph-name="Idotaccent" unicode="&#x130;" horiz-adv-x="309" 
d="M60 0v696h189v-696h-189zM69 749v139h173v-139h-173z" />
    <glyph glyph-name="dotlessi" unicode="&#x131;" horiz-adv-x="291" 
d="M55 0v497h181v-497h-181z" />
    <glyph glyph-name="IJ" unicode="&#x132;" horiz-adv-x="758" 
d="M60 0v696h189v-696h-189zM703 212c0 -39.333 -6.33203 -72.668 -18.999 -100.001s-29.834 -49.666 -51.501 -66.999s-46.5 -30 -74.5 -38s-57.333 -12 -88 -12c-20 0 -39.5 1.33301 -58.5 4s-37.167 7.5 -54.5 14.5s-34 16.833 -50 29.5s-31.333 29 -46 49l115 116
c16.667 -18.667 32 -31 46 -37s26.667 -9 38 -9c18 0 31.833 5.83301 41.5 17.5s14.5 26.167 14.5 43.5v473h187v-484z" />
    <glyph glyph-name="ij" unicode="&#x133;" horiz-adv-x="549" 
d="M55 0v497h181v-497h-181zM55 569v142h181v-142h-181zM313 569v142h181v-142h-181zM493 -39c0 -50.667 -14.833 -90.666 -44.5 -119.999s-75.834 -44 -138.501 -44h-74v152h29c16.667 0 28.834 4.16699 36.501 12.5s11.5 23.166 11.5 44.499v491h180v-536z" />
    <glyph glyph-name="Jcircumflex" unicode="&#x134;" horiz-adv-x="499" 
d="M444 213c0 -39.333 -6.33203 -72.668 -18.999 -100.001s-29.834 -49.666 -51.501 -66.999s-46.5 -30 -74.5 -38s-57.333 -12 -88 -12c-20 0 -39.5 1.33301 -58.5 4s-37.167 7.5 -54.5 14.5s-34 16.833 -50 29.5s-31.333 29 -46 49l115 116c16.667 -18.667 32 -31 46 -37
s26.667 -9 38 -9c18 0 31.833 5.83301 41.5 17.5s14.5 26.167 14.5 43.5v473h187v-484zM355.001 808.998l-139 -86l-58 64l141 141h113l139 -142l-58 -64z" />
    <glyph glyph-name="jcircumflex" unicode="&#x135;" horiz-adv-x="359" 
d="M271 -39c0 -50.667 -14.832 -90.667 -44.499 -120s-75.834 -44 -138.501 -44h-75v152h29c32 0 48 20.667 48 62v486h181v-536zM179.001 628l-132 -104l-67 60l144 165h113l142 -165l-68 -61z" />
    <glyph glyph-name="Kcommaaccent" unicode="&#x136;" horiz-adv-x="617" 
d="M395 412l108.5 -206.5l108.5 -205.5h-213l-59.5 123.5l-59.5 124.5l-42 -55v-193h-188v696h188v-212h6l56 79l93 133h206zM220 -302l28 120h-30v147h160v-139l-63 -128h-95z" />
    <glyph glyph-name="kcommaaccent" unicode="&#x137;" horiz-adv-x="545" 
d="M228 373l94 123h207l-162 -191l170 -305h-206l-82 165l-26 -31v-134h-180v726h180l1 -352zM172 -322l28 120h-30v147h160v-139l-63 -128h-95z" />
    <glyph glyph-name="kgreenlandic" unicode="&#x138;" horiz-adv-x="545" 
d="M228 373l94 123h207l-162 -191l170 -305h-206l-82 165l-26 -31v-134h-180v496h180l1 -122z" />
    <glyph glyph-name="Lacute" unicode="&#x139;" horiz-adv-x="517" 
d="M50 0v696h189v-539h258v-157h-447zM75 806l197 131l78 -121l-219 -96z" />
    <glyph glyph-name="lacute" unicode="&#x13a;" horiz-adv-x="315" 
d="M216 -2c-31.333 0 -57.333 3.83105 -78 11.498s-37.167 18.667 -49.5 33s-21 31.833 -26 52.5s-7.5 44.334 -7.5 71.001v561h180v-541c0 -11.333 2.5 -20.666 7.5 -27.999s14.833 -11 29.5 -11h16v-149h-72zM57 827.998l197 131l78 -121l-219 -96z" />
    <glyph glyph-name="Lcommaaccent" unicode="&#x13b;" horiz-adv-x="517" 
d="M50 0v696h189v-539h258v-157h-447zM197 -322l28 120h-30v147h160v-139l-63 -128h-95z" />
    <glyph glyph-name="lcommaaccent" unicode="&#x13c;" horiz-adv-x="315" 
d="M216 -2c-31.333 0 -57.333 3.83105 -78 11.498s-37.167 18.667 -49.5 33s-21 31.833 -26 52.5s-7.5 44.334 -7.5 71.001v561h180v-541c0 -11.333 2.5 -20.666 7.5 -27.999s14.833 -11 29.5 -11h16v-149h-72zM87 -320.002l28 120h-30v147h160v-139l-63 -128h-95z" />
    <glyph glyph-name="Lcaron" unicode="&#x13d;" horiz-adv-x="517" 
d="M50 0v696h189v-539h258v-157h-447zM338 430l28 120h-30v147h160v-139l-63 -128h-95z" />
    <glyph glyph-name="lcaron" unicode="&#x13e;" horiz-adv-x="453" 
d="M295 458l28 120h-30v147h160v-139l-63 -128h-95zM216 -2c-31.333 0 -57.333 3.83105 -78 11.498s-37.167 18.667 -49.5 33s-21 31.833 -26 52.5s-7.5 44.334 -7.5 71.001v561h180v-541c0 -11.333 2.5 -20.666 7.5 -27.999s14.833 -11 29.5 -11h16v-149h-72z" />
    <glyph glyph-name="Ldot" unicode="&#x13f;" horiz-adv-x="517" 
d="M50 0v696h189v-539h258v-157h-447zM325 313v139h173v-139h-173z" />
    <glyph glyph-name="ldot" unicode="&#x140;" horiz-adv-x="463" 
d="M289 331v139h173v-139h-173zM216 -2c-31.333 0 -57.333 3.83105 -78 11.498s-37.167 18.667 -49.5 33s-21 31.833 -26 52.5s-7.5 44.334 -7.5 71.001v561h180v-541c0 -11.333 2.5 -20.666 7.5 -27.999s14.833 -11 29.5 -11h16v-149h-72z" />
    <glyph glyph-name="Lslash" unicode="&#x141;" horiz-adv-x="529" 
d="M61 0v210l-26 -16l-55 92l81 51v359h189v-241l69 44l54 -91l-123 -78v-173h258v-157h-447z" />
    <glyph glyph-name="lslash" unicode="&#x142;" horiz-adv-x="345" 
d="M231 -2c-31.333 0 -57.333 3.83105 -78 11.498s-37.167 18.667 -49.5 33s-21 31.833 -26 52.5s-7.5 44.334 -7.5 71.001v49l-31 -19l-55 92l86 53v386h180v-274l47 29l54 -92l-101 -63v-141c0 -11.333 2.5 -20.666 7.5 -27.999s14.833 -11 29.5 -11h16v-149h-72z" />
    <glyph glyph-name="Nacute" unicode="&#x143;" horiz-adv-x="622" 
d="M389 383v313h183v-696h-164l-92 170l-77 148h-5v-318h-184v696h165l90 -160l79 -153h5zM214 799l197 131l78 -121l-219 -96z" />
    <glyph glyph-name="nacute" unicode="&#x144;" horiz-adv-x="526" 
d="M226 453c20 22 41.168 36.667 63.501 44s40.833 11 55.5 11c26 0 48 -3.66699 66 -11s32.5 -17.833 43.5 -31.5s19 -30.167 24 -49.5s7.5 -41 7.5 -65v-351h-182v290c0 16.667 -2.83301 29.5 -8.5 38.5s-15.834 13.5 -30.501 13.5s-25.167 -5.5 -31.5 -16.5
s-9.5 -23.167 -9.5 -36.5v-289h-181v497h179v-43zM168.001 578l99 219l134 -61l-136 -203z" />
    <glyph glyph-name="Ncommaaccent" unicode="&#x145;" horiz-adv-x="622" 
d="M389 383v313h183v-696h-164l-92 170l-77 148h-5v-318h-184v696h165l90 -160l79 -153h5zM235 -302l28 120h-30v147h160v-139l-63 -128h-95z" />
    <glyph glyph-name="ncommaaccent" unicode="&#x146;" horiz-adv-x="526" 
d="M226 453c20 22 41.168 36.667 63.501 44s40.833 11 55.5 11c26 0 48 -3.66699 66 -11s32.5 -17.833 43.5 -31.5s19 -30.167 24 -49.5s7.5 -41 7.5 -65v-351h-182v290c0 16.667 -2.83301 29.5 -8.5 38.5s-15.834 13.5 -30.501 13.5s-25.167 -5.5 -31.5 -16.5
s-9.5 -23.167 -9.5 -36.5v-289h-181v497h179v-43zM182.001 -322l28 120h-30v147h160v-139l-63 -128h-95z" />
    <glyph glyph-name="Ncaron" unicode="&#x147;" horiz-adv-x="622" 
d="M389 383v313h183v-696h-164l-92 170l-77 148h-5v-318h-184v696h165l90 -160l79 -153h5zM442 930l58 -64l-139 -141h-113l-141 140l58 65l139 -86z" />
    <glyph glyph-name="ncaron" unicode="&#x148;" horiz-adv-x="526" 
d="M226 453c20 22 41.168 36.667 63.501 44s40.833 11 55.5 11c26 0 48 -3.66699 66 -11s32.5 -17.833 43.5 -31.5s19 -30.167 24 -49.5s7.5 -41 7.5 -65v-351h-182v290c0 16.667 -2.83301 29.5 -8.5 38.5s-15.834 13.5 -30.501 13.5s-25.167 -5.5 -31.5 -16.5
s-9.5 -23.167 -9.5 -36.5v-289h-181v497h179v-43zM378.001 761l68 -59l-141 -165h-113l-144 165l68 59l132 -103z" />
    <glyph glyph-name="napostrophe" unicode="&#x149;" horiz-adv-x="662" 
d="M362 453c20 22 41.168 36.667 63.501 44s40.833 11 55.5 11c26 0 48 -3.66699 66 -11s32.5 -17.833 43.5 -31.5s19 -30.167 24 -49.5s7.5 -41 7.5 -65v-351h-182v290c0 16.667 -2.83301 29.5 -8.5 38.5s-15.834 13.5 -30.501 13.5s-25.167 -5.5 -31.5 -16.5
s-9.5 -23.167 -9.5 -36.5v-289h-181v497h179v-43zM3.00098 405l28 120h-30v147h160v-139l-63 -128h-95z" />
    <glyph glyph-name="Eng" unicode="&#x14a;" horiz-adv-x="622" 
d="M571 -71c0 -29.333 -3.99805 -53.999 -11.998 -73.999s-18.833 -36 -32.5 -48s-29.834 -20.667 -48.501 -26s-38.667 -8 -60 -8c-16.667 0 -35.167 1.66699 -55.5 5s-38.5 7.66602 -54.5 12.999l18 136c3.33301 0 6.16602 -0.166992 8.49902 -0.5s4.83301 -0.5 7.5 -0.5
c19.333 0 32 2.66699 38 8s9 13.333 9 24v82l-74 130l-77 148h-4v-318h-184v696h165l36.5 -68.5l36.5 -67.5l26 -50l69 -127h5v313h183v-767z" />
    <glyph glyph-name="eng" unicode="&#x14b;" horiz-adv-x="526" 
d="M222 454c0.666992 0 1.16895 -0.163086 1.50195 -0.496094s0.833008 -0.5 1.5 -0.5c20 22 41.333 36.5 64 43.5s41 10.5 55 10.5c31.333 0 56.333 -4.83301 75 -14.5s32.834 -22.834 42.501 -39.501s16 -36.334 19 -59.001s4.5 -47.334 4.5 -74.001
c0 -66 0.166992 -131.333 0.5 -196s0.5 -129.667 0.5 -195c0 -29.333 -4 -54 -12 -74s-18.833 -36 -32.5 -48s-29.834 -20.667 -48.501 -26s-38.667 -8 -60 -8c-16.667 0 -35.167 1.66699 -55.5 5s-38.5 7.66602 -54.5 12.999l18 136
c3.33301 0 6.16602 -0.166992 8.49902 -0.5s4.83301 -0.5 7.5 -0.5c19.333 0 32 2.66699 38 8s9 13.333 9 24v332c0 16.667 -2.83301 29.5 -8.5 38.5s-15.834 13.5 -30.501 13.5c-15.333 0 -26 -5.5 -32 -16.5s-9 -23.167 -9 -36.5v-289h-182v496h180v-42v0z" />
    <glyph glyph-name="Omacron" unicode="&#x14c;" horiz-adv-x="582" 
d="M346 433c0 12 -0.166992 23.665 -0.5 34.998s-1.5 22.666 -3.5 33.999c-2.66699 13.333 -8.66699 23.833 -18 31.5s-20.666 11.5 -33.999 11.5s-24.833 -4 -34.5 -12s-15.5 -18.667 -17.5 -32c-1.33301 -11.333 -2.33301 -22.666 -3 -33.999s-1 -22.666 -1 -33.999v-171
c0 -12 0.333008 -23.667 1 -35s1.66699 -22.666 3 -33.999c2.66699 -14 8.66699 -24.333 18 -31s20.666 -10 33.999 -10c37.333 0 56 22.333 56 67v214zM534 274.998c0 -30 -1.67188 -59.668 -5.00488 -89.001s-11.666 -56.666 -24.999 -81.999
c-18 -35.333 -45.167 -62.5 -81.5 -81.5s-80.5 -28.5 -132.5 -28.5c-54 0 -99.167 9 -135.5 27s-63.166 44 -80.499 78c-13.333 24.667 -21.166 53 -23.499 85s-3.5 62.333 -3.5 91v148c0 16.667 0.666992 33 2 49s3.33301 31.667 6 47
c8.66699 56.667 32.834 101.667 72.501 135s93.834 50 162.501 50c41.333 0 77.333 -5.66699 108 -17s56 -27.5 76 -48.5s35 -46.167 45 -75.5s15 -62 15 -98v-190zM135.995 749.997v124h304v-124h-304z" />
    <glyph glyph-name="omacron" unicode="&#x14d;" horiz-adv-x="510" 
d="M260 509c50 0 90.166 -9.16699 120.499 -27.5s52.5 -40.5 66.5 -66.5c11.333 -20 19.166 -44.5 23.499 -73.5s6.5 -59.5 6.5 -91.5c0 -23.333 -2 -47.833 -6 -73.5s-9.66699 -48.167 -17 -67.5c-8.66699 -23.333 -20.167 -42.333 -34.5 -57s-30.5 -26.5 -48.5 -35.5
s-37.5 -15.167 -58.5 -18.5s-42.167 -5 -63.5 -5c-49.333 0 -89.666 8.83301 -120.999 26.5s-53.666 40.167 -66.999 67.5c-10 20 -17.167 44.667 -21.5 74s-6.5 59 -6.5 89c0 26.667 2 53.167 6 79.5s10 48.833 18 67.5c14 32.667 38.167 59.5 72.5 80.5
s77.833 31.5 130.5 31.5zM254.999 142c8.66699 0 15.333 1.83203 20 5.49902s8.66699 8.16699 12 13.5c4 7.33301 6.66699 18.833 8 34.5s2 33.167 2 52.5c0 18.667 -0.5 36 -1.5 52s-3.16699 28.667 -6.5 38c-6 14.667 -17 22 -33 22c-9.33301 0 -16.333 -2 -21 -6
s-8.66699 -9.66699 -12 -17c-4 -8.66699 -6.66699 -20 -8 -34s-2 -32.333 -2 -55c0 -21.333 0.666992 -39.166 2 -53.499s4.33301 -25.833 9 -34.5c6 -12 16.333 -18 31 -18zM102.998 566.999v124h304v-124h-304z" />
    <glyph glyph-name="Obreve" unicode="&#x14e;" horiz-adv-x="582" 
d="M346 433c0 12 -0.166992 23.665 -0.5 34.998s-1.5 22.666 -3.5 33.999c-2.66699 13.333 -8.66699 23.833 -18 31.5s-20.666 11.5 -33.999 11.5s-24.833 -4 -34.5 -12s-15.5 -18.667 -17.5 -32c-1.33301 -11.333 -2.33301 -22.666 -3 -33.999s-1 -22.666 -1 -33.999v-171
c0 -12 0.333008 -23.667 1 -35s1.66699 -22.666 3 -33.999c2.66699 -14 8.66699 -24.333 18 -31s20.666 -10 33.999 -10c37.333 0 56 22.333 56 67v214zM534 274.998c0 -30 -1.67188 -59.668 -5.00488 -89.001s-11.666 -56.666 -24.999 -81.999
c-18 -35.333 -45.167 -62.5 -81.5 -81.5s-80.5 -28.5 -132.5 -28.5c-54 0 -99.167 9 -135.5 27s-63.166 44 -80.499 78c-13.333 24.667 -21.166 53 -23.499 85s-3.5 62.333 -3.5 91v148c0 16.667 0.666992 33 2 49s3.33301 31.667 6 47
c8.66699 56.667 32.834 101.667 72.501 135s93.834 50 162.501 50c41.333 0 77.333 -5.66699 108 -17s56 -27.5 76 -48.5s35 -46.167 45 -75.5s15 -62 15 -98v-190zM288.995 724.997c-32.667 0 -60 5.66602 -82 16.999s-40 25.833 -54 43.5s-24.167 36.667 -30.5 57
s-9.83301 39.5 -10.5 57.5h110c0.666992 -8.66699 2.5 -17.334 5.5 -26.001s7.16699 -16.5 12.5 -23.5s11.833 -12.833 19.5 -17.5s17.167 -7 28.5 -7c12 0 22 2.33301 30 7s14.667 10.5 20 17.5s9.33301 14.833 12 23.5s4.33398 17.334 5.00098 26.001h112
c-0.666992 -18 -4.33398 -37.167 -11.001 -57.5s-17 -39.166 -31 -56.499s-32.167 -31.833 -54.5 -43.5s-49.5 -17.5 -81.5 -17.5z" />
    <glyph glyph-name="obreve" unicode="&#x14f;" horiz-adv-x="510" 
d="M260 509c50 0 90.166 -9.16699 120.499 -27.5s52.5 -40.5 66.5 -66.5c11.333 -20 19.166 -44.5 23.499 -73.5s6.5 -59.5 6.5 -91.5c0 -23.333 -2 -47.833 -6 -73.5s-9.66699 -48.167 -17 -67.5c-8.66699 -23.333 -20.167 -42.333 -34.5 -57s-30.5 -26.5 -48.5 -35.5
s-37.5 -15.167 -58.5 -18.5s-42.167 -5 -63.5 -5c-49.333 0 -89.666 8.83301 -120.999 26.5s-53.666 40.167 -66.999 67.5c-10 20 -17.167 44.667 -21.5 74s-6.5 59 -6.5 89c0 26.667 2 53.167 6 79.5s10 48.833 18 67.5c14 32.667 38.167 59.5 72.5 80.5
s77.833 31.5 130.5 31.5zM254.999 142c8.66699 0 15.333 1.83203 20 5.49902s8.66699 8.16699 12 13.5c4 7.33301 6.66699 18.833 8 34.5s2 33.167 2 52.5c0 18.667 -0.5 36 -1.5 52s-3.16699 28.667 -6.5 38c-6 14.667 -17 22 -33 22c-9.33301 0 -16.333 -2 -21 -6
s-8.66699 -9.66699 -12 -17c-4 -8.66699 -6.66699 -20 -8 -34s-2 -32.333 -2 -55c0 -21.333 0.666992 -39.166 2 -53.499s4.33301 -25.833 9 -34.5c6 -12 16.333 -18 31 -18zM253.998 535.999c-32.667 0 -60.1641 5.83398 -82.4971 17.501s-40.333 26.334 -54 44.001
s-23.834 36.667 -30.501 57s-10.334 39.5 -11.001 57.5h111c1.33301 -19.333 7.5 -36.333 18.5 -51s26.833 -22 47.5 -22c22 0 38.333 7.66699 49 23s16.667 32 18 50h111c-0.666992 -17.333 -4.33398 -36.333 -11.001 -57s-17 -39.834 -31 -57.501s-32 -32.334 -54 -44.001
s-49 -17.5 -81 -17.5z" />
    <glyph glyph-name="Ohungarumlaut" unicode="&#x150;" horiz-adv-x="582" 
d="M346 433c0 12 -0.166992 23.665 -0.5 34.998s-1.5 22.666 -3.5 33.999c-2.66699 13.333 -8.66699 23.833 -18 31.5s-20.666 11.5 -33.999 11.5s-24.833 -4 -34.5 -12s-15.5 -18.667 -17.5 -32c-1.33301 -11.333 -2.33301 -22.666 -3 -33.999s-1 -22.666 -1 -33.999v-171
c0 -12 0.333008 -23.667 1 -35s1.66699 -22.666 3 -33.999c2.66699 -14 8.66699 -24.333 18 -31s20.666 -10 33.999 -10c37.333 0 56 22.333 56 67v214zM534 274.998c0 -30 -1.67188 -59.668 -5.00488 -89.001s-11.666 -56.666 -24.999 -81.999
c-18 -35.333 -45.167 -62.5 -81.5 -81.5s-80.5 -28.5 -132.5 -28.5c-54 0 -99.167 9 -135.5 27s-63.166 44 -80.499 78c-13.333 24.667 -21.166 53 -23.499 85s-3.5 62.333 -3.5 91v148c0 16.667 0.666992 33 2 49s3.33301 31.667 6 47
c8.66699 56.667 32.834 101.667 72.501 135s93.834 50 162.501 50c41.333 0 77.333 -5.66699 108 -17s56 -27.5 76 -48.5s35 -46.167 45 -75.5s15 -62 15 -98v-190zM83.9951 794.997l176 158l95 -108l-203 -127zM314.995 791.997l176 158l94 -108l-203 -127z" />
    <glyph glyph-name="ohungarumlaut" unicode="&#x151;" horiz-adv-x="510" 
d="M260 509c50 0 90.166 -9.16699 120.499 -27.5s52.5 -40.5 66.5 -66.5c11.333 -20 19.166 -44.5 23.499 -73.5s6.5 -59.5 6.5 -91.5c0 -23.333 -2 -47.833 -6 -73.5s-9.66699 -48.167 -17 -67.5c-8.66699 -23.333 -20.167 -42.333 -34.5 -57s-30.5 -26.5 -48.5 -35.5
s-37.5 -15.167 -58.5 -18.5s-42.167 -5 -63.5 -5c-49.333 0 -89.666 8.83301 -120.999 26.5s-53.666 40.167 -66.999 67.5c-10 20 -17.167 44.667 -21.5 74s-6.5 59 -6.5 89c0 26.667 2 53.167 6 79.5s10 48.833 18 67.5c14 32.667 38.167 59.5 72.5 80.5
s77.833 31.5 130.5 31.5zM254.999 142c8.66699 0 15.333 1.83203 20 5.49902s8.66699 8.16699 12 13.5c4 7.33301 6.66699 18.833 8 34.5s2 33.167 2 52.5c0 18.667 -0.5 36 -1.5 52s-3.16699 28.667 -6.5 38c-6 14.667 -17 22 -33 22c-9.33301 0 -16.333 -2 -21 -6
s-8.66699 -9.66699 -12 -17c-4 -8.66699 -6.66699 -20 -8 -34s-2 -32.333 -2 -55c0 -21.333 0.666992 -39.166 2 -53.499s4.33301 -25.833 9 -34.5c6 -12 16.333 -18 31 -18zM282.998 568.999l98 216l132 -63l-135 -197zM106.998 587.999l99 216l132 -62l-136 -198z" />
    <glyph glyph-name="OE" unicode="&#x152;" horiz-adv-x="751" 
d="M355 0c-20 -4 -41.667 -5.99805 -65 -5.99805c-42 0 -78.167 6 -108.5 18s-55.333 28.667 -75 50s-34.334 46.666 -44.001 75.999s-14.5 61.333 -14.5 96v228c0 34 5 65.667 15 95s25 54.666 45 75.999s45.167 38 75.5 50s65.833 18 106.5 18c12 0 23.333 -0.5 34 -1.5
s21.334 -2.16699 32.001 -3.5h360v-156h-223v-107h183v-156h-183v-120h223v-157h-361zM290 153.002c6.66699 0 11.667 0.333008 15 1v387c-6.66699 1.33301 -11.667 2 -15 2c-18.667 0 -32.5 -6.5 -41.5 -19.5s-13.5 -28.833 -13.5 -47.5v-257c0 -20 4.33301 -36 13 -48
s22.667 -18 42 -18z" />
    <glyph glyph-name="oe" unicode="&#x153;" horiz-adv-x="761" 
d="M260 509c29.333 0 55.001 -3.16699 77.001 -9.5s41.333 -15.166 58 -26.499c16 11.333 34.667 20 56 26s45.666 9 72.999 9c60.667 0 108 -14 142 -42s54.333 -66.333 61 -115c2.66699 -15.333 4.5 -31.5 5.5 -48.5s1.5 -34.167 1.5 -51.5v-36h-253
c0 -30 3.83301 -50.667 11.5 -62s20.167 -17 37.5 -17c7.33301 0 15.833 2.66699 25.5 8s20.167 18 31.5 38l136 -72c-16.667 -34.667 -40.334 -62.834 -71.001 -84.501s-72.667 -32.5 -126 -32.5c-57.333 0 -103.666 11.667 -138.999 35
c-19.333 -13.333 -40.833 -22.5 -64.5 -27.5s-48.167 -7.5 -73.5 -7.5c-49.333 0 -89.5 9.33301 -120.5 28s-53.167 41.667 -66.5 69c-10 20 -17.333 44.167 -22 72.5s-7 57.5 -7 87.5c0 26.667 2 53.5 6 80.5s10 49.833 18 68.5c14 32.667 38.167 59.167 72.5 79.5
s77.833 30.5 130.5 30.5zM255.001 142c8.66699 0 15.333 1.83203 20 5.49902s8.66699 8.16699 12 13.5c4 7.33301 6.66699 18.833 8 34.5s2 33.167 2 52.5c0 18.667 -0.5 36 -1.5 52s-3.16699 28.667 -6.5 38c-6 14.667 -17 22 -33 22c-9.33301 0 -16.333 -2 -21 -6
s-8.66699 -9.66699 -12 -17c-4 -8.66699 -6.66699 -20 -8 -34s-2 -32.333 -2 -55c0 -21.333 0.666992 -39.166 2 -53.499s4.33301 -25.833 9 -34.5c6 -12 16.333 -18 31 -18zM522 367.999c-22.667 0 -35.001 -20.333 -37.001 -61h74c-0.666992 12.667 -2 23.5 -4 32.5
s-5.66699 15.833 -11 20.5c-5.33301 5.33301 -12.666 8 -21.999 8z" />
    <glyph glyph-name="Racute" unicode="&#x154;" horiz-adv-x="583" 
d="M359 0l-86.001 264.001h-37v-264h-186v696h269c66.667 0 119.834 -17.667 159.501 -53s59.5 -89 59.5 -161c0 -40.667 -7.83301 -75.834 -23.5 -105.501s-40.5 -54.167 -74.5 -73.5l111 -303h-192zM347.999 479.001c0 21.333 -5.33398 37.667 -16.001 49s-25 17 -43 17
h-53v-130h55c6.66699 0 13.334 1 20.001 3s12.667 5.5 18 10.5s9.83301 11.667 13.5 20s5.5 18.5 5.5 30.5zM176.998 806.002l197 131l78 -121l-219 -96z" />
    <glyph glyph-name="racute" unicode="&#x155;" horiz-adv-x="418" 
d="M239 440c14.667 26 32.834 43.833 54.501 53.5s43.167 14.5 64.5 14.5c7.33301 0 16.166 -1 26.499 -3s19.166 -4.33301 26.499 -7l-24 -177c-24 7.33301 -45 11 -63 11c-25.333 0 -46.166 -6.5 -62.499 -19.5s-24.5 -36.167 -24.5 -69.5v-243h-181v497h180v-56zM112 578
l99 219l134 -61l-136 -203z" />
    <glyph glyph-name="Rcommaaccent" unicode="&#x156;" horiz-adv-x="583" 
d="M359 0l-86.001 264.001h-37v-264h-186v696h269c66.667 0 119.834 -17.667 159.501 -53s59.5 -89 59.5 -161c0 -40.667 -7.83301 -75.834 -23.5 -105.501s-40.5 -54.167 -74.5 -73.5l111 -303h-192zM347.999 479.001c0 21.333 -5.33398 37.667 -16.001 49s-25 17 -43 17
h-53v-130h55c6.66699 0 13.334 1 20.001 3s12.667 5.5 18 10.5s9.83301 11.667 13.5 20s5.5 18.5 5.5 30.5zM202.998 -301.998l28 120h-30v147h160v-139l-63 -128h-95z" />
    <glyph glyph-name="rcommaaccent" unicode="&#x157;" horiz-adv-x="418" 
d="M239 440c14.667 26 32.834 43.833 54.501 53.5s43.167 14.5 64.5 14.5c7.33301 0 16.166 -1 26.499 -3s19.166 -4.33301 26.499 -7l-24 -177c-24 7.33301 -45 11 -63 11c-25.333 0 -46.166 -6.5 -62.499 -19.5s-24.5 -36.167 -24.5 -69.5v-243h-181v497h180v-56zM65 -321
l28 120h-30v147h160v-139l-63 -128h-95z" />
    <glyph glyph-name="Rcaron" unicode="&#x158;" horiz-adv-x="583" 
d="M359 0l-86.001 264.001h-37v-264h-186v696h269c66.667 0 119.834 -17.667 159.501 -53s59.5 -89 59.5 -161c0 -40.667 -7.83301 -75.834 -23.5 -105.501s-40.5 -54.167 -74.5 -73.5l111 -303h-192zM347.999 479.001c0 21.333 -5.33398 37.667 -16.001 49s-25 17 -43 17
h-53v-130h55c6.66699 0 13.334 1 20.001 3s12.667 5.5 18 10.5s9.83301 11.667 13.5 20s5.5 18.5 5.5 30.5zM394.998 930.002l58 -64l-139 -141h-113l-141 140l58 65l139 -86z" />
    <glyph glyph-name="rcaron" unicode="&#x159;" horiz-adv-x="418" 
d="M239 440c14.667 26 32.834 43.833 54.501 53.5s43.167 14.5 64.5 14.5c7.33301 0 16.166 -1 26.499 -3s19.166 -4.33301 26.499 -7l-24 -177c-24 7.33301 -45 11 -63 11c-25.333 0 -46.166 -6.5 -62.499 -19.5s-24.5 -36.167 -24.5 -69.5v-243h-181v497h180v-56zM315 761
l68 -59l-141 -165h-113l-144 165l68 59l132 -103z" />
    <glyph glyph-name="Sacute" unicode="&#x15a;" horiz-adv-x="562" 
d="M529 212c0 -68.667 -22.335 -122.003 -67.002 -160.003s-105.667 -57 -183 -57c-59.333 0 -108.833 11 -148.5 33s-73.5 53.333 -101.5 94l126 105c19.333 -26 39.166 -45 59.499 -57s41.166 -18 62.499 -18c24 0 41 5 51 15s15 22.333 15 37
c0 10 -1.83301 18.833 -5.5 26.5s-9.66699 14.5 -18 20.5s-19 11.833 -32 17.5s-28.833 11.834 -47.5 18.501c-29.333 10.667 -55.5 22.334 -78.5 35.001s-42.333 26.834 -58 42.501s-27.5 33.667 -35.5 54s-12 44.166 -12 71.499c0 30.667 5.66699 59.167 17 85.5
s27 49 47 68s43.833 33.833 71.5 44.5s58.167 16 91.5 16c53.333 0 98.833 -8 136.5 -24s69.834 -42 96.501 -78l-115 -118c-18.667 22 -38.167 37.333 -58.5 46s-39.166 13 -56.499 13c-15.333 0 -27.5 -4 -36.5 -12s-13.5 -18.667 -13.5 -32c0 -14.667 8 -26.667 24 -36
s42 -20.666 78 -33.999c36.667 -13.333 67.334 -27.333 92.001 -42s44.334 -30.667 59.001 -48s25 -36.333 31 -57s9 -44 9 -70zM167.998 805.997l197 131l78 -121l-219 -96z" />
    <glyph glyph-name="sacute" unicode="&#x15b;" horiz-adv-x="470" 
d="M438 159c0 -49.333 -18.5039 -89 -55.5039 -119s-87.167 -45 -150.5 -45c-45.333 0 -85.166 6.66699 -119.499 20s-63.833 38.666 -88.5 75.999l108 91c7.33301 -8.66699 14 -16.167 20 -22.5s12.333 -11.666 19 -15.999s14 -7.5 22 -9.5s17.333 -3 28 -3
c14 0 24.833 3 32.5 9s11.5 13 11.5 21c0 16.667 -13.667 27.667 -41 33c-22.667 4.66699 -44.667 10.5 -66 17.5s-40.166 16.5 -56.499 28.5s-29.5 26.833 -39.5 44.5s-15 39.5 -15 65.5c0 24.667 5.16699 47 15.5 67s24.333 36.833 42 50.5s38.167 24.167 61.5 31.5
s48 11 74 11c46 0 83.667 -5.83301 113 -17.5s55.666 -30.167 78.999 -55.5l-89 -108c-12 13.333 -25.333 24 -40 32s-32 12 -52 12c-13.333 0 -22.833 -2.66699 -28.5 -8s-8.5 -10.666 -8.5 -15.999c0 -8.66699 5 -15.334 15 -20.001s21.333 -8.33398 34 -11.001
c20.667 -4 41.334 -9.5 62.001 -16.5s39.334 -16.5 56.001 -28.5s30.334 -27.167 41.001 -45.5s16 -41.166 16 -68.499zM143.996 578l99 219l134 -61l-136 -203z" />
    <glyph glyph-name="Scircumflex" unicode="&#x15c;" horiz-adv-x="562" 
d="M529 212c0 -68.667 -22.335 -122.003 -67.002 -160.003s-105.667 -57 -183 -57c-59.333 0 -108.833 11 -148.5 33s-73.5 53.333 -101.5 94l126 105c19.333 -26 39.166 -45 59.499 -57s41.166 -18 62.499 -18c24 0 41 5 51 15s15 22.333 15 37
c0 10 -1.83301 18.833 -5.5 26.5s-9.66699 14.5 -18 20.5s-19 11.833 -32 17.5s-28.833 11.834 -47.5 18.501c-29.333 10.667 -55.5 22.334 -78.5 35.001s-42.333 26.834 -58 42.501s-27.5 33.667 -35.5 54s-12 44.166 -12 71.499c0 30.667 5.66699 59.167 17 85.5
s27 49 47 68s43.833 33.833 71.5 44.5s58.167 16 91.5 16c53.333 0 98.833 -8 136.5 -24s69.834 -42 96.501 -78l-115 -118c-18.667 22 -38.167 37.333 -58.5 46s-39.166 13 -56.499 13c-15.333 0 -27.5 -4 -36.5 -12s-13.5 -18.667 -13.5 -32c0 -14.667 8 -26.667 24 -36
s42 -20.666 78 -33.999c36.667 -13.333 67.334 -27.333 92.001 -42s44.334 -30.667 59.001 -48s25 -36.333 31 -57s9 -44 9 -70zM290.998 802.997l-139 -86l-58 64l141 141h113l139 -142l-58 -64z" />
    <glyph glyph-name="scircumflex" unicode="&#x15d;" horiz-adv-x="470" 
d="M438 159c0 -49.333 -18.5039 -89 -55.5039 -119s-87.167 -45 -150.5 -45c-45.333 0 -85.166 6.66699 -119.499 20s-63.833 38.666 -88.5 75.999l108 91c7.33301 -8.66699 14 -16.167 20 -22.5s12.333 -11.666 19 -15.999s14 -7.5 22 -9.5s17.333 -3 28 -3
c14 0 24.833 3 32.5 9s11.5 13 11.5 21c0 16.667 -13.667 27.667 -41 33c-22.667 4.66699 -44.667 10.5 -66 17.5s-40.166 16.5 -56.499 28.5s-29.5 26.833 -39.5 44.5s-15 39.5 -15 65.5c0 24.667 5.16699 47 15.5 67s24.333 36.833 42 50.5s38.167 24.167 61.5 31.5
s48 11 74 11c46 0 83.667 -5.83301 113 -17.5s55.666 -30.167 78.999 -55.5l-89 -108c-12 13.333 -25.333 24 -40 32s-32 12 -52 12c-13.333 0 -22.833 -2.66699 -28.5 -8s-8.5 -10.666 -8.5 -15.999c0 -8.66699 5 -15.334 15 -20.001s21.333 -8.33398 34 -11.001
c20.667 -4 41.334 -9.5 62.001 -16.5s39.334 -16.5 56.001 -28.5s30.334 -27.167 41.001 -45.5s16 -41.166 16 -68.499zM237.996 628l-132 -104l-67 60l144 165h113l141 -165l-68 -61z" />
    <glyph glyph-name="Scedilla" unicode="&#x15e;" horiz-adv-x="562" 
d="M529 212c0 -63.333 -19.1709 -113.669 -57.5039 -151.002s-91.166 -58.666 -158.499 -63.999l-15 -36c22 -2 40.167 -6.16699 54.5 -12.5s25.5 -14 33.5 -23s13.667 -18.667 17 -29s5 -20.5 5 -30.5c0 -9.33301 -2.16699 -20 -6.5 -32s-11.666 -23.333 -21.999 -34
s-24 -19.5 -41 -26.5s-38.5 -10.5 -64.5 -10.5c-11.333 0 -26.666 1.16699 -45.999 3.5s-40.333 8.16602 -63 17.499c4 12 7.66699 23.833 11 35.5s7 23.5 11 35.5c14.667 -5.33301 27.667 -9 39 -11s21.666 -3 30.999 -3c13.333 0 24.166 2.83301 32.499 8.5
s12.5 13.167 12.5 22.5c0 7.33301 -2.33301 13.166 -7 17.499s-12 6.5 -22 6.5c-5.33301 0 -9.66602 -0.333008 -12.999 -1l-43 30c4 12 8.33301 24 13 36l14 36c-50 4 -92.167 16.667 -126.5 38s-63.833 50.333 -88.5 87l126 105c19.333 -26 39.166 -45 59.499 -57
s41.166 -18 62.499 -18c24 0 41 5 51 15s15 22.333 15 37c0 10 -1.83301 18.833 -5.5 26.5s-9.66699 14.5 -18 20.5s-19 11.833 -32 17.5s-28.833 11.834 -47.5 18.501c-29.333 10.667 -55.5 22.334 -78.5 35.001s-42.333 26.834 -58 42.501s-27.5 33.667 -35.5 54
s-12 44.166 -12 71.499c0 30.667 5.66699 59.167 17 85.5s27 49 47 68s43.833 33.833 71.5 44.5s58.167 16 91.5 16c53.333 0 98.833 -8 136.5 -24s69.834 -42 96.501 -78l-115 -118c-18.667 22 -38.167 37.333 -58.5 46s-39.166 13 -56.499 13
c-15.333 0 -27.5 -4 -36.5 -12s-13.5 -18.667 -13.5 -32c0 -14.667 8 -26.667 24 -36s42 -20.666 78 -33.999c36.667 -13.333 67.334 -27.333 92.001 -42s44.334 -30.667 59.001 -48s25 -36.333 31 -57s9 -44 9 -70z" />
    <glyph glyph-name="scedilla" unicode="&#x15f;" horiz-adv-x="470" 
d="M438 159c0 -44.667 -15.3379 -81.499 -46.0049 -110.499s-73 -46.167 -127 -51.5l-15 -36c22 -2 40.167 -6.16699 54.5 -12.5s25.5 -14 33.5 -23s13.667 -18.667 17 -29s5 -20.5 5 -30.5c0 -9.33301 -2.16699 -20 -6.5 -32s-11.666 -23.333 -21.999 -34
s-24 -19.5 -41 -26.5s-38.5 -10.5 -64.5 -10.5c-11.333 0 -26.666 1.16699 -45.999 3.5s-40.333 8.16602 -63 17.499c4 12 7.66699 23.833 11 35.5s7 23.5 11 35.5c14.667 -5.33301 27.667 -9 39 -11s21.666 -3 30.999 -3c13.333 0 24.166 2.83301 32.499 8.5
s12.5 13.167 12.5 22.5c0 7.33301 -2.33301 13.166 -7 17.499s-12 6.5 -22 6.5c-5.33301 0 -9.66602 -0.333008 -12.999 -1l-43 30c4 12 8.33301 24 13 36l14 35c-36.667 2.66699 -69.167 11 -97.5 25s-53.166 37.333 -74.499 70l108 91
c7.33301 -8.66699 14 -16.167 20 -22.5s12.333 -11.666 19 -15.999s14 -7.5 22 -9.5s17.333 -3 28 -3c14 0 24.833 3 32.5 9s11.5 13 11.5 21c0 16.667 -13.667 27.667 -41 33c-22.667 4.66699 -44.667 10.5 -66 17.5s-40.166 16.5 -56.499 28.5s-29.5 26.833 -39.5 44.5
s-15 39.5 -15 65.5c0 24.667 5.16699 47 15.5 67s24.333 36.833 42 50.5s38.167 24.167 61.5 31.5s48 11 74 11c46 0 83.667 -5.83301 113 -17.5s55.666 -30.167 78.999 -55.5l-89 -108c-12 13.333 -25.333 24 -40 32s-32 12 -52 12c-13.333 0 -22.833 -2.66699 -28.5 -8
s-8.5 -10.666 -8.5 -15.999c0 -8.66699 5 -15.334 15 -20.001s21.333 -8.33398 34 -11.001c20.667 -4 41.334 -9.5 62.001 -16.5s39.334 -16.5 56.001 -28.5s30.334 -27.167 41.001 -45.5s16 -41.166 16 -68.499z" />
    <glyph glyph-name="Scaron" unicode="&#x160;" horiz-adv-x="562" 
d="M529 212c0 -68.667 -22.335 -122.003 -67.002 -160.003s-105.667 -57 -183 -57c-59.333 0 -108.833 11 -148.5 33s-73.5 53.333 -101.5 94l126 105c19.333 -26 39.166 -45 59.499 -57s41.166 -18 62.499 -18c24 0 41 5 51 15s15 22.333 15 37
c0 10 -1.83301 18.833 -5.5 26.5s-9.66699 14.5 -18 20.5s-19 11.833 -32 17.5s-28.833 11.834 -47.5 18.501c-29.333 10.667 -55.5 22.334 -78.5 35.001s-42.333 26.834 -58 42.501s-27.5 33.667 -35.5 54s-12 44.166 -12 71.499c0 30.667 5.66699 59.167 17 85.5
s27 49 47 68s43.833 33.833 71.5 44.5s58.167 16 91.5 16c53.333 0 98.833 -8 136.5 -24s69.834 -42 96.501 -78l-115 -118c-18.667 22 -38.167 37.333 -58.5 46s-39.166 13 -56.499 13c-15.333 0 -27.5 -4 -36.5 -12s-13.5 -18.667 -13.5 -32c0 -14.667 8 -26.667 24 -36
s42 -20.666 78 -33.999c36.667 -13.333 67.334 -27.333 92.001 -42s44.334 -30.667 59.001 -48s25 -36.333 31 -57s9 -44 9 -70zM421.998 929.997l58 -64l-139 -141h-113l-141 140l58 65l139 -86z" />
    <glyph glyph-name="scaron" unicode="&#x161;" horiz-adv-x="470" 
d="M438 159c0 -49.333 -18.5039 -89 -55.5039 -119s-87.167 -45 -150.5 -45c-45.333 0 -85.166 6.66699 -119.499 20s-63.833 38.666 -88.5 75.999l108 91c7.33301 -8.66699 14 -16.167 20 -22.5s12.333 -11.666 19 -15.999s14 -7.5 22 -9.5s17.333 -3 28 -3
c14 0 24.833 3 32.5 9s11.5 13 11.5 21c0 16.667 -13.667 27.667 -41 33c-22.667 4.66699 -44.667 10.5 -66 17.5s-40.166 16.5 -56.499 28.5s-29.5 26.833 -39.5 44.5s-15 39.5 -15 65.5c0 24.667 5.16699 47 15.5 67s24.333 36.833 42 50.5s38.167 24.167 61.5 31.5
s48 11 74 11c46 0 83.667 -5.83301 113 -17.5s55.666 -30.167 78.999 -55.5l-89 -108c-12 13.333 -25.333 24 -40 32s-32 12 -52 12c-13.333 0 -22.833 -2.66699 -28.5 -8s-8.5 -10.666 -8.5 -15.999c0 -8.66699 5 -15.334 15 -20.001s21.333 -8.33398 34 -11.001
c20.667 -4 41.334 -9.5 62.001 -16.5s39.334 -16.5 56.001 -28.5s30.334 -27.167 41.001 -45.5s16 -41.166 16 -68.499zM366.996 761l68 -59l-141 -165h-113l-144 165l68 59l132 -103z" />
    <glyph glyph-name="Tcommaaccent" unicode="&#x162;" horiz-adv-x="508" 
d="M348 540v-540h-188v540h-147v156h482v-156h-147zM176 -322l28 120h-30v147h160v-139l-63 -128h-95z" />
    <glyph glyph-name="tcommaaccent" unicode="&#x163;" horiz-adv-x="372" 
d="M258 366v-163.999c0 -18.667 3.33301 -31.334 10 -38.001s18.667 -10 36 -10h30v-154h-83c-60 0 -104 14 -132 42s-42 71.667 -42 131v193h-52v131h54v138h178v-138h75v-131h-74zM116 -321.999l28 120h-30v147h160v-139l-63 -128h-95z" />
    <glyph glyph-name="Tcaron" unicode="&#x164;" horiz-adv-x="508" 
d="M348 540v-540h-188v540h-147v156h482v-156h-147zM394 930l58 -64l-139 -141h-113l-141 140l58 65l139 -86z" />
    <glyph glyph-name="tcaron" unicode="&#x165;" horiz-adv-x="487" 
d="M328 527l28 120h-30v147h160v-139l-63 -128h-95zM258 366v-163.999c0 -18.667 3.33301 -31.334 10 -38.001s18.667 -10 36 -10h30v-154h-83c-60 0 -104 14 -132 42s-42 71.667 -42 131v193h-52v131h54v138h178v-138h75v-131h-74z" />
    <glyph glyph-name="Tbar" unicode="&#x166;" horiz-adv-x="508" 
d="M348 540v-132h116v-120h-116v-288h-188v288h-112v120h112v132h-147v156h482v-156h-147z" />
    <glyph glyph-name="tbar" unicode="&#x167;" horiz-adv-x="372" 
d="M258 366v-48.999h60v-105h-60v-10c0 -18.667 3.33301 -31.334 10 -38.001s18.667 -10 36 -10h30v-154h-83c-60 0 -104 14 -132 42s-42 71.667 -42 131v39h-42v105h42v49h-52v131h54v138h178v-138h75v-131h-74z" />
    <glyph glyph-name="Utilde" unicode="&#x168;" horiz-adv-x="591" 
d="M541 231c0 -34 -5.16699 -65.5 -15.5 -94.5s-25.666 -54 -45.999 -75s-46 -37.333 -77 -49s-67.5 -17.5 -109.5 -17.5s-78.167 5.83301 -108.5 17.5s-55.5 27.834 -75.5 48.501s-34.833 45.5 -44.5 74.5s-14.5 60.833 -14.5 95.5v465h187v-474
c0 -24.667 5.33301 -42.334 16 -53.001s25 -16 43 -16c17.333 0 31.166 6.33301 41.499 19s15.5 29.667 15.5 51v473h188v-465zM367 735c-10.667 0 -21.166 2 -31.499 6s-20.333 8.5 -30 13.5s-19.334 9.5 -29.001 13.5s-19.5 6 -29.5 6c-9.33301 0 -20 -2.83301 -32 -8.5
s-24 -17.167 -36 -34.5l-79 44c15.333 42 34.333 72.333 57 91s46.667 28 72 28c13.333 0 25.833 -2.16699 37.5 -6.5s22.5 -9 32.5 -14s19.5 -9.5 28.5 -13.5s18.167 -6 27.5 -6c10 0 19.5 3 28.5 9s18.833 16.667 29.5 32l77 -42c-15.333 -44.667 -34 -75.5 -56 -92.5
s-44.333 -25.5 -67 -25.5z" />
    <glyph glyph-name="utilde" unicode="&#x169;" horiz-adv-x="526" 
d="M300 44c-20 -22 -41.001 -36.332 -63.001 -42.999s-40 -10 -54 -10c-52.667 0 -89.667 14.167 -111 42.5s-32 66.5 -32 114.5v349h182v-288c0 -16 2.83301 -28.667 8.5 -38s15.834 -14 30.501 -14s25.167 5.66699 31.5 17s9.5 23.666 9.5 36.999v286h181v-497h-179v43z
M330.999 560.001c-10.667 0 -21.166 2 -31.499 6s-20.333 8.5 -30 13.5s-19.334 9.5 -29.001 13.5s-19.5 6 -29.5 6c-9.33301 0 -20 -2.83301 -32 -8.5s-24 -17.167 -36 -34.5l-79 44c15.333 42 34.333 72.333 57 91s46.667 28 72 28c13.333 0 25.833 -2.16699 37.5 -6.5
s22.5 -9 32.5 -14s19.5 -9.5 28.5 -13.5s18.167 -6 27.5 -6c10 0 19.5 3 28.5 9s18.833 16.667 29.5 32l77 -42c-15.333 -44.667 -34 -75.5 -56 -92.5s-44.333 -25.5 -67 -25.5z" />
    <glyph glyph-name="Umacron" unicode="&#x16a;" horiz-adv-x="591" 
d="M541 231c0 -34 -5.16699 -65.5 -15.5 -94.5s-25.666 -54 -45.999 -75s-46 -37.333 -77 -49s-67.5 -17.5 -109.5 -17.5s-78.167 5.83301 -108.5 17.5s-55.5 27.834 -75.5 48.501s-34.833 45.5 -44.5 74.5s-14.5 60.833 -14.5 95.5v465h187v-474
c0 -24.667 5.33301 -42.334 16 -53.001s25 -16 43 -16c17.333 0 31.166 6.33301 41.499 19s15.5 29.667 15.5 51v473h188v-465zM140 750v124h304v-124h-304z" />
    <glyph glyph-name="umacron" unicode="&#x16b;" horiz-adv-x="526" 
d="M300 44c-20 -22 -41.001 -36.332 -63.001 -42.999s-40 -10 -54 -10c-52.667 0 -89.667 14.167 -111 42.5s-32 66.5 -32 114.5v349h182v-288c0 -16 2.83301 -28.667 8.5 -38s15.834 -14 30.501 -14s25.167 5.66699 31.5 17s9.5 23.666 9.5 36.999v286h181v-497h-179v43z
M113.999 567.001v124h304v-124h-304z" />
    <glyph glyph-name="Ubreve" unicode="&#x16c;" horiz-adv-x="591" 
d="M541 231c0 -34 -5.16699 -65.5 -15.5 -94.5s-25.666 -54 -45.999 -75s-46 -37.333 -77 -49s-67.5 -17.5 -109.5 -17.5s-78.167 5.83301 -108.5 17.5s-55.5 27.834 -75.5 48.501s-34.833 45.5 -44.5 74.5s-14.5 60.833 -14.5 95.5v465h187v-474
c0 -24.667 5.33301 -42.334 16 -53.001s25 -16 43 -16c17.333 0 31.166 6.33301 41.499 19s15.5 29.667 15.5 51v473h188v-465zM298 724c-32.667 0 -60 5.66602 -82 16.999s-40 25.833 -54 43.5s-24.167 36.667 -30.5 57s-9.83301 39.5 -10.5 57.5h110
c0.666992 -8.66699 2.5 -17.334 5.5 -26.001s7.16699 -16.5 12.5 -23.5s11.833 -12.833 19.5 -17.5s17.167 -7 28.5 -7c12 0 22 2.33301 30 7s14.667 10.5 20 17.5s9.33301 14.833 12 23.5s4.33398 17.334 5.00098 26.001h112c-0.666992 -18 -4.33398 -37.167 -11.001 -57.5
s-17 -39.166 -31 -56.499s-32.167 -31.833 -54.5 -43.5s-49.5 -17.5 -81.5 -17.5z" />
    <glyph glyph-name="ubreve" unicode="&#x16d;" horiz-adv-x="526" 
d="M300 44c-20 -22 -41.001 -36.332 -63.001 -42.999s-40 -10 -54 -10c-52.667 0 -89.667 14.167 -111 42.5s-32 66.5 -32 114.5v349h182v-288c0 -16 2.83301 -28.667 8.5 -38s15.834 -14 30.501 -14s25.167 5.66699 31.5 17s9.5 23.666 9.5 36.999v286h181v-497h-179v43z
M263.999 536.001c-32.667 0 -60.1641 5.83398 -82.4971 17.501s-40.333 26.334 -54 44.001s-23.834 36.667 -30.501 57s-10.334 39.5 -11.001 57.5h111c1.33301 -19.333 7.5 -36.333 18.5 -51s26.833 -22 47.5 -22c22 0 38.333 7.66699 49 23s16.667 32 18 50h111
c-0.666992 -17.333 -4.33398 -36.333 -11.001 -57s-17 -39.834 -31 -57.501s-32 -32.334 -54 -44.001s-49 -17.5 -81 -17.5z" />
    <glyph glyph-name="Uring" unicode="&#x16e;" horiz-adv-x="591" 
d="M541 231c0 -34 -5.16699 -65.5 -15.5 -94.5s-25.666 -54 -45.999 -75s-46 -37.333 -77 -49s-67.5 -17.5 -109.5 -17.5s-78.167 5.83301 -108.5 17.5s-55.5 27.834 -75.5 48.501s-34.833 45.5 -44.5 74.5s-14.5 60.833 -14.5 95.5v465h187v-474
c0 -24.667 5.33301 -42.334 16 -53.001s25 -16 43 -16c17.333 0 31.166 6.33301 41.499 19s15.5 29.667 15.5 51v473h188v-465zM165 833c0 16.667 3.33496 32.334 10.002 47.001s16 27.5 28 38.5s25.833 19.667 41.5 26s32.5 9.5 50.5 9.5
c17.333 0 33.833 -3.16699 49.5 -9.5s29.334 -15 41.001 -26s20.834 -23.833 27.501 -38.5s10 -30.334 10 -47.001c0 -17.333 -3.33301 -33.333 -10 -48s-15.834 -27.334 -27.501 -38.001s-25.334 -19.167 -41.001 -25.5s-32.5 -9.5 -50.5 -9.5s-34.833 3.16699 -50.5 9.5
s-29.334 14.833 -41.001 25.5s-20.834 23.334 -27.501 38.001s-10 30.667 -10 48zM335.002 833c0 10 -3.83301 18.667 -11.5 26s-17.167 11 -28.5 11c-12 0 -21.833 -3.66699 -29.5 -11s-11.5 -16 -11.5 -26c0 -10.667 3.83301 -19.834 11.5 -27.501s17.5 -11.5 29.5 -11.5
c11.333 0 20.833 3.83301 28.5 11.5s11.5 16.834 11.5 27.501z" />
    <glyph glyph-name="uring" unicode="&#x16f;" horiz-adv-x="526" 
d="M300 44c-20 -22 -41.001 -36.332 -63.001 -42.999s-40 -10 -54 -10c-52.667 0 -89.667 14.167 -111 42.5s-32 66.5 -32 114.5v349h182v-288c0 -16 2.83301 -28.667 8.5 -38s15.834 -14 30.501 -14s25.167 5.66699 31.5 17s9.5 23.666 9.5 36.999v286h181v-497h-179v43z
M134.999 656.001c0 16.667 3.33496 32.334 10.002 47.001s16 27.5 28 38.5s25.833 19.667 41.5 26s32.5 9.5 50.5 9.5c17.333 0 33.833 -3.16699 49.5 -9.5s29.334 -15 41.001 -26s20.834 -23.833 27.501 -38.5s10 -30.334 10 -47.001c0 -17.333 -3.33301 -33.333 -10 -48
s-15.834 -27.334 -27.501 -38.001s-25.334 -19.167 -41.001 -25.5s-32.5 -9.5 -50.5 -9.5s-34.833 3.16699 -50.5 9.5s-29.334 14.833 -41.001 25.5s-20.834 23.334 -27.501 38.001s-10 30.667 -10 48zM305.001 656.001c0 10 -3.83301 18.667 -11.5 26s-17.167 11 -28.5 11
c-12 0 -21.833 -3.66699 -29.5 -11s-11.5 -16 -11.5 -26c0 -10.667 3.83301 -19.834 11.5 -27.501s17.5 -11.5 29.5 -11.5c11.333 0 20.833 3.83301 28.5 11.5s11.5 16.834 11.5 27.501z" />
    <glyph glyph-name="Uhungarumlaut" unicode="&#x170;" horiz-adv-x="591" 
d="M541 231c0 -34 -5.16699 -65.5 -15.5 -94.5s-25.666 -54 -45.999 -75s-46 -37.333 -77 -49s-67.5 -17.5 -109.5 -17.5s-78.167 5.83301 -108.5 17.5s-55.5 27.834 -75.5 48.501s-34.833 45.5 -44.5 74.5s-14.5 60.833 -14.5 95.5v465h187v-474
c0 -24.667 5.33301 -42.334 16 -53.001s25 -16 43 -16c17.333 0 31.166 6.33301 41.499 19s15.5 29.667 15.5 51v473h188v-465zM82 795l176 158l95 -108l-203 -127zM313 792l176 158l94 -108l-203 -127z" />
    <glyph glyph-name="uhungarumlaut" unicode="&#x171;" horiz-adv-x="526" 
d="M300 44c-20 -22 -41.001 -36.332 -63.001 -42.999s-40 -10 -54 -10c-52.667 0 -89.667 14.167 -111 42.5s-32 66.5 -32 114.5v349h182v-288c0 -16 2.83301 -28.667 8.5 -38s15.834 -14 30.501 -14s25.167 5.66699 31.5 17s9.5 23.666 9.5 36.999v286h181v-497h-179v43z
M277.999 569.001l98 216l132 -63l-135 -197zM101.999 588.001l99 216l132 -62l-136 -198z" />
    <glyph glyph-name="Uogonek" unicode="&#x172;" horiz-adv-x="591" 
d="M206 -111c0 12.667 3.33398 28.833 10.001 48.5s17.667 39.834 33 60.501c-34 4 -63.5 12.333 -88.5 25s-45.667 29.167 -62 49.5s-28.5 44 -36.5 71s-12 56.167 -12 87.5v465h187v-474c0 -24.667 5.33301 -42.334 16 -53.001s25 -16 43 -16
c17.333 0 31.166 6.33301 41.499 19s15.5 29.667 15.5 51v473h188v-465c0 -30.667 -4.16699 -59.334 -12.5 -86.001s-20.833 -50.167 -37.5 -70.5s-37.5 -37.166 -62.5 -50.499s-54.5 -22 -88.5 -26c-9.33301 -16.667 -15.5 -32 -18.5 -46s-4.5 -25.667 -4.5 -35
c0 -14.667 4.5 -24.667 13.5 -30s20.167 -8.33301 33.5 -9c17.333 0 36 3 56 9l24 -76c-17.333 -9.33301 -36.833 -16.333 -58.5 -21s-41.167 -7 -58.5 -7c-36 0 -65.167 9.16699 -87.5 27.5s-33.5 44.5 -33.5 78.5z" />
    <glyph glyph-name="uogonek" unicode="&#x173;" horiz-adv-x="526" 
d="M258 -109c0 13.333 3.33203 30.168 9.99902 50.501s18.667 40.833 36 61.5v40l-4 1c-20 -22 -41 -36.333 -63 -43s-40 -10 -54 -10c-52.667 0 -89.667 14.167 -111 42.5s-32 66.5 -32 114.5v349h182v-288c0 -16 2.83301 -28.667 8.5 -38s15.834 -14 30.501 -14
s25.167 5.66699 31.5 17s9.5 23.666 9.5 36.999v286h181v-497h-91c-9.33301 -16.667 -15.5 -32 -18.5 -46s-4.5 -25.667 -4.5 -35c0 -14.667 4.5 -24.667 13.5 -30s20.167 -8.33301 33.5 -9c17.333 0 36 3 56 9l24 -76c-17.333 -9.33301 -36.833 -16.333 -58.5 -21
s-41.167 -7 -58.5 -7c-36 0 -65.167 9.16699 -87.5 27.5s-33.5 44.5 -33.5 78.5z" />
    <glyph glyph-name="Wcircumflex" unicode="&#x174;" horiz-adv-x="810" 
d="M404 348l-35.999 -170l-39 -178h-189l-130 696h190c5.33301 -42 10.333 -84 15 -126s9.66699 -84 15 -126l18 -137h4c4.66699 23.333 9.66699 46.5 15 69.5s10.333 46.167 15 69.5c7.33301 42 15.166 83.667 23.499 125s16.166 83 23.499 125h157l46 -253l27 -133h4
c3.33301 22 6.33301 44 9 66l8 66l29 254h191l-130 -696h-190c-5.33301 30 -11.166 59.833 -17.499 89.5l-19.5 89.5l-34 169h-5zM407.001 807l-139 -86l-58 64l141 141h113l139 -142l-58 -64z" />
    <glyph glyph-name="wcircumflex" unicode="&#x175;" horiz-adv-x="775" 
d="M385 241l-32 -135l-28 -106h-186l-129 496h191l23 -143l20 -133h5l28 134l28 142h168l28 -143l27 -133h5l21 137l22 139h189l-129 -496h-186l-28 109l-32 132h-5zM386 628l-132 -104l-67 60l144 165h113l141 -165l-68 -61z" />
    <glyph glyph-name="Ycircumflex" unicode="&#x176;" horiz-adv-x="571" 
d="M287 446l16 49l16 49l46 152h194l-182 -433v-263h-186v263l-182 433h196l23.5 -76l22.5 -76l33 -98h3zM287 807l-139 -86l-58 64l141 141h113l139 -142l-58 -64z" />
    <glyph glyph-name="ycircumflex" unicode="&#x177;" horiz-adv-x="518" 
d="M259 206l25.999 140c0.666992 6 2.33398 16 5.00098 30l9 45c3.33301 16 6.33301 31.167 9 45.5s4.66699 24.5 6 30.5h192l-168 -547c-16.667 -56 -40.5 -94.5 -71.5 -115.5s-69.167 -31.5 -114.5 -31.5h-81v154h30c12.667 0 23 2 31 6s14.667 12.667 20 26l10 25
l-154 483h193l29 -155l26 -137zM256.999 628l-132 -104l-67 60l144 165h113l141 -165l-68 -61z" />
    <glyph glyph-name="Ydieresis" unicode="&#x178;" horiz-adv-x="571" 
d="M287 446l16 49l16 49l46 152h194l-182 -433v-263h-186v263l-182 433h196l23.5 -76l22.5 -76l33 -98h3zM320 737v133h147v-133h-147zM105 737v133h146v-133h-146z" />
    <glyph glyph-name="Zacute" unicode="&#x179;" horiz-adv-x="508" 
d="M30 0v143l243 399h-233v154h438v-140l-243 -399h243v-157h-448zM164 806l197 131l78 -121l-219 -96z" />
    <glyph glyph-name="zacute" unicode="&#x17a;" horiz-adv-x="454" 
d="M30 0v129l184 232h-172v136h382v-122l-188 -234h188v-141h-394zM153 578l99 219l134 -61l-136 -203z" />
    <glyph glyph-name="Zdotaccent" unicode="&#x17b;" horiz-adv-x="508" 
d="M30 0v143l243 399h-233v154h438v-140l-243 -399h243v-157h-448zM183 739v139h173v-139h-173z" />
    <glyph glyph-name="zdotaccent" unicode="&#x17c;" horiz-adv-x="454" 
d="M30 0v129l184 232h-172v136h382v-122l-188 -234h188v-141h-394zM153 569v139h173v-139h-173z" />
    <glyph glyph-name="Zcaron" unicode="&#x17d;" horiz-adv-x="508" 
d="M30 0v143l243 399h-233v154h438v-140l-243 -399h243v-157h-448zM390 930l58 -64l-139 -141h-113l-141 140l58 65l139 -86z" />
    <glyph glyph-name="zcaron" unicode="&#x17e;" horiz-adv-x="454" 
d="M30 0v129l184 232h-172v136h382v-122l-188 -234h188v-141h-394zM364 761l68 -59l-141 -165h-113l-144 165l68 59l132 -103z" />
    <glyph glyph-name="florin" unicode="&#x192;" horiz-adv-x="543" 
d="M110 439l85 0.00195312c2.66699 25.333 6.83398 53.333 12.501 84s15.834 59.167 30.501 85.5s35.334 48.333 62.001 66s62.667 26.5 108 26.5c17.333 0 36.666 -1.66699 57.999 -5s41.666 -8.66602 60.999 -15.999c-5.33301 -23.333 -10 -46.833 -14 -70.5
s-8.66699 -47.167 -14 -70.5c-10.667 3.33301 -20.834 5.66602 -30.501 6.99902s-17.167 2 -22.5 2c-10 0 -18.833 -1.5 -26.5 -4.5s-14.167 -8.66699 -19.5 -17s-9.83301 -19.5 -13.5 -33.5s-6.83398 -32 -9.50098 -54h84v-132h-97
c-5.33301 -48 -9.83301 -95.833 -13.5 -143.5s-11.5 -90.334 -23.5 -128.001s-31 -68.334 -57 -92.001s-63.667 -35.5 -113 -35.5c-18 0 -38.833 1.66699 -62.5 5s-49.5 10.666 -77.5 21.999l36 132c10.667 -1.33301 18.834 -2.66602 24.501 -3.99902s12.5 -2 20.5 -2
c17.333 0 31.333 5.5 42 16.5s17.667 32.5 21 64.5c3.33301 27.333 6.33301 54.5 9 81.5l8 83.5h-68v132z" />
    <glyph glyph-name="Ohorn" unicode="&#x1a0;" horiz-adv-x="625" 
d="M534 275c0 -30 -1.6709 -59.668 -5.00391 -89.001s-11.666 -56.666 -24.999 -81.999c-18 -35.333 -45.167 -62.5 -81.5 -81.5s-80.5 -28.5 -132.5 -28.5c-54 0 -99.167 9 -135.5 27s-63.166 44 -80.499 78c-13.333 24.667 -21.166 53 -23.499 85s-3.5 62.333 -3.5 91v148
c0 16.667 0.666992 33 2 49s3.33301 31.667 6 47c8.66699 56.667 32.834 101.667 72.501 135s93.834 50 162.501 50c35.333 0 66.666 -4.33301 93.999 -13s51 -20.667 71 -36c13.333 5.33301 22.5 15.333 27.5 30s7.5 36.667 7.5 66v55h124v-94c0 -40 -8 -73.333 -24 -100
s-38.667 -46 -68 -58c8 -27.333 12 -57 12 -89v-190zM345.996 432.999c0 12 -0.166992 23.665 -0.5 34.998s-1.5 22.666 -3.5 33.999c-2.66699 13.333 -8.66699 23.833 -18 31.5s-20.666 11.5 -33.999 11.5s-24.833 -4 -34.5 -12s-15.5 -18.667 -17.5 -32
c-1.33301 -11.333 -2.33301 -22.666 -3 -33.999s-1 -22.666 -1 -33.999v-171c0 -12 0.333008 -23.667 1 -35s1.66699 -22.666 3 -33.999c2.66699 -14 8.66699 -24.333 18 -31s20.666 -10 33.999 -10c37.333 0 56 22.333 56 67v214z" />
    <glyph glyph-name="ohorn" unicode="&#x1a1;" horiz-adv-x="584" 
d="M260 509c34 0 63.3301 -4.50195 87.9971 -13.502s45.667 -20.833 63 -35.5c12.667 5.33301 21.334 14.833 26.001 28.5s7 34.167 7 61.5v60h124v-95c0 -41.333 -8.66699 -75.666 -26 -102.999s-42 -46.666 -74 -57.999c6 -32 9 -66.667 9 -104
c0 -23.333 -2 -47.833 -6 -73.5s-9.66699 -48.167 -17 -67.5c-8.66699 -23.333 -20.167 -42.333 -34.5 -57s-30.5 -26.5 -48.5 -35.5s-37.5 -15.167 -58.5 -18.5s-42.167 -5 -63.5 -5c-49.333 0 -89.666 8.83301 -120.999 26.5s-53.666 40.167 -66.999 67.5
c-10 20 -17.167 44.667 -21.5 74s-6.5 59 -6.5 89c0 26.667 2 53.167 6 79.5s10 48.833 18 67.5c14 32.667 38.167 59.5 72.5 80.5s77.833 31.5 130.5 31.5zM254.997 141.998c8.66699 0 15.333 1.83203 20 5.49902s8.66699 8.16699 12 13.5c4 7.33301 6.66699 18.833 8 34.5
s2 33.167 2 52.5c0 18.667 -0.5 36 -1.5 52s-3.16699 28.667 -6.5 38c-6 14.667 -17 22 -33 22c-9.33301 0 -16.333 -2 -21 -6s-8.66699 -9.66699 -12 -17c-4 -8.66699 -6.66699 -20 -8 -34s-2 -32.333 -2 -55c0 -21.333 0.666992 -39.166 2 -53.499
s4.33301 -25.833 9 -34.5c6 -12 16.333 -18 31 -18z" />
    <glyph glyph-name="Uhorn" unicode="&#x1af;" horiz-adv-x="707" 
d="M541 654c18.667 2.66699 31.333 10.833 38 24.5s10 37.5 10 71.5v57h124v-95c0 -53.333 -14.333 -95 -43 -125s-68 -45 -118 -45h-11v-311c0 -34 -5.16699 -65.5 -15.5 -94.5s-25.666 -54 -45.999 -75s-46 -37.333 -77 -49s-67.5 -17.5 -109.5 -17.5
s-78.167 5.83301 -108.5 17.5s-55.5 27.834 -75.5 48.501s-34.833 45.5 -44.5 74.5s-14.5 60.833 -14.5 95.5v465h187v-474c0 -24.667 5.33301 -42.334 16 -53.001s25 -16 43 -16c17.333 0 31.166 6.33301 41.499 19s15.5 29.667 15.5 51v473h188v-42z" />
    <glyph glyph-name="uhorn" unicode="&#x1b0;" horiz-adv-x="658" 
d="M300 44c-20 -22 -41.001 -36.3311 -63.001 -42.998s-40 -10 -54 -10c-52.667 0 -89.667 14.167 -111 42.5s-32 66.5 -32 114.5v349h182v-288c0 -16 2.83301 -28.667 8.5 -38s15.834 -14 30.501 -14s25.167 5.66699 31.5 17s9.5 23.666 9.5 36.999v286h181v-40
c16 3.33301 26.833 11.666 32.5 24.999s8.5 36 8.5 68v57h124v-95c0 -53.333 -14.333 -95 -43 -125s-68 -45 -118 -45h-4v-342h-179v43z" />
    <glyph glyph-name="AEacute" unicode="&#x1fc;" horiz-adv-x="895" 
d="M434 0v129h-177l-54 -129h-196l312 696h541v-156h-238v-107h197v-156h-197v-120h238v-157h-426zM321 278h113v256h-6zM459 806l197 131l78 -121l-219 -96z" />
    <glyph glyph-name="aeacute" unicode="&#x1fd;" horiz-adv-x="750" 
d="M257 510c26.667 0 51.833 -3.5 75.5 -10.5s42.834 -17.167 57.501 -30.5c16 14 33.667 24 53 30s41.666 9 66.999 9c60.667 0 108 -14 142 -42s54.333 -66.333 61 -115c2.66699 -15.333 4.5 -31.5 5.5 -48.5s1.5 -34.167 1.5 -51.5v-47h-253
c0 -15.333 1.16699 -27.333 3.5 -36s5.66602 -15.5 9.99902 -20.5s9.5 -8.16699 15.5 -9.5s12.667 -2 20 -2s15.833 2.66699 25.5 8s20.167 18 31.5 38l136 -72c-16.667 -34.667 -40.334 -62.834 -71.001 -84.501s-72.667 -32.5 -126 -32.5c-38 0 -71.333 5.33301 -100 16
s-52.334 25.667 -71.001 45c-23.333 -23.333 -47.5 -39.666 -72.5 -48.999s-54.5 -14 -88.5 -14c-45.333 0 -81.666 12.167 -108.999 36.5s-41 61.5 -41 111.5c0 22.667 3.66699 44 11 64s18.666 37.333 33.999 52s34.833 26.167 58.5 34.5s51.834 12.5 84.501 12.5h66v26
c0 2.66699 -0.5 6.16699 -1.5 10.5s-3.16699 8.5 -6.5 12.5s-8 7.5 -14 10.5s-13.667 4.5 -23 4.5c-13.333 0 -26.666 -2.33301 -39.999 -7s-26 -15.667 -38 -33l-110 81c19.333 38 46.833 64.667 82.5 80s76.834 23 123.501 23zM207.999 160
c0 -9.33301 2.33398 -17.333 7.00098 -24s13.667 -10 27 -10c11.333 0 21.166 3.5 29.499 10.5s12.5 17.5 12.5 31.5v35h-35c-12.667 0 -22.667 -4.33301 -30 -13s-11 -18.667 -11 -30zM508 368c-12 0 -20.834 -6 -26.501 -18s-9.16699 -27.667 -10.5 -47h74
c-0.666992 12.667 -2 24.167 -4 34.5s-5.66699 17.833 -11 22.5c-5.33301 5.33301 -12.666 8 -21.999 8zM310.999 578l99 219l134 -61l-136 -203z" />
    <glyph glyph-name="Oslashacute" unicode="&#x1fe;" horiz-adv-x="582" 
d="M48 24l34.998 57.999l-9 17c-13.333 24.667 -21.166 53 -23.499 85s-3.5 62.333 -3.5 91v148c0 16.667 0.666992 33 2 49s3.33301 31.667 6 47c8.66699 56.667 32.834 101.667 72.501 135s93.834 50 162.501 50c61.333 0 111.666 -13 150.999 -39l27 43l56 -34l-34 -55
c29.333 -40.667 44 -92 44 -154v-190c0 -30 -1.66699 -59.667 -5 -89s-11.666 -56.666 -24.999 -81.999c-18 -35.333 -45.167 -62.5 -81.5 -81.5s-80.5 -28.5 -132.5 -28.5c-68.667 0 -122.334 14 -161.001 42l-29 -46zM185.998 805.999l197 131l78 -121l-219 -96z
M345.998 385.999l-109.999 -177.001c0 -3.33301 0.166992 -6.16602 0.5 -8.49902s0.833008 -4.83301 1.5 -7.5c2.66699 -14 8.66699 -24.333 18 -31s20.666 -10 33.999 -10c37.333 0 56 22.333 56 67v167zM233.999 326.998l107.999 174.998
c-2.66699 13.333 -8.66699 23.833 -18 31.5s-20.666 11.5 -33.999 11.5s-24.833 -4 -34.5 -12s-15.5 -18.667 -17.5 -32c-1.33301 -11.333 -2.33301 -22.666 -3 -33.999s-1 -22.666 -1 -33.999v-106z" />
    <glyph glyph-name="oslashacute" unicode="&#x1ff;" horiz-adv-x="510" 
d="M260 509c28.667 0 54.002 -3.16699 76.002 -9.5s41 -15.166 57 -26.499l29 37l41 -33l-31 -40l8 -10.5c2.66699 -3.66699 5 -7.5 7 -11.5c11.333 -20 19.166 -44.5 23.499 -73.5s6.5 -59.5 6.5 -91.5c0 -23.333 -2 -47.833 -6 -73.5s-9.66699 -48.167 -17 -67.5
c-8.66699 -23.333 -20.167 -42.333 -34.5 -57s-30.5 -26.5 -48.5 -35.5s-37.5 -15.167 -58.5 -18.5s-42.167 -5 -63.5 -5c-29.333 0 -55.333 3.16699 -78 9.5s-42.334 15.166 -59.001 26.499l-31 -40l-39 32l33 42v1c-5.33301 8 -10 15.667 -14 23
c-10 20 -17.167 44.667 -21.5 74s-6.5 59 -6.5 89c0 26.667 2 53.167 6 79.5s10 48.833 18 67.5c14 32.667 38.167 59.5 72.5 80.5s77.833 31.5 130.5 31.5zM168.002 578l99 219l134 -61l-136 -203zM255.002 142c8.66699 0 15.333 1.83301 20 5.5s8.66699 8.16699 12 13.5
c4 7.33301 6.66699 18.833 8 34.5s2 33.167 2 52.5v16l-76 -97l3 -7c6 -12 16.333 -18 31 -18zM213.001 241l76 97c-6 14.667 -17 22 -33 22c-9.33301 0 -16.333 -2 -21 -6s-8.66699 -9.66699 -12 -17c-4 -8.66699 -6.66699 -20 -8 -34s-2 -32.333 -2 -55v-7z" />
    <glyph glyph-name="Scommaaccent" unicode="&#x218;" horiz-adv-x="562" 
d="M529 212c0 -68.667 -22.335 -122.003 -67.002 -160.003s-105.667 -57 -183 -57c-59.333 0 -108.833 11 -148.5 33s-73.5 53.333 -101.5 94l126 105c19.333 -26 39.166 -45 59.499 -57s41.166 -18 62.499 -18c24 0 41 5 51 15s15 22.333 15 37
c0 10 -1.83301 18.833 -5.5 26.5s-9.66699 14.5 -18 20.5s-19 11.833 -32 17.5s-28.833 11.834 -47.5 18.501c-29.333 10.667 -55.5 22.334 -78.5 35.001s-42.333 26.834 -58 42.501s-27.5 33.667 -35.5 54s-12 44.166 -12 71.499c0 30.667 5.66699 59.167 17 85.5
s27 49 47 68s43.833 33.833 71.5 44.5s58.167 16 91.5 16c53.333 0 98.833 -8 136.5 -24s69.834 -42 96.501 -78l-115 -118c-18.667 22 -38.167 37.333 -58.5 46s-39.166 13 -56.499 13c-15.333 0 -27.5 -4 -36.5 -12s-13.5 -18.667 -13.5 -32c0 -14.667 8 -26.667 24 -36
s42 -20.666 78 -33.999c36.667 -13.333 67.334 -27.333 92.001 -42s44.334 -30.667 59.001 -48s25 -36.333 31 -57s9 -44 9 -70zM212.998 -322.003l28 120h-30v147h160v-139l-63 -128h-95z" />
    <glyph glyph-name="scommaaccent" unicode="&#x219;" horiz-adv-x="470" 
d="M438 159c0 -49.333 -18.5039 -89 -55.5039 -119s-87.167 -45 -150.5 -45c-45.333 0 -85.166 6.66699 -119.499 20s-63.833 38.666 -88.5 75.999l108 91c7.33301 -8.66699 14 -16.167 20 -22.5s12.333 -11.666 19 -15.999s14 -7.5 22 -9.5s17.333 -3 28 -3
c14 0 24.833 3 32.5 9s11.5 13 11.5 21c0 16.667 -13.667 27.667 -41 33c-22.667 4.66699 -44.667 10.5 -66 17.5s-40.166 16.5 -56.499 28.5s-29.5 26.833 -39.5 44.5s-15 39.5 -15 65.5c0 24.667 5.16699 47 15.5 67s24.333 36.833 42 50.5s38.167 24.167 61.5 31.5
s48 11 74 11c46 0 83.667 -5.83301 113 -17.5s55.666 -30.167 78.999 -55.5l-89 -108c-12 13.333 -25.333 24 -40 32s-32 12 -52 12c-13.333 0 -22.833 -2.66699 -28.5 -8s-8.5 -10.666 -8.5 -15.999c0 -8.66699 5 -15.334 15 -20.001s21.333 -8.33398 34 -11.001
c20.667 -4 41.334 -9.5 62.001 -16.5s39.334 -16.5 56.001 -28.5s30.334 -27.167 41.001 -45.5s16 -41.166 16 -68.499zM152.996 -322l28 120h-30v147h160v-139l-63 -128h-95z" />
    <glyph glyph-name="schwa" unicode="&#x259;" horiz-adv-x="494" 
d="M249 509c54 0 97.002 -10.168 129.002 -30.501s54.667 -48.5 68 -84.5c7.33301 -19.333 12.333 -40.833 15 -64.5s4 -48.167 4 -73.5c0 -34 -3.33301 -65.5 -10 -94.5s-16.334 -54.167 -29.001 -75.5c-16.667 -28 -39.834 -50.333 -69.501 -67s-67.5 -25 -113.5 -25
c-60.667 0 -108 14 -142 42s-54.333 66.333 -61 115c-2.66699 15.333 -4.5 31.5 -5.5 48.5s-1.5 34.167 -1.5 51.5v36h253c0 30 -3.83301 50.667 -11.5 62s-20.167 17 -37.5 17c-7.33301 0 -15.833 -2.66699 -25.5 -8s-20.167 -18 -31.5 -38l-136 72
c16.667 34.667 41.5 62.834 74.5 84.501s76.5 32.5 130.5 32.5zM245.002 133.999c22.667 0 35.001 20.333 37.001 61h-74c0.666992 -12.667 2 -23.5 4 -32.5s5.66699 -15.833 11 -20.5c5.33301 -5.33301 12.666 -8 21.999 -8z" />
    <glyph glyph-name="primemod" unicode="&#x2b9;" horiz-adv-x="274" 
d="M311 699l-152 -319l-119 42l113 331z" />
    <glyph glyph-name="circumflex" unicode="&#x2c6;" horiz-adv-x="466" 
d="M233 628l-132 -104l-67 60l144 165h113l141 -165l-68 -61z" />
    <glyph glyph-name="caron" unicode="&#x2c7;" horiz-adv-x="470" 
d="M364 761l68 -59l-141 -165h-113l-144 165l68 59l132 -103z" />
    <glyph glyph-name="breve" unicode="&#x2d8;" horiz-adv-x="518" 
d="M268 536c-32.667 0 -60.1641 5.83398 -82.4971 17.501s-40.333 26.334 -54 44.001s-23.834 36.667 -30.501 57s-10.334 39.5 -11.001 57.5h111c1.33301 -19.333 7.5 -36.333 18.5 -51s26.833 -22 47.5 -22c22 0 38.333 7.66699 49 23s16.667 32 18 50h111
c-0.666992 -17.333 -4.33398 -36.333 -11.001 -57s-17 -39.834 -31 -57.501s-32 -32.334 -54 -44.001s-49 -17.5 -81 -17.5z" />
    <glyph glyph-name="dotaccent" unicode="&#x2d9;" horiz-adv-x="373" 
d="M98 569v139h173v-139h-173z" />
    <glyph glyph-name="ring" unicode="&#x2da;" horiz-adv-x="462" 
d="M109 656c0 16.667 3.33496 32.334 10.002 47.001s16 27.5 28 38.5s25.833 19.667 41.5 26s32.5 9.5 50.5 9.5c17.333 0 33.833 -3.16699 49.5 -9.5s29.334 -15 41.001 -26s20.834 -23.833 27.501 -38.5s10 -30.334 10 -47.001c0 -17.333 -3.33301 -33.333 -10 -48
s-15.834 -27.334 -27.501 -38.001s-25.334 -19.167 -41.001 -25.5s-32.5 -9.5 -50.5 -9.5s-34.833 3.16699 -50.5 9.5s-29.334 14.833 -41.001 25.5s-20.834 23.334 -27.501 38.001s-10 30.667 -10 48zM279.002 656c0 10 -3.83301 18.667 -11.5 26s-17.167 11 -28.5 11
c-12 0 -21.833 -3.66699 -29.5 -11s-11.5 -16 -11.5 -26c0 -10.667 3.83301 -19.834 11.5 -27.501s17.5 -11.5 29.5 -11.5c11.333 0 20.833 3.83301 28.5 11.5s11.5 16.834 11.5 27.501z" />
    <glyph glyph-name="ogonek" unicode="&#x2db;" horiz-adv-x="344" 
d="M127 -111c0 15.333 4.66797 35.1699 14.001 59.5029s25.666 48.166 48.999 71.499h81c0 -0.666992 0.166992 -1.33398 0.5 -2.00098s0.5 -1.33398 0.5 -2.00098c-13.333 -20.667 -22.333 -39.5 -27 -56.5s-7 -31.167 -7 -42.5c0 -14.667 4.5 -24.667 13.5 -30
s20.167 -8.33301 33.5 -9c17.333 0 36 3 56 9l24 -76c-17.333 -9.33301 -36.833 -16.333 -58.5 -21s-41.167 -7 -58.5 -7c-36 0 -65.167 9.16699 -87.5 27.5s-33.5 44.5 -33.5 78.5z" />
    <glyph glyph-name="tilde" unicode="&#x2dc;" horiz-adv-x="469" 
d="M315 560c-10.667 0 -21.166 2 -31.499 6s-20.333 8.5 -30 13.5s-19.334 9.5 -29.001 13.5s-19.5 6 -29.5 6c-9.33301 0 -20 -2.83301 -32 -8.5s-24 -17.167 -36 -34.5l-79 44c15.333 42 34.333 72.333 57 91s46.667 28 72 28c13.333 0 25.833 -2.16699 37.5 -6.5
s22.5 -9 32.5 -14s19.5 -9.5 28.5 -13.5s18.167 -6 27.5 -6c10 0 19.5 3 28.5 9s18.833 16.667 29.5 32l77 -42c-15.333 -44.667 -34 -75.5 -56 -92.5s-44.333 -25.5 -67 -25.5z" />
    <glyph glyph-name="hungarumlaut" unicode="&#x2dd;" horiz-adv-x="537" 
d="M301 569l98 216l132 -63l-135 -197zM125 588l99 216l132 -62l-136 -198z" />
    <glyph glyph-name="tonos" unicode="&#x384;" horiz-adv-x="451" 
d="M136 577l99 219l134 -63l-136 -202z" />
    <glyph glyph-name="dieresistonos" unicode="&#x385;" horiz-adv-x="579" 
d="M395 555v133h147v-133h-147zM44 555v133h146v-133h-146zM201 564l72 226l139 -46l-111 -213z" />
    <glyph glyph-name="Alphatonos" unicode="&#x386;" horiz-adv-x="618" 
d="M388 123h-159l-27 -123h-194l196 696h211l194 -696h-193zM306 482l-26 -131l-16 -78h89l-16 81l-25 128h-6zM-115 542l99 219l134 -63l-136 -202z" />
    <glyph glyph-name="anoteleia" unicode="&#x387;" horiz-adv-x="310" 
d="M60 277v172h190v-172h-190z" />
    <glyph glyph-name="Epsilontonos" unicode="&#x388;" horiz-adv-x="532" 
d="M50 0v696h447v-156h-258v-107h217v-156h-217v-120h258v-157h-447zM-216 542l99 219l134 -63l-136 -202z" />
    <glyph glyph-name="Etatonos" unicode="&#x389;" horiz-adv-x="593" 
d="M356 0v272h-117v-272h-189v696h189v-264h117v264h187v-696h-187zM-210 542l99 219l134 -63l-136 -202z" />
    <glyph glyph-name="Iotatonos" unicode="&#x38a;" horiz-adv-x="309" 
d="M60 0v696h189v-696h-189zM-201 542l99 219l134 -63l-136 -202z" />
    <glyph glyph-name="Omicrontonos" unicode="&#x38c;" horiz-adv-x="582" 
d="M346 433c0 12 -0.166992 23.665 -0.5 34.998s-1.5 22.666 -3.5 33.999c-2.66699 13.333 -8.66699 23.833 -18 31.5s-20.666 11.5 -33.999 11.5s-24.833 -4 -34.5 -12s-15.5 -18.667 -17.5 -32c-1.33301 -11.333 -2.33301 -22.666 -3 -33.999s-1 -22.666 -1 -33.999v-171
c0 -12 0.333008 -23.667 1 -35s1.66699 -22.666 3 -33.999c2.66699 -14 8.66699 -24.333 18 -31s20.666 -10 33.999 -10c37.333 0 56 22.333 56 67v214zM534 274.998c0 -30 -1.67188 -59.668 -5.00488 -89.001s-11.666 -56.666 -24.999 -81.999
c-18 -35.333 -45.167 -62.5 -81.5 -81.5s-80.5 -28.5 -132.5 -28.5c-54 0 -99.167 9 -135.5 27s-63.166 44 -80.499 78c-13.333 24.667 -21.166 53 -23.499 85s-3.5 62.333 -3.5 91v148c0 16.667 0.666992 33 2 49s3.33301 31.667 6 47
c8.66699 56.667 32.834 101.667 72.501 135s93.834 50 162.501 50c41.333 0 77.333 -5.66699 108 -17s56 -27.5 76 -48.5s35 -46.167 45 -75.5s15 -62 15 -98v-190zM-181.005 541.997l99 219l134 -63l-136 -202z" />
    <glyph glyph-name="Upsilontonos" unicode="&#x38e;" horiz-adv-x="571" 
d="M287 446l16 49l16 49l46 152h194l-182 -433v-263h-186v263l-182 433h196l23.5 -76l22.5 -76l33 -98h3zM-241 542l99 219l134 -63l-136 -202z" />
    <glyph glyph-name="Omegatonos" unicode="&#x38f;" horiz-adv-x="602" 
d="M358 472c0 20 -4.33203 36.999 -12.999 50.999s-23.334 21.333 -44.001 22c-21.333 0 -36.666 -7 -45.999 -21s-14 -31.333 -14 -52v-238c0 -17.333 3.16699 -32.166 9.5 -44.499s17.166 -21.166 32.499 -26.499v-163h-238v154h54c-17.333 12 -28.833 29.167 -34.5 51.5
s-8.5 45.5 -8.5 69.5v201c0 34.667 6 66 18 94s28.833 52 50.5 72s47.334 35.333 77.001 46s62.5 16 98.5 16c36.667 0 70.167 -5.33301 100.5 -16s56.166 -26 77.499 -46s37.833 -44 49.5 -72s17.5 -59.333 17.5 -94v-201c0 -24 -3.16699 -47 -9.5 -69
s-17.833 -39.333 -34.5 -52h56v-154h-239v163c14.667 6 25 15.167 31 27.5s9 27.166 9 44.499v237zM-158.999 541.999l99 219l134 -63l-136 -202z" />
    <glyph glyph-name="iotadieresistonos" unicode="&#x390;" horiz-adv-x="314" 
d="M279 141c0 -24.667 -0.166992 -49.1689 -0.5 -73.502s-0.5 -48.5 -0.5 -72.5c-15.333 -1.33301 -29.5 -2 -42.5 -2h-33.5c-29.333 0.666992 -53.5 4.83398 -72.5 12.501s-34 18.334 -45 32.001s-18.667 29.667 -23 48s-6.5 38.5 -6.5 60.5v350h180v-314
c0 -16.667 2.83301 -27.5 8.5 -32.5s17.5 -7.83301 35.5 -8.5zM255 554.998v133h147v-133h-147zM-96 554.998v133h146v-133h-146zM61 563.998l72 226l139 -46l-111 -213z" />
    <glyph glyph-name="Alpha" unicode="&#x391;" horiz-adv-x="618" 
d="M388 123h-159l-27 -123h-194l196 696h211l194 -696h-193zM306 482l-26 -131l-16 -78h89l-16 81l-25 128h-6z" />
    <glyph glyph-name="Beta" unicode="&#x392;" horiz-adv-x="584" 
d="M341 490c0 22 -6.50098 36.667 -19.501 44s-28.833 11 -47.5 11h-37v-113h38c20.667 0 36.834 4.16699 48.501 12.5s17.5 23.5 17.5 45.5zM349.999 221c0 26 -7.66895 43.667 -23.002 53s-34.666 14 -57.999 14h-32v-137h32c24.667 0 44.334 4.83301 59.001 14.5
s22 28.167 22 55.5zM313.997 696c74 0 129 -17.166 165 -51.499s54 -82.166 54 -143.499c0 -30.667 -6.16699 -58.334 -18.5 -83.001s-34.5 -43.334 -66.5 -56.001c18 -5.33301 32.833 -13.5 44.5 -24.5s21.167 -23.167 28.5 -36.5s12.5 -27.666 15.5 -42.999
s4.5 -30.333 4.5 -45c0 -68.667 -19.667 -121.334 -59 -158.001s-92 -55 -158 -55h-274v696h264z" />
    <glyph glyph-name="Gamma" unicode="&#x393;" horiz-adv-x="514" 
d="M239 542v-542h-189v696h447v-154h-258z" />
    <glyph glyph-name="Delta" unicode="&#x394;" horiz-adv-x="618" 
d="M8 0l195 696h212l193 -696h-600zM306 486l-37 -182l-30 -148h138l-30 151l-36 179h-5z" />
    <glyph glyph-name="Delta" unicode="&#x2206;" horiz-adv-x="618" 
d="M8 0l195 696h212l193 -696h-600zM306 486l-37 -182l-30 -148h138l-30 151l-36 179h-5z" />
    <glyph glyph-name="Epsilon" unicode="&#x395;" horiz-adv-x="532" 
d="M50 0v696h447v-156h-258v-107h217v-156h-217v-120h258v-157h-447z" />
    <glyph glyph-name="Zeta" unicode="&#x396;" horiz-adv-x="508" 
d="M30 0v143l243 399h-233v154h438v-140l-243 -399h243v-157h-448z" />
    <glyph glyph-name="Eta" unicode="&#x397;" horiz-adv-x="593" 
d="M356 0v272h-117v-272h-189v696h189v-264h117v264h187v-696h-187z" />
    <glyph glyph-name="Theta" unicode="&#x398;" horiz-adv-x="582" 
d="M534 275c0 -30 -1.67188 -59.668 -5.00488 -89.001s-11.666 -56.666 -24.999 -81.999c-18 -35.333 -45.167 -62.5 -81.5 -81.5s-80.5 -28.5 -132.5 -28.5c-54 0 -99.167 9 -135.5 27s-63.166 44 -80.499 78c-13.333 24.667 -21.166 53 -23.499 85s-3.5 62.333 -3.5 91
v148c0 16.667 0.666992 33 2 49s3.33301 31.667 6 47c8.66699 56.667 32.834 101.667 72.501 135s93.834 50 162.501 50c41.333 0 77.333 -5.66699 108 -17s56 -27.5 76 -48.5s35 -46.167 45 -75.5s15 -62 15 -98v-190zM345.995 278.999l-111.999 -0.000976562v-17
c0 -12 0.333008 -23.667 1 -35s1.66699 -22.666 3 -33.999c2.66699 -14 8.66699 -24.333 18 -31s20.666 -10 33.999 -10c37.333 0 56 22.333 56 67v60zM233.996 421.998l111.999 -0.000976562v11c0 12 -0.166992 23.667 -0.5 35s-1.5 22.666 -3.5 33.999
c-2.66699 13.333 -8.66699 23.833 -18 31.5s-20.666 11.5 -33.999 11.5s-24.833 -4 -34.5 -12s-15.5 -18.667 -17.5 -32c-1.33301 -11.333 -2.33301 -22.666 -3 -33.999s-1 -22.666 -1 -33.999v-11z" />
    <glyph glyph-name="Iota" unicode="&#x399;" horiz-adv-x="309" 
d="M60 0v696h189v-696h-189z" />
    <glyph glyph-name="Kappa" unicode="&#x39a;" horiz-adv-x="617" 
d="M395 412l108.5 -206.5l108.5 -205.5h-213l-59.5 123.5l-59.5 124.5l-42 -55v-193h-188v696h188v-212h6l56 79l93 133h206z" />
    <glyph glyph-name="Lambda" unicode="&#x39b;" horiz-adv-x="618" 
d="M347 309l-35 164h-6l-34 -171l-70 -302h-194l196 696h211l194 -696h-193z" />
    <glyph glyph-name="Mu" unicode="&#x39c;" horiz-adv-x="745" 
d="M374 364l63 159l69 173h189v-696h-183v293h-4l-37 -103l-26 -78h-144l-28 80l-36 104h-4v-296h-183v696h186l65 -164l67 -168h6z" />
    <glyph glyph-name="Nu" unicode="&#x39d;" horiz-adv-x="622" 
d="M389 383v313h183v-696h-164l-92 170l-77 148h-5v-318h-184v696h165l90 -160l79 -153h5z" />
    <glyph glyph-name="Xi" unicode="&#x39e;" horiz-adv-x="529" 
d="M33 0v159h463v-159h-463zM37 538v158h454v-158h-454zM77 277v155h374v-155h-374z" />
    <glyph glyph-name="Omicron" unicode="&#x39f;" horiz-adv-x="582" 
d="M346 433c0 12 -0.166992 23.665 -0.5 34.998s-1.5 22.666 -3.5 33.999c-2.66699 13.333 -8.66699 23.833 -18 31.5s-20.666 11.5 -33.999 11.5s-24.833 -4 -34.5 -12s-15.5 -18.667 -17.5 -32c-1.33301 -11.333 -2.33301 -22.666 -3 -33.999s-1 -22.666 -1 -33.999v-171
c0 -12 0.333008 -23.667 1 -35s1.66699 -22.666 3 -33.999c2.66699 -14 8.66699 -24.333 18 -31s20.666 -10 33.999 -10c37.333 0 56 22.333 56 67v214zM534 274.998c0 -30 -1.67188 -59.668 -5.00488 -89.001s-11.666 -56.666 -24.999 -81.999
c-18 -35.333 -45.167 -62.5 -81.5 -81.5s-80.5 -28.5 -132.5 -28.5c-54 0 -99.167 9 -135.5 27s-63.166 44 -80.499 78c-13.333 24.667 -21.166 53 -23.499 85s-3.5 62.333 -3.5 91v148c0 16.667 0.666992 33 2 49s3.33301 31.667 6 47
c8.66699 56.667 32.834 101.667 72.501 135s93.834 50 162.501 50c41.333 0 77.333 -5.66699 108 -17s56 -27.5 76 -48.5s35 -46.167 45 -75.5s15 -62 15 -98v-190z" />
    <glyph glyph-name="Pi" unicode="&#x3a0;" horiz-adv-x="597" 
d="M360 0v539h-121v-539h-189v696h497v-696h-187z" />
    <glyph glyph-name="Rho" unicode="&#x3a1;" horiz-adv-x="561" 
d="M536 478c0 -34 -5.33203 -64.501 -15.999 -91.501s-25.834 -50.167 -45.501 -69.5s-43.5 -34.166 -71.5 -44.499s-59 -15.5 -93 -15.5h-73v-257h-187v696h259c34 0 64.833 -4.16699 92.5 -12.5s51.5 -21.5 71.5 -39.5s35.5 -40.667 46.5 -68s16.5 -60 16.5 -98z
M352.001 478.999c0 22.667 -5.66797 39.333 -17.001 50s-26.666 16 -45.999 16h-52v-137h53c16.667 0 31.167 5.5 43.5 16.5s18.5 29.167 18.5 54.5z" />
    <glyph glyph-name="Sigma" unicode="&#x3a3;" horiz-adv-x="508" 
d="M354 358l-117 -201h243v-157h-447v143l125 215l-125 198v140h438v-154h-233z" />
    <glyph glyph-name="Tau" unicode="&#x3a4;" horiz-adv-x="508" 
d="M348 540v-540h-188v540h-147v156h482v-156h-147z" />
    <glyph glyph-name="Upsilon" unicode="&#x3a5;" horiz-adv-x="571" 
d="M287 446l16 49l16 49l46 152h194l-182 -433v-263h-186v263l-182 433h196l23.5 -76l22.5 -76l33 -98h3z" />
    <glyph glyph-name="Phi" unicode="&#x3a6;" horiz-adv-x="759" 
d="M287 59c-37.333 3.33301 -70.1689 11.3369 -98.502 24.0039s-52.5 28.667 -72.5 48s-35.667 41.666 -47 66.999s-18.333 52.666 -21 81.999c-2 30 -3 60.333 -3 91c0 21.333 1 42.666 3 63.999c2.66699 29.333 9.66699 57 21 83s26.833 48.833 46.5 68.5
s43.834 35.667 72.501 48s61.667 19.833 99 22.5v39h183v-39c38 -2 71.5 -9.16699 100.5 -21.5s53.333 -28.333 73 -48s35 -42.5 46 -68.5s17.833 -54 20.5 -84c1.33301 -15.333 2.16602 -30.833 2.49902 -46.5s0.5 -31.167 0.5 -46.5c0 -20.667 -1 -41 -3 -61
c-3.33301 -28.667 -10.666 -55.667 -21.999 -81s-27 -47.833 -47 -67.5s-44.167 -35.834 -72.5 -48.501s-61.166 -21 -98.499 -25v-59h-183v59zM469.997 205.004c15.333 1.33301 27.667 6.16895 37 14.502s15 17.833 17 28.5c3.33301 13.333 5.33301 29.5 6 48.5
s1 39.167 1 60.5v28c0 9.33301 -0.333008 18.666 -1 27.999c-0.666992 12.667 -1.66699 24.5 -3 35.5s-4 20.833 -8 29.5s-10 15.667 -18 21s-18.333 8.66602 -31 9.99902v-304zM286.998 509.007c-14 -2 -25.667 -6.83496 -35 -14.502s-15.333 -16.5 -18 -26.5
c-3.33301 -11.333 -5.5 -26.666 -6.5 -45.999s-1.5 -39.666 -1.5 -60.999v-58c0 -12 0.833008 -23.333 2.5 -34s4.66699 -20.5 9 -29.5s10.5 -16.5 18.5 -22.5s18.333 -10 31 -12v304z" />
    <glyph glyph-name="Chi" unicode="&#x3a7;" horiz-adv-x="605" 
d="M304 524l75 172h202l-180 -337l192 -359h-203l-83 195h-6l-88 -195h-202l190 359l-178 337h202l73 -172h6z" />
    </font>
</defs>
</svg>
