<?xml version="1.0" standalone="no"?>
<!DOCTYPE svg PUBLIC "-//W3C//DTD SVG 1.1//EN" "http://www.w3.org/Graphics/SVG/1.1/DTD/svg11.dtd" >
<svg>
<metadata>
Created by FontForge 20090914 at Thu Jul 24 18:45:37 2014
 By www-data
Copyright (c) 2002, 2005 Parachute&#194;&#168;, www.parachute.gr.  All rights reserved.
</metadata>
<defs>
<font id="PFDinTextCondPro-BoldItalic" horiz-adv-x="1818" >
  <font-face 
    font-family="PF Din Text Cond Pro"
    font-weight="700"
    font-style="italic"
    font-stretch="normal"
    units-per-em="1000"
    panose-1="2 0 0 0 0 0 0 0 0 0"
    ascent="750"
    descent="-250"
    x-height="493.997"
    cap-height="696"
    bbox="-176 -295.002 1760 958"
    underline-thickness="50"
    underline-position="-50"
    slope="-12"
    unicode-range="U+0020-U+FB05"
  />
<missing-glyph horiz-adv-x="447" 
d="M0 699h447v-699h-447v699zM333 77l-109 200l-110 -200h219zM332 622h-218l110 -199zM76 161l104 189l-104 190v-379zM370 162v376l-103 -188z" />
    <glyph glyph-name="fj" unicode="fj" horiz-adv-x="522" 
d="M122 494l12.001 62.999c6.66699 32 17 59.333 31 82s30.667 41.334 50 56.001s41.166 25.334 65.499 32.001s49.833 10 76.5 10c30 0 60.5 -4.66699 91.5 -14s57.167 -25.666 78.5 -48.999l-80 -100c-13.333 13.333 -28 22.666 -44 27.999s-33.667 8 -53 8
c-15.333 0 -28 -2.33301 -38 -7s-18 -10.334 -24 -17.001s-10.5 -13.667 -13.5 -21s-4.83301 -13.666 -5.5 -18.999l-10 -52h261l-102 -537c-10 -50.667 -31 -89.334 -63 -116.001s-74 -40 -126 -40h-10.5c-5 0 -10.167 0.166992 -15.5 0.5l-15.5 1
c-5 0.333008 -8.16699 0.5 -9.5 0.5l24 126h20c23.333 0 39 5.83301 47 17.5s13.667 26.167 17 43.5l77 396h-125l-104 -538h-137l104 538h-49l22 108h48z" />
    <glyph glyph-name="ffj" unicode="ffj" horiz-adv-x="784" 
d="M134 -151h-136.002l102 537h-49l22 108h49l7 39c6 32 16.333 59.333 31 82s32 41.167 52 55.5s42.333 24.833 67 31.5s50.334 10 77.001 10c18 0 36.833 -1.66699 56.5 -5s38.167 -9.66602 55.5 -18.999c42 32 92 48 150 48c30.667 0 61.334 -4.5 92.001 -13.5
s57 -25.167 79 -48.5l-80 -99c-12 12.667 -26.333 21.834 -43 27.501s-34.667 8.5 -54 8.5c-15.333 0 -28 -2.16699 -38 -6.5s-18 -9.83301 -24 -16.5s-10.333 -13.834 -13 -21.501s-4.66699 -14.5 -6 -20.5l-10 -52h263l-104 -537
c-10 -50.667 -30.833 -89.334 -62.5 -116.001s-73.5 -40 -125.5 -40h-10.5c-5 0 -10.167 0.166992 -15.5 0.5l-15.5 1c-5 0.333008 -8.16699 0.5 -9.5 0.5l24 126h20c22.667 0 38 5.83301 46 17.5s13.667 26.167 17 43.5l77 396h-125l-103 -537h-136l102 537h-126z
M384.998 494l8.99902 50.999c0.666992 4 1.66699 8.83301 3 14.5s3 11.167 5 16.5c-17.333 7.33301 -36.666 11 -57.999 11c-15.333 0 -28 -2.33301 -38 -7s-18 -10.5 -24 -17.5s-10.5 -14.167 -13.5 -21.5s-4.83301 -13.666 -5.5 -18.999l-5 -28h127z" />
    <glyph glyph-name="ff" unicode="ff" horiz-adv-x="559" 
d="M360 719c16 0 33.3311 -1.33105 51.998 -3.99805s35.667 -7.33398 51 -14.001c12.667 11.333 29.167 20.666 49.5 27.999s45.5 11 75.5 11c10.667 0 22.5 -0.5 35.5 -1.5s25.167 -3.16699 36.5 -6.5l-23 -119c-6.66699 1.33301 -13.667 2.33301 -21 3
s-13.666 1 -18.999 1c-12 0 -21.667 -1.83301 -29 -5.5s-13.166 -8 -17.499 -13s-7.5 -10.5 -9.5 -16.5s-3.33301 -11.333 -4 -16l-14 -71h82l-21 -109h-83l-104 -537h-136l104 537h-126l-104 -537h-137l104 537h-48l21 109h49l7 40c6 32 16.167 59.5 30.5 82.5
s31.5 42 51.5 57s42.5 26.167 67.5 33.5s51.5 11 79.5 11zM385.998 495.002l17.001 85c-18 8 -36.333 12 -55 12c-16 0 -29 -2.33301 -39 -7s-18 -10.334 -24 -17.001s-10.333 -13.667 -13 -21s-4.33398 -13.666 -5.00098 -18.999l-6 -33h125z" />
    <glyph glyph-name="fi" unicode="fi" horiz-adv-x="522" 
d="M122 494l12.001 63.001c6.66699 32 17 59.333 31 82s30.667 41.167 50 55.5s41.166 24.833 65.499 31.5s49.833 10 76.5 10c30 0 60.167 -4.5 90.5 -13.5s56.5 -25.167 78.5 -48.5l-79 -100c-13.333 13.333 -28 22.666 -44 27.999s-33.667 8 -53 8
c-15.333 0 -28 -2.33301 -38 -7s-18 -10.334 -24 -17.001s-10.5 -13.667 -13.5 -21s-4.83301 -13.666 -5.5 -18.999l-10 -52h263l-96 -494h-137l74 386h-125l-104 -537h-137l104 537h-49l22 108h48z" />
    <glyph glyph-name="fl" unicode="fl" horiz-adv-x="534" 
d="M463 169c-3.33301 -19.333 -2.16504 -32 3.50195 -38s15.167 -9 28.5 -9h16l-24 -124h-51c-44 0 -77 12 -99 36s-27.667 62.667 -17 116l90 448c-11.333 4 -22.5 6.66699 -33.5 8s-20.167 2 -27.5 2c-15.333 0 -28 -2.33301 -38 -7s-18 -10.5 -24 -17.5
s-10.5 -14.333 -13.5 -22s-4.83301 -14.167 -5.5 -19.5l-9 -48h82l-21 -108h-82l-104 -538h-137l104 538h-49l22 108h48l11 60c6 32 15.833 59.333 29.5 82s30 41.167 49 55.5s40.333 24.833 64 31.5s48.834 10 75.501 10c6.66699 0 17.167 -0.333008 31.5 -1
s31.166 -2.5 50.499 -5.5s40.166 -7.66699 62.499 -14s45.166 -14.833 68.499 -25.5z" />
    <glyph glyph-name="ffi" unicode="ffi" horiz-adv-x="779" 
d="M134 -151l-137.002 -0.00195312l104 537h-49l22 108h48l7 39c6 32 16.333 59.333 31 82s32.167 41.167 52.5 55.5s42.833 24.833 67.5 31.5s50.334 10 77.001 10c18 0 36.833 -1.66699 56.5 -5s38.167 -9.66602 55.5 -18.999c21.333 16.667 44.833 28.834 70.5 36.501
s52.834 11.5 81.501 11.5c30 0 60.167 -4.5 90.5 -13.5s56.5 -25.167 78.5 -48.5l-80 -99c-12 12.667 -26.333 21.834 -43 27.501s-34.667 8.5 -54 8.5c-15.333 0 -28 -2.16699 -38 -6.5s-18 -9.83301 -24 -16.5s-10.333 -13.834 -13 -21.501s-4.66699 -14.5 -6 -20.5
l-10 -52h263l-96 -494h-137l74 386h-125l-104 -537h-136l103 537h-126zM385.998 493.998l8.99902 50.999c0.666992 4 1.66699 8.83301 3 14.5s3 11.167 5 16.5c-17.333 7.33301 -36.666 11 -57.999 11c-15.333 0 -28 -2.33301 -38 -7s-18 -10.5 -24 -17.5
s-10.5 -14.167 -13.5 -21.5s-4.83301 -13.666 -5.5 -18.999l-5 -28h127z" />
    <glyph glyph-name="ffl" unicode="ffl" horiz-adv-x="792" 
d="M609 611c-15.333 0 -27.833 -2.33301 -37.5 -7s-17.167 -10.5 -22.5 -17.5s-9.33301 -14.333 -12 -22s-4.33398 -14.167 -5.00098 -19.5l-10 -51h83l-22 -108h-83l-103 -537h-136l103 537h-127l-103 -537h-136l50.5 268.5l51.5 268.5h-48l21 108h49l8 39
c6 32 16.167 59.333 30.5 82s31.666 41.167 51.999 55.5s42.833 24.833 67.5 31.5s50 10 76 10c18.667 0 37.667 -1.83301 57 -5.5s38 -10.167 56 -19.5c21.333 17.333 45.333 29.833 72 37.5s54.334 11.5 83.001 11.5c6.66699 0 16.5 -0.333008 29.5 -1
s28.333 -2.5 46 -5.5s37 -7.66699 58 -14s43.167 -14.833 66.5 -25.5l-102 -521c-3.33301 -19.333 -2.16602 -32 3.50098 -38s15.167 -9 28.5 -9h16l-24 -124h-51c-44 0 -77 12 -99 36s-27.667 62.667 -17 116l91 451c-11.333 4 -22.5 6.66699 -33.5 8s-20.167 2 -27.5 2z
M344 585c-15.333 0 -27.834 -2.33398 -37.501 -7.00098s-17.5 -10.334 -23.5 -17.001s-10.5 -13.667 -13.5 -21s-4.83301 -13.666 -5.5 -18.999l-5 -27h126l11 55c1.33301 8.66699 3.33301 16.334 6 23.001c-19.333 8.66699 -38.666 13 -57.999 13z" />
    <glyph glyph-name="ft" unicode="ft" horiz-adv-x="557" 
d="M138 583c4 21.333 10.3301 41.1641 18.9971 59.4971s20.334 34.333 35.001 48s32.834 24.334 54.501 32.001s47.5 11.5 77.5 11.5c10.667 0 21.834 -0.5 33.501 -1.5s23.167 -2.83301 34.5 -5.5l-23 -121c-7.33301 2 -14 3.33301 -20 4s-11.667 1 -17 1
c-11.333 0 -20.5 -1.5 -27.5 -4.5s-12.667 -6.66699 -17 -11s-7.66602 -9.16602 -9.99902 -14.499s-3.83301 -10.333 -4.5 -15l-14 -71h126l26 134h131l-26 -133h65l-22 -110h-63l-41 -213c-3.33301 -16.667 -3 -29 1 -37s14.667 -12 32 -12h21l-24 -124h-65
c-21.333 0 -39.666 3.33301 -54.999 10s-27.333 15.834 -36 27.501s-14.334 25.5 -17.001 41.5s-2.33398 33 0.999023 51l50 256h-125l-104 -537h-137l104 537h-49l22 109h47z" />
    <glyph glyph-name=".notdef" horiz-adv-x="447" 
d="M0 699h447v-699h-447v699zM333 77l-109 200l-110 -200h219zM332 622h-218l110 -199zM76 161l104 189l-104 190v-379zM370 162v376l-103 -188z" />
    <glyph glyph-name="space" unicode=" " horiz-adv-x="242" 
 />
    <glyph glyph-name="exclam" unicode="!" horiz-adv-x="282" 
d="M198 197h-117l86 499h138zM33 0l26 133h136l-26 -133h-136z" />
    <glyph glyph-name="quotedbl" unicode="&#x22;" horiz-adv-x="356" 
d="M251 473l43 223h107l-43 -223h-107zM98 473l43 223h107l-44 -223h-106z" />
    <glyph glyph-name="numbersign" unicode="#" horiz-adv-x="490" 
d="M31 301h84l36 99h-69l19 97h83l71 198h107l-71 -198h77l35.5 99.5l35.5 98.5h107l-36 -99l-35 -99h71l-18 -97h-87l-35 -99h72l-19 -96h-87l-37 -103l-35 -102h-108l72 205h-76l-72 -205h-108l73 205h-68zM222 301h77l36 99h-78z" />
    <glyph glyph-name="dollar" unicode="$" horiz-adv-x="490" 
d="M136 201c7.33301 -19.333 16.667 -34.332 28 -44.999s26.666 -17.667 45.999 -21l29 151c-98 37.333 -147 93.666 -147 168.999c0 34.667 5.16699 66.834 15.5 96.501s25.333 55.167 45 76.5s43.667 38.333 72 51s60.166 19.667 95.499 21l13 67h45l-13 -67
c40 -4 73.833 -18 101.5 -42s47.167 -53.333 58.5 -88l-119 -71c-9.33301 19.333 -20 33.666 -32 42.999s-24 15.333 -36 18l-26 -134c30 -11.333 55 -23.166 75 -35.499s36 -26 48 -41s20.5 -32 25.5 -51s7.5 -40.833 7.5 -65.5c-1.33301 -36 -7.83301 -68.333 -19.5 -97
s-27.667 -53.334 -48 -74.001s-45.166 -36.667 -74.499 -48s-62 -17.333 -98 -18l-17 -90h-46l18 90c-42 4 -77.667 18.667 -107 44s-50.666 57.333 -63.999 96zM313.001 225.001c0 10 -2.66797 18.333 -8.00098 25s-13.333 13 -24 19l-25 -132
c20.667 6 35.334 17.333 44.001 34s13 34.667 13 54zM245 491.001c0 -9.33301 1.83398 -17.332 5.50098 -23.999s10.5 -13.334 20.5 -20.001l21 112c-14.667 -5.33301 -25.834 -14.5 -33.501 -27.5s-12.167 -26.5 -13.5 -40.5z" />
    <glyph glyph-name="percent" unicode="%" horiz-adv-x="770" 
d="M196 -17h-100l511 730h100zM333 391c-7.33301 -36 -22.5 -64 -45.5 -84s-54.5 -30 -94.5 -30c-44 0 -76.5 11.833 -97.5 35.5s-27.833 53.5 -20.5 89.5l37 185c7.33301 36 22.833 64 46.5 84s54.5 30 92.5 30c18 0 34.667 -2.83301 50 -8.5s28.5 -13.667 39.5 -24
s19.167 -22.833 24.5 -37.5s6.33301 -31 3 -49zM265 578c1.33301 8 0.499023 15.5 -2.50098 22.5s-9.16699 10.5 -18.5 10.5c-8.66699 0 -15.834 -2.5 -21.501 -7.5s-9.16699 -11.5 -10.5 -19.5l-36 -187c-1.33301 -7.33301 -0.166016 -14 3.50098 -20s9.83398 -9 18.501 -9
c8 0 15 2.5 21 7.5s9.66699 11.167 11 18.5zM697.999 113c-7.33301 -36 -22.5 -64 -45.5 -84s-54.5 -30 -94.5 -30c-44 0 -76.5 11.833 -97.5 35.5s-27.833 53.5 -20.5 89.5l37 185c7.33301 36 22.833 64 46.5 84s54.5 30 92.5 30c18 0 34.667 -2.83301 50 -8.5
s28.5 -13.667 39.5 -24s19.167 -22.833 24.5 -37.5s6.33301 -31 3 -49zM629.999 300c1.33301 8 0.499023 15.5 -2.50098 22.5s-9.16699 10.5 -18.5 10.5c-8.66699 0 -15.834 -2.5 -21.501 -7.5s-9.16699 -11.5 -10.5 -19.5l-36 -187
c-1.33301 -7.33301 -0.166016 -14 3.50098 -20s9.83398 -9 18.501 -9c8 0 15 2.5 21 7.5s9.66699 11.167 11 18.5z" />
    <glyph glyph-name="ampersand" unicode="&#x26;" horiz-adv-x="581" 
d="M354 701c34 0 66.001 -6.83301 96.001 -20.5s54.333 -36.5 73 -68.5l-96 -82c-13.333 17.333 -27.166 29.166 -41.499 35.499s-27.5 9.5 -39.5 9.5c-17.333 0 -30.833 -5.83301 -40.5 -17.5s-14.5 -25.167 -14.5 -40.5c0 -12 3.66699 -28.167 11 -48.5
s16.5 -42.5 27.5 -66.5l34.5 -73.5l33 -68.5c6 10.667 12.167 23.834 18.5 39.501s11.166 30.167 14.499 43.5l117 -16c-9.33301 -31.333 -21.833 -63.333 -37.5 -96s-33.167 -61 -52.5 -85l72 -146h-155l-23 46c-25.333 -18 -51 -31.167 -77 -39.5s-52.333 -12.5 -79 -12.5
s-49.5 4 -68.5 12s-34.667 19 -47 33s-21.333 30.667 -27 50s-8.5 40 -8.5 62c0 47.333 13.333 90 40 128s62 72 106 102c-7.33301 20.667 -15 41.167 -23 61.5s-12 44.5 -12 72.5s4.66699 53.5 14 76.5s22.666 42.667 39.999 59s38.333 28.833 63 37.5s52 13 82 13z
M303.001 144l-32 65.999l-32 67c-18.667 -15.333 -33.667 -32.166 -45 -50.499s-17 -37.5 -17 -57.5c0 -15.333 4.33301 -27.833 13 -37.5s21.667 -14.5 39 -14.5c12.667 0 25.5 2.5 38.5 7.5s24.833 11.5 35.5 19.5z" />
    <glyph glyph-name="quotesingle" unicode="'" horiz-adv-x="228" 
d="M113 473l44 223h107l-44 -223h-107z" />
    <glyph glyph-name="parenleft" unicode="(" horiz-adv-x="335" 
d="M172 -128c-30.667 48.667 -55.6699 101 -75.0029 157s-28.666 115 -27.999 177c0.666992 51.333 8.33398 101.5 23.001 150.5s34.167 96 58.5 141s52.333 87.5 84 127.5s64.5 77 98.5 111l76 -48c-30 -36.667 -57.667 -74.667 -83 -114s-47 -80 -65 -122
s-32 -85.167 -42 -129.5s-15 -89.5 -15 -135.5s4.83301 -91 14.5 -135s23.834 -85.667 42.501 -125z" />
    <glyph glyph-name="parenright" unicode=")" horiz-adv-x="335" 
d="M1 -73c28.667 34 55.334 70.334 80.001 109.001s46.167 78.667 64.5 120s32.833 84 43.5 128s16 88.667 16 134s-4.33301 91.166 -13 137.499s-23.334 90.5 -44.001 132.5l95 48c28 -46 51.333 -95.833 70 -149.5s28 -110.834 28 -171.501
c0 -53.333 -7.33301 -104.666 -22 -153.999s-34.5 -96.833 -59.5 -142.5s-54 -89.167 -87 -130.5s-67.833 -80 -104.5 -116z" />
    <glyph glyph-name="asterisk" unicode="*" horiz-adv-x="429" 
d="M396 404l-92 -58l-41 104l-84 -104l-69 58l98 93l-108 29l48 92l101 -45l12 121h101l-37 -121l118 45l13 -92l-122 -29z" />
    <glyph glyph-name="plus" unicode="+" horiz-adv-x="490" 
d="M309 241l-33 -168h-116l33 168h-168l23 114h167l32 167h117l-33 -167h167l-22 -114h-167z" />
    <glyph glyph-name="comma" unicode="," horiz-adv-x="264" 
d="M-15 -152l64 150h-32l31 160h151l-30 -155l-110 -155h-74z" />
    <glyph glyph-name="hyphen" unicode="-" horiz-adv-x="407" 
d="M47 204l24 125h318l-25 -125h-317z" />
    <glyph glyph-name="period" unicode="." horiz-adv-x="260" 
d="M-5 0l30 158h151l-31 -158h-150z" />
    <glyph glyph-name="slash" unicode="/" horiz-adv-x="329" 
d="M53 -42h-109l368 767h111z" />
    <glyph glyph-name="zero" unicode="0" horiz-adv-x="490" 
d="M423 179c-5.33301 -27.333 -13.335 -52.1689 -24.002 -74.502s-24.667 -41.666 -42 -57.999s-38 -29 -62 -38s-51.333 -13.5 -82 -13.5c-28 0 -54 4.16699 -78 12.5s-44 21 -60 38s-27.167 38.333 -33.5 64s-6.16602 55.5 0.500977 89.5l63 317
c11.333 58.667 34.333 104.167 69 136.5s82.334 48.5 143.001 48.5c26 0 50.667 -4.33301 74 -13s43 -21 59 -37s27.667 -35.667 35 -59s8 -49.666 2 -78.999zM346.998 510.997c4 19.333 1 33.667 -9 43s-22.333 14 -37 14c-30.667 0 -49 -17.333 -55 -52l-62 -326
c-3.33301 -17.333 -2 -32 4 -44s20 -18 42 -18c29.333 0 47 17.333 53 52z" />
    <glyph glyph-name="one" unicode="1" horiz-adv-x="490" 
d="M147 0l104 534l-110 -72l29 152l127 82h124l-135 -696h-139z" />
    <glyph glyph-name="two" unicode="2" horiz-adv-x="490" 
d="M105 510c6.66699 32 17.5 59.999 32.5 83.999s32.333 44 52 60s41.167 27.833 64.5 35.5s47.333 11.5 72 11.5c53.333 0 95.333 -12.167 126 -36.5s46 -61.166 46 -110.499c0 -37.333 -7.33301 -71 -22 -101s-33.667 -58.667 -57 -86l-205 -232h200l-26 -135h-378l24 122
l283 318c12 13.333 20.667 27.5 26 42.5s8 29.167 8 42.5c0 11.333 -3.33301 21.333 -10 30s-17 13 -31 13c-6.66699 0 -13.5 -1.16699 -20.5 -3.5s-13.833 -6.5 -20.5 -12.5s-12.667 -14.333 -18 -25s-10 -24 -14 -40z" />
    <glyph glyph-name="three" unicode="3" horiz-adv-x="490" 
d="M304 701c30.667 0 57 -4.50098 79 -13.501s40 -21 54 -36s24.333 -32 31 -51s10 -38.833 10 -59.5c0 -17.333 -2 -35.166 -6 -53.499s-10.167 -35.5 -18.5 -51.5s-19 -30.5 -32 -43.5s-28.5 -23.167 -46.5 -30.5c0 -1.33301 -0.166992 -2.16602 -0.5 -2.49902
s-0.5 -1.16602 -0.5 -2.49902c20.667 -9.33301 34.834 -23.5 42.501 -42.5s11.5 -38.167 11.5 -57.5c0 -38.667 -5.16699 -74 -15.5 -106s-25.333 -59.5 -45 -82.5s-43.334 -41 -71.001 -54s-58.834 -19.5 -93.501 -19.5c-25.333 0 -49 3.66699 -71 11
s-41 18.666 -57 33.999s-28.833 35 -38.5 59s-14.5 52.667 -14.5 86l136 18c0 -2 -0.166992 -4.16699 -0.5 -6.5s-0.5 -4.5 -0.5 -6.5c0 -15.333 4.16699 -29 12.5 -41s21.5 -18 39.5 -18c20 0 37.333 9.83301 52 29.5s22 49.167 22 88.5c0 17.333 -5.33301 30.833 -16 40.5
s-24 14.5 -40 14.5h-54l22 112h54c27.333 0 48.5 9.5 63.5 28.5s22.5 44.167 22.5 75.5c0 11.333 -3.5 21.833 -10.5 31.5s-19.167 14.5 -36.5 14.5c-5.33301 0 -11.5 -1.33301 -18.5 -4s-14 -6.83398 -21 -12.501s-13.333 -13.167 -19 -22.5s-9.83398 -21 -12.501 -35
l-133 20c14.667 64 41.834 111.5 81.501 142.5s85.834 46.5 138.501 46.5z" />
    <glyph glyph-name="four" unicode="4" horiz-adv-x="490" 
d="M391 97l-19 -97h-137l19 97h-240l21 114l282 485h147l-272 -468h87l29 155h138l-30 -155h47l-25 -131h-47z" />
    <glyph glyph-name="five" unicode="5" horiz-adv-x="490" 
d="M326 476c23.333 0 43.167 -3.16797 59.5 -9.50098s29.666 -15 39.999 -26s17.833 -24 22.5 -39s7 -31.5 7 -49.5c0 -31.333 -3 -62.166 -9 -92.499s-12.667 -59.5 -20 -87.5c-6 -23.333 -14.667 -45.666 -26 -66.999s-25.833 -40.166 -43.5 -56.499
s-38.334 -29.333 -62.001 -39s-51.167 -14.5 -82.5 -14.5c-23.333 0 -45 3.66699 -65 11s-37.667 18 -53 32s-27.333 31.333 -36 52s-13 44 -13 70v12.5c0 4.33301 0.333008 8.5 1 12.5l136 18c-2.66699 -10 -4 -19.333 -4 -28c0 -16.667 4.83301 -28.334 14.5 -35.001
s20.167 -10 31.5 -10c14.667 0 27 4.5 37 13.5s17.667 21.167 23 36.5c6.66699 20.667 12.5 43 17.5 67s7.5 42.667 7.5 56c0 14 -3 25.333 -9 34s-17 13 -33 13c-9.33301 0 -20.166 -3.16699 -32.499 -9.5s-24.166 -18.833 -35.499 -37.5h-120l39 196.5l38 196.5h355
l-26 -133h-223c-3.33301 -18.667 -6.83301 -37.167 -10.5 -55.5l-11.5 -56.5c0.666992 0 1.66699 -0.666992 3 -2c12 9.33301 25.833 16.166 41.5 20.499s29.5 6.5 41.5 6.5z" />
    <glyph glyph-name="six" unicode="6" horiz-adv-x="490" 
d="M297 413c0 -0.666992 0.334961 -1.16602 1.00195 -1.49902s1 -0.833008 1 -1.5c12 3.33301 23.333 5 34 5c36 0 63.167 -12.5 81.5 -37.5s27.5 -58.5 27.5 -100.5c0 -36.667 -5.33301 -72 -16 -106s-26.334 -64 -47.001 -90s-46 -46.833 -76 -62.5s-64 -23.5 -102 -23.5
c-29.333 0 -54 4.16699 -74 12.5s-36.333 19.833 -49 34.5s-21.834 32.167 -27.501 52.5s-8.5 42.5 -8.5 66.5c0 32 5.83301 64.667 17.5 98s27.5 65.666 47.5 96.999l218 340h154zM258.002 305.001c-13.333 0 -24.668 -4.5 -34.001 -13.5s-17 -20.167 -23 -33.5
s-10.333 -27.666 -13 -42.999s-4 -29 -4 -41c0 -13.333 2.83301 -24.333 8.5 -33s16.5 -13 32.5 -13c12 0 22.5 4.66699 31.5 14s16.5 20.666 22.5 33.999s10.5 27.5 13.5 42.5s4.5 28.167 4.5 39.5c0 13.333 -2.66699 24.5 -8 33.5s-15.666 13.5 -30.999 13.5z" />
    <glyph glyph-name="seven" unicode="7" horiz-adv-x="490" 
d="M175 0h-144l308 563h-94l-15 -80h-134l42 213h381l-23 -120z" />
    <glyph glyph-name="eight" unicode="8" horiz-adv-x="490" 
d="M321 701c24 0 45.998 -3.16797 65.998 -9.50098s37.5 -15.666 52.5 -27.999s26.667 -27.333 35 -45s12.5 -37.834 12.5 -60.501c0 -18.667 -1.83301 -37.667 -5.5 -57s-9.5 -37.666 -17.5 -54.999s-18.5 -33.166 -31.5 -47.499s-28.833 -25.833 -47.5 -34.5
c18.667 -11.333 31.834 -26.166 39.501 -44.499s11.5 -38.5 11.5 -60.5c0 -37.333 -5.33301 -72 -16 -104s-26 -59.833 -46 -83.5s-44.5 -42.334 -73.5 -56.001s-61.833 -20.5 -98.5 -20.5c-24 0 -46.167 3.16699 -66.5 9.5s-38.166 15.666 -53.499 27.999
s-27.333 27.666 -36 45.999s-13 39.5 -13 63.5c0 20 1.5 41.167 4.5 63.5s8.5 43.5 16.5 63.5s18.833 38.167 32.5 54.5s31.167 28.833 52.5 37.5c-14.667 10 -25.667 23.333 -33 40s-11 33.334 -11 50.001c0 32 4.66699 63.167 14 93.5s23.333 57 42 80
s42.167 41.5 70.5 55.5s61.5 21 99.5 21zM306.998 570.999c-13.333 0 -24.168 -3.33301 -32.501 -10s-15.333 -15 -21 -25s-9.83398 -21 -12.501 -33s-5 -23.333 -7 -34c-1.33301 -12.667 0.833984 -23.5 6.50098 -32.5s15.167 -13.5 28.5 -13.5
c12.667 0 23.334 2.66699 32.001 8s16 12.5 22 21.5s10.667 19.167 14 30.5s6 23 8 35c2 14 0.666992 26.333 -4 37s-16 16 -34 16zM251.996 303.999c-13.333 0 -24.999 -3.99902 -34.999 -11.999s-18.333 -18 -25 -30s-11.5 -24.833 -14.5 -38.5s-4.5 -25.834 -4.5 -36.501
c0 -15.333 2.66699 -29.5 8 -42.5s17.666 -19.5 36.999 -19.5c14.667 0 27 4.16699 37 12.5s18.167 18.833 24.5 31.5s10.833 26 13.5 40s4 27 4 39c0 14.667 -2.5 27.667 -7.5 39s-17.5 17 -37.5 17z" />
    <glyph glyph-name="nine" unicode="9" horiz-adv-x="490" 
d="M223 283c0 0.666992 -0.334961 1.16602 -1.00195 1.49902s-1 0.833008 -1 1.5c-12 -3.33301 -23.333 -5 -34 -5c-36 0 -63.167 12.5 -81.5 37.5s-27.5 58.5 -27.5 100.5c0 36.667 5.33301 72 16 106s26.334 64 47.001 90s46 46.833 76 62.5s64 23.5 102 23.5
c28.667 0 53.167 -4.16699 73.5 -12.5s36.833 -19.833 49.5 -34.5s21.834 -32.167 27.501 -52.5s8.5 -42.5 8.5 -66.5c0 -32 -5.83301 -64.667 -17.5 -98s-27.5 -65.666 -47.5 -96.999l-218 -340h-154zM261.998 390.999c12.667 0 23.668 4.5 33.001 13.5s17 20.167 23 33.5
s10.5 27.666 13.5 42.999s4.5 29 4.5 41c0 13.333 -2.83301 24.333 -8.5 33s-16.5 13 -32.5 13c-12 0 -22.5 -4.66699 -31.5 -14s-16.5 -20.666 -22.5 -33.999s-10.5 -27.5 -13.5 -42.5s-4.5 -28.167 -4.5 -39.5c0 -13.333 2.66699 -24.5 8 -33.5s15.666 -13.5 30.999 -13.5
z" />
    <glyph glyph-name="colon" unicode=":" horiz-adv-x="263" 
d="M17 0l30 158h150l-30 -158h-150zM68 264l30 157h150l-30 -157h-150z" />
    <glyph glyph-name="semicolon" unicode=";" horiz-adv-x="266" 
d="M70 264l30 157h150l-30 -157h-150zM-14 -152l64 150h-32l31 160h151l-30 -155l-110 -155h-74z" />
    <glyph glyph-name="less" unicode="&#x3c;" horiz-adv-x="490" 
d="M26 249l20 102l492 207l-28 -137l-325 -127l274 -126l-23 -127z" />
    <glyph glyph-name="equal" unicode="=" horiz-adv-x="490" 
d="M46 346l21 111h451l-21 -111h-451zM5 142l22 111h452l-22 -111h-452z" />
    <glyph glyph-name="greater" unicode="&#x3e;" horiz-adv-x="490" 
d="M-12 41l25 140l324 126l-276 127l27 124l410 -207l-19 -102z" />
    <glyph glyph-name="question" unicode="?" horiz-adv-x="440" 
d="M294 701c53.333 0 96.5039 -13.834 129.504 -41.501s49.5 -65.5 49.5 -113.5c0 -20.667 -2.16699 -39.167 -6.5 -55.5s-10 -31.166 -17 -44.499s-15 -25.833 -24 -37.5s-18.167 -22.834 -27.5 -33.501c-16 -19.333 -30.167 -35.666 -42.5 -48.999
s-22.833 -25.5 -31.5 -36.5s-15.834 -21.667 -21.501 -32s-9.83398 -22.166 -12.501 -35.499l-7 -30h-138l5 29c7.33301 41.333 19.166 75.5 35.499 102.5s33.166 50.5 50.499 70.5l30.5 33c9.66699 10 18.334 20 26.001 30s13.834 20.333 18.501 31s7 22 7 34
c0 13.333 -4.33301 23.833 -13 31.5s-20.334 11.5 -35.001 11.5c-7.33301 0 -14.833 -1.16699 -22.5 -3.5s-14.834 -6.5 -21.501 -12.5s-12.5 -14.333 -17.5 -25s-8.83301 -24.334 -11.5 -41.001l-135 16c11.333 70 37 121.167 77 153.5s91.667 48.5 155 48.5z
M109.004 -0.000976562l12.5 66.5l13.5 66.5h136l-26 -133h-136z" />
    <glyph glyph-name="at" unicode="@" horiz-adv-x="869" 
d="M438 539c11.333 0 24.1709 -2.66699 38.5039 -8s25.833 -14.333 34.5 -27c0.666992 0 1.16699 0.166992 1.5 0.5s0.833008 0.5 1.5 0.5l6 30h112l-55 -281c-2.66699 -13.333 -1.33398 -22.666 3.99902 -27.999s14 -8 26 -8c19.333 0 36.666 6.5 51.999 19.5
s28.166 29.667 38.499 50s18.166 42.833 23.499 67.5s8 48.667 8 72c0 31.333 -4.83301 60 -14.5 86s-24 48.167 -43 66.5s-42.333 32.666 -70 42.999s-59.5 15.5 -95.5 15.5c-52 0 -98.5 -10.167 -139.5 -30.5s-75.833 -47.166 -104.5 -80.499s-50.5 -71.333 -65.5 -114
s-22.5 -86.667 -22.5 -132c0 -80.667 21.833 -142.5 65.5 -185.5s104.834 -64.5 183.501 -64.5c38 0 73.167 3.83301 105.5 11.5s65.166 19.5 98.499 35.5l23 -84c-41.333 -17.333 -80.666 -30.333 -117.999 -39s-78 -13 -122 -13c-51.333 0 -97.666 7.33301 -138.999 22
s-76.5 36 -105.5 64s-51.333 62.667 -67 104s-23.5 88.666 -23.5 141.999c0 62 9.83301 120.5 29.5 175.5s48.334 103 86.001 144s83.5 73.333 137.5 97s115 35.5 183 35.5c52 0 97.667 -7.33301 137 -22s72.166 -35.167 98.499 -61.5s46.333 -57.666 60 -93.999
s20.5 -76.166 20.5 -119.499c0 -42 -5.83301 -81.667 -17.5 -119s-27.834 -69.833 -48.501 -97.5s-45.334 -49.5 -74.001 -65.5s-60 -24 -94 -24c-8.66699 0 -18.334 1.33301 -29.001 4s-21 6.5 -31 11.5s-19 11.333 -27 19s-13.667 16.834 -17 27.501h-3
c-9.33301 -14.667 -23.333 -28.334 -42 -41.001s-39.667 -19 -63 -19c-20 0 -37.167 3 -51.5 9s-26 14.333 -35 25s-15.667 22.667 -20 36s-6.16602 27.666 -5.49902 42.999c1.33301 30 4.83301 59.167 10.5 87.5s12.167 55.5 19.5 81.5c4.66699 16.667 10.667 33 18 49
s16.5 30.167 27.5 42.5s24.167 22.166 39.5 29.499s33.333 11 54 11zM458.005 431c-8.66699 0 -16.8311 -2.6709 -24.498 -8.00391s-13.834 -13.666 -18.501 -24.999c-10.667 -33.333 -17.834 -61.166 -21.501 -83.499s-5.5 -39.166 -5.5 -50.499
c0 -9.33301 2.66699 -17.166 8 -23.499s13.333 -9.5 24 -9.5c6.66699 0 13.167 1.83301 19.5 5.5s11.5 8.16699 15.5 13.5c4.66699 6.66699 9.16699 16.834 13.5 30.501s8 28 11 43s5.5 29.167 7.5 42.5s3 22.666 3 27.999c0 10 -2.5 18.667 -7.5 26s-13.167 11 -24.5 11z
" />
    <glyph glyph-name="A" unicode="A" horiz-adv-x="548" 
d="M350 0l-4 143h-164l-65 -143h-154l334 696h143l63 -696h-153zM337 370v139h-5l-54 -138l-39 -100h99z" />
    <glyph glyph-name="B" unicode="B" horiz-adv-x="536" 
d="M437 366c0 -1.33301 -0.166992 -2.16895 -0.5 -2.50195s-0.5 -1.16602 -0.5 -2.49902c24.667 -10 42.167 -26.167 52.5 -48.5s15.5 -46.166 15.5 -71.499c0 -44 -8 -81.333 -24 -112s-36.833 -55.5 -62.5 -74.5s-54.834 -32.833 -87.501 -41.5s-66 -13 -100 -13h-210
l135 696h207c60.667 0 106.334 -13.333 137.001 -40s46 -66 46 -118c0 -40 -8.5 -75.167 -25.5 -105.5s-44.5 -52.5 -82.5 -66.5zM220 296.997l-32 -163.999h75c16 0 30.167 3.16699 42.5 9.5s22.5 14.666 30.5 24.999s14 21.833 18 34.5s6 25 6 37
c0 18 -5.16699 32.167 -15.5 42.5s-25.5 15.5 -45.5 15.5h-79zM273 563.998l-28.002 -141h74c12.667 0 24.334 2.5 35.001 7.5s19.834 11.833 27.501 20.5s13.5 18.5 17.5 29.5s6 22.167 6 33.5c0 17.333 -5 30 -15 38s-26 12 -48 12h-69z" />
    <glyph glyph-name="C" unicode="C" horiz-adv-x="514" 
d="M342 701c30 0 57.166 -4.49902 81.499 -13.499s45.333 -21.333 63 -37s31.5 -34.334 41.5 -56.001s16 -45.167 18 -70.5l-138 -39c-1.33301 10 -3.83301 19.667 -7.5 29s-8.5 17.666 -14.5 24.999s-13.5 13.333 -22.5 18s-19.167 7 -30.5 7
c-16.667 0 -30.5 -3.5 -41.5 -10.5s-20 -16.5 -27 -28.5s-12.833 -25.667 -17.5 -41s-8.66699 -31 -12 -47l-45 -228c-2 -10 -2.83301 -19.833 -2.5 -29.5s2.83301 -18 7.5 -25s11.5 -12.667 20.5 -17s21.5 -6.5 37.5 -6.5c22.667 0 42 6.83301 58 20.5s28 32.834 36 57.501
l69.5 -18l69.5 -19c-7.33301 -24 -17.666 -46.833 -30.999 -68.5s-29.833 -40.667 -49.5 -57s-42.5 -29.166 -68.5 -38.499s-55.667 -14 -89 -14c-45.333 0 -82.166 6.66699 -110.499 20s-50 31.333 -65 54s-23.833 49.167 -26.5 79.5s-0.666992 62.166 6 95.499l37 189
c6.66699 34.667 15.667 68.167 27 100.5s26.666 61 45.999 86s43.5 45 72.5 60s64.833 22.5 107.5 22.5z" />
    <glyph glyph-name="D" unicode="D" horiz-adv-x="552" 
d="M402 433c4 20 6.33105 37.999 6.99805 53.999s-1.5 29.5 -6.5 40.5s-13 19.333 -24 25s-25.833 8.5 -44.5 8.5h-60l-83 -427h61c36.667 0 62.834 9.33301 78.501 28s26.834 44.334 33.501 77.001zM379.998 695.999c44 0 81.834 -8.66895 113.501 -26.002
s51.167 -46 58.5 -86c4.66699 -23.333 5.33398 -52.166 2.00098 -86.499s-8.66602 -72.5 -15.999 -114.5c-11.333 -64 -21.5 -117 -30.5 -159s-21.167 -76.667 -36.5 -104c-13.333 -23.333 -28.333 -42.666 -45 -57.999s-34.834 -27.5 -54.501 -36.5
s-40.334 -15.5 -62.001 -19.5s-43.834 -6 -66.501 -6h-222l135 696h224z" />
    <glyph glyph-name="E" unicode="E" horiz-adv-x="484" 
d="M20 0l135 696h401l-26 -134h-257l-29 -144h222l-26 -133h-222l-28 -151h257l-26 -134h-401z" />
    <glyph glyph-name="F" unicode="F" horiz-adv-x="475" 
d="M273 562l-29 -147h221l-26 -132h-221l-55 -283h-143l135 696h401l-26 -134h-257z" />
    <glyph glyph-name="G" unicode="G" horiz-adv-x="533" 
d="M241 -6c-43.333 0 -78.4971 6.66992 -105.497 20.0029s-47.667 31.333 -62 54s-22.833 48.334 -25.5 77.001s-1 58.667 5 90l38 197c6.66699 34.667 15.667 68.167 27 100.5s26.666 61 45.999 86s43.5 45 72.5 60s64.833 22.5 107.5 22.5c30 0 57.167 -4.5 81.5 -13.5
s45.333 -21.333 63 -37s31.5 -34.334 41.5 -56.001s16 -45.167 18 -70.5l-138 -39c-1.33301 10 -3.83301 19.667 -7.5 29s-8.5 17.666 -14.5 24.999s-13.5 13.333 -22.5 18s-19.167 7 -30.5 7c-16.667 0 -30.5 -3.5 -41.5 -10.5s-20 -16.5 -27 -28.5
s-12.833 -25.667 -17.5 -41s-8.66699 -31 -12 -47l-45 -228c-2 -10 -2.83301 -19.833 -2.5 -29.5s2.83301 -18 7.5 -25s11.5 -12.667 20.5 -17s21.5 -6.5 37.5 -6.5c14.667 0 27.667 3.16699 39 9.5s21.166 14.5 29.499 24.5s15.166 21.167 20.499 33.5
s9.33301 24.833 12 37.5l6 28h-93l24 123h237l-29 -159c-7.33301 -34.667 -18 -66.334 -32 -95.001s-31.667 -53.334 -53 -74.001s-46.5 -36.667 -75.5 -48s-62.167 -17 -99.5 -17z" />
    <glyph glyph-name="H" unicode="H" horiz-adv-x="560" 
d="M318 0l56 286h-156l-55 -286h-143l135 696h143l-54 -278h156l54 278h142l-135 -696h-143z" />
    <glyph glyph-name="I" unicode="I" horiz-adv-x="265" 
d="M20 0l135 696h143l-135 -696h-143z" />
    <glyph glyph-name="J" unicode="J" horiz-adv-x="431" 
d="M372 197c-12 -63.333 -35.0029 -112.834 -69.0029 -148.501s-84.333 -53.5 -151 -53.5c-36 0 -69.667 7.83301 -101 23.5s-56.666 39.834 -75.999 72.501l109 83c8.66699 -13.333 18.834 -24.333 30.501 -33s24.834 -13 39.501 -13c23.333 0 41 7 53 21s20 31.667 24 53
l96 494h143l-98 -499v0z" />
    <glyph glyph-name="K" unicode="K" horiz-adv-x="545" 
d="M251 450c2 0 3.66797 -0.332031 5.00098 -0.999023l43.5 51l42.5 50l23.5 27.5l40.5 46l40.5 46c12.333 14.333 20.166 23.166 23.499 26.499h167l-248 -289l127 -407h-151l-43.5 141.5l-42.5 141.5l-78 -84l-38 -199h-143l135 696h143l-47 -246v0z" />
    <glyph glyph-name="L" unicode="L" horiz-adv-x="476" 
d="M20 0l135 696h143l-108 -560h257l-26 -136h-401z" />
    <glyph glyph-name="M" unicode="M" horiz-adv-x="675" 
d="M439 0l64 328l-4 1l-71 -125l-54 -90h-104l-20 96l-22 120l-5 -1l-63 -329h-143l135 696h131l41 -200l36 -171h5l98 173l119 198h135l-135 -696h-143z" />
    <glyph glyph-name="N" unicode="N" horiz-adv-x="589" 
d="M367 0l-83 241.999l-45 149h-3l-75 -391h-142l135 696h126l69 -221c0.666992 -5.33301 4 -17.166 10 -35.499l19.5 -59c7 -21 13.333 -40.833 19 -59.5s8.5 -31 8.5 -37h4l76 412h141l-135 -696h-125z" />
    <glyph glyph-name="O" unicode="O" horiz-adv-x="535" 
d="M492 219c-6.66699 -34.667 -16 -65.8262 -28 -93.4932s-27.333 -51.334 -46 -71.001s-41.167 -34.667 -67.5 -45s-56.833 -15.5 -91.5 -15.5c-45.333 0 -82.833 6.83301 -112.5 20.5s-52.834 32.167 -69.501 55.5s-27.167 50.166 -31.5 80.499
s-3.16602 62.166 3.50098 95.499l47 232c4.66699 26 12.667 52.167 24 78.5s26.666 50.166 45.999 71.499s43.333 38.833 72 52.5s63.334 20.5 104.001 20.5c38 0 70.833 -6.83301 98.5 -20.5s49.667 -31.834 66 -54.501s27.333 -48.334 33 -77.001
s5.5 -58.334 -0.5 -89.001zM396 478.008c1.33301 8 1.33398 16.667 0.000976562 26s-4.66602 18.333 -9.99902 27s-12.833 15.834 -22.5 21.501s-21.834 8.5 -36.501 8.5s-27 -2.5 -37 -7.5s-18.333 -11.333 -25 -19s-11.834 -16 -15.501 -25s-6.16699 -17.5 -7.5 -25.5
l-49 -253c-6 -32 -2.83301 -56.167 9.5 -72.5s32.833 -24.5 61.5 -24.5c20.667 0 38 6.66699 52 20s23.333 31.666 28 54.999z" />
    <glyph glyph-name="P" unicode="P" horiz-adv-x="513" 
d="M367 696c57.333 0 103.166 -14.001 137.499 -42.001s51.5 -71.667 51.5 -131c0 -43.333 -6.33301 -81.666 -19 -114.999s-30.167 -61.333 -52.5 -84s-49.166 -40 -80.499 -52s-66 -18 -104 -18h-87l-50 -254h-143l135 696h212zM273 561.999l-34 -172.999h78
c11.333 0 22.833 1.83301 34.5 5.5s22.167 9.66699 31.5 18s17 19.333 23 33s9 30.5 9 50.5c0 23.333 -6.33301 40.166 -19 50.499s-30.667 15.5 -54 15.5h-69z" />
    <glyph glyph-name="Q" unicode="Q" horiz-adv-x="536" 
d="M492 219c-8 -40.667 -19.334 -75.9941 -34.001 -105.994l63 -58l-86 -88l-58 55c-31.333 -18.667 -70.666 -28 -117.999 -28c-45.333 0 -82.833 6.83301 -112.5 20.5s-52.834 32.167 -69.501 55.5s-27.167 50.166 -31.5 80.499s-3.16602 62.166 3.50098 95.499l47 232
c4.66699 26 12.667 52.167 24 78.5s26.666 50.166 45.999 71.499s43.333 38.833 72 52.5s63.334 20.5 104.001 20.5c38 0 70.833 -6.83301 98.5 -20.5s49.667 -31.834 66 -54.501s27.333 -48.334 33 -77.001s5.5 -58.334 -0.5 -89.001zM345.999 220.006l50.001 257.999
c1.33301 8 1.33301 16.667 0 26s-4.66602 18.333 -9.99902 27s-12.833 15.834 -22.5 21.501s-21.834 8.5 -36.501 8.5s-27 -2.5 -37 -7.5s-18.333 -11.333 -25 -19s-11.834 -16 -15.501 -25s-6.16699 -17.5 -7.5 -25.5l-49 -253c-6 -32 -2.83301 -56.167 9.5 -72.5
s32.833 -24.5 61.5 -24.5l-26 26l81 86z" />
    <glyph glyph-name="R" unicode="R" horiz-adv-x="543" 
d="M333 0l-56.001 275.002h-61l-53 -275h-143l135 696h217c58.667 0 104.834 -14.833 138.501 -44.5s49.5 -75.834 47.5 -138.501c-1.33301 -56.667 -15 -102.334 -41 -137.001s-59 -59.667 -99 -75l69 -301h-154zM419.999 497.002
c1.33301 24.667 -4.66602 41.999 -17.999 51.999s-31 15 -53 15h-76l-31 -157h77c12.667 0 25.167 1.5 37.5 4.5s23.166 8 32.499 15s16.833 16.333 22.5 28s8.5 25.834 8.5 42.501z" />
    <glyph glyph-name="S" unicode="S" horiz-adv-x="523" 
d="M136 202c13.333 -23.333 29.8359 -40.668 49.5029 -52.001s41.167 -17 64.5 -17c30 0 52.833 7.5 68.5 22.5s23.5 33.167 23.5 54.5c0 20.667 -8.16699 36.834 -24.5 48.501s-39.166 21.167 -68.499 28.5c-48.667 16 -85.667 37.667 -111 65s-38 62 -38 104
c0 36 5.66699 69.167 17 99.5s27.5 56.166 48.5 77.499s46.333 38 76 50s63.167 18 100.5 18c55.333 0 99.666 -10.167 132.999 -30.5s59 -47.833 77 -82.5l-119 -89c-16.667 20.667 -33.334 35.5 -50.001 44.5s-36 13.5 -58 13.5c-18 0 -34.167 -6.5 -48.5 -19.5
s-21.5 -28.167 -21.5 -45.5c0 -11.333 2.5 -20.666 7.5 -27.999s12.167 -14 21.5 -20s20.5 -11.333 33.5 -16l43.5 -15c52 -17.333 88.5 -40 109.5 -68s31.5 -62.333 31.5 -103c0 -39.333 -6.33301 -74.333 -19 -105s-30.334 -56.5 -53.001 -77.5s-49.834 -37 -81.501 -48
s-66.5 -16.5 -104.5 -16.5c-30 0 -57 3 -81 9s-45.333 14.5 -64 25.5s-34.667 24 -48 39s-25 31.167 -35 48.5z" />
    <glyph glyph-name="T" unicode="T" horiz-adv-x="453" 
d="M366 564l-110 -564h-143l110 564h-147l25 132h437l-26 -132h-146z" />
    <glyph glyph-name="U" unicode="U" horiz-adv-x="545" 
d="M494 207c-13.333 -67.333 -41 -119.5 -83 -156.5s-96.333 -55.5 -163 -55.5c-31.333 0 -60.5 5 -87.5 15s-49.5 24.5 -67.5 43.5s-30.833 42.167 -38.5 69.5s-8.16699 58 -1.5 92l93 481h143l-93 -475c-5.33301 -28 -1.5 -49.5 11.5 -64.5s30.167 -22.5 51.5 -22.5
c22 0 41.5 6.33301 58.5 19s28.167 32.667 33.5 60l94 483h144l-95 -489v0z" />
    <glyph glyph-name="V" unicode="V" horiz-adv-x="521" 
d="M291 0h-143l-51 696h153l8 -248c0 -8.66699 0.333008 -20.667 1 -36s1.16699 -33 1.5 -53s0.5 -41.5 0.5 -64.5s-0.333008 -46.5 -1 -70.5h5l75 189l119 283h154z" />
    <glyph glyph-name="W" unicode="W" horiz-adv-x="739" 
d="M399 366l-65.002 -151.001l-97 -215h-128c-2 116 -3.83301 231.833 -5.5 347.5s-3.16699 231.834 -4.5 348.501h156l-3 -203c-1.33301 -28.667 -2.16602 -58.667 -2.49902 -90s-1.83301 -62 -4.5 -92h4l78 190l82 195h112l8 -215
c1.33301 -26.667 2.16602 -55.667 2.49902 -87s0.5 -62.333 0.5 -93h5l33.5 98l33.5 98l14 39.5l21 60l21 60l14 39.5h156l-140.5 -348.5l-140.5 -347.5h-128c-1.33301 36 -3.16602 72.167 -5.49902 108.5s-4.16602 72.5 -5.49902 108.5l-6 149h-5z" />
    <glyph glyph-name="X" unicode="X" horiz-adv-x="534" 
d="M269 211l-139 -211h-168l128 179.5l129 179.5l-111 337h163l48 -186h5l122 186h170l-121.5 -168.5l-122.5 -168.5l61 -179.5l60 -179.5h-164l-54 211h-6z" />
    <glyph glyph-name="Y" unicode="Y" horiz-adv-x="504" 
d="M298 415l34.002 70.498c11.333 24.333 22.666 47.5 33.999 69.5l75 141h155l-259 -417l-54 -279h-141l27.5 139.5l27.5 139.5l-97 417h151c4.66699 -23.333 8.66699 -45 12 -65l11 -65c2 -11.333 3.83301 -23.666 5.5 -36.999s3.16699 -26.666 4.5 -39.999l4 -39.5
c1.33301 -13 2.66602 -24.5 3.99902 -34.5h6z" />
    <glyph glyph-name="Z" unicode="Z" horiz-adv-x="449" 
d="M-15 0l24 126l318 438h-222l25 132h390l-24 -122l-318 -439h232l-26 -135h-399z" />
    <glyph glyph-name="bracketleft" unicode="[" horiz-adv-x="284" 
d="M4 -98l155 796h203l-20 -102h-75l-115 -593h75l-19 -101h-204z" />
    <glyph glyph-name="backslash" unicode="\" horiz-adv-x="329" 
d="M92 725h111l71 -767h-110z" />
    <glyph glyph-name="bracketright" unicode="]" horiz-adv-x="284" 
d="M-37 -99l19 101h75l116 594h-75l19 102h203l-156 -797h-201z" />
    <glyph glyph-name="asciicircum" unicode="^" horiz-adv-x="490" 
d="M308 536l-80 -144.998l-67 -120h-136l263 424h102l98 -424h-126c-3.33301 21.333 -7.33301 42.166 -12 62.499s-8.66699 41.166 -12 62.499l-25 140h-5z" />
    <glyph glyph-name="underscore" unicode="_" horiz-adv-x="500" 
d="M-71 -160l18 91h499l-18 -91h-499z" />
    <glyph glyph-name="grave" unicode="`" horiz-adv-x="451" 
d="M360 537l-152 191l111 48l109 -200z" />
    <glyph glyph-name="a" unicode="a" horiz-adv-x="462" 
d="M238 0l8.00195 39h-4c-12 -14 -27.167 -25 -45.5 -33s-34.166 -12 -47.499 -12c-24.667 0 -44.834 3.83301 -60.501 11.5s-27.834 18 -36.501 31s-14.5 28 -17.5 45s-4.5 34.833 -4.5 53.5c0 24 1.83301 49.333 5.5 76s8.16699 51 13.5 73
c8 32.667 17.333 62.167 28 88.5s23.667 49 39 68s33.5 33.667 54.5 44s45.5 15.5 73.5 15.5c15.333 0 29.666 -3 42.999 -9s25.333 -17 36 -33c0.666992 0 1.16699 0.166992 1.5 0.5s0.833008 0.5 1.5 0.5l8 35h138l-96 -494h-138zM214.002 122
c12 0 22.1689 4.16699 30.502 12.5s15.166 19.166 20.499 32.499c4 9.33301 7.83301 21.333 11.5 36s6.83398 29.5 9.50098 44.5s4.83398 28.667 6.50098 41s2.5 20.833 2.5 25.5c0 12 -2.33301 23.667 -7 35s-14.667 17 -30 17c-24.667 0 -42.667 -14.333 -54 -43
c-4 -10 -7.83301 -21.833 -11.5 -35.5s-7.16699 -28.167 -10.5 -43.5c-2.66699 -12 -4.83398 -24.333 -6.50098 -37s-2.83398 -25 -3.50098 -37c0 -13.333 2.66699 -24.666 8 -33.999s16.666 -14 33.999 -14z" />
    <glyph glyph-name="b" unicode="b" horiz-adv-x="462" 
d="M240 -5c-14.667 0 -30.165 2.66699 -46.498 8s-29.166 16.333 -38.499 33c-0.666992 -0.666992 -1.16699 -0.833984 -1.5 -0.500977s-0.833008 0.166016 -1.5 -0.500977l-8 -35h-139l142 726h139c-9.33301 -44 -18 -88 -26 -132s-16.667 -88.333 -26 -133h4
c14.667 13.333 30.167 23 46.5 29s32.5 9 48.5 9c24 0 43.667 -3.83301 59 -11.5s27.166 -18.167 35.499 -31.5s14.166 -28.666 17.499 -45.999s5 -35.333 5 -54c-1.33301 -23.333 -3.83301 -48.166 -7.5 -74.499s-9.16699 -53.5 -16.5 -81.5c-8 -32 -17 -60.667 -27 -86
s-22.333 -46.833 -37 -64.5s-31.834 -31.167 -51.501 -40.5s-43.167 -14 -70.5 -14zM266.002 371c-9.33301 0 -18.168 -3.16797 -26.501 -9.50098s-15.833 -17.5 -22.5 -33.5c-4.66699 -11.333 -9 -23.833 -13 -37.5s-7.5 -27.5 -10.5 -41.5s-5.5 -27.333 -7.5 -40
s-3 -23.667 -3 -33c0 -4 0.333008 -8.83301 1 -14.5s2.16699 -11.167 4.5 -16.5s6 -9.83301 11 -13.5s11.833 -5.5 20.5 -5.5c8 0 15 1.83301 21 5.5s11.333 7.83398 16 12.501c5.33301 5.33301 11.5 16.833 18.5 34.5s12.5 36.5 16.5 56.5
c2.66699 12 4.83398 24 6.50098 36s3.16699 24 4.5 36c0.666992 7.33301 1 14.833 1 22.5s-1 14.5 -3 20.5s-5.83301 11 -11.5 15s-13.5 6 -23.5 6z" />
    <glyph glyph-name="c" unicode="c" horiz-adv-x="411" 
d="M193 -5c-30.667 0 -56.333 4.66992 -77 14.0029s-37.5 22.166 -50.5 38.499s-22.333 35.5 -28 57.5s-8.5 45.333 -8.5 70c0 39.333 4.33301 78.333 13 117s22.5 73.5 41.5 104.5s43.833 56.167 74.5 75.5s68 29 112 29c41.333 0 76 -9.83301 104 -29.5
s44.667 -48.5 50 -86.5l-118 -56c-4 16 -10 27.5 -18 34.5s-16.667 10.5 -26 10.5c-13.333 0 -24.666 -3.16699 -33.999 -9.5s-17.333 -15 -24 -26s-12 -23.833 -16 -38.5s-7.66699 -30.334 -11 -47.001c-5.33301 -26 -8.33301 -49 -9 -69
c0 -17.333 2.83301 -31.833 8.5 -43.5s18.5 -17.5 38.5 -17.5c10 0 20 3.16699 30 9.5s20.333 17.5 31 33.5l103 -57c-20.667 -36.667 -46.334 -64.834 -77.001 -84.501s-67 -29.5 -109 -29.5z" />
    <glyph glyph-name="d" unicode="d" horiz-adv-x="462" 
d="M246 501c12.667 0 27.001 -3.16797 43.001 -9.50098s28.333 -15.5 37 -27.5h4l51 262h137l-139 -726h-138l7 35l-3 2c-14.667 -15.333 -29.667 -26.166 -45 -32.499s-31.666 -9.5 -48.999 -9.5c-26.667 0 -47.834 4.5 -63.501 13.5s-27.667 20.833 -36 35.5
s-13.833 31.5 -16.5 50.5s-4 38.5 -4 58.5c0 8.66699 0.5 18.5 1.5 29.5s2.33301 22.167 4 33.5l5 33c1.66699 10.667 3.5 19.667 5.5 27c6 28 13.667 55.333 23 82s21.5 50.667 36.5 72s33.667 38.5 56 51.5s50.166 19.5 83.499 19.5zM262.001 369.999
c-12 0 -22.166 -3.8291 -30.499 -11.4961s-15.166 -17.334 -20.499 -29.001s-9.83301 -24.334 -13.5 -38.001s-6.83398 -26.834 -9.50098 -39.501c-7.33301 -32.667 -11 -60.667 -11 -84c0 -12 2.83301 -21.833 8.5 -29.5s15.167 -11.5 28.5 -11.5
c11.333 0 21.333 3.5 30 10.5s15.667 16.5 21 28.5c5.33301 10.667 9.5 22.167 12.5 34.5l9.5 38.5c7.33301 33.333 11 60.666 11 81.999c0 12 -2.33301 23.167 -7 33.5s-14.334 15.5 -29.001 15.5z" />
    <glyph glyph-name="e" unicode="e" horiz-adv-x="457" 
d="M260 375c-15.333 0 -28.5 -6.50098 -39.5 -19.501s-19.5 -30.5 -25.5 -52.5c4.66699 -1.33301 9.5 -1.66602 14.5 -0.999023s9.5 1 13.5 1c28 1.33301 47 6.33301 57 15s15 19 15 31c0 7.33301 -2.66699 13.5 -8 18.5s-14.333 7.5 -27 7.5zM196 -5.00098
c-54 0 -95.166 13.834 -123.499 41.501s-42.5 69.5 -42.5 125.5c0 37.333 3.83301 76.166 11.5 116.499s20.5 77 38.5 110s42 60.167 72 81.5s67.667 32 113 32c29.333 0 54.833 -3.5 76.5 -10.5s39.5 -16.333 53.5 -28s24.333 -25.5 31 -41.5s10 -33 10 -51
c0 -33.333 -6.5 -61.166 -19.5 -83.499s-30.333 -40.333 -52 -54s-46 -23.334 -73 -29.001s-54.5 -8.5 -82.5 -8.5h-17c-5.33301 0 -11 0.333008 -17 1c-1.33301 -6 -2.33301 -12.333 -3 -19s-1 -12 -1 -16c0.666992 -12.667 5.16699 -22.334 13.5 -29.001
s17.833 -10 28.5 -10c14 0 27.5 3.16699 40.5 9.5s26.5 17.833 40.5 34.5l106 -67c-24.667 -37.333 -54.834 -64.166 -90.501 -80.499s-73.5 -24.5 -113.5 -24.5z" />
    <glyph glyph-name="f" unicode="f" horiz-adv-x="311" 
d="M106 386h-58.001l22 109h57l17 88c4 21.333 10.5 41.166 19.5 59.499s20.833 34.333 35.5 48s32.667 24.334 54 32.001s46.333 11.5 75 11.5c10.667 0 21.834 -0.5 33.501 -1.5s23.167 -2.83301 34.5 -5.5l-24 -122c-6.66699 1.33301 -13 2.66602 -19 3.99902
s-11.667 2 -17 2c-20.667 0 -34.834 -5.16699 -42.501 -15.5s-12.5 -20.166 -14.5 -29.499l-14 -71h84l-22 -109h-83l-75 -391c-4 -21.333 -10.5 -41.166 -19.5 -59.499s-21 -34.333 -36 -48s-33.167 -24.334 -54.5 -32.001s-46 -11.5 -74 -11.5c-10 0 -20.667 0.5 -32 1.5
s-22.666 3.16699 -33.999 6.5l23 122c6 -1.33301 11.833 -2.33301 17.5 -3s11.167 -1 16.5 -1c22 0 36.833 5.33301 44.5 16s12.5 21 14.5 31z" />
    <glyph glyph-name="g" unicode="g" horiz-adv-x="462" 
d="M243 34l-4.00195 -0.000976562c-14.667 -13.333 -30.167 -23 -46.5 -29s-32.5 -9 -48.5 -9c-24 0 -43.667 3.83301 -59 11.5s-27.166 18.167 -35.499 31.5s-14.166 28.5 -17.499 45.5s-5 35.167 -5 54.5c1.33301 23.333 3.83301 48.166 7.5 74.499
s9.16699 53.5 16.5 81.5c8 32 17.333 60.667 28 86s23.334 46.833 38.001 64.5s31.834 31.167 51.501 40.5s42.5 14 68.5 14c12.667 0 27.667 -2.66699 45 -8s30.666 -16.333 39.999 -33c0.666992 0.666992 1.16699 0.833984 1.5 0.500977s0.833008 -0.166016 1.5 0.500977
l8 35h139l-92 -490c-6 -30.667 -14 -58.834 -24 -84.501s-23.333 -47.667 -40 -66s-37.5 -32.666 -62.5 -42.999s-54.833 -15.5 -89.5 -15.5c-40 0 -74.5 8.66699 -103.5 26s-50.833 40 -65.5 68l102 74c18 -26 40.667 -39 68 -39c20.667 0 35.667 5 45 15
s15.666 22 18.999 36zM210.998 123.999c9.33301 0 18.167 3.16797 26.5 9.50098s15.833 17.5 22.5 33.5c4.66699 10.667 9 23 13 37s7.5 28 10.5 42s5.5 27.333 7.5 40s3 23.667 3 33c0 4 -0.333008 8.83301 -1 14.5s-2.16699 11.167 -4.5 16.5s-6 9.83301 -11 13.5
s-11.833 5.5 -20.5 5.5c-8 0 -15 -1.83301 -21 -5.5s-11.333 -7.83398 -16 -12.501c-6 -6.66699 -11.5 -16.667 -16.5 -30s-9.5 -28 -13.5 -44s-7.5 -32 -10.5 -48s-4.83301 -29.667 -5.5 -41c-0.666992 -7.33301 -1 -14.833 -1 -22.5s1 -14.5 3 -20.5s5.83301 -11 11.5 -15
s13.5 -6 23.5 -6z" />
    <glyph glyph-name="h" unicode="h" horiz-adv-x="476" 
d="M248 -1l61.0029 314.003c3.33301 17.333 1.83301 31 -4.5 41s-17.5 15 -33.5 15c-15.333 0 -28.833 -5.5 -40.5 -16.5s-19.5 -25.833 -23.5 -44.5l-59 -309h-138l142 728h139l-55 -273l4 -1c13.333 14 29.666 25.333 48.999 34s37.666 13 54.999 13
c24.667 0 45.167 -3.83301 61.5 -11.5s28.666 -18.334 36.999 -32.001s13.333 -29.834 15 -48.501s0.166992 -39.334 -4.5 -62.001l-66 -347h-139z" />
    <glyph glyph-name="i" unicode="i" horiz-adv-x="245" 
d="M124 569l25 127h138l-24 -127h-139zM14 0l96 495h138l-96 -495h-138z" />
    <glyph glyph-name="j" unicode="j" horiz-adv-x="253" 
d="M149 -43c-10 -50.667 -31.1689 -89.332 -63.502 -115.999s-72.5 -40 -120.5 -40h-11c-5.33301 0 -11.166 0.166992 -17.499 0.5s-12.333 0.666016 -18 0.999023s-9.16699 0.5 -10.5 0.5l24 126h24c10.667 0 19.5 2 26.5 6s12.833 9 17.5 15s8.33398 12.833 11.001 20.5
s4.66699 15.5 6 23.5l98 502h138zM128.998 569.002l25 127h138l-24 -127h-139z" />
    <glyph glyph-name="k" unicode="k" horiz-adv-x="478" 
d="M216 357c1.33301 0 2.16602 -0.166016 2.49902 -0.499023s0.833008 -0.5 1.5 -0.5c11.333 11.333 21.833 22.5 31.5 33.5s19.834 21.833 30.501 32.5l72 72h174l-204 -201l112 -293h-157l-32.5 92l-31.5 93l-40 -36l-14 -75
c-4.66699 -24.667 -9.66699 -49.334 -15 -74.001h-138l71 363l71 363h138l-72 -369v0z" />
    <glyph glyph-name="l" unicode="l" horiz-adv-x="257" 
d="M153 -2c-44 0 -77.001 12 -99.001 36s-27.667 62.667 -17 116l112 576h140l-109 -557c-3.33301 -19.333 -2.16602 -32 3.50098 -38s15.167 -9 28.5 -9h16l-24 -124h-51z" />
    <glyph glyph-name="m" unicode="m" horiz-adv-x="720" 
d="M585 500c28.667 0 51.002 -5.16797 67.002 -15.501s27.667 -24 35 -41s10.833 -36.167 10.5 -57.5s-2.5 -42.666 -6.5 -63.999l-63 -322h-138l61 314c3.33301 17.333 2 31 -4 41s-17.333 15 -34 15c-17.333 0 -31.333 -6.5 -42 -19.5s-17.667 -28.167 -21 -45.5l-60 -305
h-139l62 314c3.33301 16 2.5 29.333 -2.5 40s-16.833 16 -35.5 16c-17.333 0 -31.666 -6.83301 -42.999 -20.5s-18.666 -29.167 -21.999 -46.5l-58 -303h-138l96 495h138l-8 -41c1.33301 0 2.16602 -0.166992 2.49902 -0.5s1.16602 -0.5 2.49902 -0.5
c13.333 12.667 29.666 23.667 48.999 33s37 14 53 14c30 0 53.333 -5.83301 70 -17.5s28.667 -27.834 36 -48.501c19.333 18.667 40.666 34.334 63.999 47.001s46 19 68 19z" />
    <glyph glyph-name="n" unicode="n" horiz-adv-x="477" 
d="M244 495l-7.99707 -40.9971l4 -1c13.333 14 29.666 25.333 48.999 34s37.666 13 54.999 13c24.667 0 45.167 -3.83301 61.5 -11.5s28.666 -18.334 36.999 -32.001s13.333 -29.834 15 -48.501s0.166992 -39.334 -4.5 -62.001l-66 -347h-139l61 314
c3.33301 17.333 1.83301 31 -4.5 41s-17.5 15 -33.5 15c-15.333 0 -28.833 -5.5 -40.5 -16.5s-19.5 -25.833 -23.5 -44.5l-59 -309h-138l97 496h137z" />
    <glyph glyph-name="o" unicode="o" horiz-adv-x="459" 
d="M276 501c30.667 0 56.668 -4.5 78.001 -13.5s38.666 -21.167 51.999 -36.5s23.166 -33.166 29.499 -53.499s9.5 -41.5 9.5 -63.5c0 -20.667 -1.5 -41.834 -4.5 -63.501s-6.5 -41.834 -10.5 -60.501c-7.33301 -32 -16.666 -61.333 -27.999 -88s-26 -49.5 -44 -68.5
s-39.833 -33.667 -65.5 -44s-56.5 -15.5 -92.5 -15.5c-34 0 -61.833 5 -83.5 15s-38.667 23.333 -51 40s-20.666 35.834 -24.999 57.501s-6.5 44.167 -6.5 67.5c0 14.667 1.16699 33.167 3.5 55.5s6.16602 43.5 11.499 63.5c9.33301 38 22.166 71.833 38.499 101.5
s37.5 53.5 63.5 71.5c34.667 23.333 76.334 35 125.001 35zM264.001 374c-18 0 -32.499 -7.83301 -43.499 -23.5s-21.167 -39.5 -30.5 -71.5c-2 -8 -4.16699 -17.333 -6.5 -28s-4.16602 -21.334 -5.49902 -32.001s-2.5 -20.5 -3.5 -29.5s-1.5 -15.5 -1.5 -19.5
c0 -12.667 2.66699 -23.667 8 -33s16.666 -14 33.999 -14c7.33301 0 14.166 1.83301 20.499 5.5s11.833 7.83398 16.5 12.501c6 6 11.833 15.333 17.5 28s10.834 27.167 15.501 43.5s8.5 33.333 11.5 51s4.83301 34.167 5.5 49.5c0.666992 14.667 -1.33301 28.5 -6 41.5
s-15.334 19.5 -32.001 19.5z" />
    <glyph glyph-name="p" unicode="p" horiz-adv-x="467" 
d="M-30 -198l133.001 693.001h138l-7 -35l3 -2c14.667 15.333 29.667 26.166 45 32.499s31.666 9.5 48.999 9.5c26.667 0 47.834 -4.5 63.501 -13.5s27.667 -20.833 36 -35.5s13.833 -31.5 16.5 -50.5s4 -38.5 4 -58.5c0 -8.66699 -0.5 -18.5 -1.5 -29.5
s-2.33301 -22.167 -4 -33.5l-5 -33c-1.66699 -10.667 -3.5 -19.667 -5.5 -27c-6 -28 -13.667 -55.333 -23 -82s-21.5 -50.667 -36.5 -72s-33.833 -38.5 -56.5 -51.5s-50.334 -19.5 -83.001 -19.5c-12.667 0 -27 3.16699 -43 9.5s-28.333 15.5 -37 27.5h-4l-44 -229h-138z
M220.001 125.001c12 0 22.166 3.8291 30.499 11.4961s15.166 17.334 20.499 29.001s9.83301 24.334 13.5 38.001s6.83398 26.834 9.50098 39.501c7.33301 32.667 11 60.667 11 84c0 12 -2.83301 21.833 -8.5 29.5s-15.167 11.5 -28.5 11.5c-11.333 0 -21.333 -3.5 -30 -10.5
s-15.667 -16.5 -21 -28.5c-5.33301 -10.667 -9.5 -22.167 -12.5 -34.5l-9.5 -38.5c-7.33301 -33.333 -11 -60.666 -11 -81.999c0 -12 2.33301 -23.167 7 -33.5s14.334 -15.5 29.001 -15.5z" />
    <glyph glyph-name="q" unicode="q" horiz-adv-x="462" 
d="M211 123c9.33301 0 18.167 3.16797 26.5 9.50098s15.833 17.5 22.5 33.5c4.66699 10.667 9 23 13 37s7.5 28 10.5 42s5.5 27.333 7.5 40s3 23.667 3 33c0 4 -0.333008 8.83301 -1 14.5s-2.16699 11.167 -4.5 16.5s-6 9.83301 -11 13.5s-11.833 5.5 -20.5 5.5
c-8 0 -15 -1.83301 -21 -5.5s-11.333 -7.83398 -16 -12.501c-5.33301 -5.33301 -11.333 -16.833 -18 -34.5s-12 -36.5 -16 -56.5c-2.66699 -12 -5 -24 -7 -36s-3.66699 -24 -5 -36c-0.666992 -7.33301 -1 -14.833 -1 -22.5s1 -14.5 3 -20.5s5.83301 -11 11.5 -15
s13.5 -6 23.5 -6zM197.001 -196.999l45.998 229.999h-4c-14.667 -13.333 -30.167 -23 -46.5 -29s-32.5 -9 -48.5 -9c-24 0 -43.667 3.83301 -59 11.5s-27.166 18.167 -35.499 31.5s-14.166 28.5 -17.499 45.5s-5 35.167 -5 54.5c1.33301 23.333 3.83301 48.166 7.5 74.499
s9.16699 53.5 16.5 81.5c8 32 17 60.667 27 86s22.333 46.833 37 64.5s31.834 31.167 51.501 40.5s43.167 14 70.5 14c14.667 0 30.167 -2.66699 46.5 -8s29.166 -16.333 38.499 -33c0.666992 0.666992 1.16699 0.833984 1.5 0.500977s0.833008 -0.166016 1.5 0.500977l8 35
h139l-135 -691h-140z" />
    <glyph glyph-name="r" unicode="r" horiz-adv-x="359" 
d="M307 368c-26 0 -47.332 -7.66699 -63.999 -23s-27.667 -37 -33 -65l-56 -281h-140l96 496h139l-11 -58h2c30.667 42.667 69 64 115 64c12 0 22.5 -1.16699 31.5 -3.5s18.167 -6.5 27.5 -12.5l-48 -131c-10.667 5.33301 -20.834 9 -30.501 11s-19.167 3 -28.5 3z" />
    <glyph glyph-name="s" unicode="s" horiz-adv-x="437" 
d="M113 165c11.333 -18 24.1699 -31.001 38.5029 -39.001s31.5 -12 51.5 -12c13.333 0 26.166 3.5 38.499 10.5s18.5 17.167 18.5 30.5c0 10.667 -5.5 19 -16.5 25s-24.167 10.667 -39.5 14c-15.333 4 -31.5 8.66699 -48.5 14s-32.5 13 -46.5 23s-25.5 22.667 -34.5 38
s-13.5 34.666 -13.5 57.999c0 28 5.33301 52.833 16 74.5s24.834 39.834 42.501 54.501s37.834 25.834 60.501 33.501s46 11.5 70 11.5c42.667 0 79.167 -8.5 109.5 -25.5s52.166 -40.833 65.499 -71.5l-100 -67c-10 17.333 -22 28.833 -36 34.5s-27 8.5 -39 8.5
c-10.667 0 -19.334 -1.33301 -26.001 -4s-11.834 -5.83398 -15.501 -9.50098s-6.16699 -7.5 -7.5 -11.5s-2 -7.33301 -2 -10c0 -6 3.16699 -11.333 9.5 -16s13.666 -8.66699 21.999 -12s16.833 -6 25.5 -8l21 -5c14 -4 28.5 -8.83301 43.5 -14.5s28.667 -13.5 41 -23.5
s22.5 -22.5 30.5 -37.5s12 -33.5 12 -55.5c0 -26.667 -5 -51 -15 -73s-24.167 -40.667 -42.5 -56s-40.333 -27.333 -66 -36s-54.5 -13 -86.5 -13c-53.333 1.33301 -94.833 11.833 -124.5 31.5s-51.5 46.834 -65.5 81.501z" />
    <glyph glyph-name="t" unicode="t" horiz-adv-x="303" 
d="M99 386h-49.002l21 109h49l13.5 66.5l12.5 66.5h135l-13.5 -66.5l-12.5 -66.5h64l-22 -109h-64l-41 -214c-0.666992 -4 -1.16699 -7.66699 -1.5 -11s-0.5 -6.66602 -0.5 -9.99902c0 -8 2.33301 -14.5 7 -19.5s14.334 -7.5 29.001 -7.5h21l-24 -124
c-9.33301 -0.666992 -19.166 -1 -29.499 -1h-29.5c-21.333 0 -39.5 2.66699 -54.5 8s-27.167 12.666 -36.5 21.999s-16 20.333 -20 33s-6 26 -6 40c0 10 1 20.667 3 32z" />
    <glyph glyph-name="u" unicode="u" horiz-adv-x="477" 
d="M244 496l-60.998 -314.004c-3.33301 -17.333 -1.5 -31 5.5 -41s17.5 -15 31.5 -15c14.667 0 28.167 5.5 40.5 16.5s20.166 25.833 23.499 44.5l59 309h139l-96 -496h-139l11 46h-3c-13.333 -15.333 -30.333 -27.666 -51 -36.999s-39.334 -14 -56.001 -14
c-23.333 0 -43 3.83301 -59 11.5s-28.5 18.334 -37.5 32.001s-14.5 29.834 -16.5 48.501s-1 39.334 3 62.001l67 347h139z" />
    <glyph glyph-name="v" unicode="v" horiz-adv-x="450" 
d="M481 495c-17.333 -50 -35.1689 -96.501 -53.502 -139.501s-37.166 -84.5 -56.499 -124.5s-39.833 -78.833 -61.5 -116.5l-68.5 -114.5h-142l-57 495h148l7 -162c1.33301 -25.333 1.83301 -50.666 1.5 -75.999s-1.16602 -52 -2.49902 -80h5c24 45.333 46.5 95 67.5 149
s40.833 110.333 59.5 169h153z" />
    <glyph glyph-name="w" unicode="w" horiz-adv-x="681" 
d="M334 264l-26.999 -74.002c-8.66699 -24.667 -17.667 -48.334 -27 -71.001c-18.667 -40.667 -38 -80.334 -58 -119.001h-140l-38 494h149c-1.33301 -33.333 -1.66602 -66.833 -0.999023 -100.5s1 -67.5 1 -101.5l-2 -50
c-0.666992 -17.333 -2.33398 -36.666 -5.00098 -57.999h5c22 48 43.167 98.667 63.5 152s38.166 106 53.499 158h134l1 -184c0 -17.333 -0.5 -34.5 -1.5 -51.5s-2.5 -38.833 -4.5 -65.5h7c19.333 44 38.666 91.667 57.999 143s37 104 53 158h156
c-17.333 -49.333 -34.666 -95.166 -51.999 -137.499s-35.5 -83.333 -54.5 -123s-39.167 -78.5 -60.5 -116.5s-44.333 -77 -69 -117h-137l-3 116c0 22.667 0.333008 46.334 1 71.001s1.66699 50.334 3 77.001h-5z" />
    <glyph glyph-name="x" unicode="x" horiz-adv-x="458" 
d="M217 146l-96 -145.998h-163l100 126l101 126l-99 243h159l35 -138h2l43.5 69l43.5 69h164l-97.5 -121.5l-98.5 -121.5l107 -252h-160c-6.66699 23.333 -13 47.666 -19 72.999s-12.333 49.666 -19 72.999h-3z" />
    <glyph glyph-name="y" unicode="y" horiz-adv-x="428" 
d="M197 179c21.333 41.333 41.833 89.1699 61.5 143.503s38.167 111.5 55.5 171.5h148c-43.333 -112 -87 -214.833 -131 -308.5s-90 -178.5 -138 -254.5c-28 -44.667 -63 -79.334 -105 -104.001s-88.667 -35.334 -140 -32.001l-1 115c34 3.33301 63.167 13.333 87.5 30
s46.166 44 65.499 82l-59 472h146l6.5 -85c1.66699 -22 2.83398 -40 3.50098 -54s1.16699 -25.333 1.5 -34s0.5 -17.334 0.5 -26.001c0 -18 -0.5 -37.333 -1.5 -58s-2.5 -40 -4.5 -58h4z" />
    <glyph glyph-name="z" unicode="z" horiz-adv-x="410" 
d="M-12 0l23 120l230 253h-168l23 122h334l-22 -113l-232 -254h182l-24 -128h-346z" />
    <glyph glyph-name="braceleft" unicode="{" horiz-adv-x="284" 
d="M159 299c18 -8.66699 30.8291 -22.834 38.4961 -42.501s8.83398 -44.167 3.50098 -73.5l-26 -133c-7.33301 -33.333 2.33398 -50 29.001 -50h29l-19 -98h-67c-37.333 0 -65.666 11.5 -84.999 34.5s-24.666 57.5 -15.999 103.5l25 127c5.33301 30 3.5 52 -5.5 66
s-24.167 21.333 -45.5 22l19 93c22 1.33301 40 8.83301 54 22.5s24 35.5 30 65.5l27 137c7.33301 38 22.5 68 45.5 90s56.5 33 100.5 33h71l-20 -99h-30c-10 0 -19.333 -4.66699 -28 -14s-14.334 -21.666 -17.001 -36.999l-25 -126
c-5.33301 -28 -16.166 -51.833 -32.499 -71.5s-34.5 -34.5 -54.5 -44.5z" />
    <glyph glyph-name="bar" unicode="|" horiz-adv-x="259" 
d="M71 -195v925h116v-925h-116z" />
    <glyph glyph-name="braceright" unicode="}" horiz-adv-x="284" 
d="M161 301c-16 8.66699 -28.165 22.6689 -36.498 42.002s-9.83301 44 -4.5 74l26 132c6 32.667 -5.33301 49 -34 49h-25l19 98h73c16.667 0 32 -2.5 46 -7.5s25.5 -12.833 34.5 -23.5s15 -24.167 18 -40.5s2.5 -35.833 -1.5 -58.5l-26 -134c-6 -30 -4.5 -52 4.5 -66
s24.167 -21.667 45.5 -23l-18 -93c-22 -0.666992 -40 -7.83398 -54 -21.501s-24 -35.5 -30 -65.5l-27 -137c-7.33301 -38 -22.5 -68 -45.5 -90s-56.833 -33 -101.5 -33h-70l19 98h30c13.333 0 23.5 4.66699 30.5 14s12.167 21.666 15.5 36.999l25 127
c5.33301 28 15.666 51.833 30.999 71.5s33.666 34.167 54.999 43.5z" />
    <glyph glyph-name="asciitilde" unicode="~" horiz-adv-x="490" 
d="M194 371c14 0 27.3359 -2.83105 40.0029 -8.49805s24.5 -11.834 35.5 -18.501s21.5 -12.667 31.5 -18s19.333 -8 28 -8c12.667 0 25.667 4.16699 39 12.5s28.333 22.166 45 41.499l65 -49c-24.667 -43.333 -49.5 -73.5 -74.5 -90.5s-50.167 -25.5 -75.5 -25.5
c-14.667 0 -28.5 2.66699 -41.5 8s-25.333 11.333 -37 18s-22.834 12.667 -33.501 18s-21 8 -31 8c-12.667 0 -25.834 -3.33301 -39.501 -10s-30.834 -20.667 -51.501 -42l-31.5 24c-10.333 8 -20.833 15.667 -31.5 23c25.333 42 50.833 72 76.5 90s54.5 27 86.5 27z" />
    <glyph glyph-name="exclamdown" unicode="&#xa1;" horiz-adv-x="285" 
d="M103 298h118l-87 -499h-139zM268 495l-26 -133h-137l26 133h137z" />
    <glyph glyph-name="cent" unicode="&#xa2;" horiz-adv-x="435" 
d="M142 -118l10.498 52.499c4.33301 21.667 8.83301 42.5 13.5 62.5c-25.333 2.66699 -46.666 9.16699 -63.999 19.5s-31.5 23.333 -42.5 39s-18.833 33.667 -23.5 54s-7 42.166 -7 65.499c0 38.667 4.16699 77.167 12.5 115.5s21.833 73 40.5 104
s42.834 56.167 72.501 75.5s66.167 29.666 109.5 30.999l10.5 60.5c3.66699 21 7.16699 38.833 10.5 53.5h51c-3.33301 -15.333 -6.83301 -34.166 -10.5 -56.499s-7.5 -43.166 -11.5 -62.499c30 -6 54.667 -18.5 74 -37.5s31.333 -43.5 36 -73.5l-118 -56
c-4 16 -10 27.5 -18 34.5s-16.667 10.5 -26 10.5c-13.333 0 -24.666 -3.16699 -33.999 -9.5s-17.333 -15 -24 -26s-12 -23.833 -16 -38.5s-7.66699 -30.334 -11 -47.001c-5.33301 -26 -8.33301 -49 -9 -69c0 -17.333 2.83301 -31.833 8.5 -43.5s18.5 -17.5 38.5 -17.5
c10 0 20 3.16699 30 9.5s20.333 17.5 31 33.5l103 -57c-18.667 -33.333 -41.334 -59.666 -68.001 -78.999s-58 -30.666 -94 -33.999l-23 -114h-52v0z" />
    <glyph glyph-name="sterling" unicode="&#xa3;" horiz-adv-x="490" 
d="M330 701c30.667 0 57.833 -4.16895 81.5 -12.502s43.834 -20 60.501 -35s29.5 -32.5 38.5 -52.5s14.167 -41.333 15.5 -64l-67.5 -21l-67.5 -20c-3.33301 17.333 -10.5 33 -21.5 47s-26.5 21 -46.5 21c-22.667 0 -39.334 -7.5 -50.001 -22.5s-16 -31.5 -16 -49.5
c0 -17.333 2.16699 -35.5 6.5 -54.5s6.83301 -41.167 7.5 -66.5h120l-21 -103h-118c-8 -28.667 -17.167 -54.667 -27.5 -78s-22.5 -45 -36.5 -65h241l-24 -125h-412l20 110c23.333 24 42.333 48 57 72s26.667 52.667 36 86h-65l21 103h57
c-1.33301 19.333 -3.5 37.833 -6.5 55.5s-4.5 35.5 -4.5 53.5c0 26.667 4.33301 53.334 13 80.001s22 50.334 40 71.001s41 37.5 69 50.5s61.333 19.5 100 19.5z" />
    <glyph glyph-name="currency" unicode="&#xa4;" horiz-adv-x="535" 
d="M100 102l-74.9971 75l32 32.5l33 32.5c-16 28.667 -24 59 -24 91c0 30 8.33301 60.667 25 92l-65 65l38 37.5l38 38.5l65 -65c31.333 16.667 62.333 25 93 25c32.667 0 63 -7.66699 91 -23l65 65l75 -76l-65 -64c16.667 -31.333 25 -62 25 -92
c0 -32 -8.33301 -63.333 -25 -94l33 -31.5l32 -31.5l-76 -77l-64 65c-14.667 -8 -29.834 -14.333 -45.501 -19s-31.5 -7 -47.5 -7c-16.667 0 -32.834 2.33301 -48.501 7s-30.834 11 -45.501 19zM259.003 428c-27.333 0 -49.999 -8.83398 -67.999 -26.501
s-27 -40.167 -27 -67.5c0 -12.667 2.33301 -24.667 7 -36s11.167 -21.166 19.5 -29.499s18.166 -15 29.499 -20s23.333 -7.5 36 -7.5c16 0 29.833 3.16699 41.5 9.5s21.5 14.333 29.5 24s14 20 18 31s6 21.5 6 31.5c0 12.667 -2.5 24.667 -7.5 36s-11.667 21 -20 29
s-18 14.333 -29 19s-22.833 7 -35.5 7z" />
    <glyph glyph-name="yen" unicode="&#xa5;" horiz-adv-x="490" 
d="M289 413l58 125c2 3.33301 7 12.833 15 28.5l26.5 50.5l26.5 50.5c8 15.667 12.667 25.167 14 28.5h157l-207 -337h82c-2 -12.667 -4.16699 -25.167 -6.5 -37.5s-4.83301 -24.833 -7.5 -37.5h-116l-9 -41h117l-15 -75h-116l-16 -84l-16 -84h-142l16 84l16 84h-113l15 75
h112l8 41h-112c2.66699 12.667 5.16699 25.167 7.5 37.5s4.5 24.833 6.5 37.5h78l-37.5 168.5l-36.5 168.5h153l24 -159l12 -124h6z" />
    <glyph glyph-name="brokenbar" unicode="&#xa6;" horiz-adv-x="259" 
d="M71 305v421h116v-421h-116zM187 225v-424h-116v424h116z" />
    <glyph glyph-name="section" unicode="&#xa7;" horiz-adv-x="467" 
d="M317 700c36 0 68.335 -4.66699 97.002 -14s56.334 -26.333 83.001 -51l-72 -93c-20.667 18 -40 29.833 -58 35.5s-35.667 8.5 -53 8.5c-19.333 0 -34.666 -5.33301 -45.999 -16s-17 -21.667 -17 -33c0 -8 3.33301 -15.667 10 -23s15 -14.166 25 -20.499
s20.667 -12.5 32 -18.5s21.666 -12 30.999 -18l35 -21.5c12.667 -7.66699 24.5 -16.5 35.5 -26.5s20 -21.833 27 -35.5s10.5 -29.834 10.5 -48.501c0 -30 -8 -56.333 -24 -79s-35.333 -39.667 -58 -51c9.33301 -12 16.666 -24.833 21.999 -38.5s8 -27.834 8 -42.501
c0 -30 -5.5 -56.667 -16.5 -80s-26.167 -43.166 -45.5 -59.499s-42 -28.666 -68 -36.999s-54 -12.5 -84 -12.5c-17.333 0 -35 1.83301 -53 5.5s-35.5 9 -52.5 16s-33 15.667 -48 26s-27.833 21.833 -38.5 34.5l84 89c17.333 -19.333 36.666 -33.666 57.999 -42.999
s40.333 -14 57 -14c19.333 0 35.833 4.83301 49.5 14.5s20.5 23.167 20.5 40.5c0 8 -3.5 15.5 -10.5 22.5s-15.833 13.833 -26.5 20.5s-21.834 13 -33.501 19s-21.834 11.667 -30.501 17c-31.333 18 -56.5 36.833 -75.5 56.5s-28.5 45.167 -28.5 76.5
c0 13.333 2 26.666 6 39.999s9.83301 26 17.5 38s17.167 22.667 28.5 32s24 16.333 38 21c-11.333 11.333 -19.666 24.833 -24.999 40.5s-8 31.5 -8 47.5c0 26 5 49.833 15 71.5s23.833 40.167 41.5 55.5s38.5 27.166 62.5 35.499s50 12.5 78 12.5zM190.002 334
c0 -8 3.5 -15.499 10.5 -22.499s15.833 -13.5 26.5 -19.5s22.667 -11.667 36 -17s26.333 -11 39 -17c6.66699 3.33301 12.667 8.83301 18 16.5s8 16.167 8 25.5c0 8.66699 -2.16699 15.667 -6.5 21s-11 10.5 -20 15.5s-20 10.167 -33 15.5s-28.5 12.666 -46.5 21.999
c-9.33301 -4 -17 -9.66699 -23 -17s-9 -15 -9 -23z" />
    <glyph glyph-name="dieresis" unicode="&#xa8;" horiz-adv-x="426" 
d="M313 558l25 130h133l-25 -130h-133zM119 558l25 130h132l-25 -130h-132z" />
    <glyph glyph-name="copyright" unicode="&#xa9;" horiz-adv-x="762" 
d="M378 553c38 0 69.5 -10.3291 94.5 -30.9961s40.5 -47 46.5 -79l-86 -26c-2.66699 14 -8.5 25.667 -17.5 35s-21.167 14 -36.5 14c-11.333 0 -20.5 -2 -27.5 -6s-12.333 -9.33301 -16 -16s-6.16699 -14 -7.5 -22s-2 -16.333 -2 -25v-126
c0 -16.667 3.33301 -32.167 10 -46.5s20.667 -21.5 42 -21.5c14.667 0 26.667 4.33301 36 13s15 21 17 37l43.5 -13.5c14.333 -4.33301 28.833 -8.5 43.5 -12.5c-6.66699 -34.667 -22 -61.834 -46 -81.501s-55.333 -29.5 -94 -29.5c-28 0 -51.167 4.33301 -69.5 13
s-32.833 20.167 -43.5 34.5s-18.167 30.5 -22.5 48.5s-6.5 36.667 -6.5 56v127c0 21.333 2.83301 41.666 8.5 60.999s14.167 36.166 25.5 50.499s26 25.666 44 33.999s39.333 12.5 64 12.5zM378 -11.9961c-50 0 -95.333 8.67285 -136 26.0059
s-75.334 41.666 -104.001 72.999s-50.834 68.666 -66.501 111.999s-23.5 90.666 -23.5 141.999s7.83301 98.666 23.5 141.999s37.834 80.833 66.501 112.5s63.334 56.5 104.001 74.5s86 27 136 27c49.333 0 94.333 -8.83301 135 -26.5s75.5 -42.334 104.5 -74.001
s51.333 -69.167 67 -112.5s23.5 -91 23.5 -143c0 -50.667 -7.83301 -97.5 -23.5 -140.5s-38 -80.333 -67 -112s-63.833 -56.334 -104.5 -74.001s-85.667 -26.5 -135 -26.5zM378 619.01c-38 0 -71.999 -7.16699 -101.999 -21.5s-55.5 -34 -76.5 -59
s-37.167 -54.5 -48.5 -88.5s-17 -70.333 -17 -109c0 -38 5.83301 -73.833 17.5 -107.5s28.167 -62.834 49.5 -87.501s47 -44.167 77 -58.5s63.333 -21.5 100 -21.5c37.333 0 71.166 7.16699 101.499 21.5s56 33.833 77 58.5s37.167 53.834 48.5 87.501s17 69.5 17 107.5
c0 40 -5.83301 76.833 -17.5 110.5s-28 63 -49 88s-46.667 44.5 -77 58.5s-63.833 21 -100.5 21z" />
    <glyph glyph-name="ordfeminine" unicode="&#xaa;" horiz-adv-x="319" 
d="M213 303c-8 -10 -17.168 -17.167 -27.501 -21.5s-20.166 -6.5 -29.499 -6.5c-16.667 0 -30.5 2.66699 -41.5 8s-19.833 12.5 -26.5 21.5s-11.5 19.667 -14.5 32s-4.5 25.5 -4.5 39.5c0.666992 12.667 1.66699 26 3 40s3.66602 28.667 6.99902 44
c4.66699 22 10.334 42.333 17.001 61s15 34.5 25 47.5s22.167 23.167 36.5 30.5s31.5 11 51.5 11c8.66699 0 18.667 -1.83301 30 -5.5s21 -10.167 29 -19.5l5 22h104l-30.5 -164l-31.5 -164h-104l4 23zM197.999 365c9.33301 0 16.667 2.83105 22 8.49805
s9.66602 13.834 12.999 24.501c2 6 4 13.333 6 22s3.66699 17.334 5 26.001s2.5 16.667 3.5 24s1.5 13 1.5 17c0 9.33301 -1.16699 17 -3.5 23s-8.16602 9 -17.499 9c-10.667 0 -19.167 -3.66699 -25.5 -11s-11.833 -17.666 -16.5 -30.999c-4 -12 -7.16699 -25.333 -9.5 -40
s-3.5 -26.667 -3.5 -36c0 -8.66699 1.66699 -16.834 5 -24.501s10 -11.5 20 -11.5z" />
    <glyph glyph-name="guillemotleft" unicode="&#xab;" horiz-adv-x="565" 
d="M358 28l-90 207l166 207h140l-174 -208l88 -206h-130zM142 28l-91 207l167 207h134l-169 -208l88 -206h-129z" />
    <glyph glyph-name="logicalnot" unicode="&#xac;" horiz-adv-x="490" 
d="M443 73h-116l33 168h-335l23 114h450z" />
    <glyph glyph-name="sfthyphen" unicode="&#xad;" horiz-adv-x="407" 
d="M47 204l24 125h318l-25 -125h-317z" />
    <glyph glyph-name="registered" unicode="&#xae;" horiz-adv-x="506" 
d="M252 449h-19v-99h-56v260h87c23.333 0 42.166 -6.83301 56.499 -20.5s21.5 -33.5 21.5 -59.5c0 -14 -2.66699 -27.167 -8 -39.5s-14.666 -22.833 -27.999 -31.5l9.5 -22.5l13.5 -32.5l13.5 -32l9.5 -22h-62zM233 558v-58h28c18.667 0 28 10 28 30
c0 18.667 -9.33301 28 -28 28h-28zM256 252c-32.667 0 -62.166 5.66699 -88.499 17s-48.666 27 -66.999 47s-32.5 43.833 -42.5 71.5s-15 57.5 -15 89.5c0 32.667 5.16699 62.667 15.5 90s24.833 51 43.5 71s41 35.667 67 47s55 17 87 17s61 -5.66699 87 -17
s48.167 -27 66.5 -47s32.666 -43.667 42.999 -71s15.5 -57.333 15.5 -90c0 -32 -5.33301 -61.833 -16 -89.5s-25.334 -51.5 -44.001 -71.5s-41 -35.667 -67 -47s-54.333 -17 -85 -17zM256.001 650c-24 0 -45.668 -4.50098 -65.001 -13.501s-35.666 -21.167 -48.999 -36.5
s-23.666 -33.5 -30.999 -54.5s-11 -43.5 -11 -67.5c0 -24.667 3.66699 -47.334 11 -68.001s17.833 -38.667 31.5 -54s30.167 -27.333 49.5 -36s40.666 -13 63.999 -13c24 0 45.333 4.33301 64 13s34.5 20.834 47.5 36.501s23 33.834 30 54.501s10.5 43 10.5 67
s-3.5 46.5 -10.5 67.5s-17.167 39.167 -30.5 54.5s-29.333 27.5 -48 36.5s-39.667 13.5 -63 13.5z" />
    <glyph glyph-name="macron" unicode="&#xaf;" horiz-adv-x="450" 
d="M161 572l22 114h292l-22 -114h-292z" />
    <glyph glyph-name="degree" unicode="&#xb0;" horiz-adv-x="393" 
d="M344 559c0 -20 -3.83301 -38.5 -11.5 -55.5s-18.167 -32 -31.5 -45s-28.833 -23.167 -46.5 -30.5s-36.834 -11 -57.501 -11c-20 0 -39 3.66699 -57 11s-33.667 17.5 -47 30.5s-23.833 28 -31.5 45s-11.5 35.5 -11.5 55.5c0 19.333 3.83301 37.666 11.5 54.999
s18.167 32.5 31.5 45.5s29 23.167 47 30.5s37 11 57 11c20.667 0 39.834 -3.66699 57.501 -11s33.167 -17.5 46.5 -30.5s23.833 -28.167 31.5 -45.5s11.5 -35.666 11.5 -54.999zM253 559c0 15.333 -5.33301 28.166 -16 38.499s-24 15.5 -40 15.5
c-15.333 0 -28.5 -5.16699 -39.5 -15.5s-16.5 -23.166 -16.5 -38.499s5.5 -28.333 16.5 -39s24.167 -16 39.5 -16c16 0 29.333 5.33301 40 16s16 23.667 16 39z" />
    <glyph glyph-name="plusminus" unicode="&#xb1;" horiz-adv-x="490" 
d="M320 298l-30 -157h-117l31 157h-168l22 112h167l32 162h117l-32 -162h167l-21 -112h-168zM-24 0l21 109h456l-21 -109h-456z" />
    <glyph glyph-name="twosuperior" unicode="&#xb2;" horiz-adv-x="312" 
d="M68 665c6 20.667 14.167 39 24.5 55s22.5 29.333 36.5 40s29 18.834 45 24.501s32.667 8.5 50 8.5c36.667 0 65 -8.33301 85 -25s30 -41 30 -73c0 -19.333 -4.5 -37.5 -13.5 -54.5s-21.833 -34.167 -38.5 -51.5l-118 -126h122l-18 -92h-258l15 81l183 187
c13.333 13.333 20 27.666 20 42.999c0 5.33301 -1.83301 10 -5.5 14s-9.5 6 -17.5 6s-16 -3.66699 -24 -11s-14.667 -20.333 -20 -39z" />
    <glyph glyph-name="threesuperior" unicode="&#xb3;" horiz-adv-x="313" 
d="M225 791c40 0 69.332 -9.83301 87.999 -29.5s28 -44.5 28 -74.5c0 -8 -1 -16.833 -3 -26.5s-5.16699 -19.167 -9.5 -28.5s-10.5 -18.166 -18.5 -26.499s-18 -15.166 -30 -20.499c12.667 -4.66699 21 -12 25 -22s6 -21.667 6 -35c0 -21.333 -3 -41.833 -9 -61.5
s-15.333 -37 -28 -52s-28.5 -26.833 -47.5 -35.5s-41.833 -13 -68.5 -13c-15.333 0 -29.833 2.16699 -43.5 6.5s-26 10.666 -37 18.999s-19.667 19.166 -26 32.499s-9.5 29 -9.5 47v13l96 12v-6c0 -12.667 3.16699 -21 9.5 -25s12.166 -6 17.499 -6c8.66699 0 15.667 2 21 6
s9.33301 8.66699 12 14s4.5 11.166 5.5 17.499s1.5 11.833 1.5 16.5c0 9.33301 -2.16699 17.166 -6.5 23.499s-12.833 9.5 -25.5 9.5h-31l15 78h33c16.667 0 28.167 5.33301 34.5 16s9.5 21.667 9.5 33c0 6.66699 -1.5 12.834 -4.5 18.501s-9.5 8.5 -19.5 8.5
c-6.66699 0 -13.667 -3.16699 -21 -9.5s-13.666 -18.166 -18.999 -35.499l-93 15c4.66699 21.333 12 39.666 22 54.999s21.5 27.833 34.5 37.5s27.333 16.834 43 21.501s31.834 7 48.501 7z" />
    <glyph glyph-name="acute" unicode="&#xb4;" horiz-adv-x="451" 
d="M227 570l130 195l111 -48l-171 -183z" />
    <glyph glyph-name="mu" unicode="&#xb5;" horiz-adv-x="477" 
d="M255 37c-0.666992 0 -1.16602 0.166016 -1.49902 0.499023s-1.16602 0.5 -2.49902 0.5c-9.33301 -8.66699 -19.833 -15.667 -31.5 -21s-23.167 -9 -34.5 -11c-10.667 -2.66699 -22.334 -4.66699 -35.001 -6l-39 -200h-139l135 695h139l-31 -157l-30 -157
c-0.666992 -3.33301 -1.16699 -6.33301 -1.5 -9s-0.5 -5.33398 -0.5 -8.00098c0 -13.333 3.66699 -23.166 11 -29.499s16.666 -9.5 27.999 -9.5c14.667 0 27.667 4.83301 39 14.5s19 23.834 23 42.501l30 156.5l31 156.5h139l-96 -495h-139l6 37v0z" />
    <glyph glyph-name="mu" unicode="&#x3bc;" horiz-adv-x="477" 
d="M255 37c-0.666992 0 -1.16602 0.166016 -1.49902 0.499023s-1.16602 0.5 -2.49902 0.5c-9.33301 -8.66699 -19.833 -15.667 -31.5 -21s-23.167 -9 -34.5 -11c-10.667 -2.66699 -22.334 -4.66699 -35.001 -6l-39 -200h-139l135 695h139l-31 -157l-30 -157
c-0.666992 -3.33301 -1.16699 -6.33301 -1.5 -9s-0.5 -5.33398 -0.5 -8.00098c0 -13.333 3.66699 -23.166 11 -29.499s16.666 -9.5 27.999 -9.5c14.667 0 27.667 4.83301 39 14.5s19 23.834 23 42.501l30 156.5l31 156.5h139l-96 -495h-139l6 37v0z" />
    <glyph glyph-name="paragraph" unicode="&#xb6;" horiz-adv-x="513" 
d="M174 309l-11.998 -0.000976562c-40 3.33301 -69.167 18 -87.5 44s-27.5 57 -27.5 93c0 26.667 4.66699 54.834 14 84.501s23.666 57 42.999 82s43.666 45.667 72.999 62s64 24.5 104 24.5c46 0 90.833 0.166992 134.5 0.5s89.5 0.5 137.5 0.5l-20 -98h-44l-130 -670h-100
l130 670h-55l-130 -670h-103z" />
    <glyph glyph-name="periodcentered" unicode="&#xb7;" horiz-adv-x="263" 
d="M59 200l30 158h150l-30 -158h-150z" />
    <glyph glyph-name="cedilla" unicode="&#xb8;" horiz-adv-x="447" 
d="M237 42l-41.001 -78.0029c28.667 -3.33301 48.5 -12.833 59.5 -28.5s16.5 -33.5 16.5 -53.5c0 -11.333 -2.33301 -22.666 -7 -33.999s-12.167 -21.666 -22.5 -30.999s-23.333 -17 -39 -23s-34.5 -9 -56.5 -9c-13.333 0 -29.833 1.83301 -49.5 5.5
s-38.167 10.5 -55.5 20.5l34 60c14.667 -7.33301 27.5 -12.166 38.5 -14.499s21.167 -3.5 30.5 -3.5c12 0 21.667 2.66699 29 8s11 13.333 11 24c0 6 -2.5 11 -7.5 15s-11.167 6 -18.5 6c-5.33301 0 -9.66602 -0.666992 -12.999 -2l-34 24l59 114h66z" />
    <glyph glyph-name="onesuperior" unicode="&#xb9;" horiz-adv-x="255" 
d="M85 371l59 304l-69 -42l20 105l86 50h89l-81 -417h-104z" />
    <glyph glyph-name="ordmasculine" unicode="&#xba;" horiz-adv-x="317" 
d="M230 611c36.667 0 65.333 -8.5 86 -25.5s33 -37.5 37 -61.5c1.33301 -5.33301 2 -11 2 -17v-19c-1.33301 -25.333 -4.33301 -49 -9 -71s-10.667 -41.667 -18 -59s-17 -32.166 -29 -44.499s-26.833 -21.833 -44.5 -28.5s-38.834 -10 -63.501 -10c-22.667 0 -42 3 -58 9
s-29 14 -39 24s-17.167 21.333 -21.5 34s-6.5 25.667 -6.5 39c0 10 0.5 20 1.5 30s2.16699 20 3.5 30c3.33301 20 7.83301 40.167 13.5 60.5s12.834 37.166 21.501 50.499c12 19.333 28.167 34 48.5 44s45.5 15 75.5 15zM194.999 365
c6.66699 0 12.501 2.16797 17.501 6.50098s9.33301 9.83301 13 16.5s6.5 14 8.5 22l6 24c2.66699 11.333 4.83398 22.666 6.50098 33.999s2.5 21 2.5 29c0 7.33301 -2.5 13.333 -7.5 18s-11.5 7 -19.5 7c-8.66699 0 -15.834 -3 -21.501 -9s-9.83398 -12.667 -12.501 -20
s-5.16699 -15.5 -7.5 -24.5s-4.33301 -18 -6 -27s-3 -17.5 -4 -25.5s-1.5 -14.333 -1.5 -19c0 -8.66699 1.83301 -16.167 5.5 -22.5s10.5 -9.5 20.5 -9.5z" />
    <glyph glyph-name="guillemotright" unicode="&#xbb;" horiz-adv-x="565" 
d="M9 28l174 208l-88 207h130l90 -208l-166 -207h-140zM226 28l174 208l-88 207h129l90 -208l-166 -207h-139z" />
    <glyph glyph-name="onequarter" unicode="&#xbc;" horiz-adv-x="770" 
d="M136 279l59 304l-69 -42l20 105l86 50h89l-81 -417h-104zM181 -17h-100l511 730h100zM633 57l-11 -57h-94l11 57h-164l14 74l179 286h101l-169 -273h57l18 79h90l-15 -79h30l-17 -87h-30z" />
    <glyph glyph-name="onehalf" unicode="&#xbd;" horiz-adv-x="770" 
d="M130 279l59 304l-69 -42l20 105l86 50h89l-81 -417h-104zM170 -17h-100l511 730h100zM449 294c6 20.667 14.167 39 24.5 55s22.5 29.333 36.5 40s29 18.834 45 24.501s32.667 8.5 50 8.5c36.667 0 65 -8.33301 85 -25s30 -41 30 -73c0 -19.333 -4.5 -37.5 -13.5 -54.5
s-21.833 -34.167 -38.5 -51.5l-118 -126h122l-18 -92h-258l15 81l183 187c13.333 13.333 20 27.666 20 42.999c0 5.33301 -1.83301 10 -5.5 14s-9.5 6 -17.5 6s-16 -3.66699 -24 -11s-14.667 -20.333 -20 -39z" />
    <glyph glyph-name="threequarters" unicode="&#xbe;" horiz-adv-x="770" 
d="M216 -17h-100l511 730h100zM268 701c40 0 69.332 -9.83301 87.999 -29.5s28 -44.5 28 -74.5c0 -8 -1 -16.833 -3 -26.5s-5.16699 -19.167 -9.5 -28.5s-10.5 -18.166 -18.5 -26.499s-18 -15.166 -30 -20.499c12.667 -4.66699 21 -12 25 -22s6 -21.667 6 -35
c0 -21.333 -3 -41.833 -9 -61.5s-15.333 -37 -28 -52s-28.5 -26.833 -47.5 -35.5s-41.833 -13 -68.5 -13c-15.333 0 -29.833 2.16699 -43.5 6.5s-26 10.666 -37 18.999s-19.667 19.166 -26 32.499s-9.5 29 -9.5 47v13l96 12v-6c0 -12.667 3.16699 -21 9.5 -25
s12.166 -6 17.499 -6c8.66699 0 15.667 2 21 6s9.33301 8.66699 12 14s4.5 11.166 5.5 17.499s1.5 11.833 1.5 16.5c0 9.33301 -2.16699 17.166 -6.5 23.499s-12.833 9.5 -25.5 9.5h-31l15 78h33c16.667 0 28.167 5.33301 34.5 16s9.5 21.667 9.5 33
c0 6.66699 -1.5 12.834 -4.5 18.501s-9.5 8.5 -19.5 8.5c-6.66699 0 -13.667 -3.16699 -21 -9.5s-13.666 -18.166 -18.999 -35.499l-93 15c4.66699 21.333 12 39.666 22 54.999s21.5 27.833 34.5 37.5s27.333 16.834 43 21.501s31.834 7 48.501 7zM650.999 57l-11 -57h-94
l11 57h-164l14 74l179 286h101l-169 -273h57l18 79h90l-15 -79h30l-17 -87h-30z" />
    <glyph glyph-name="questiondown" unicode="&#xbf;" horiz-adv-x="445" 
d="M189 -206c-53.333 0 -96.5 13.833 -129.5 41.5s-49.5 65.5 -49.5 113.5c0 20.667 2.16699 39.167 6.5 55.5s10 31.166 17 44.499s15 25.833 24 37.5s18.167 22.834 27.5 33.501l42.5 48c12.333 13.333 22.666 25.5 30.999 36.5s15.333 21.833 21 32.5
s10.167 22.667 13.5 36l7 29h138l-6 -32c-5.33301 -34.667 -16.666 -65.167 -33.999 -91.5s-37.666 -52.5 -60.999 -78.5c-18.667 -21.333 -35.334 -42.333 -50.001 -63s-22 -42 -22 -64c0 -13.333 4.16699 -23.833 12.5 -31.5s19.5 -11.5 33.5 -11.5
c7.33301 0 14.833 1.16699 22.5 3.5s15 6.5 22 12.5s13.167 14.167 18.5 24.5s9.33301 23.833 12 40.5l135 -15c-11.333 -70 -37 -121.167 -77 -153.5s-91.667 -48.5 -155 -48.5zM374 495c-4 -22.667 -8.16699 -45 -12.5 -67l-13.5 -67h-136l26 134h136z" />
    <glyph glyph-name="Agrave" unicode="&#xc0;" horiz-adv-x="555" 
d="M371 722l-198 107l87 91l165 -136zM354 0l-9 143h-163l-65 -143h-154l334 696h143l63 -696h-149zM337 370v139h-5l-54 -138l-39 -100h99z" />
    <glyph glyph-name="Aacute" unicode="&#xc1;" horiz-adv-x="548" 
d="M350 0l-4 143h-164l-65 -143h-154l334 696h143l63 -696h-153zM337 370v139h-5l-54 -138l-39 -100h99zM315 784l194 135l78 -91l-224 -106z" />
    <glyph glyph-name="Acircumflex" unicode="&#xc2;" horiz-adv-x="548" 
d="M350 0l-4 143h-164l-65 -143h-154l334 696h143l63 -696h-153zM337 370v139h-5l-54 -138l-39 -100h99zM383 807l-153 -81l-42 52l167 132h89l114 -131l-59 -54z" />
    <glyph glyph-name="Atilde" unicode="&#xc3;" horiz-adv-x="548" 
d="M350 0l-4 143h-164l-65 -143h-154l334 696h143l63 -696h-153zM337 370v139h-5l-54 -138l-39 -100h99zM321 873c12 0 23.4971 -2.33203 34.4971 -6.99902s21.667 -9.5 32 -14.5l29 -14c9 -4.33301 17.167 -6.5 24.5 -6.5c10 0 19.833 2.5 29.5 7.5
s22.834 16.167 39.501 33.5l62 -37c-20 -39.333 -40.833 -66.333 -62.5 -81s-44.167 -22 -67.5 -22c-12.667 0 -24.5 2.16699 -35.5 6.5s-21.5 9 -31.5 14l-28.5 14c-9 4.33301 -17.833 6.5 -26.5 6.5c-9.33301 0 -19.5 -2.83301 -30.5 -8.5s-24.833 -17.167 -41.5 -34.5
l-60 41c22.667 39.333 44.834 66.166 66.501 80.499s43.834 21.5 66.501 21.5z" />
    <glyph glyph-name="Adieresis" unicode="&#xc4;" horiz-adv-x="548" 
d="M350 0l-4 143h-164l-65 -143h-154l334 696h143l63 -696h-153zM337 370v139h-5l-54 -138l-39 -100h99zM408 737l26 131h135l-25 -131h-136zM214 737l25 131h136l-26 -131h-135z" />
    <glyph glyph-name="Aring" unicode="&#xc5;" horiz-adv-x="548" 
d="M350 0l-4.00098 143.001h-164l-65 -143h-154l334 696h70c-26.667 1.33301 -49.334 10.166 -68.001 26.499s-28 36.833 -28 61.5c0 17.333 3 33.833 9 49.5s14.5 29.5 25.5 41.5s24.5 21.5 40.5 28.5s33.667 10.5 53 10.5c14 0 27.167 -2.16699 39.5 -6.5
s23 -10.5 32 -18.5s16.167 -17.5 21.5 -28.5s8 -22.833 8 -35.5c0 -17.333 -2.83301 -33.5 -8.5 -48.5s-13.667 -28.333 -24 -40s-23.166 -21.167 -38.499 -28.5s-32.666 -11.333 -51.999 -12h63l63 -696h-153zM336.999 370.001v139h-5l-54 -138l-39 -100h99z
M379.999 770.001c10.667 0 20.334 3.83398 29.001 11.501s13 17.5 13 29.5c0 7.33301 -2.83301 13.666 -8.5 18.999s-12.834 8 -21.501 8c-11.333 0 -21.333 -3.83301 -30 -11.5s-13 -17.167 -13 -28.5c0 -8 3 -14.667 9 -20s13.333 -8 22 -8z" />
    <glyph glyph-name="AE" unicode="&#xc6;" horiz-adv-x="856" 
d="M877 696l-19 -134h-260l-20 -144h224l-19 -133h-224l-21 -150h261l-18 -135h-407l21 150h-179l-89 -150h-153l402 696h501zM447 559l-156 -280h122l39 279z" />
    <glyph glyph-name="Ccedilla" unicode="&#xc7;" horiz-adv-x="514" 
d="M342 701c30 0 57.168 -4.50098 81.501 -13.501s45.333 -21.333 63 -37s31.5 -34.334 41.5 -56.001s16 -45.167 18 -70.5l-138 -39c-1.33301 10 -3.83301 19.667 -7.5 29s-8.5 17.666 -14.5 24.999s-13.5 13.333 -22.5 18s-19.167 7 -30.5 7
c-16.667 0 -30.5 -3.5 -41.5 -10.5s-20 -16.5 -27 -28.5s-12.833 -25.667 -17.5 -41s-8.66699 -31 -12 -47l-45 -228c-2 -10 -2.83301 -19.833 -2.5 -29.5s2.83301 -18 7.5 -25s11.5 -12.667 20.5 -17s21.5 -6.5 37.5 -6.5c22.667 0 42 6.83301 58 20.5s28 32.834 36 57.501
l69.5 -18l69.5 -19c-7.33301 -24 -17.5 -46.667 -30.5 -68s-29 -40 -48 -56s-41.167 -28.833 -66.5 -38.5s-54 -14.834 -86 -15.501l-16 -30c28.667 -3.33301 48.5 -12.833 59.5 -28.5s16.5 -33.5 16.5 -53.5c0 -11.333 -2.33301 -22.666 -7 -33.999
s-12.167 -21.666 -22.5 -30.999s-23.333 -17 -39 -23s-34.5 -9 -56.5 -9c-13.333 0 -29.833 1.83301 -49.5 5.5s-38.167 10.5 -55.5 20.5l34 60c14.667 -7.33301 27.5 -12.166 38.5 -14.499s21.167 -3.5 30.5 -3.5c12 0 21.667 2.66699 29 8s11 13.333 11 24
c0 6 -2.5 11 -7.5 15s-11.167 6 -18.5 6c-5.33301 0 -9.66602 -0.666992 -12.999 -2l-34 24l36 71c-33.333 5.33301 -60.333 15.5 -81 30.5s-36.334 33.333 -47.001 55s-16.667 46 -18 73s1 55.5 7 85.5l37 189c6.66699 34.667 15.667 68.167 27 100.5s26.666 61 45.999 86
s43.5 45 72.5 60s64.833 22.5 107.5 22.5z" />
    <glyph glyph-name="Egrave" unicode="&#xc8;" horiz-adv-x="484" 
d="M20 0l135 696h401l-26 -134h-257l-29 -144h222l-26 -133h-222l-28 -151h257l-26 -134h-401zM388 722l-199 107l88 91l165 -136z" />
    <glyph glyph-name="Eacute" unicode="&#xc9;" horiz-adv-x="484" 
d="M20 0l135 696h401l-26 -134h-257l-29 -144h222l-26 -133h-222l-28 -151h257l-26 -134h-401zM277 784l194 135l78 -91l-224 -106z" />
    <glyph glyph-name="Ecircumflex" unicode="&#xca;" horiz-adv-x="484" 
d="M20 0l135 696h401l-26 -134h-257l-29 -144h222l-26 -133h-222l-28 -151h257l-26 -134h-401zM369 807l-153 -81l-42 52l167 132h89l114 -131l-59 -54z" />
    <glyph glyph-name="Edieresis" unicode="&#xcb;" horiz-adv-x="484" 
d="M20 0l135 696h401l-26 -134h-257l-29 -144h222l-26 -133h-222l-28 -151h257l-26 -134h-401zM391 737l26 131h135l-25 -131h-136zM197 737l25 131h136l-26 -131h-135z" />
    <glyph glyph-name="Igrave" unicode="&#xcc;" horiz-adv-x="265" 
d="M20 0l135 696h143l-135 -696h-143zM242 722l-199 107l88 91l165 -136z" />
    <glyph glyph-name="Iacute" unicode="&#xcd;" horiz-adv-x="265" 
d="M20 0l135 696h143l-135 -696h-143zM178 784l194 135l78 -91l-224 -106z" />
    <glyph glyph-name="Icircumflex" unicode="&#xce;" horiz-adv-x="265" 
d="M20 0l135 696h143l-135 -696h-143zM255 807l-153 -81l-42 52l167 132h89l114 -131l-59 -54z" />
    <glyph glyph-name="Idieresis" unicode="&#xcf;" horiz-adv-x="265" 
d="M20 0l135 696h143l-135 -696h-143zM266 737l26 131h135l-25 -131h-136zM72 737l25 131h136l-26 -131h-135z" />
    <glyph glyph-name="Eth" unicode="&#xd0;" horiz-adv-x="552" 
d="M380 696c44 0 81.834 -8.66895 113.501 -26.002s51.167 -46 58.5 -86c4.66699 -23.333 5.33398 -52.166 2.00098 -86.499s-8.66602 -72.5 -15.999 -114.5c-11.333 -64 -21.5 -117 -30.5 -159s-21.167 -76.667 -36.5 -104c-13.333 -23.333 -28.333 -42.666 -45 -57.999
s-34.834 -27.5 -54.501 -36.5s-40.334 -15.5 -62.001 -19.5s-43.834 -6 -66.501 -6h-222l56 291h-57l18 97h58l60 308h224zM402.001 432.998c4 20 6.33105 37.999 6.99805 53.999s-1.5 29.5 -6.5 40.5s-13 19.333 -24 25s-25.833 8.5 -44.5 8.5h-60l-34 -173h63l-9.5 -48.5
l-9.5 -48.5h-63l-30 -157h61c36.667 0 62.834 9.33301 78.501 28s26.834 44.334 33.501 77.001z" />
    <glyph glyph-name="Ntilde" unicode="&#xd1;" horiz-adv-x="589" 
d="M367 0l-83 241.999l-45 149h-3l-75 -391h-142l135 696h126l69 -221c0.666992 -5.33301 4 -17.166 10 -35.499l19.5 -59c7 -21 13.333 -40.833 19 -59.5s8.5 -31 8.5 -37h4l76 412h141l-135 -696h-125zM346 872.999c12 0 23.4971 -2.33203 34.4971 -6.99902
s21.667 -9.5 32 -14.5l29 -14c9 -4.33301 17.167 -6.5 24.5 -6.5c10 0 19.833 2.5 29.5 7.5s22.834 16.167 39.501 33.5l62 -37c-20 -39.333 -40.833 -66.333 -62.5 -81s-44.167 -22 -67.5 -22c-12.667 0 -24.5 2.16699 -35.5 6.5s-21.5 9 -31.5 14l-28.5 14
c-9 4.33301 -17.833 6.5 -26.5 6.5c-9.33301 0 -19.5 -2.83301 -30.5 -8.5s-24.833 -17.167 -41.5 -34.5l-60 41c22.667 39.333 44.834 66.166 66.501 80.499s43.834 21.5 66.501 21.5z" />
    <glyph glyph-name="Ograve" unicode="&#xd2;" horiz-adv-x="535" 
d="M492 219c-6.66699 -34.667 -16 -65.8262 -28 -93.4932s-27.333 -51.334 -46 -71.001s-41.167 -34.667 -67.5 -45s-56.833 -15.5 -91.5 -15.5c-45.333 0 -82.833 6.83301 -112.5 20.5s-52.834 32.167 -69.501 55.5s-27.167 50.166 -31.5 80.499
s-3.16602 62.166 3.50098 95.499l47 232c4.66699 26 12.667 52.167 24 78.5s26.666 50.166 45.999 71.499s43.333 38.833 72 52.5s63.334 20.5 104.001 20.5c38 0 70.833 -6.83301 98.5 -20.5s49.667 -31.834 66 -54.501s27.333 -48.334 33 -77.001
s5.5 -58.334 -0.5 -89.001zM396 478.008c1.33301 8 1.33398 16.667 0.000976562 26s-4.66602 18.333 -9.99902 27s-12.833 15.834 -22.5 21.501s-21.834 8.5 -36.501 8.5s-27 -2.5 -37 -7.5s-18.333 -11.333 -25 -19s-11.834 -16 -15.501 -25s-6.16699 -17.5 -7.5 -25.5
l-49 -253c-6 -32 -2.83301 -56.167 9.5 -72.5s32.833 -24.5 61.5 -24.5c20.667 0 38 6.66699 52 20s23.333 31.666 28 54.999zM398.001 722.008l-199 107l88 91l165 -136z" />
    <glyph glyph-name="Oacute" unicode="&#xd3;" horiz-adv-x="535" 
d="M492 219c-6.66699 -34.667 -16 -65.8262 -28 -93.4932s-27.333 -51.334 -46 -71.001s-41.167 -34.667 -67.5 -45s-56.833 -15.5 -91.5 -15.5c-45.333 0 -82.833 6.83301 -112.5 20.5s-52.834 32.167 -69.501 55.5s-27.167 50.166 -31.5 80.499
s-3.16602 62.166 3.50098 95.499l47 232c4.66699 26 12.667 52.167 24 78.5s26.666 50.166 45.999 71.499s43.333 38.833 72 52.5s63.334 20.5 104.001 20.5c38 0 70.833 -6.83301 98.5 -20.5s49.667 -31.834 66 -54.501s27.333 -48.334 33 -77.001
s5.5 -58.334 -0.5 -89.001zM396 478.008c1.33301 8 1.33398 16.667 0.000976562 26s-4.66602 18.333 -9.99902 27s-12.833 15.834 -22.5 21.501s-21.834 8.5 -36.501 8.5s-27 -2.5 -37 -7.5s-18.333 -11.333 -25 -19s-11.834 -16 -15.501 -25s-6.16699 -17.5 -7.5 -25.5
l-49 -253c-6 -32 -2.83301 -56.167 9.5 -72.5s32.833 -24.5 61.5 -24.5c20.667 0 38 6.66699 52 20s23.333 31.666 28 54.999zM305.001 784.008l194 135l78 -91l-224 -106z" />
    <glyph glyph-name="Ocircumflex" unicode="&#xd4;" horiz-adv-x="535" 
d="M492 219c-6.66699 -34.667 -16 -65.8262 -28 -93.4932s-27.333 -51.334 -46 -71.001s-41.167 -34.667 -67.5 -45s-56.833 -15.5 -91.5 -15.5c-45.333 0 -82.833 6.83301 -112.5 20.5s-52.834 32.167 -69.501 55.5s-27.167 50.166 -31.5 80.499
s-3.16602 62.166 3.50098 95.499l47 232c4.66699 26 12.667 52.167 24 78.5s26.666 50.166 45.999 71.499s43.333 38.833 72 52.5s63.334 20.5 104.001 20.5c38 0 70.833 -6.83301 98.5 -20.5s49.667 -31.834 66 -54.501s27.333 -48.334 33 -77.001
s5.5 -58.334 -0.5 -89.001zM396 478.008c1.33301 8 1.33398 16.667 0.000976562 26s-4.66602 18.333 -9.99902 27s-12.833 15.834 -22.5 21.501s-21.834 8.5 -36.501 8.5s-27 -2.5 -37 -7.5s-18.333 -11.333 -25 -19s-11.834 -16 -15.501 -25s-6.16699 -17.5 -7.5 -25.5
l-49 -253c-6 -32 -2.83301 -56.167 9.5 -72.5s32.833 -24.5 61.5 -24.5c20.667 0 38 6.66699 52 20s23.333 31.666 28 54.999zM384.001 807.008l-153 -81l-42 52l167 132h89l114 -131l-59 -54z" />
    <glyph glyph-name="Otilde" unicode="&#xd5;" horiz-adv-x="535" 
d="M492 219c-6.66699 -34.667 -16 -65.8262 -28 -93.4932s-27.333 -51.334 -46 -71.001s-41.167 -34.667 -67.5 -45s-56.833 -15.5 -91.5 -15.5c-45.333 0 -82.833 6.83301 -112.5 20.5s-52.834 32.167 -69.501 55.5s-27.167 50.166 -31.5 80.499
s-3.16602 62.166 3.50098 95.499l47 232c4.66699 26 12.667 52.167 24 78.5s26.666 50.166 45.999 71.499s43.333 38.833 72 52.5s63.334 20.5 104.001 20.5c38 0 70.833 -6.83301 98.5 -20.5s49.667 -31.834 66 -54.501s27.333 -48.334 33 -77.001
s5.5 -58.334 -0.5 -89.001zM396 478.008c1.33301 8 1.33398 16.667 0.000976562 26s-4.66602 18.333 -9.99902 27s-12.833 15.834 -22.5 21.501s-21.834 8.5 -36.501 8.5s-27 -2.5 -37 -7.5s-18.333 -11.333 -25 -19s-11.834 -16 -15.501 -25s-6.16699 -17.5 -7.5 -25.5
l-49 -253c-6 -32 -2.83301 -56.167 9.5 -72.5s32.833 -24.5 61.5 -24.5c20.667 0 38 6.66699 52 20s23.333 31.666 28 54.999zM317.001 873.008c12 0 23.4971 -2.33203 34.4971 -6.99902s21.667 -9.5 32 -14.5l29 -14c9 -4.33301 17.167 -6.5 24.5 -6.5
c10 0 19.833 2.5 29.5 7.5s22.834 16.167 39.501 33.5l62 -37c-20 -39.333 -40.833 -66.333 -62.5 -81s-44.167 -22 -67.5 -22c-12.667 0 -24.5 2.16699 -35.5 6.5s-21.5 9 -31.5 14l-28.5 14c-9 4.33301 -17.833 6.5 -26.5 6.5c-9.33301 0 -19.5 -2.83301 -30.5 -8.5
s-24.833 -17.167 -41.5 -34.5l-60 41c22.667 39.333 44.834 66.166 66.501 80.499s43.834 21.5 66.501 21.5z" />
    <glyph glyph-name="Odieresis" unicode="&#xd6;" horiz-adv-x="535" 
d="M492 219c-6.66699 -34.667 -16 -65.8262 -28 -93.4932s-27.333 -51.334 -46 -71.001s-41.167 -34.667 -67.5 -45s-56.833 -15.5 -91.5 -15.5c-45.333 0 -82.833 6.83301 -112.5 20.5s-52.834 32.167 -69.501 55.5s-27.167 50.166 -31.5 80.499
s-3.16602 62.166 3.50098 95.499l47 232c4.66699 26 12.667 52.167 24 78.5s26.666 50.166 45.999 71.499s43.333 38.833 72 52.5s63.334 20.5 104.001 20.5c38 0 70.833 -6.83301 98.5 -20.5s49.667 -31.834 66 -54.501s27.333 -48.334 33 -77.001
s5.5 -58.334 -0.5 -89.001zM396 478.008c1.33301 8 1.33398 16.667 0.000976562 26s-4.66602 18.333 -9.99902 27s-12.833 15.834 -22.5 21.501s-21.834 8.5 -36.501 8.5s-27 -2.5 -37 -7.5s-18.333 -11.333 -25 -19s-11.834 -16 -15.501 -25s-6.16699 -17.5 -7.5 -25.5
l-49 -253c-6 -32 -2.83301 -56.167 9.5 -72.5s32.833 -24.5 61.5 -24.5c20.667 0 38 6.66699 52 20s23.333 31.666 28 54.999zM399.001 737.008l26 131h135l-25 -131h-136zM205.001 737.008l25 131h136l-26 -131h-135z" />
    <glyph glyph-name="multiply" unicode="&#xd7;" horiz-adv-x="490" 
d="M253 214l-170 -140l-67 85l171 141l-116 147l93 77l116 -147l168 140l68 -87l-168 -138l115 -148l-93 -77z" />
    <glyph glyph-name="Oslash" unicode="&#xd8;" horiz-adv-x="535" 
d="M61 -4c-10.667 8 -21.3311 16.6689 -31.998 26.002l42 56c-14.667 23.333 -23.5 49.166 -26.5 77.499s-1.5 58.5 4.5 90.5l47 232c4.66699 26 12.667 52.167 24 78.5s26.666 50.166 45.999 71.499s43.333 38.833 72 52.5s63.334 20.5 104.001 20.5
c32.667 0 61.167 -5 85.5 -15s45.166 -23.667 62.499 -41l43 58c6 -5.33301 12 -10.166 18 -14.499s11.667 -9.16602 17 -14.499l-50 -66c24.667 -44 31.667 -93.333 21 -148l-47 -241c-6.66699 -34.667 -16 -65.834 -28 -93.501s-27.333 -51.334 -46 -71.001
s-41.167 -34.667 -67.5 -45s-56.833 -15.5 -91.5 -15.5c-36.667 0 -68.334 4.66699 -95.001 14s-48.667 22 -66 38zM196.003 248.002l197.001 266c-3.33301 12 -10.333 22.833 -21 32.5s-25.667 14.5 -45 14.5c-14.667 0 -27 -2.5 -37 -7.5s-18.333 -11.333 -25 -19
s-11.834 -16 -15.501 -25s-6.16699 -17.5 -7.5 -25.5zM387.004 432.002l-193 -257.999c10 -26.667 33.333 -40 70 -40c20.667 0 38 6.66699 52 20s23.333 31.666 28 54.999z" />
    <glyph glyph-name="Ugrave" unicode="&#xd9;" horiz-adv-x="545" 
d="M494 207c-13.333 -67.333 -41 -119.5 -83 -156.5s-96.333 -55.5 -163 -55.5c-31.333 0 -60.5 5 -87.5 15s-49.5 24.5 -67.5 43.5s-30.833 42.167 -38.5 69.5s-8.16699 58 -1.5 92l93 481h143l-93 -475c-5.33301 -28 -1.5 -49.5 11.5 -64.5s30.167 -22.5 51.5 -22.5
c22 0 41.5 6.33301 58.5 19s28.167 32.667 33.5 60l94 483h144zM401 722l-199 107l88 91l165 -136z" />
    <glyph glyph-name="Uacute" unicode="&#xda;" horiz-adv-x="545" 
d="M494 207c-13.333 -67.333 -41 -119.5 -83 -156.5s-96.333 -55.5 -163 -55.5c-31.333 0 -60.5 5 -87.5 15s-49.5 24.5 -67.5 43.5s-30.833 42.167 -38.5 69.5s-8.16699 58 -1.5 92l93 481h143l-93 -475c-5.33301 -28 -1.5 -49.5 11.5 -64.5s30.167 -22.5 51.5 -22.5
c22 0 41.5 6.33301 58.5 19s28.167 32.667 33.5 60l94 483h144zM315 784l194 135l78 -91l-224 -106z" />
    <glyph glyph-name="Ucircumflex" unicode="&#xdb;" horiz-adv-x="545" 
d="M494 207c-13.333 -67.333 -41 -119.5 -83 -156.5s-96.333 -55.5 -163 -55.5c-31.333 0 -60.5 5 -87.5 15s-49.5 24.5 -67.5 43.5s-30.833 42.167 -38.5 69.5s-8.16699 58 -1.5 92l93 481h143l-93 -475c-5.33301 -28 -1.5 -49.5 11.5 -64.5s30.167 -22.5 51.5 -22.5
c22 0 41.5 6.33301 58.5 19s28.167 32.667 33.5 60l94 483h144zM396 807l-153 -81l-42 52l167 132h89l114 -131l-59 -54z" />
    <glyph glyph-name="Udieresis" unicode="&#xdc;" horiz-adv-x="545" 
d="M494 207c-13.333 -67.333 -41 -119.5 -83 -156.5s-96.333 -55.5 -163 -55.5c-31.333 0 -60.5 5 -87.5 15s-49.5 24.5 -67.5 43.5s-30.833 42.167 -38.5 69.5s-8.16699 58 -1.5 92l93 481h143l-93 -475c-5.33301 -28 -1.5 -49.5 11.5 -64.5s30.167 -22.5 51.5 -22.5
c22 0 41.5 6.33301 58.5 19s28.167 32.667 33.5 60l94 483h144zM409 737l26 131h135l-25 -131h-136zM215 737l25 131h136l-26 -131h-135z" />
    <glyph glyph-name="Yacute" unicode="&#xdd;" horiz-adv-x="504" 
d="M298 415l34.002 70.498c11.333 24.333 22.666 47.5 33.999 69.5l75 141h155l-259 -417l-54 -279h-141l27.5 139.5l27.5 139.5l-97 417h151c4.66699 -23.333 8.66699 -45 12 -65l11 -65c2 -11.333 3.83301 -23.666 5.5 -36.999s3.16699 -26.666 4.5 -39.999l4 -39.5
c1.33301 -13 2.66602 -24.5 3.99902 -34.5h6zM290.002 783.998l194 135l78 -91l-224 -106z" />
    <glyph glyph-name="Thorn" unicode="&#xde;" horiz-adv-x="519" 
d="M350 574c57.333 0 103.334 -13.333 138.001 -40s52 -67 52 -121c0 -39.333 -6.5 -76 -19.5 -110s-31 -63.667 -54 -89s-50.833 -45.333 -83.5 -60s-68.334 -22 -107.001 -22h-85l-26 -132h-145l135 696h145l-24 -122h74zM250.001 440l-33.001 -173h65
c14 0 27.833 2.5 41.5 7.5s25.834 12.333 36.501 22s19.167 21.667 25.5 36s9.5 30.5 9.5 48.5c0 20.667 -6 35.667 -18 45s-28.667 14 -50 14h-77z" />
    <glyph glyph-name="germandbls" unicode="&#xdf;" horiz-adv-x="492" 
d="M414 420c21.333 -9.33301 35.6641 -24.3291 42.9971 -44.9961s11 -42.334 11 -65.001c0 -38 -3.66699 -75.833 -11 -113.5s-20.166 -71.334 -38.499 -101.001s-43.166 -53.834 -74.499 -72.501s-71.333 -28 -120 -28h-12c-4 0 -8 0.333008 -12 1l23 118
c16 0 30.5 4.66699 43.5 14s23.833 22.333 32.5 39s15.334 36.834 20.001 60.501s7 49.834 7 78.501c0 15.333 -2.83301 28.333 -8.5 39s-17.5 16.334 -35.5 17.001l20 105c18 0 32.167 7.66699 42.5 23s15.5 34.666 15.5 57.999c0 12.667 -3 24.5 -9 35.5
s-18 16.5 -36 16.5c-11.333 0 -20.5 -2.33301 -27.5 -7s-12.667 -10.834 -17 -18.501s-7.83301 -16.334 -10.5 -26.001s-5 -19.834 -7 -30.501l-100 -518h-141l100 516c6 32.667 14.333 61.834 25 87.501s24.5 47.5 41.5 65.5s37.5 31.833 61.5 41.5s53 14.5 87 14.5
c30 0 55.833 -3.83301 77.5 -11.5s39.667 -18.167 54 -31.5s24.833 -28.833 31.5 -46.5s10 -36.834 10 -57.501c0 -17.333 -2.16699 -34 -6.5 -50s-10.333 -30.833 -18 -44.5s-16.667 -25.5 -27 -35.5s-21.5 -18 -33.5 -24z" />
    <glyph glyph-name="agrave" unicode="&#xe0;" horiz-adv-x="462" 
d="M238 0l8.00195 39h-4c-12 -14 -27.167 -25 -45.5 -33s-34.166 -12 -47.499 -12c-24.667 0 -44.834 3.83301 -60.501 11.5s-27.834 18 -36.501 31s-14.5 28 -17.5 45s-4.5 34.833 -4.5 53.5c0 24 1.83301 49.333 5.5 76s8.16699 51 13.5 73
c8 32.667 17.333 62.167 28 88.5s23.667 49 39 68s33.5 33.667 54.5 44s45.5 15.5 73.5 15.5c15.333 0 29.666 -3 42.999 -9s25.333 -17 36 -33c0.666992 0 1.16699 0.166992 1.5 0.5s0.833008 0.5 1.5 0.5l8 35h138l-96 -494h-138zM295.002 537l-152 191l111 48l109 -200z
M214.002 122c12 0 22.1689 4.16699 30.502 12.5s15.166 19.166 20.499 32.499c4 9.33301 7.83301 21.333 11.5 36s6.83398 29.5 9.50098 44.5s4.83398 28.667 6.50098 41s2.5 20.833 2.5 25.5c0 12 -2.33301 23.667 -7 35s-14.667 17 -30 17
c-24.667 0 -42.667 -14.333 -54 -43c-4 -10 -7.83301 -21.833 -11.5 -35.5s-7.16699 -28.167 -10.5 -43.5c-2.66699 -12 -4.83398 -24.333 -6.50098 -37s-2.83398 -25 -3.50098 -37c0 -13.333 2.66699 -24.666 8 -33.999s16.666 -14 33.999 -14z" />
    <glyph glyph-name="aacute" unicode="&#xe1;" horiz-adv-x="462" 
d="M238 0l8.00195 39h-4c-12 -14 -27.167 -25 -45.5 -33s-34.166 -12 -47.499 -12c-24.667 0 -44.834 3.83301 -60.501 11.5s-27.834 18 -36.501 31s-14.5 28 -17.5 45s-4.5 34.833 -4.5 53.5c0 24 1.83301 49.333 5.5 76s8.16699 51 13.5 73
c8 32.667 17.333 62.167 28 88.5s23.667 49 39 68s33.5 33.667 54.5 44s45.5 15.5 73.5 15.5c15.333 0 29.666 -3 42.999 -9s25.333 -17 36 -33c0.666992 0 1.16699 0.166992 1.5 0.5s0.833008 0.5 1.5 0.5l8 35h138l-96 -494h-138zM268.002 570l130 195l111 -48l-171 -183z
M214.002 122c12 0 22.1689 4.16699 30.502 12.5s15.166 19.166 20.499 32.499c4 9.33301 7.83301 21.333 11.5 36s6.83398 29.5 9.50098 44.5s4.83398 28.667 6.50098 41s2.5 20.833 2.5 25.5c0 12 -2.33301 23.667 -7 35s-14.667 17 -30 17
c-24.667 0 -42.667 -14.333 -54 -43c-4 -10 -7.83301 -21.833 -11.5 -35.5s-7.16699 -28.167 -10.5 -43.5c-2.66699 -12 -4.83398 -24.333 -6.50098 -37s-2.83398 -25 -3.50098 -37c0 -13.333 2.66699 -24.666 8 -33.999s16.666 -14 33.999 -14z" />
    <glyph glyph-name="acircumflex" unicode="&#xe2;" horiz-adv-x="462" 
d="M238 0l8.00195 39h-4c-12 -14 -27.167 -25 -45.5 -33s-34.166 -12 -47.499 -12c-24.667 0 -44.834 3.83301 -60.501 11.5s-27.834 18 -36.501 31s-14.5 28 -17.5 45s-4.5 34.833 -4.5 53.5c0 24 1.83301 49.333 5.5 76s8.16699 51 13.5 73
c8 32.667 17.333 62.167 28 88.5s23.667 49 39 68s33.5 33.667 54.5 44s45.5 15.5 73.5 15.5c15.333 0 29.666 -3 42.999 -9s25.333 -17 36 -33c0.666992 0 1.16699 0.166992 1.5 0.5s0.833008 0.5 1.5 0.5l8 35h138l-96 -494h-138zM317.002 625l-155 -104l-44 47l171 157
h91l110 -162l-61 -41zM214.002 122c12 0 22.1689 4.16699 30.502 12.5s15.166 19.166 20.499 32.499c4 9.33301 7.83301 21.333 11.5 36s6.83398 29.5 9.50098 44.5s4.83398 28.667 6.50098 41s2.5 20.833 2.5 25.5c0 12 -2.33301 23.667 -7 35s-14.667 17 -30 17
c-24.667 0 -42.667 -14.333 -54 -43c-4 -10 -7.83301 -21.833 -11.5 -35.5s-7.16699 -28.167 -10.5 -43.5c-2.66699 -12 -4.83398 -24.333 -6.50098 -37s-2.83398 -25 -3.50098 -37c0 -13.333 2.66699 -24.666 8 -33.999s16.666 -14 33.999 -14z" />
    <glyph glyph-name="atilde" unicode="&#xe3;" horiz-adv-x="462" 
d="M238 0l8.00195 39h-4c-12 -14 -27.167 -25 -45.5 -33s-34.166 -12 -47.499 -12c-24.667 0 -44.834 3.83301 -60.501 11.5s-27.834 18 -36.501 31s-14.5 28 -17.5 45s-4.5 34.833 -4.5 53.5c0 24 1.83301 49.333 5.5 76s8.16699 51 13.5 73
c8 32.667 17.333 62.167 28 88.5s23.667 49 39 68s33.5 33.667 54.5 44s45.5 15.5 73.5 15.5c15.333 0 29.666 -3 42.999 -9s25.333 -17 36 -33c0.666992 0 1.16699 0.166992 1.5 0.5s0.833008 0.5 1.5 0.5l8 35h138l-96 -494h-138zM260.002 698
c12 0 23.4971 -2.33203 34.4971 -6.99902s21.667 -9.5 32 -14.5l29 -14c9 -4.33301 17.167 -6.5 24.5 -6.5c10 0 19.833 2.5 29.5 7.5s22.834 16.167 39.501 33.5l62 -37c-20 -39.333 -40.833 -66.333 -62.5 -81s-44.167 -22 -67.5 -22c-12.667 0 -24.5 2.16699 -35.5 6.5
s-21.5 9 -31.5 14l-28.5 14c-9 4.33301 -17.833 6.5 -26.5 6.5c-9.33301 0 -19.5 -2.83301 -30.5 -8.5s-24.833 -17.167 -41.5 -34.5l-60 41c22.667 39.333 44.834 66.166 66.501 80.499s43.834 21.5 66.501 21.5zM213.999 122.001c12 0 22.1689 4.16699 30.502 12.5
s15.166 19.166 20.499 32.499c4 9.33301 7.83301 21.333 11.5 36s6.83398 29.5 9.50098 44.5s4.83398 28.667 6.50098 41s2.5 20.833 2.5 25.5c0 12 -2.33301 23.667 -7 35s-14.667 17 -30 17c-24.667 0 -42.667 -14.333 -54 -43c-4 -10 -7.83301 -21.833 -11.5 -35.5
s-7.16699 -28.167 -10.5 -43.5c-2.66699 -12 -4.83398 -24.333 -6.50098 -37s-2.83398 -25 -3.50098 -37c0 -13.333 2.66699 -24.666 8 -33.999s16.666 -14 33.999 -14z" />
    <glyph glyph-name="adieresis" unicode="&#xe4;" horiz-adv-x="462" 
d="M238 0l8.00195 39h-4c-12 -14 -27.167 -25 -45.5 -33s-34.166 -12 -47.499 -12c-24.667 0 -44.834 3.83301 -60.501 11.5s-27.834 18 -36.501 31s-14.5 28 -17.5 45s-4.5 34.833 -4.5 53.5c0 24 1.83301 49.333 5.5 76s8.16699 51 13.5 73
c8 32.667 17.333 62.167 28 88.5s23.667 49 39 68s33.5 33.667 54.5 44s45.5 15.5 73.5 15.5c15.333 0 29.666 -3 42.999 -9s25.333 -17 36 -33c0.666992 0 1.16699 0.166992 1.5 0.5s0.833008 0.5 1.5 0.5l8 35h138l-96 -494h-138zM214.002 122
c12 0 22.1689 4.16699 30.502 12.5s15.166 19.166 20.499 32.499c4 9.33301 7.83301 21.333 11.5 36s6.83398 29.5 9.50098 44.5s4.83398 28.667 6.50098 41s2.5 20.833 2.5 25.5c0 12 -2.33301 23.667 -7 35s-14.667 17 -30 17c-24.667 0 -42.667 -14.333 -54 -43
c-4 -10 -7.83301 -21.833 -11.5 -35.5s-7.16699 -28.167 -10.5 -43.5c-2.66699 -12 -4.83398 -24.333 -6.50098 -37s-2.83398 -25 -3.50098 -37c0 -13.333 2.66699 -24.666 8 -33.999s16.666 -14 33.999 -14zM335.004 558l25 130h133l-25 -130h-133zM141.004 558l25 130h132
l-25 -130h-132z" />
    <glyph glyph-name="aring" unicode="&#xe5;" horiz-adv-x="462" 
d="M238 0l8.00195 39h-4c-12 -14 -27.167 -25 -45.5 -33s-34.166 -12 -47.499 -12c-24.667 0 -44.834 3.83301 -60.501 11.5s-27.834 18 -36.501 31s-14.5 28 -17.5 45s-4.5 34.833 -4.5 53.5c0 24 1.83301 49.333 5.5 76s8.16699 51 13.5 73
c8 32.667 17.333 62.167 28 88.5s23.667 49 39 68s33.5 33.667 54.5 44s45.5 15.5 73.5 15.5c15.333 0 29.666 -3 42.999 -9s25.333 -17 36 -33c0.666992 0 1.16699 0.166992 1.5 0.5s0.833008 0.5 1.5 0.5l8 35h138l-96 -494h-138zM293.002 523
c-28 0 -51.667 8.33398 -71 25.001s-29 37.667 -29 63c0 17.333 3 33.833 9 49.5s14.5 29.5 25.5 41.5s24.5 21.5 40.5 28.5s33.667 10.5 53 10.5c14 0 27.167 -2.16699 39.5 -6.5s23 -10.5 32 -18.5s16.167 -17.5 21.5 -28.5s8 -22.833 8 -35.5
c0 -17.333 -3 -33.833 -9 -49.5s-14.5 -29.334 -25.5 -41.001s-24.5 -21 -40.5 -28s-34 -10.5 -54 -10.5zM214.002 122.001c12 0 22.1689 4.16699 30.502 12.5s15.166 19.166 20.499 32.499c4 9.33301 7.83301 21.333 11.5 36s6.83398 29.5 9.50098 44.5
s4.83398 28.667 6.50098 41s2.5 20.833 2.5 25.5c0 12 -2.33301 23.667 -7 35s-14.667 17 -30 17c-24.667 0 -42.667 -14.333 -54 -43c-4 -10 -7.83301 -21.833 -11.5 -35.5s-7.16699 -28.167 -10.5 -43.5c-2.66699 -12 -4.83398 -24.333 -6.50098 -37
s-2.83398 -25 -3.50098 -37c0 -13.333 2.66699 -24.666 8 -33.999s16.666 -14 33.999 -14zM302.004 597.001c10.667 0 20.334 3.83398 29.001 11.501s13 17.5 13 29.5c0 7.33301 -2.83301 13.666 -8.5 18.999s-12.834 8 -21.501 8c-11.333 0 -21.333 -3.83301 -30 -11.5
s-13 -17.167 -13 -28.5c0 -8 3 -14.667 9 -20s13.333 -8 22 -8z" />
    <glyph glyph-name="ae" unicode="&#xe6;" horiz-adv-x="720" 
d="M467 -5c-72 0 -120.999 24.668 -146.999 74.001c-25.333 -25.333 -54.5 -44 -87.5 -56s-63.5 -18 -91.5 -18c-38.667 0 -69.167 8.83301 -91.5 26.5s-33.5 46.167 -33.5 85.5c0 22 3.33301 44.833 10 68.5s18.5 45 35.5 64s40.333 34.667 70 47s67.5 18.5 113.5 18.5
l51 -3c3.33301 15.333 5.16602 25.166 5.49902 29.499s0.5 7.5 0.5 9.5c0 10 -3.33301 18.667 -10 26s-19.667 11 -39 11c-11.333 0 -23.5 -2.5 -36.5 -7.5s-26.167 -16.167 -39.5 -33.5l-97 62c24.667 39.333 55.167 66 91.5 80s74.5 21 114.5 21
c23.333 0 46.833 -2.83301 70.5 -8.5s42.834 -15.167 57.501 -28.5c16 12 34 21.5 54 28.5s42.667 10.5 68 10.5c29.333 0 54.833 -3.5 76.5 -10.5s39.5 -16.333 53.5 -28s24.333 -25.5 31 -41.5s10 -33 10 -51c0 -33.333 -6.5 -61.166 -19.5 -83.499
s-30.333 -40.333 -52 -54s-46 -23.334 -73 -29.001s-54.5 -8.5 -82.5 -8.5h-17c-5.33301 0 -11 0.333008 -17 1c-1.33301 -6 -2.33301 -12.333 -3 -19s-1 -12 -1 -16c0.666992 -12.667 5.16699 -22.334 13.5 -29.001s17.833 -10 28.5 -10c14 0 27.5 3.16699 40.5 9.5
s26.5 17.833 40.5 34.5l106 -67c-24.667 -37.333 -54.834 -64.166 -90.501 -80.499s-73.5 -24.5 -113.5 -24.5zM201.001 117.001c8 0 16 1.16797 24 3.50098s15.5 6.66602 22.5 12.999s13.167 15.166 18.5 26.499s9 26 11 44c-5.33301 0.666992 -10.5 1.16699 -15.5 1.5
s-9.83301 0.5 -14.5 0.5c-32 0 -55 -4.66699 -69 -14s-21 -23.333 -21 -42c0 -9.33301 3.5 -17.166 10.5 -23.499s18.167 -9.5 33.5 -9.5zM531.001 375.002c-15.333 0 -28.5 -6.50098 -39.5 -19.501s-19.5 -30.5 -25.5 -52.5c4.66699 -1.33301 9.5 -1.66602 14.5 -0.999023
s9.5 1 13.5 1c28 1.33301 47 6.33301 57 15s15 19 15 31c0 7.33301 -2.66699 13.5 -8 18.5s-14.333 7.5 -27 7.5z" />
    <glyph glyph-name="ccedilla" unicode="&#xe7;" horiz-adv-x="411" 
d="M379 109c-18 -32 -40.002 -57.5029 -66.002 -76.5029s-56 -30.833 -90 -35.5l-8 -16.5c-2.66699 -5.66699 -5.66699 -11.167 -9 -16.5c28.667 -3.33301 48.5 -12.833 59.5 -28.5s16.5 -33.5 16.5 -53.5c0 -11.333 -2.33301 -22.666 -7 -33.999
s-12.167 -21.666 -22.5 -30.999s-23.333 -17 -39 -23s-34.5 -9 -56.5 -9c-13.333 0 -29.833 1.83301 -49.5 5.5s-38.167 10.5 -55.5 20.5l34 60c14.667 -7.33301 27.5 -12.166 38.5 -14.499s21.167 -3.5 30.5 -3.5c12 0 21.667 2.66699 29 8s11 13.333 11 24
c0 6 -2.5 11 -7.5 15s-11.167 6 -18.5 6c-5.33301 0 -9.66602 -0.666992 -12.999 -2l-34 24l36 70c-24 3.33301 -44.167 10.333 -60.5 21s-29.5 23.834 -39.5 39.501s-17.333 33.5 -22 53.5s-7 41 -7 63c0 39.333 4.33301 78.333 13 117s22.5 73.5 41.5 104.5
s43.833 56.167 74.5 75.5s68 29 112 29c41.333 0 76 -9.83301 104 -29.5s44.667 -48.5 50 -86.5l-118 -56c-4 16 -10 27.5 -18 34.5s-16.667 10.5 -26 10.5c-13.333 0 -24.666 -3.16699 -33.999 -9.5s-17.333 -15 -24 -26s-12 -23.833 -16 -38.5
s-7.66699 -30.334 -11 -47.001c-5.33301 -26 -8.33301 -49 -9 -69c0 -17.333 2.83301 -31.833 8.5 -43.5s18.5 -17.5 38.5 -17.5c10 0 20 3.16699 30 9.5s20.333 17.5 31 33.5l103 -57v0z" />
    <glyph glyph-name="egrave" unicode="&#xe8;" horiz-adv-x="457" 
d="M260 375c-15.333 0 -28.5 -6.50098 -39.5 -19.501s-19.5 -30.5 -25.5 -52.5c4.66699 -1.33301 9.5 -1.66602 14.5 -0.999023s9.5 1 13.5 1c28 1.33301 47 6.33301 57 15s15 19 15 31c0 7.33301 -2.66699 13.5 -8 18.5s-14.333 7.5 -27 7.5zM196 -5.00098
c-54 0 -95.166 13.834 -123.499 41.501s-42.5 69.5 -42.5 125.5c0 37.333 3.83301 76.166 11.5 116.499s20.5 77 38.5 110s42 60.167 72 81.5s67.667 32 113 32c29.333 0 54.833 -3.5 76.5 -10.5s39.5 -16.333 53.5 -28s24.333 -25.5 31 -41.5s10 -33 10 -51
c0 -33.333 -6.5 -61.166 -19.5 -83.499s-30.333 -40.333 -52 -54s-46 -23.334 -73 -29.001s-54.5 -8.5 -82.5 -8.5h-17c-5.33301 0 -11 0.333008 -17 1c-1.33301 -6 -2.33301 -12.333 -3 -19s-1 -12 -1 -16c0.666992 -12.667 5.16699 -22.334 13.5 -29.001
s17.833 -10 28.5 -10c14 0 27.5 3.16699 40.5 9.5s26.5 17.833 40.5 34.5l106 -67c-24.667 -37.333 -54.834 -64.166 -90.501 -80.499s-73.5 -24.5 -113.5 -24.5zM297.001 537l-152 191l111 48l109 -200z" />
    <glyph glyph-name="eacute" unicode="&#xe9;" horiz-adv-x="457" 
d="M260 375c-15.333 0 -28.5 -6.50098 -39.5 -19.501s-19.5 -30.5 -25.5 -52.5c4.66699 -1.33301 9.5 -1.66602 14.5 -0.999023s9.5 1 13.5 1c28 1.33301 47 6.33301 57 15s15 19 15 31c0 7.33301 -2.66699 13.5 -8 18.5s-14.333 7.5 -27 7.5zM196 -5.00098
c-54 0 -95.166 13.834 -123.499 41.501s-42.5 69.5 -42.5 125.5c0 37.333 3.83301 76.166 11.5 116.499s20.5 77 38.5 110s42 60.167 72 81.5s67.667 32 113 32c29.333 0 54.833 -3.5 76.5 -10.5s39.5 -16.333 53.5 -28s24.333 -25.5 31 -41.5s10 -33 10 -51
c0 -33.333 -6.5 -61.166 -19.5 -83.499s-30.333 -40.333 -52 -54s-46 -23.334 -73 -29.001s-54.5 -8.5 -82.5 -8.5h-17c-5.33301 0 -11 0.333008 -17 1c-1.33301 -6 -2.33301 -12.333 -3 -19s-1 -12 -1 -16c0.666992 -12.667 5.16699 -22.334 13.5 -29.001
s17.833 -10 28.5 -10c14 0 27.5 3.16699 40.5 9.5s26.5 17.833 40.5 34.5l106 -67c-24.667 -37.333 -54.834 -64.166 -90.501 -80.499s-73.5 -24.5 -113.5 -24.5zM228.001 570l130 195l111 -48l-171 -183z" />
    <glyph glyph-name="ecircumflex" unicode="&#xea;" horiz-adv-x="457" 
d="M260 375c-15.333 0 -28.5 -6.50098 -39.5 -19.501s-19.5 -30.5 -25.5 -52.5c4.66699 -1.33301 9.5 -1.66602 14.5 -0.999023s9.5 1 13.5 1c28 1.33301 47 6.33301 57 15s15 19 15 31c0 7.33301 -2.66699 13.5 -8 18.5s-14.333 7.5 -27 7.5zM196 -5.00098
c-54 0 -95.166 13.834 -123.499 41.501s-42.5 69.5 -42.5 125.5c0 37.333 3.83301 76.166 11.5 116.499s20.5 77 38.5 110s42 60.167 72 81.5s67.667 32 113 32c29.333 0 54.833 -3.5 76.5 -10.5s39.5 -16.333 53.5 -28s24.333 -25.5 31 -41.5s10 -33 10 -51
c0 -33.333 -6.5 -61.166 -19.5 -83.499s-30.333 -40.333 -52 -54s-46 -23.334 -73 -29.001s-54.5 -8.5 -82.5 -8.5h-17c-5.33301 0 -11 0.333008 -17 1c-1.33301 -6 -2.33301 -12.333 -3 -19s-1 -12 -1 -16c0.666992 -12.667 5.16699 -22.334 13.5 -29.001
s17.833 -10 28.5 -10c14 0 27.5 3.16699 40.5 9.5s26.5 17.833 40.5 34.5l106 -67c-24.667 -37.333 -54.834 -64.166 -90.501 -80.499s-73.5 -24.5 -113.5 -24.5zM303.001 625l-155 -104l-44 47l171 157h91l110 -162l-61 -41z" />
    <glyph glyph-name="edieresis" unicode="&#xeb;" horiz-adv-x="457" 
d="M260 375c-15.333 0 -28.5 -6.50098 -39.5 -19.501s-19.5 -30.5 -25.5 -52.5c4.66699 -1.33301 9.5 -1.66602 14.5 -0.999023s9.5 1 13.5 1c28 1.33301 47 6.33301 57 15s15 19 15 31c0 7.33301 -2.66699 13.5 -8 18.5s-14.333 7.5 -27 7.5zM196 -5.00098
c-54 0 -95.166 13.834 -123.499 41.501s-42.5 69.5 -42.5 125.5c0 37.333 3.83301 76.166 11.5 116.499s20.5 77 38.5 110s42 60.167 72 81.5s67.667 32 113 32c29.333 0 54.833 -3.5 76.5 -10.5s39.5 -16.333 53.5 -28s24.333 -25.5 31 -41.5s10 -33 10 -51
c0 -33.333 -6.5 -61.166 -19.5 -83.499s-30.333 -40.333 -52 -54s-46 -23.334 -73 -29.001s-54.5 -8.5 -82.5 -8.5h-17c-5.33301 0 -11 0.333008 -17 1c-1.33301 -6 -2.33301 -12.333 -3 -19s-1 -12 -1 -16c0.666992 -12.667 5.16699 -22.334 13.5 -29.001
s17.833 -10 28.5 -10c14 0 27.5 3.16699 40.5 9.5s26.5 17.833 40.5 34.5l106 -67c-24.667 -37.333 -54.834 -64.166 -90.501 -80.499s-73.5 -24.5 -113.5 -24.5zM325.001 558l25 130h133l-25 -130h-133zM131.001 558l25 130h132l-25 -130h-132z" />
    <glyph glyph-name="igrave" unicode="&#xec;" horiz-adv-x="297" 
d="M66 0l96 495h138l-96 -495h-138zM222 537l-152 191l111 48l109 -200z" />
    <glyph glyph-name="iacute" unicode="&#xed;" horiz-adv-x="245" 
d="M4 0l96 495h138l-96 -495h-138zM137 570l130 195l111 -48l-171 -183z" />
    <glyph glyph-name="icircumflex" unicode="&#xee;" horiz-adv-x="320" 
d="M48 0l96 495h138l-96 -495h-138zM246 625l-155 -104l-44 47l171 157h91l110 -162l-61 -41z" />
    <glyph glyph-name="idieresis" unicode="&#xef;" horiz-adv-x="316" 
d="M49 0l96 495h138l-96 -495h-138zM261 558l25 130h133l-25 -130h-133zM67 558l25 130h132l-25 -130h-132z" />
    <glyph glyph-name="eth" unicode="&#xf0;" horiz-adv-x="469" 
d="M317 592c-12.667 12.667 -27.332 22.834 -43.999 30.501s-35.667 12.167 -57 13.5l26 98c38.667 -4 71.334 -12.833 98.001 -26.5s48.667 -30.5 66 -50.5l70 50l33 -46l-71 -52c10.667 -22 18.5 -45.667 23.5 -71s8 -51 9 -77s0.333008 -51.833 -2 -77.5
s-5.16602 -49.834 -8.49902 -72.501c-6 -36.667 -14 -73.834 -24 -111.501s-24.333 -71.667 -43 -102s-42.834 -55.166 -72.501 -74.499s-67.167 -29 -112.5 -29c-37.333 0 -68 6 -92 18s-42.667 28.5 -56 49.5s-21.666 46.167 -24.999 75.5s-2.66602 61 2.00098 95
c3.33301 22.667 9 47.334 17 74.001s17.667 49.667 29 69c18.667 31.333 41.667 55.666 69 72.999s61 26 101 26c7.33301 0 16.166 -0.833008 26.499 -2.5s20.666 -4.5 30.999 -8.5s20.166 -9.16699 29.499 -15.5s17 -13.833 23 -22.5h2c0.666992 0 1 0.333008 1 1
c5.33301 43.333 -0.333984 83 -17.001 119l-61 -44l-30 49zM250.002 346c-16 0 -30.001 -8.33105 -42.001 -24.998s-22.333 -47.667 -31 -93c-2.66699 -14.667 -4.5 -28.334 -5.5 -41.001s-0.166992 -23.834 2.5 -33.501s7.16699 -17.167 13.5 -22.5s15.5 -8 27.5 -8
c19.333 0 33.833 8.66699 43.5 26s18.834 47.333 27.501 90c6.66699 34 7.66699 60.333 3 79s-17.667 28 -39 28z" />
    <glyph glyph-name="ntilde" unicode="&#xf1;" horiz-adv-x="477" 
d="M244 495l-7.99707 -40.9971l4 -1c13.333 14 29.666 25.333 48.999 34s37.666 13 54.999 13c24.667 0 45.167 -3.83301 61.5 -11.5s28.666 -18.334 36.999 -32.001s13.333 -29.834 15 -48.501s0.166992 -39.334 -4.5 -62.001l-66 -347h-139l61 314
c3.33301 17.333 1.83301 31 -4.5 41s-17.5 15 -33.5 15c-15.333 0 -28.833 -5.5 -40.5 -16.5s-19.5 -25.833 -23.5 -44.5l-59 -309h-138l97 496h137zM248.003 698.003c12 0 23.4971 -2.33203 34.4971 -6.99902s21.667 -9.5 32 -14.5l29 -14
c9 -4.33301 17.167 -6.5 24.5 -6.5c10 0 19.833 2.5 29.5 7.5s22.834 16.167 39.501 33.5l62 -37c-20 -39.333 -40.833 -66.333 -62.5 -81s-44.167 -22 -67.5 -22c-12.667 0 -24.5 2.16699 -35.5 6.5s-21.5 9 -31.5 14l-28.5 14c-9 4.33301 -17.833 6.5 -26.5 6.5
c-9.33301 0 -19.5 -2.83301 -30.5 -8.5s-24.833 -17.167 -41.5 -34.5l-60 41c22.667 39.333 44.834 66.166 66.501 80.499s43.834 21.5 66.501 21.5z" />
    <glyph glyph-name="ograve" unicode="&#xf2;" horiz-adv-x="459" 
d="M276 501c30.667 0 56.668 -4.5 78.001 -13.5s38.666 -21.167 51.999 -36.5s23.166 -33.166 29.499 -53.499s9.5 -41.5 9.5 -63.5c0 -20.667 -1.5 -41.834 -4.5 -63.501s-6.5 -41.834 -10.5 -60.501c-7.33301 -32 -16.666 -61.333 -27.999 -88s-26 -49.5 -44 -68.5
s-39.833 -33.667 -65.5 -44s-56.5 -15.5 -92.5 -15.5c-34 0 -61.833 5 -83.5 15s-38.667 23.333 -51 40s-20.666 35.834 -24.999 57.501s-6.5 44.167 -6.5 67.5c0 14.667 1.16699 33.167 3.5 55.5s6.16602 43.5 11.499 63.5c9.33301 38 22.166 71.833 38.499 101.5
s37.5 53.5 63.5 71.5c34.667 23.333 76.334 35 125.001 35zM264.001 374c-18 0 -32.499 -7.83301 -43.499 -23.5s-21.167 -39.5 -30.5 -71.5c-2 -8 -4.16699 -17.333 -6.5 -28s-4.16602 -21.334 -5.49902 -32.001s-2.5 -20.5 -3.5 -29.5s-1.5 -15.5 -1.5 -19.5
c0 -12.667 2.66699 -23.667 8 -33s16.666 -14 33.999 -14c7.33301 0 14.166 1.83301 20.499 5.5s11.833 7.83398 16.5 12.501c6 6 11.833 15.333 17.5 28s10.834 27.167 15.501 43.5s8.5 33.333 11.5 51s4.83301 34.167 5.5 49.5c0.666992 14.667 -1.33301 28.5 -6 41.5
s-15.334 19.5 -32.001 19.5zM289.002 537l-152 191l111 48l109 -200z" />
    <glyph glyph-name="oacute" unicode="&#xf3;" horiz-adv-x="459" 
d="M276 501c30.667 0 56.668 -4.5 78.001 -13.5s38.666 -21.167 51.999 -36.5s23.166 -33.166 29.499 -53.499s9.5 -41.5 9.5 -63.5c0 -20.667 -1.5 -41.834 -4.5 -63.501s-6.5 -41.834 -10.5 -60.501c-7.33301 -32 -16.666 -61.333 -27.999 -88s-26 -49.5 -44 -68.5
s-39.833 -33.667 -65.5 -44s-56.5 -15.5 -92.5 -15.5c-34 0 -61.833 5 -83.5 15s-38.667 23.333 -51 40s-20.666 35.834 -24.999 57.501s-6.5 44.167 -6.5 67.5c0 14.667 1.16699 33.167 3.5 55.5s6.16602 43.5 11.499 63.5c9.33301 38 22.166 71.833 38.499 101.5
s37.5 53.5 63.5 71.5c34.667 23.333 76.334 35 125.001 35zM264.001 374c-18 0 -32.499 -7.83301 -43.499 -23.5s-21.167 -39.5 -30.5 -71.5c-2 -8 -4.16699 -17.333 -6.5 -28s-4.16602 -21.334 -5.49902 -32.001s-2.5 -20.5 -3.5 -29.5s-1.5 -15.5 -1.5 -19.5
c0 -12.667 2.66699 -23.667 8 -33s16.666 -14 33.999 -14c7.33301 0 14.166 1.83301 20.499 5.5s11.833 7.83398 16.5 12.501c6 6 11.833 15.333 17.5 28s10.834 27.167 15.501 43.5s8.5 33.333 11.5 51s4.83301 34.167 5.5 49.5c0.666992 14.667 -1.33301 28.5 -6 41.5
s-15.334 19.5 -32.001 19.5zM236.002 570l130 195l111 -48l-171 -183z" />
    <glyph glyph-name="ocircumflex" unicode="&#xf4;" horiz-adv-x="459" 
d="M276 501c30.667 0 56.668 -4.5 78.001 -13.5s38.666 -21.167 51.999 -36.5s23.166 -33.166 29.499 -53.499s9.5 -41.5 9.5 -63.5c0 -20.667 -1.5 -41.834 -4.5 -63.501s-6.5 -41.834 -10.5 -60.501c-7.33301 -32 -16.666 -61.333 -27.999 -88s-26 -49.5 -44 -68.5
s-39.833 -33.667 -65.5 -44s-56.5 -15.5 -92.5 -15.5c-34 0 -61.833 5 -83.5 15s-38.667 23.333 -51 40s-20.666 35.834 -24.999 57.501s-6.5 44.167 -6.5 67.5c0 14.667 1.16699 33.167 3.5 55.5s6.16602 43.5 11.499 63.5c9.33301 38 22.166 71.833 38.499 101.5
s37.5 53.5 63.5 71.5c34.667 23.333 76.334 35 125.001 35zM264.001 374c-18 0 -32.499 -7.83301 -43.499 -23.5s-21.167 -39.5 -30.5 -71.5c-2 -8 -4.16699 -17.333 -6.5 -28s-4.16602 -21.334 -5.49902 -32.001s-2.5 -20.5 -3.5 -29.5s-1.5 -15.5 -1.5 -19.5
c0 -12.667 2.66699 -23.667 8 -33s16.666 -14 33.999 -14c7.33301 0 14.166 1.83301 20.499 5.5s11.833 7.83398 16.5 12.501c6 6 11.833 15.333 17.5 28s10.834 27.167 15.501 43.5s8.5 33.333 11.5 51s4.83301 34.167 5.5 49.5c0.666992 14.667 -1.33301 28.5 -6 41.5
s-15.334 19.5 -32.001 19.5zM306.002 625l-155 -104l-44 47l171 157h91l110 -162l-61 -41z" />
    <glyph glyph-name="otilde" unicode="&#xf5;" horiz-adv-x="459" 
d="M276 501c30.667 0 56.668 -4.5 78.001 -13.5s38.666 -21.167 51.999 -36.5s23.166 -33.166 29.499 -53.499s9.5 -41.5 9.5 -63.5c0 -20.667 -1.5 -41.834 -4.5 -63.501s-6.5 -41.834 -10.5 -60.501c-7.33301 -32 -16.666 -61.333 -27.999 -88s-26 -49.5 -44 -68.5
s-39.833 -33.667 -65.5 -44s-56.5 -15.5 -92.5 -15.5c-34 0 -61.833 5 -83.5 15s-38.667 23.333 -51 40s-20.666 35.834 -24.999 57.501s-6.5 44.167 -6.5 67.5c0 14.667 1.16699 33.167 3.5 55.5s6.16602 43.5 11.499 63.5c9.33301 38 22.166 71.833 38.499 101.5
s37.5 53.5 63.5 71.5c34.667 23.333 76.334 35 125.001 35zM264.001 374c-18 0 -32.499 -7.83301 -43.499 -23.5s-21.167 -39.5 -30.5 -71.5c-2 -8 -4.16699 -17.333 -6.5 -28s-4.16602 -21.334 -5.49902 -32.001s-2.5 -20.5 -3.5 -29.5s-1.5 -15.5 -1.5 -19.5
c0 -12.667 2.66699 -23.667 8 -33s16.666 -14 33.999 -14c7.33301 0 14.166 1.83301 20.499 5.5s11.833 7.83398 16.5 12.501c6 6 11.833 15.333 17.5 28s10.834 27.167 15.501 43.5s8.5 33.333 11.5 51s4.83301 34.167 5.5 49.5c0.666992 14.667 -1.33301 28.5 -6 41.5
s-15.334 19.5 -32.001 19.5zM248.002 700c12 0 23.4971 -2.33203 34.4971 -6.99902s21.667 -9.5 32 -14.5l29 -14c9 -4.33301 17.167 -6.5 24.5 -6.5c10 0 19.833 2.5 29.5 7.5s22.834 16.167 39.501 33.5l62 -37c-20 -39.333 -40.833 -66.333 -62.5 -81
s-44.167 -22 -67.5 -22c-12.667 0 -24.5 2.16699 -35.5 6.5s-21.5 9 -31.5 14l-28.5 14c-9 4.33301 -17.833 6.5 -26.5 6.5c-9.33301 0 -19.5 -2.83301 -30.5 -8.5s-24.833 -17.167 -41.5 -34.5l-60 41c22.667 39.333 44.834 66.166 66.501 80.499s43.834 21.5 66.501 21.5z
" />
    <glyph glyph-name="odieresis" unicode="&#xf6;" horiz-adv-x="459" 
d="M276 501c30.667 0 56.668 -4.5 78.001 -13.5s38.666 -21.167 51.999 -36.5s23.166 -33.166 29.499 -53.499s9.5 -41.5 9.5 -63.5c0 -20.667 -1.5 -41.834 -4.5 -63.501s-6.5 -41.834 -10.5 -60.501c-7.33301 -32 -16.666 -61.333 -27.999 -88s-26 -49.5 -44 -68.5
s-39.833 -33.667 -65.5 -44s-56.5 -15.5 -92.5 -15.5c-34 0 -61.833 5 -83.5 15s-38.667 23.333 -51 40s-20.666 35.834 -24.999 57.501s-6.5 44.167 -6.5 67.5c0 14.667 1.16699 33.167 3.5 55.5s6.16602 43.5 11.499 63.5c9.33301 38 22.166 71.833 38.499 101.5
s37.5 53.5 63.5 71.5c34.667 23.333 76.334 35 125.001 35zM264.001 374c-18 0 -32.499 -7.83301 -43.499 -23.5s-21.167 -39.5 -30.5 -71.5c-2 -8 -4.16699 -17.333 -6.5 -28s-4.16602 -21.334 -5.49902 -32.001s-2.5 -20.5 -3.5 -29.5s-1.5 -15.5 -1.5 -19.5
c0 -12.667 2.66699 -23.667 8 -33s16.666 -14 33.999 -14c7.33301 0 14.166 1.83301 20.499 5.5s11.833 7.83398 16.5 12.501c6 6 11.833 15.333 17.5 28s10.834 27.167 15.501 43.5s8.5 33.333 11.5 51s4.83301 34.167 5.5 49.5c0.666992 14.667 -1.33301 28.5 -6 41.5
s-15.334 19.5 -32.001 19.5zM320.002 559l25 130h133l-25 -130h-133zM126.002 559l25 130h132l-25 -130h-132z" />
    <glyph glyph-name="divide" unicode="&#xf7;" horiz-adv-x="490" 
d="M284 406c-19.333 0 -35.332 6.16504 -47.999 18.498s-19 27.5 -19 45.5c0 12.667 2.83301 24.667 8.5 36s13 21.333 22 30s19.5 15.5 31.5 20.5s24 7.5 36 7.5c20 0 36.333 -6 49 -18s19 -27.667 19 -47c0 -12 -2.83301 -23.667 -8.5 -35s-13.167 -21.166 -22.5 -29.499
s-19.833 -15.166 -31.5 -20.499s-23.834 -8 -36.501 -8zM24.001 238.998l22 111h452l-22 -111h-452zM209.001 20.998c-19.333 0 -35.333 6.16699 -48 18.5s-19 27.833 -19 46.5c0 12 2.83301 23.667 8.5 35s13 21.333 22 30s19.333 15.667 31 21s23.834 8 36.501 8
c20 0 36.333 -6.16699 49 -18.5s19 -27.833 19 -46.5c0 -12.667 -2.83301 -24.667 -8.5 -36s-13.167 -21.333 -22.5 -30s-19.833 -15.5 -31.5 -20.5s-23.834 -7.5 -36.501 -7.5z" />
    <glyph glyph-name="oslash" unicode="&#xf8;" horiz-adv-x="459" 
d="M276 501c23.333 0 44.166 -2.83008 62.499 -8.49707s34.166 -13.5 47.499 -23.5c6.66699 9.33301 13.334 18.166 20.001 26.499l21 26.5l26 -21l-43 -55c12 -15.333 20.833 -32.5 26.5 -51.5s8.5 -39.167 8.5 -60.5c0 -20.667 -1.5 -41.834 -4.5 -63.501
s-6.5 -41.834 -10.5 -60.501c-7.33301 -32 -16.666 -61.333 -27.999 -88s-26 -49.5 -44 -68.5s-39.833 -33.667 -65.5 -44s-56.5 -15.5 -92.5 -15.5c-26 0 -48.167 2.83301 -66.5 8.5s-33.833 13.5 -46.5 23.5l-33 -44l-27 21l18 24c6 8 12.333 16 19 24
c-11.333 16.667 -19.166 35.5 -23.499 56.5s-6.5 43.167 -6.5 66.5c0 14.667 1.16699 33.167 3.5 55.5s6.16602 43.5 11.499 63.5c9.33301 38 22.166 71.833 38.499 101.5s37.5 53.5 63.5 71.5c34.667 23.333 76.334 35 125.001 35zM252 141.003
c5.33301 5.33301 10.667 13.999 16 25.999s10.333 25.667 15 41s8.5 31.333 11.5 48s5.16699 32.667 6.5 48l-124 -161c3.33301 -6 7.83301 -10.833 13.5 -14.5s13.834 -5.5 24.501 -5.5c7.33301 0 14.166 1.83301 20.499 5.5s11.833 7.83398 16.5 12.501zM264.001 374.002
c-18 0 -32.5 -7.83301 -43.5 -23.5s-21.167 -39.5 -30.5 -71.5c-3.33301 -11.333 -6.33301 -24.833 -9 -40.5s-4.66699 -30.167 -6 -43.5l121 158c-2.66699 6 -6.5 11 -11.5 15s-11.833 6 -20.5 6z" />
    <glyph glyph-name="ugrave" unicode="&#xf9;" horiz-adv-x="477" 
d="M244 496l-60.998 -314.004c-3.33301 -17.333 -1.5 -31 5.5 -41s17.5 -15 31.5 -15c14.667 0 28.167 5.5 40.5 16.5s20.166 25.833 23.499 44.5l59 309h139l-96 -496h-139l11 46h-3c-13.333 -15.333 -30.333 -27.666 -51 -36.999s-39.334 -14 -56.001 -14
c-23.333 0 -43 3.83301 -59 11.5s-28.5 18.334 -37.5 32.001s-14.5 29.834 -16.5 48.501s-1 39.334 3 62.001l67 347h139zM288.002 536.996l-152 191l111 48l109 -200z" />
    <glyph glyph-name="uacute" unicode="&#xfa;" horiz-adv-x="477" 
d="M244 496l-60.998 -314.004c-3.33301 -17.333 -1.5 -31 5.5 -41s17.5 -15 31.5 -15c14.667 0 28.167 5.5 40.5 16.5s20.166 25.833 23.499 44.5l59 309h139l-96 -496h-139l11 46h-3c-13.333 -15.333 -30.333 -27.666 -51 -36.999s-39.334 -14 -56.001 -14
c-23.333 0 -43 3.83301 -59 11.5s-28.5 18.334 -37.5 32.001s-14.5 29.834 -16.5 48.501s-1 39.334 3 62.001l67 347h139zM244.002 569.996l130 195l111 -48l-171 -183z" />
    <glyph glyph-name="ucircumflex" unicode="&#xfb;" horiz-adv-x="477" 
d="M244 496l-60.998 -314.004c-3.33301 -17.333 -1.5 -31 5.5 -41s17.5 -15 31.5 -15c14.667 0 28.167 5.5 40.5 16.5s20.166 25.833 23.499 44.5l59 309h139l-96 -496h-139l11 46h-3c-13.333 -15.333 -30.333 -27.666 -51 -36.999s-39.334 -14 -56.001 -14
c-23.333 0 -43 3.83301 -59 11.5s-28.5 18.334 -37.5 32.001s-14.5 29.834 -16.5 48.501s-1 39.334 3 62.001l67 347h139zM314.002 624.996l-155 -104l-44 47l171 157h91l110 -162l-61 -41z" />
    <glyph glyph-name="udieresis" unicode="&#xfc;" horiz-adv-x="477" 
d="M244 496l-60.998 -314.004c-3.33301 -17.333 -1.5 -31 5.5 -41s17.5 -15 31.5 -15c14.667 0 28.167 5.5 40.5 16.5s20.166 25.833 23.499 44.5l59 309h139l-96 -496h-139l11 46h-3c-13.333 -15.333 -30.333 -27.666 -51 -36.999s-39.334 -14 -56.001 -14
c-23.333 0 -43 3.83301 -59 11.5s-28.5 18.334 -37.5 32.001s-14.5 29.834 -16.5 48.501s-1 39.334 3 62.001l67 347h139zM330.002 557.996l25 130h133l-25 -130h-133zM136.002 557.996l25 130h132l-25 -130h-132z" />
    <glyph glyph-name="yacute" unicode="&#xfd;" horiz-adv-x="428" 
d="M197 179c21.333 41.333 41.833 89.1699 61.5 143.503s38.167 111.5 55.5 171.5h148c-43.333 -112 -87 -214.833 -131 -308.5s-90 -178.5 -138 -254.5c-28 -44.667 -63 -79.334 -105 -104.001s-88.667 -35.334 -140 -32.001l-1 115c34 3.33301 63.167 13.333 87.5 30
s46.166 44 65.499 82l-59 472h146l6.5 -85c1.66699 -22 2.83398 -40 3.50098 -54s1.16699 -25.333 1.5 -34s0.5 -17.334 0.5 -26.001c0 -18 -0.5 -37.333 -1.5 -58s-2.5 -40 -4.5 -58h4zM209 570.004l130 195l111 -48l-171 -183z" />
    <glyph glyph-name="thorn" unicode="&#xfe;" horiz-adv-x="467" 
d="M-30 -198l25.501 130.501l30 152.5l32.5 164l32.5 164l30 152.5l25.5 130.5h138l-50 -236l3 -2c14.667 15.333 29.667 26.166 45 32.499s31.666 9.5 48.999 9.5c26.667 0 47.834 -4.5 63.501 -13.5s27.667 -20.833 36 -35.5s13.833 -31.5 16.5 -50.5s4 -38.5 4 -58.5
c0 -8.66699 -0.5 -18.5 -1.5 -29.5s-2.33301 -22.167 -4 -33.5l-5 -33c-1.66699 -10.667 -3.5 -19.667 -5.5 -27c-6 -28 -13.667 -55.333 -23 -82s-21.5 -50.667 -36.5 -72s-33.833 -38.5 -56.5 -51.5s-50.334 -19.5 -83.001 -19.5c-12.667 0 -27 3.16699 -43 9.5
s-28.333 15.5 -37 27.5h-4l-44 -229h-138zM220.001 125.001c12 0 22.166 3.8291 30.499 11.4961s15.166 17.334 20.499 29.001s9.83301 24.334 13.5 38.001s6.83398 26.834 9.50098 39.501c7.33301 32.667 11 60.667 11 84c0 12 -2.83301 21.833 -8.5 29.5
s-15.167 11.5 -28.5 11.5c-11.333 0 -21.333 -3.5 -30 -10.5s-15.667 -16.5 -21 -28.5c-5.33301 -10.667 -9.5 -22.167 -12.5 -34.5l-9.5 -38.5c-7.33301 -33.333 -11 -60.666 -11 -81.999c0 -12 2.33301 -23.167 7 -33.5s14.334 -15.5 29.001 -15.5z" />
    <glyph glyph-name="ydieresis" unicode="&#xff;" horiz-adv-x="428" 
d="M197 179c21.333 41.333 41.833 89.1699 61.5 143.503s38.167 111.5 55.5 171.5h148c-43.333 -112 -87 -214.833 -131 -308.5s-90 -178.5 -138 -254.5c-28 -44.667 -63 -79.334 -105 -104.001s-88.667 -35.334 -140 -32.001l-1 115c34 3.33301 63.167 13.333 87.5 30
s46.166 44 65.499 82l-59 472h146l6.5 -85c1.66699 -22 2.83398 -40 3.50098 -54s1.16699 -25.333 1.5 -34s0.5 -17.334 0.5 -26.001c0 -18 -0.5 -37.333 -1.5 -58s-2.5 -40 -4.5 -58h4zM291 558.004l25 130h133l-25 -130h-133zM97 558.004l25 130h132l-25 -130h-132z" />
    <glyph glyph-name="Amacron" unicode="&#x100;" horiz-adv-x="548" 
d="M350 0l-4 143h-164l-65 -143h-154l334 696h143l63 -696h-153zM337 370v139h-5l-54 -138l-39 -100h99zM231 752l23 114h292l-22 -114h-293z" />
    <glyph glyph-name="amacron" unicode="&#x101;" horiz-adv-x="462" 
d="M238 0l8.00195 39h-4c-12 -14 -27.167 -25 -45.5 -33s-34.166 -12 -47.499 -12c-24.667 0 -44.834 3.83301 -60.501 11.5s-27.834 18 -36.501 31s-14.5 28 -17.5 45s-4.5 34.833 -4.5 53.5c0 24 1.83301 49.333 5.5 76s8.16699 51 13.5 73
c8 32.667 17.333 62.167 28 88.5s23.667 49 39 68s33.5 33.667 54.5 44s45.5 15.5 73.5 15.5c15.333 0 29.666 -3 42.999 -9s25.333 -17 36 -33c0.666992 0 1.16699 0.166992 1.5 0.5s0.833008 0.5 1.5 0.5l8 35h138l-96 -494h-138zM161.002 572l22 114h292l-22 -114h-292z
M214.002 122c12 0 22.1689 4.16699 30.502 12.5s15.166 19.166 20.499 32.499c4 9.33301 7.83301 21.333 11.5 36s6.83398 29.5 9.50098 44.5s4.83398 28.667 6.50098 41s2.5 20.833 2.5 25.5c0 12 -2.33301 23.667 -7 35s-14.667 17 -30 17
c-24.667 0 -42.667 -14.333 -54 -43c-4 -10 -7.83301 -21.833 -11.5 -35.5s-7.16699 -28.167 -10.5 -43.5c-2.66699 -12 -4.83398 -24.333 -6.50098 -37s-2.83398 -25 -3.50098 -37c0 -13.333 2.66699 -24.666 8 -33.999s16.666 -14 33.999 -14z" />
    <glyph glyph-name="Abreve" unicode="&#x102;" horiz-adv-x="548" 
d="M350 0l-4 143h-164l-65 -143h-154l334 696h143l63 -696h-153zM337 370v139h-5l-54 -138l-39 -100h99zM372 728c-29.333 0 -53.165 5.66699 -71.498 17s-32.5 25.5 -42.5 42.5s-16.333 35.333 -19 55s-2.66699 37.834 0 54.501h102
c-1.33301 -7.33301 -1.5 -15.166 -0.5 -23.499s3.33301 -16.166 7 -23.499s8.66699 -13.5 15 -18.5s14.166 -7.5 23.499 -7.5c10 0 19.167 2.5 27.5 7.5s15.666 11.167 21.999 18.5s11.5 15.166 15.5 23.499s7 16.166 9 23.499h103
c-4.66699 -19.333 -11.667 -38.833 -21 -58.5s-21.5 -37.834 -36.5 -54.501s-33.5 -30.167 -55.5 -40.5s-48 -15.5 -78 -15.5z" />
    <glyph glyph-name="abreve" unicode="&#x103;" horiz-adv-x="462" 
d="M238 0l8.00195 39h-4c-12 -14 -27.167 -25 -45.5 -33s-34.166 -12 -47.499 -12c-24.667 0 -44.834 3.83301 -60.501 11.5s-27.834 18 -36.501 31s-14.5 28 -17.5 45s-4.5 34.833 -4.5 53.5c0 24 1.83301 49.333 5.5 76s8.16699 51 13.5 73
c8 32.667 17.333 62.167 28 88.5s23.667 49 39 68s33.5 33.667 54.5 44s45.5 15.5 73.5 15.5c15.333 0 29.666 -3 42.999 -9s25.333 -17 36 -33c0.666992 0 1.16699 0.166992 1.5 0.5s0.833008 0.5 1.5 0.5l8 35h138l-96 -494h-138zM308.002 542
c-29.333 0 -53.166 5.66602 -71.499 16.999s-32.5 25.5 -42.5 42.5s-16.333 35.333 -19 55s-2.66699 37.834 0 54.501h103c-1.33301 -7.33301 -1.5 -15.166 -0.5 -23.499s3.33301 -16.166 7 -23.499s8.66699 -13.333 15 -18s14.166 -7 23.499 -7c10 0 19 2.33301 27 7
s15.167 10.667 21.5 18s11.666 15.166 15.999 23.499s7.16602 16.166 8.49902 23.499h104c-4 -18.667 -10.667 -38 -20 -58s-21.666 -38.167 -36.999 -54.5s-34.166 -29.833 -56.499 -40.5s-48.5 -16 -78.5 -16zM214.002 121.999c12 0 22.1689 4.16699 30.502 12.5
s15.166 19.166 20.499 32.499c4 9.33301 7.83301 21.333 11.5 36s6.83398 29.5 9.50098 44.5s4.83398 28.667 6.50098 41s2.5 20.833 2.5 25.5c0 12 -2.33301 23.667 -7 35s-14.667 17 -30 17c-24.667 0 -42.667 -14.333 -54 -43c-4 -10 -7.83301 -21.833 -11.5 -35.5
s-7.16699 -28.167 -10.5 -43.5c-2.66699 -12 -4.83398 -24.333 -6.50098 -37s-2.83398 -25 -3.50098 -37c0 -13.333 2.66699 -24.666 8 -33.999s16.666 -14 33.999 -14z" />
    <glyph glyph-name="Aogonek" unicode="&#x104;" horiz-adv-x="548" 
d="M290 -120c1.33301 15.333 6.83496 32.832 16.502 52.499s25.167 42.167 46.5 67.5h-3l-4 143h-164l-65 -143h-154l334 696h143l63 -696h-67c-23.333 -26.667 -38.333 -48.667 -45 -66s-10.667 -28.666 -12 -33.999c-1.33301 -10 1 -17.5 7 -22.5s14.333 -7.5 25 -7.5
c6 0 14 1 24 3s22 6.33301 36 13l14 -66c-18.667 -10.667 -37.334 -18 -56.001 -22s-36.334 -6 -53.001 -6c-28.667 0 -51 8.16699 -67 24.5s-22.333 37.5 -19 63.5zM337.002 369.999v139h-5l-54 -138l-39 -100h99z" />
    <glyph glyph-name="aogonek" unicode="&#x105;" horiz-adv-x="462" 
d="M172 -120c1.33301 15.333 7.00391 33.332 17.0039 53.999s26.333 43.667 49 69l8 36h-4c-12 -14 -27.167 -25 -45.5 -33s-34.166 -12 -47.499 -12c-24.667 0 -44.834 3.83301 -60.501 11.5s-27.834 18 -36.501 31s-14.5 28 -17.5 45s-4.5 34.833 -4.5 53.5
c0 24 1.83301 49.333 5.5 76s8.16699 51 13.5 73c8 32.667 17.333 62.167 28 88.5s23.667 49 39 68s33.5 33.667 54.5 44s45.5 15.5 73.5 15.5c15.333 0 29.666 -3 42.999 -9s25.333 -17 36 -33c0.666992 0 1.16699 0.166992 1.5 0.5s0.833008 0.5 1.5 0.5l8 35h138
l-96 -494h-58c-23.333 -26.667 -38.333 -48.667 -45 -66s-10.667 -28.666 -12 -33.999c-1.33301 -10 1 -17.5 7 -22.5s14.333 -7.5 25 -7.5c6 0 14 1 24 3s22 6.33301 36 13l14 -66c-18.667 -10.667 -37.334 -18 -56.001 -22s-36.334 -6 -53.001 -6
c-28.667 0 -51 8.16699 -67 24.5s-22.333 37.5 -19 63.5zM214.004 121.999c12 0 22.1689 4.16699 30.502 12.5s15.166 19.166 20.499 32.499c4 9.33301 7.83301 21.333 11.5 36s6.83398 29.5 9.50098 44.5s4.83398 28.667 6.50098 41s2.5 20.833 2.5 25.5
c0 12 -2.33301 23.667 -7 35s-14.667 17 -30 17c-24.667 0 -42.667 -14.333 -54 -43c-4 -10 -7.83301 -21.833 -11.5 -35.5s-7.16699 -28.167 -10.5 -43.5c-2.66699 -12 -4.83398 -24.333 -6.50098 -37s-2.83398 -25 -3.50098 -37c0 -13.333 2.66699 -24.666 8 -33.999
s16.666 -14 33.999 -14z" />
    <glyph glyph-name="Cacute" unicode="&#x106;" horiz-adv-x="514" 
d="M342 701c30 0 57.166 -4.49902 81.499 -13.499s45.333 -21.333 63 -37s31.5 -34.334 41.5 -56.001s16 -45.167 18 -70.5l-138 -39c-1.33301 10 -3.83301 19.667 -7.5 29s-8.5 17.666 -14.5 24.999s-13.5 13.333 -22.5 18s-19.167 7 -30.5 7
c-16.667 0 -30.5 -3.5 -41.5 -10.5s-20 -16.5 -27 -28.5s-12.833 -25.667 -17.5 -41s-8.66699 -31 -12 -47l-45 -228c-2 -10 -2.83301 -19.833 -2.5 -29.5s2.83301 -18 7.5 -25s11.5 -12.667 20.5 -17s21.5 -6.5 37.5 -6.5c22.667 0 42 6.83301 58 20.5s28 32.834 36 57.501
l69.5 -18l69.5 -19c-7.33301 -24 -17.666 -46.833 -30.999 -68.5s-29.833 -40.667 -49.5 -57s-42.5 -29.166 -68.5 -38.499s-55.667 -14 -89 -14c-45.333 0 -82.166 6.66699 -110.499 20s-50 31.333 -65 54s-23.833 49.167 -26.5 79.5s-0.666992 62.166 6 95.499l37 189
c6.66699 34.667 15.667 68.167 27 100.5s26.666 61 45.999 86s43.5 45 72.5 60s64.833 22.5 107.5 22.5zM295.999 784.001l194 135l78 -91l-224 -106z" />
    <glyph glyph-name="cacute" unicode="&#x107;" horiz-adv-x="411" 
d="M193 -5c-30.667 0 -56.333 4.66992 -77 14.0029s-37.5 22.166 -50.5 38.499s-22.333 35.5 -28 57.5s-8.5 45.333 -8.5 70c0 39.333 4.33301 78.333 13 117s22.5 73.5 41.5 104.5s43.833 56.167 74.5 75.5s68 29 112 29c41.333 0 76 -9.83301 104 -29.5
s44.667 -48.5 50 -86.5l-118 -56c-4 16 -10 27.5 -18 34.5s-16.667 10.5 -26 10.5c-13.333 0 -24.666 -3.16699 -33.999 -9.5s-17.333 -15 -24 -26s-12 -23.833 -16 -38.5s-7.66699 -30.334 -11 -47.001c-5.33301 -26 -8.33301 -49 -9 -69
c0 -17.333 2.83301 -31.833 8.5 -43.5s18.5 -17.5 38.5 -17.5c10 0 20 3.16699 30 9.5s20.333 17.5 31 33.5l103 -57c-20.667 -36.667 -46.334 -64.834 -77.001 -84.501s-67 -29.5 -109 -29.5zM227.001 570.003l130 195l111 -48l-171 -183z" />
    <glyph glyph-name="Ccircumflex" unicode="&#x108;" horiz-adv-x="514" 
d="M342 701c30 0 57.166 -4.49902 81.499 -13.499s45.333 -21.333 63 -37s31.5 -34.334 41.5 -56.001s16 -45.167 18 -70.5l-138 -39c-1.33301 10 -3.83301 19.667 -7.5 29s-8.5 17.666 -14.5 24.999s-13.5 13.333 -22.5 18s-19.167 7 -30.5 7
c-16.667 0 -30.5 -3.5 -41.5 -10.5s-20 -16.5 -27 -28.5s-12.833 -25.667 -17.5 -41s-8.66699 -31 -12 -47l-45 -228c-2 -10 -2.83301 -19.833 -2.5 -29.5s2.83301 -18 7.5 -25s11.5 -12.667 20.5 -17s21.5 -6.5 37.5 -6.5c22.667 0 42 6.83301 58 20.5s28 32.834 36 57.501
l69.5 -18l69.5 -19c-7.33301 -24 -17.666 -46.833 -30.999 -68.5s-29.833 -40.667 -49.5 -57s-42.5 -29.166 -68.5 -38.499s-55.667 -14 -89 -14c-45.333 0 -82.166 6.66699 -110.499 20s-50 31.333 -65 54s-23.833 49.167 -26.5 79.5s-0.666992 62.166 6 95.499l37 189
c6.66699 34.667 15.667 68.167 27 100.5s26.666 61 45.999 86s43.5 45 72.5 60s64.833 22.5 107.5 22.5zM382.999 807.001l-153 -81l-42 52l167 132h89l114 -131l-59 -54z" />
    <glyph glyph-name="ccircumflex" unicode="&#x109;" horiz-adv-x="411" 
d="M193 -5c-30.667 0 -56.333 4.66992 -77 14.0029s-37.5 22.166 -50.5 38.499s-22.333 35.5 -28 57.5s-8.5 45.333 -8.5 70c0 39.333 4.33301 78.333 13 117s22.5 73.5 41.5 104.5s43.833 56.167 74.5 75.5s68 29 112 29c41.333 0 76 -9.83301 104 -29.5
s44.667 -48.5 50 -86.5l-118 -56c-4 16 -10 27.5 -18 34.5s-16.667 10.5 -26 10.5c-13.333 0 -24.666 -3.16699 -33.999 -9.5s-17.333 -15 -24 -26s-12 -23.833 -16 -38.5s-7.66699 -30.334 -11 -47.001c-5.33301 -26 -8.33301 -49 -9 -69
c0 -17.333 2.83301 -31.833 8.5 -43.5s18.5 -17.5 38.5 -17.5c10 0 20 3.16699 30 9.5s20.333 17.5 31 33.5l103 -57c-20.667 -36.667 -46.334 -64.834 -77.001 -84.501s-67 -29.5 -109 -29.5zM303.001 625.003l-155 -104l-44 47l171 157h91l110 -162l-61 -41z" />
    <glyph glyph-name="Cdotaccent" unicode="&#x10a;" horiz-adv-x="514" 
d="M342 701c30 0 57.166 -4.49902 81.499 -13.499s45.333 -21.333 63 -37s31.5 -34.334 41.5 -56.001s16 -45.167 18 -70.5l-138 -39c-1.33301 10 -3.83301 19.667 -7.5 29s-8.5 17.666 -14.5 24.999s-13.5 13.333 -22.5 18s-19.167 7 -30.5 7
c-16.667 0 -30.5 -3.5 -41.5 -10.5s-20 -16.5 -27 -28.5s-12.833 -25.667 -17.5 -41s-8.66699 -31 -12 -47l-45 -228c-2 -10 -2.83301 -19.833 -2.5 -29.5s2.83301 -18 7.5 -25s11.5 -12.667 20.5 -17s21.5 -6.5 37.5 -6.5c22.667 0 42 6.83301 58 20.5s28 32.834 36 57.501
l69.5 -18l69.5 -19c-7.33301 -24 -17.666 -46.833 -30.999 -68.5s-29.833 -40.667 -49.5 -57s-42.5 -29.166 -68.5 -38.499s-55.667 -14 -89 -14c-45.333 0 -82.166 6.66699 -110.499 20s-50 31.333 -65 54s-23.833 49.167 -26.5 79.5s-0.666992 62.166 6 95.499l37 189
c6.66699 34.667 15.667 68.167 27 100.5s26.666 61 45.999 86s43.5 45 72.5 60s64.833 22.5 107.5 22.5zM295.999 742.001l25 130h133l-25 -130h-133z" />
    <glyph glyph-name="cdotaccent" unicode="&#x10b;" horiz-adv-x="411" 
d="M193 -5c-30.667 0 -56.333 4.66992 -77 14.0029s-37.5 22.166 -50.5 38.499s-22.333 35.5 -28 57.5s-8.5 45.333 -8.5 70c0 39.333 4.33301 78.333 13 117s22.5 73.5 41.5 104.5s43.833 56.167 74.5 75.5s68 29 112 29c41.333 0 76 -9.83301 104 -29.5
s44.667 -48.5 50 -86.5l-118 -56c-4 16 -10 27.5 -18 34.5s-16.667 10.5 -26 10.5c-13.333 0 -24.666 -3.16699 -33.999 -9.5s-17.333 -15 -24 -26s-12 -23.833 -16 -38.5s-7.66699 -30.334 -11 -47.001c-5.33301 -26 -8.33301 -49 -9 -69
c0 -17.333 2.83301 -31.833 8.5 -43.5s18.5 -17.5 38.5 -17.5c10 0 20 3.16699 30 9.5s20.333 17.5 31 33.5l103 -57c-20.667 -36.667 -46.334 -64.834 -77.001 -84.501s-67 -29.5 -109 -29.5zM212.001 557.003l25 130h133l-25 -130h-133z" />
    <glyph glyph-name="Ccaron" unicode="&#x10c;" horiz-adv-x="514" 
d="M342 701c30 0 57.166 -4.49902 81.499 -13.499s45.333 -21.333 63 -37s31.5 -34.334 41.5 -56.001s16 -45.167 18 -70.5l-138 -39c-1.33301 10 -3.83301 19.667 -7.5 29s-8.5 17.666 -14.5 24.999s-13.5 13.333 -22.5 18s-19.167 7 -30.5 7
c-16.667 0 -30.5 -3.5 -41.5 -10.5s-20 -16.5 -27 -28.5s-12.833 -25.667 -17.5 -41s-8.66699 -31 -12 -47l-45 -228c-2 -10 -2.83301 -19.833 -2.5 -29.5s2.83301 -18 7.5 -25s11.5 -12.667 20.5 -17s21.5 -6.5 37.5 -6.5c22.667 0 42 6.83301 58 20.5s28 32.834 36 57.501
l69.5 -18l69.5 -19c-7.33301 -24 -17.666 -46.833 -30.999 -68.5s-29.833 -40.667 -49.5 -57s-42.5 -29.166 -68.5 -38.499s-55.667 -14 -89 -14c-45.333 0 -82.166 6.66699 -110.499 20s-50 31.333 -65 54s-23.833 49.167 -26.5 79.5s-0.666992 62.166 6 95.499l37 189
c6.66699 34.667 15.667 68.167 27 100.5s26.666 61 45.999 86s43.5 45 72.5 60s64.833 22.5 107.5 22.5zM532.999 912.001l43 -53l-168 -132h-89l-113 131l58 53l117 -82z" />
    <glyph glyph-name="ccaron" unicode="&#x10d;" horiz-adv-x="411" 
d="M193 -5c-30.667 0 -56.333 4.66992 -77 14.0029s-37.5 22.166 -50.5 38.499s-22.333 35.5 -28 57.5s-8.5 45.333 -8.5 70c0 39.333 4.33301 78.333 13 117s22.5 73.5 41.5 104.5s43.833 56.167 74.5 75.5s68 29 112 29c41.333 0 76 -9.83301 104 -29.5
s44.667 -48.5 50 -86.5l-118 -56c-4 16 -10 27.5 -18 34.5s-16.667 10.5 -26 10.5c-13.333 0 -24.666 -3.16699 -33.999 -9.5s-17.333 -15 -24 -26s-12 -23.833 -16 -38.5s-7.66699 -30.334 -11 -47.001c-5.33301 -26 -8.33301 -49 -9 -69
c0 -17.333 2.83301 -31.833 8.5 -43.5s18.5 -17.5 38.5 -17.5c10 0 20 3.16699 30 9.5s20.333 17.5 31 33.5l103 -57c-20.667 -36.667 -46.334 -64.834 -77.001 -84.501s-67 -29.5 -109 -29.5zM450.001 732.003l45.001 -48l-169 -157h-91l-110 157l62 48
c5.33301 -4 13.166 -10.667 23.499 -20l32 -29.5l31.5 -29.5c10 -9.33301 17.667 -16 23 -20z" />
    <glyph glyph-name="Dcaron" unicode="&#x10e;" horiz-adv-x="552" 
d="M402 433c4 20 6.33105 37.999 6.99805 53.999s-1.5 29.5 -6.5 40.5s-13 19.333 -24 25s-25.833 8.5 -44.5 8.5h-60l-83 -427h61c36.667 0 62.834 9.33301 78.501 28s26.834 44.334 33.501 77.001zM379.998 695.999c44 0 81.834 -8.66895 113.501 -26.002
s51.167 -46 58.5 -86c4.66699 -23.333 5.33398 -52.166 2.00098 -86.499s-8.66602 -72.5 -15.999 -114.5c-11.333 -64 -21.5 -117 -30.5 -159s-21.167 -76.667 -36.5 -104c-13.333 -23.333 -28.333 -42.666 -45 -57.999s-34.834 -27.5 -54.501 -36.5
s-40.334 -15.5 -62.001 -19.5s-43.834 -6 -66.501 -6h-222l135 696h224zM509.999 911.997l43 -53l-168 -132h-89l-113 131l58 53l117 -82z" />
    <glyph glyph-name="dcaron" unicode="&#x10f;" horiz-adv-x="586" 
d="M246 501c12.667 0 27.001 -3.16797 43.001 -9.50098s28.333 -15.5 37 -27.5h4l51 262h137l-139 -726h-138l7 35l-3 2c-14.667 -15.333 -29.667 -26.166 -45 -32.499s-31.666 -9.5 -48.999 -9.5c-26.667 0 -47.834 4.5 -63.501 13.5s-27.667 20.833 -36 35.5
s-13.833 31.5 -16.5 50.5s-4 38.5 -4 58.5c0 8.66699 0.5 18.5 1.5 29.5s2.33301 22.167 4 33.5l5 33c1.66699 10.667 3.5 19.667 5.5 27c6 28 13.667 55.333 23 82s21.5 50.667 36.5 72s33.667 38.5 56 51.5s50.166 19.5 83.499 19.5zM523.001 487.999l53 108h-29l25 131
h136l-25 -126l-93 -113h-67zM262.001 369.999c-12 0 -22.166 -3.8291 -30.499 -11.4961s-15.166 -17.334 -20.499 -29.001s-9.83301 -24.334 -13.5 -38.001s-6.83398 -26.834 -9.50098 -39.501c-7.33301 -32.667 -11 -60.667 -11 -84c0 -12 2.83301 -21.833 8.5 -29.5
s15.167 -11.5 28.5 -11.5c11.333 0 21.333 3.5 30 10.5s15.667 16.5 21 28.5c5.33301 10.667 9.5 22.167 12.5 34.5l9.5 38.5c7.33301 33.333 11 60.666 11 81.999c0 12 -2.33301 23.167 -7 33.5s-14.334 15.5 -29.001 15.5z" />
    <glyph glyph-name="Dcroat" unicode="&#x110;" horiz-adv-x="552" 
d="M380 696c44 0 81.834 -8.66895 113.501 -26.002s51.167 -46 58.5 -86c4.66699 -23.333 5.33398 -52.166 2.00098 -86.499s-8.66602 -72.5 -15.999 -114.5c-11.333 -64 -21.5 -117 -30.5 -159s-21.167 -76.667 -36.5 -104c-13.333 -23.333 -28.333 -42.666 -45 -57.999
s-34.834 -27.5 -54.501 -36.5s-40.334 -15.5 -62.001 -19.5s-43.834 -6 -66.501 -6h-222l56 292h-57l18 96h58l60 308h224zM402.001 432.998c4 20 6.33105 37.999 6.99805 53.999s-1.5 29.5 -6.5 40.5s-13 19.333 -24 25s-25.833 8.5 -44.5 8.5h-60l-34 -173h63l-19 -96h-63
l-30 -158h61c36.667 0 62.834 9.33301 78.501 28s26.834 44.334 33.501 77.001z" />
    <glyph glyph-name="dcroat" unicode="&#x111;" horiz-adv-x="462" 
d="M246 501c12.667 0 27.001 -3.16699 43.001 -9.5s28.333 -15.5 37 -27.5h4c2.66699 14.667 5.5 29.167 8.5 43.5s5.83301 29.166 8.5 44.499h-121l17 87h121l8 43.5c2.66699 14.333 5.66699 28.833 9 43.5h137l-17 -87h51l-17 -87h-50l-53.5 -276l-52.5 -276h-138l7 35
l-3 2c-14.667 -15.333 -29.667 -26.166 -45 -32.499s-31.666 -9.5 -48.999 -9.5c-26.667 0 -47.834 4.5 -63.501 13.5s-27.667 20.833 -36 35.5s-13.833 31.5 -16.5 50.5s-4 38.5 -4 58.5c0 8.66699 0.5 18.5 1.5 29.5s2.33301 22.167 4 33.5l5 33
c1.66699 10.667 3.5 19.667 5.5 27c6 28 13.667 55.333 23 82s21.5 50.667 36.5 72s33.667 38.5 56 51.5s50.166 19.5 83.499 19.5zM262.001 370c-12 0 -22.166 -3.8291 -30.499 -11.4961s-15.166 -17.334 -20.499 -29.001s-9.83301 -24.334 -13.5 -38.001
s-6.83398 -26.834 -9.50098 -39.501c-7.33301 -32.667 -11 -60.667 -11 -84c0 -12 2.83301 -21.833 8.5 -29.5s15.167 -11.5 28.5 -11.5c11.333 0 21.333 3.5 30 10.5s15.667 16.5 21 28.5c5.33301 10.667 9.5 22.167 12.5 34.5l9.5 38.5
c7.33301 33.333 11 60.666 11 81.999c0 12 -2.33301 23.167 -7 33.5s-14.334 15.5 -29.001 15.5z" />
    <glyph glyph-name="Emacron" unicode="&#x112;" horiz-adv-x="484" 
d="M20 0l135 696h401l-26 -134h-257l-29 -144h222l-26 -133h-222l-28 -151h257l-26 -134h-401zM211 752l23 114h292l-22 -114h-293z" />
    <glyph glyph-name="emacron" unicode="&#x113;" horiz-adv-x="457" 
d="M260 375c-15.333 0 -28.5 -6.50098 -39.5 -19.501s-19.5 -30.5 -25.5 -52.5c4.66699 -1.33301 9.5 -1.66602 14.5 -0.999023s9.5 1 13.5 1c28 1.33301 47 6.33301 57 15s15 19 15 31c0 7.33301 -2.66699 13.5 -8 18.5s-14.333 7.5 -27 7.5zM196 -5.00098
c-54 0 -95.166 13.834 -123.499 41.501s-42.5 69.5 -42.5 125.5c0 37.333 3.83301 76.166 11.5 116.499s20.5 77 38.5 110s42 60.167 72 81.5s67.667 32 113 32c29.333 0 54.833 -3.5 76.5 -10.5s39.5 -16.333 53.5 -28s24.333 -25.5 31 -41.5s10 -33 10 -51
c0 -33.333 -6.5 -61.166 -19.5 -83.499s-30.333 -40.333 -52 -54s-46 -23.334 -73 -29.001s-54.5 -8.5 -82.5 -8.5h-17c-5.33301 0 -11 0.333008 -17 1c-1.33301 -6 -2.33301 -12.333 -3 -19s-1 -12 -1 -16c0.666992 -12.667 5.16699 -22.334 13.5 -29.001
s17.833 -10 28.5 -10c14 0 27.5 3.16699 40.5 9.5s26.5 17.833 40.5 34.5l106 -67c-24.667 -37.333 -54.834 -64.166 -90.501 -80.499s-73.5 -24.5 -113.5 -24.5zM157.001 572l22 114h292l-22 -114h-292z" />
    <glyph glyph-name="Ebreve" unicode="&#x114;" horiz-adv-x="484" 
d="M20 0l135 696h401l-26 -134h-257l-29 -144h222l-26 -133h-222l-28 -151h257l-26 -134h-401zM355 726c-29.333 0 -53.165 5.66699 -71.498 17s-32.5 25.5 -42.5 42.5s-16.333 35.333 -19 55s-2.66699 37.834 0 54.501h102c-1.33301 -7.33301 -1.5 -15.166 -0.5 -23.499
s3.33301 -16.166 7 -23.499s8.66699 -13.5 15 -18.5s14.166 -7.5 23.499 -7.5c10 0 19.167 2.5 27.5 7.5s15.666 11.167 21.999 18.5s11.5 15.166 15.5 23.499s7 16.166 9 23.499h103c-4.66699 -19.333 -11.667 -38.833 -21 -58.5s-21.5 -37.834 -36.5 -54.501
s-33.5 -30.167 -55.5 -40.5s-48 -15.5 -78 -15.5z" />
    <glyph glyph-name="ebreve" unicode="&#x115;" horiz-adv-x="457" 
d="M260 375c-15.333 0 -28.5 -6.50098 -39.5 -19.501s-19.5 -30.5 -25.5 -52.5c4.66699 -1.33301 9.5 -1.66602 14.5 -0.999023s9.5 1 13.5 1c28 1.33301 47 6.33301 57 15s15 19 15 31c0 7.33301 -2.66699 13.5 -8 18.5s-14.333 7.5 -27 7.5zM196 -5.00098
c-54 0 -95.166 13.834 -123.499 41.501s-42.5 69.5 -42.5 125.5c0 37.333 3.83301 76.166 11.5 116.499s20.5 77 38.5 110s42 60.167 72 81.5s67.667 32 113 32c29.333 0 54.833 -3.5 76.5 -10.5s39.5 -16.333 53.5 -28s24.333 -25.5 31 -41.5s10 -33 10 -51
c0 -33.333 -6.5 -61.166 -19.5 -83.499s-30.333 -40.333 -52 -54s-46 -23.334 -73 -29.001s-54.5 -8.5 -82.5 -8.5h-17c-5.33301 0 -11 0.333008 -17 1c-1.33301 -6 -2.33301 -12.333 -3 -19s-1 -12 -1 -16c0.666992 -12.667 5.16699 -22.334 13.5 -29.001
s17.833 -10 28.5 -10c14 0 27.5 3.16699 40.5 9.5s26.5 17.833 40.5 34.5l106 -67c-24.667 -37.333 -54.834 -64.166 -90.501 -80.499s-73.5 -24.5 -113.5 -24.5zM285.001 542c-29.333 0 -53.166 5.66602 -71.499 16.999s-32.5 25.5 -42.5 42.5s-16.333 35.333 -19 55
s-2.66699 37.834 0 54.501h103c-1.33301 -7.33301 -1.5 -15.166 -0.5 -23.499s3.33301 -16.166 7 -23.499s8.66699 -13.333 15 -18s14.166 -7 23.499 -7c10 0 19 2.33301 27 7s15.167 10.667 21.5 18s11.666 15.166 15.999 23.499s7.16602 16.166 8.49902 23.499h104
c-4 -18.667 -10.667 -38 -20 -58s-21.666 -38.167 -36.999 -54.5s-34.166 -29.833 -56.499 -40.5s-48.5 -16 -78.5 -16z" />
    <glyph glyph-name="Edotaccent" unicode="&#x116;" horiz-adv-x="484" 
d="M20 0l135 696h401l-26 -134h-257l-29 -144h222l-26 -133h-222l-28 -151h257l-26 -134h-401zM293 737l25 130h133l-25 -130h-133z" />
    <glyph glyph-name="edotaccent" unicode="&#x117;" horiz-adv-x="457" 
d="M260 375c-15.333 0 -28.5 -6.50098 -39.5 -19.501s-19.5 -30.5 -25.5 -52.5c4.66699 -1.33301 9.5 -1.66602 14.5 -0.999023s9.5 1 13.5 1c28 1.33301 47 6.33301 57 15s15 19 15 31c0 7.33301 -2.66699 13.5 -8 18.5s-14.333 7.5 -27 7.5zM196 -5.00098
c-54 0 -95.166 13.834 -123.499 41.501s-42.5 69.5 -42.5 125.5c0 37.333 3.83301 76.166 11.5 116.499s20.5 77 38.5 110s42 60.167 72 81.5s67.667 32 113 32c29.333 0 54.833 -3.5 76.5 -10.5s39.5 -16.333 53.5 -28s24.333 -25.5 31 -41.5s10 -33 10 -51
c0 -33.333 -6.5 -61.166 -19.5 -83.499s-30.333 -40.333 -52 -54s-46 -23.334 -73 -29.001s-54.5 -8.5 -82.5 -8.5h-17c-5.33301 0 -11 0.333008 -17 1c-1.33301 -6 -2.33301 -12.333 -3 -19s-1 -12 -1 -16c0.666992 -12.667 5.16699 -22.334 13.5 -29.001
s17.833 -10 28.5 -10c14 0 27.5 3.16699 40.5 9.5s26.5 17.833 40.5 34.5l106 -67c-24.667 -37.333 -54.834 -64.166 -90.501 -80.499s-73.5 -24.5 -113.5 -24.5zM221.001 559l25 130h133l-25 -130h-133z" />
    <glyph glyph-name="Eogonek" unicode="&#x118;" horiz-adv-x="484" 
d="M273 -120c1.33301 15.333 6.83496 32.832 16.502 52.499s25.167 42.167 46.5 67.5h-316l135 696h401l-26 -134h-257l-29 -144h222l-26 -133h-222l-28 -151h257l-26 -134h-2c-23.333 -26.667 -38.333 -48.667 -45 -66s-10.667 -28.666 -12 -33.999
c-1.33301 -10 1 -17.5 7 -22.5s14.333 -7.5 25 -7.5c6 0 14 1 24 3s22 6.33301 36 13l14 -66c-18.667 -10.667 -37.334 -18 -56.001 -22s-36.334 -6 -53.001 -6c-28.667 0 -51 8.16699 -67 24.5s-22.333 37.5 -19 63.5z" />
    <glyph glyph-name="eogonek" unicode="&#x119;" horiz-adv-x="457" 
d="M189 -85c1.33301 23.333 12.3359 50.332 33.0029 80.999c-4 -0.666992 -8.16699 -1 -12.5 -1h-13.5c-54 0 -95.167 13.833 -123.5 41.5s-42.5 69.5 -42.5 125.5c0 37.333 3.83301 76.166 11.5 116.499s20.5 77 38.5 110s42 60.167 72 81.5s67.667 32 113 32
c29.333 0 54.833 -3.5 76.5 -10.5s39.5 -16.333 53.5 -28s24.333 -25.5 31 -41.5s10 -33 10 -51c0 -33.333 -6.5 -61.166 -19.5 -83.499s-30.333 -40.333 -52 -54s-46 -23.334 -73 -29.001s-54.5 -8.5 -82.5 -8.5h-17c-5.33301 0 -11 0.333008 -17 1
c-1.33301 -6 -2.33301 -12.333 -3 -19s-1 -12 -1 -16c0.666992 -12.667 5.16699 -22.334 13.5 -29.001s17.833 -10 28.5 -10c14 0 27.5 3.16699 40.5 9.5s26.5 17.833 40.5 34.5l106 -67c-18.667 -27.333 -40.667 -49.666 -66 -66.999
c-22.667 -25.333 -37.334 -46.666 -44.001 -63.999s-10.667 -28.666 -12 -33.999c-1.33301 -10 1 -17.5 7 -22.5s14.333 -7.5 25 -7.5c6 0 14 1 24 3s22 6.33301 36 13l14 -66c-18.667 -10.667 -37.334 -18 -56.001 -22s-36.334 -6 -53.001 -6
c-28.667 0 -51 8.16699 -67 24.5s-22.333 37.5 -19 63.5zM260.003 374.999c-15.333 0 -28.5 -6.50098 -39.5 -19.501s-19.5 -30.5 -25.5 -52.5c4.66699 -1.33301 9.5 -1.66602 14.5 -0.999023s9.5 1 13.5 1c28 1.33301 47 6.33301 57 15s15 19 15 31
c0 7.33301 -2.66699 13.5 -8 18.5s-14.333 7.5 -27 7.5z" />
    <glyph glyph-name="Ecaron" unicode="&#x11a;" horiz-adv-x="484" 
d="M20 0l135 696h401l-26 -134h-257l-29 -144h222l-26 -133h-222l-28 -151h257l-26 -134h-401zM519 912l43 -53l-168 -132h-89l-113 131l58 53l117 -82z" />
    <glyph glyph-name="ecaron" unicode="&#x11b;" horiz-adv-x="457" 
d="M260 375c-15.333 0 -28.5 -6.50098 -39.5 -19.501s-19.5 -30.5 -25.5 -52.5c4.66699 -1.33301 9.5 -1.66602 14.5 -0.999023s9.5 1 13.5 1c28 1.33301 47 6.33301 57 15s15 19 15 31c0 7.33301 -2.66699 13.5 -8 18.5s-14.333 7.5 -27 7.5zM196 -5.00098
c-54 0 -95.166 13.834 -123.499 41.501s-42.5 69.5 -42.5 125.5c0 37.333 3.83301 76.166 11.5 116.499s20.5 77 38.5 110s42 60.167 72 81.5s67.667 32 113 32c29.333 0 54.833 -3.5 76.5 -10.5s39.5 -16.333 53.5 -28s24.333 -25.5 31 -41.5s10 -33 10 -51
c0 -33.333 -6.5 -61.166 -19.5 -83.499s-30.333 -40.333 -52 -54s-46 -23.334 -73 -29.001s-54.5 -8.5 -82.5 -8.5h-17c-5.33301 0 -11 0.333008 -17 1c-1.33301 -6 -2.33301 -12.333 -3 -19s-1 -12 -1 -16c0.666992 -12.667 5.16699 -22.334 13.5 -29.001
s17.833 -10 28.5 -10c14 0 27.5 3.16699 40.5 9.5s26.5 17.833 40.5 34.5l106 -67c-24.667 -37.333 -54.834 -64.166 -90.501 -80.499s-73.5 -24.5 -113.5 -24.5zM455.001 732l45.001 -48l-169 -157h-91l-110 157l62 48c5.33301 -4 13.166 -10.667 23.499 -20l32 -29.5
l31.5 -29.5c10 -9.33301 17.667 -16 23 -20z" />
    <glyph glyph-name="Gcircumflex" unicode="&#x11c;" horiz-adv-x="533" 
d="M241 -6c-43.333 0 -78.4971 6.66992 -105.497 20.0029s-47.667 31.333 -62 54s-22.833 48.334 -25.5 77.001s-1 58.667 5 90l38 197c6.66699 34.667 15.667 68.167 27 100.5s26.666 61 45.999 86s43.5 45 72.5 60s64.833 22.5 107.5 22.5c30 0 57.167 -4.5 81.5 -13.5
s45.333 -21.333 63 -37s31.5 -34.334 41.5 -56.001s16 -45.167 18 -70.5l-138 -39c-1.33301 10 -3.83301 19.667 -7.5 29s-8.5 17.666 -14.5 24.999s-13.5 13.333 -22.5 18s-19.167 7 -30.5 7c-16.667 0 -30.5 -3.5 -41.5 -10.5s-20 -16.5 -27 -28.5
s-12.833 -25.667 -17.5 -41s-8.66699 -31 -12 -47l-45 -228c-2 -10 -2.83301 -19.833 -2.5 -29.5s2.83301 -18 7.5 -25s11.5 -12.667 20.5 -17s21.5 -6.5 37.5 -6.5c14.667 0 27.667 3.16699 39 9.5s21.166 14.5 29.499 24.5s15.166 21.167 20.499 33.5
s9.33301 24.833 12 37.5l6 28h-93l24 123h237l-29 -159c-7.33301 -34.667 -18 -66.334 -32 -95.001s-31.667 -53.334 -53 -74.001s-46.5 -36.667 -75.5 -48s-62.167 -17 -99.5 -17zM379.003 807.003l-153 -81l-42 52l167 132h89l114 -131l-59 -54z" />
    <glyph glyph-name="gcircumflex" unicode="&#x11d;" horiz-adv-x="462" 
d="M243 34l-4.00195 -0.000976562c-14.667 -13.333 -30.167 -23 -46.5 -29s-32.5 -9 -48.5 -9c-24 0 -43.667 3.83301 -59 11.5s-27.166 18.167 -35.499 31.5s-14.166 28.5 -17.499 45.5s-5 35.167 -5 54.5c1.33301 23.333 3.83301 48.166 7.5 74.499
s9.16699 53.5 16.5 81.5c8 32 17.333 60.667 28 86s23.334 46.833 38.001 64.5s31.834 31.167 51.501 40.5s42.5 14 68.5 14c12.667 0 27.667 -2.66699 45 -8s30.666 -16.333 39.999 -33c0.666992 0.666992 1.16699 0.833984 1.5 0.500977s0.833008 -0.166016 1.5 0.500977
l8 35h139l-92 -490c-6 -30.667 -14 -58.834 -24 -84.501s-23.333 -47.667 -40 -66s-37.5 -32.666 -62.5 -42.999s-54.833 -15.5 -89.5 -15.5c-40 0 -74.5 8.66699 -103.5 26s-50.833 40 -65.5 68l102 74c18 -26 40.667 -39 68 -39c20.667 0 35.667 5 45 15
s15.666 22 18.999 36zM210.998 123.999c9.33301 0 18.167 3.16797 26.5 9.50098s15.833 17.5 22.5 33.5c4.66699 10.667 9 23 13 37s7.5 28 10.5 42s5.5 27.333 7.5 40s3 23.667 3 33c0 4 -0.333008 8.83301 -1 14.5s-2.16699 11.167 -4.5 16.5s-6 9.83301 -11 13.5
s-11.833 5.5 -20.5 5.5c-8 0 -15 -1.83301 -21 -5.5s-11.333 -7.83398 -16 -12.501c-6 -6.66699 -11.5 -16.667 -16.5 -30s-9.5 -28 -13.5 -44s-7.5 -32 -10.5 -48s-4.83301 -29.667 -5.5 -41c-0.666992 -7.33301 -1 -14.833 -1 -22.5s1 -14.5 3 -20.5s5.83301 -11 11.5 -15
s13.5 -6 23.5 -6zM316.999 625l-155 -104l-44 47l171 157h91l110 -162l-61 -41z" />
    <glyph glyph-name="Gbreve" unicode="&#x11e;" horiz-adv-x="533" 
d="M241 -6c-43.333 0 -78.4971 6.66992 -105.497 20.0029s-47.667 31.333 -62 54s-22.833 48.334 -25.5 77.001s-1 58.667 5 90l38 197c6.66699 34.667 15.667 68.167 27 100.5s26.666 61 45.999 86s43.5 45 72.5 60s64.833 22.5 107.5 22.5c30 0 57.167 -4.5 81.5 -13.5
s45.333 -21.333 63 -37s31.5 -34.334 41.5 -56.001s16 -45.167 18 -70.5l-138 -39c-1.33301 10 -3.83301 19.667 -7.5 29s-8.5 17.666 -14.5 24.999s-13.5 13.333 -22.5 18s-19.167 7 -30.5 7c-16.667 0 -30.5 -3.5 -41.5 -10.5s-20 -16.5 -27 -28.5
s-12.833 -25.667 -17.5 -41s-8.66699 -31 -12 -47l-45 -228c-2 -10 -2.83301 -19.833 -2.5 -29.5s2.83301 -18 7.5 -25s11.5 -12.667 20.5 -17s21.5 -6.5 37.5 -6.5c14.667 0 27.667 3.16699 39 9.5s21.166 14.5 29.499 24.5s15.166 21.167 20.499 33.5
s9.33301 24.833 12 37.5l6 28h-93l24 123h237l-29 -159c-7.33301 -34.667 -18 -66.334 -32 -95.001s-31.667 -53.334 -53 -74.001s-46.5 -36.667 -75.5 -48s-62.167 -17 -99.5 -17zM369.003 728.003c-29.333 0 -53.165 5.66699 -71.498 17s-32.5 25.5 -42.5 42.5
s-16.333 35.333 -19 55s-2.66699 37.834 0 54.501h102c-1.33301 -7.33301 -1.5 -15.166 -0.5 -23.499s3.33301 -16.166 7 -23.499s8.66699 -13.5 15 -18.5s14.166 -7.5 23.499 -7.5c10 0 19.167 2.5 27.5 7.5s15.666 11.167 21.999 18.5s11.5 15.166 15.5 23.499
s7 16.166 9 23.499h103c-4.66699 -19.333 -11.667 -38.833 -21 -58.5s-21.5 -37.834 -36.5 -54.501s-33.5 -30.167 -55.5 -40.5s-48 -15.5 -78 -15.5z" />
    <glyph glyph-name="gbreve" unicode="&#x11f;" horiz-adv-x="462" 
d="M243 34l-4.00195 -0.000976562c-14.667 -13.333 -30.167 -23 -46.5 -29s-32.5 -9 -48.5 -9c-24 0 -43.667 3.83301 -59 11.5s-27.166 18.167 -35.499 31.5s-14.166 28.5 -17.499 45.5s-5 35.167 -5 54.5c1.33301 23.333 3.83301 48.166 7.5 74.499
s9.16699 53.5 16.5 81.5c8 32 17.333 60.667 28 86s23.334 46.833 38.001 64.5s31.834 31.167 51.501 40.5s42.5 14 68.5 14c12.667 0 27.667 -2.66699 45 -8s30.666 -16.333 39.999 -33c0.666992 0.666992 1.16699 0.833984 1.5 0.500977s0.833008 -0.166016 1.5 0.500977
l8 35h139l-92 -490c-6 -30.667 -14 -58.834 -24 -84.501s-23.333 -47.667 -40 -66s-37.5 -32.666 -62.5 -42.999s-54.833 -15.5 -89.5 -15.5c-40 0 -74.5 8.66699 -103.5 26s-50.833 40 -65.5 68l102 74c18 -26 40.667 -39 68 -39c20.667 0 35.667 5 45 15
s15.666 22 18.999 36zM210.998 123.999c9.33301 0 18.167 3.16797 26.5 9.50098s15.833 17.5 22.5 33.5c4.66699 10.667 9 23 13 37s7.5 28 10.5 42s5.5 27.333 7.5 40s3 23.667 3 33c0 4 -0.333008 8.83301 -1 14.5s-2.16699 11.167 -4.5 16.5s-6 9.83301 -11 13.5
s-11.833 5.5 -20.5 5.5c-8 0 -15 -1.83301 -21 -5.5s-11.333 -7.83398 -16 -12.501c-6 -6.66699 -11.5 -16.667 -16.5 -30s-9.5 -28 -13.5 -44s-7.5 -32 -10.5 -48s-4.83301 -29.667 -5.5 -41c-0.666992 -7.33301 -1 -14.833 -1 -22.5s1 -14.5 3 -20.5s5.83301 -11 11.5 -15
s13.5 -6 23.5 -6zM294.999 542c-29.333 0 -53.166 5.66602 -71.499 16.999s-32.5 25.5 -42.5 42.5s-16.333 35.333 -19 55s-2.66699 37.834 0 54.501h103c-1.33301 -7.33301 -1.5 -15.166 -0.5 -23.499s3.33301 -16.166 7 -23.499s8.66699 -13.333 15 -18
s14.166 -7 23.499 -7c10 0 19 2.33301 27 7s15.167 10.667 21.5 18s11.666 15.166 15.999 23.499s7.16602 16.166 8.49902 23.499h104c-4 -18.667 -10.667 -38 -20 -58s-21.666 -38.167 -36.999 -54.5s-34.166 -29.833 -56.499 -40.5s-48.5 -16 -78.5 -16z" />
    <glyph glyph-name="Gdotaccent" unicode="&#x120;" horiz-adv-x="533" 
d="M241 -6c-43.333 0 -78.4971 6.66992 -105.497 20.0029s-47.667 31.333 -62 54s-22.833 48.334 -25.5 77.001s-1 58.667 5 90l38 197c6.66699 34.667 15.667 68.167 27 100.5s26.666 61 45.999 86s43.5 45 72.5 60s64.833 22.5 107.5 22.5c30 0 57.167 -4.5 81.5 -13.5
s45.333 -21.333 63 -37s31.5 -34.334 41.5 -56.001s16 -45.167 18 -70.5l-138 -39c-1.33301 10 -3.83301 19.667 -7.5 29s-8.5 17.666 -14.5 24.999s-13.5 13.333 -22.5 18s-19.167 7 -30.5 7c-16.667 0 -30.5 -3.5 -41.5 -10.5s-20 -16.5 -27 -28.5
s-12.833 -25.667 -17.5 -41s-8.66699 -31 -12 -47l-45 -228c-2 -10 -2.83301 -19.833 -2.5 -29.5s2.83301 -18 7.5 -25s11.5 -12.667 20.5 -17s21.5 -6.5 37.5 -6.5c14.667 0 27.667 3.16699 39 9.5s21.166 14.5 29.499 24.5s15.166 21.167 20.499 33.5
s9.33301 24.833 12 37.5l6 28h-93l24 123h237l-29 -159c-7.33301 -34.667 -18 -66.334 -32 -95.001s-31.667 -53.334 -53 -74.001s-46.5 -36.667 -75.5 -48s-62.167 -17 -99.5 -17zM298.003 737.003l25 130h133l-25 -130h-133z" />
    <glyph glyph-name="gdotaccent" unicode="&#x121;" horiz-adv-x="462" 
d="M243 34l-4.00195 -0.000976562c-14.667 -13.333 -30.167 -23 -46.5 -29s-32.5 -9 -48.5 -9c-24 0 -43.667 3.83301 -59 11.5s-27.166 18.167 -35.499 31.5s-14.166 28.5 -17.499 45.5s-5 35.167 -5 54.5c1.33301 23.333 3.83301 48.166 7.5 74.499
s9.16699 53.5 16.5 81.5c8 32 17.333 60.667 28 86s23.334 46.833 38.001 64.5s31.834 31.167 51.501 40.5s42.5 14 68.5 14c12.667 0 27.667 -2.66699 45 -8s30.666 -16.333 39.999 -33c0.666992 0.666992 1.16699 0.833984 1.5 0.500977s0.833008 -0.166016 1.5 0.500977
l8 35h139l-92 -490c-6 -30.667 -14 -58.834 -24 -84.501s-23.333 -47.667 -40 -66s-37.5 -32.666 -62.5 -42.999s-54.833 -15.5 -89.5 -15.5c-40 0 -74.5 8.66699 -103.5 26s-50.833 40 -65.5 68l102 74c18 -26 40.667 -39 68 -39c20.667 0 35.667 5 45 15
s15.666 22 18.999 36zM210.998 123.999c9.33301 0 18.167 3.16797 26.5 9.50098s15.833 17.5 22.5 33.5c4.66699 10.667 9 23 13 37s7.5 28 10.5 42s5.5 27.333 7.5 40s3 23.667 3 33c0 4 -0.333008 8.83301 -1 14.5s-2.16699 11.167 -4.5 16.5s-6 9.83301 -11 13.5
s-11.833 5.5 -20.5 5.5c-8 0 -15 -1.83301 -21 -5.5s-11.333 -7.83398 -16 -12.501c-6 -6.66699 -11.5 -16.667 -16.5 -30s-9.5 -28 -13.5 -44s-7.5 -32 -10.5 -48s-4.83301 -29.667 -5.5 -41c-0.666992 -7.33301 -1 -14.833 -1 -22.5s1 -14.5 3 -20.5s5.83301 -11 11.5 -15
s13.5 -6 23.5 -6zM237.999 557l25 130h133l-25 -130h-133z" />
    <glyph glyph-name="Gcommaaccent" unicode="&#x122;" horiz-adv-x="533" 
d="M241 -6c-43.333 0 -78.4971 6.66992 -105.497 20.0029s-47.667 31.333 -62 54s-22.833 48.334 -25.5 77.001s-1 58.667 5 90l38 197c6.66699 34.667 15.667 68.167 27 100.5s26.666 61 45.999 86s43.5 45 72.5 60s64.833 22.5 107.5 22.5c30 0 57.167 -4.5 81.5 -13.5
s45.333 -21.333 63 -37s31.5 -34.334 41.5 -56.001s16 -45.167 18 -70.5l-138 -39c-1.33301 10 -3.83301 19.667 -7.5 29s-8.5 17.666 -14.5 24.999s-13.5 13.333 -22.5 18s-19.167 7 -30.5 7c-16.667 0 -30.5 -3.5 -41.5 -10.5s-20 -16.5 -27 -28.5
s-12.833 -25.667 -17.5 -41s-8.66699 -31 -12 -47l-45 -228c-2 -10 -2.83301 -19.833 -2.5 -29.5s2.83301 -18 7.5 -25s11.5 -12.667 20.5 -17s21.5 -6.5 37.5 -6.5c14.667 0 27.667 3.16699 39 9.5s21.166 14.5 29.499 24.5s15.166 21.167 20.499 33.5
s9.33301 24.833 12 37.5l6 28h-93l24 123h237l-29 -159c-7.33301 -34.667 -18 -66.334 -32 -95.001s-31.667 -53.334 -53 -74.001s-46.5 -36.667 -75.5 -48s-62.167 -17 -99.5 -17zM109.003 -294.997l53 108h-29l25 131h136l-25 -126l-93 -113h-67z" />
    <glyph glyph-name="gcommaaccent" unicode="&#x123;" horiz-adv-x="462" 
d="M243 34l-4.00195 -0.000976562c-14.667 -13.333 -30.167 -23 -46.5 -29s-32.5 -9 -48.5 -9c-24 0 -43.667 3.83301 -59 11.5s-27.166 18.167 -35.499 31.5s-14.166 28.5 -17.499 45.5s-5 35.167 -5 54.5c1.33301 23.333 3.83301 48.166 7.5 74.499
s9.16699 53.5 16.5 81.5c8 32 17.333 60.667 28 86s23.334 46.833 38.001 64.5s31.834 31.167 51.501 40.5s42.5 14 68.5 14c12.667 0 27.667 -2.66699 45 -8s30.666 -16.333 39.999 -33c0.666992 0.666992 1.16699 0.833984 1.5 0.500977s0.833008 -0.166016 1.5 0.500977
l8 35h139l-92 -490c-6 -30.667 -14 -58.834 -24 -84.501s-23.333 -47.667 -40 -66s-37.5 -32.666 -62.5 -42.999s-54.833 -15.5 -89.5 -15.5c-40 0 -74.5 8.66699 -103.5 26s-50.833 40 -65.5 68l102 74c18 -26 40.667 -39 68 -39c20.667 0 35.667 5 45 15
s15.666 22 18.999 36zM346.998 811.999h66l-52 -107h28l-12.5 -66c-4.33301 -22 -8.83301 -43.667 -13.5 -65h-135l25 126zM210.998 123.999c9.33301 0 18.167 3.16797 26.5 9.50098s15.833 17.5 22.5 33.5c4.66699 10.667 9 23 13 37s7.5 28 10.5 42s5.5 27.333 7.5 40
s3 23.667 3 33c0 4 -0.333008 8.83301 -1 14.5s-2.16699 11.167 -4.5 16.5s-6 9.83301 -11 13.5s-11.833 5.5 -20.5 5.5c-8 0 -15 -1.83301 -21 -5.5s-11.333 -7.83398 -16 -12.501c-6 -6.66699 -11.5 -16.667 -16.5 -30s-9.5 -28 -13.5 -44s-7.5 -32 -10.5 -48
s-4.83301 -29.667 -5.5 -41c-0.666992 -7.33301 -1 -14.833 -1 -22.5s1 -14.5 3 -20.5s5.83301 -11 11.5 -15s13.5 -6 23.5 -6z" />
    <glyph glyph-name="Hcircumflex" unicode="&#x124;" horiz-adv-x="560" 
d="M318 0l56 286h-156l-55 -286h-143l135 696h143l-54 -278h156l54 278h142l-135 -696h-143zM406 807l-153 -81l-42 52l167 132h89l114 -131l-59 -54z" />
    <glyph glyph-name="hcircumflex" unicode="&#x125;" horiz-adv-x="476" 
d="M248 -1l61.0029 314.003c3.33301 17.333 1.83301 31 -4.5 41s-17.5 15 -33.5 15c-15.333 0 -28.833 -5.5 -40.5 -16.5s-19.5 -25.833 -23.5 -44.5l-59 -309h-138l142 728h139l-55 -273l4 -1c13.333 14 29.666 25.333 48.999 34s37.666 13 54.999 13
c24.667 0 45.167 -3.83301 61.5 -11.5s28.666 -18.334 36.999 -32.001s13.333 -29.834 15 -48.501s0.166992 -39.334 -4.5 -62.001l-66 -347h-139zM243.003 807.003l-153 -81l-42 52l167 132h89l114 -131l-59 -54z" />
    <glyph glyph-name="Hbar" unicode="&#x126;" horiz-adv-x="560" 
d="M318 0l56 286h-156l-55 -286h-143l98 508h-50l17 87h50l20 101h143l-20 -101h156l20 101h142l-20 -101h44l-16 -87h-45l-98 -508h-143zM400 418l17 90h-156l-17 -90h156z" />
    <glyph glyph-name="hbar" unicode="&#x127;" horiz-adv-x="477" 
d="M248 -1l61.0029 314.003c3.33301 17.333 1.83301 31 -4.5 41s-17.5 15 -33.5 15c-15.333 0 -28.833 -5.5 -40.5 -16.5s-19.5 -25.833 -23.5 -44.5l-59 -309h-138l109 559h-55l16 85h55l17 84h139l-17 -84h137l-16 -85h-138l-21 -104l4 -1
c13.333 14 29.666 25.333 48.999 34s37.666 13 54.999 13c24.667 0 45.167 -3.83301 61.5 -11.5s28.666 -18.334 36.999 -32.001s13.333 -29.834 15 -48.501s0.166992 -39.334 -4.5 -62.001l-66 -347h-139z" />
    <glyph glyph-name="Itilde" unicode="&#x128;" horiz-adv-x="265" 
d="M20 0l135 696h143l-135 -696h-143zM185 873c12 0 23.4971 -2.33203 34.4971 -6.99902s21.667 -9.5 32 -14.5l29 -14c9 -4.33301 17.167 -6.5 24.5 -6.5c10 0 19.833 2.5 29.5 7.5s22.834 16.167 39.501 33.5l62 -37c-20 -39.333 -40.833 -66.333 -62.5 -81
s-44.167 -22 -67.5 -22c-12.667 0 -24.5 2.16699 -35.5 6.5s-21.5 9 -31.5 14l-28.5 14c-9 4.33301 -17.833 6.5 -26.5 6.5c-9.33301 0 -19.5 -2.83301 -30.5 -8.5s-24.833 -17.167 -41.5 -34.5l-60 41c22.667 39.333 44.834 66.166 66.501 80.499s43.834 21.5 66.501 21.5z
" />
    <glyph glyph-name="itilde" unicode="&#x129;" horiz-adv-x="304" 
d="M182 698c12 0 23.4971 -2.33203 34.4971 -6.99902s21.667 -9.5 32 -14.5l29 -14c9 -4.33301 17.167 -6.5 24.5 -6.5c10 0 19.833 2.5 29.5 7.5s22.834 16.167 39.501 33.5l62 -37c-20 -39.333 -40.833 -66.333 -62.5 -81s-44.167 -22 -67.5 -22
c-12.667 0 -24.5 2.16699 -35.5 6.5s-21.5 9 -31.5 14l-28.5 14c-9 4.33301 -17.833 6.5 -26.5 6.5c-9.33301 0 -19.5 -2.83301 -30.5 -8.5s-24.833 -17.167 -41.5 -34.5l-60 41c22.667 39.333 44.834 66.166 66.501 80.499s43.834 21.5 66.501 21.5zM53.9971 0.000976562
l96 495h138l-96 -495h-138z" />
    <glyph glyph-name="Imacron" unicode="&#x12a;" horiz-adv-x="265" 
d="M20 0l135 696h143l-135 -696h-143zM90 752l23 114h292l-22 -114h-293z" />
    <glyph glyph-name="imacron" unicode="&#x12b;" horiz-adv-x="288" 
d="M73 572l22 114h292l-22 -114h-292zM43 0l96 495h138l-96 -495h-138z" />
    <glyph glyph-name="Ibreve" unicode="&#x12c;" horiz-adv-x="265" 
d="M20 0l135 696h143l-135 -696h-143zM233 728c-29.333 0 -53.165 5.66699 -71.498 17s-32.5 25.5 -42.5 42.5s-16.333 35.333 -19 55s-2.66699 37.834 0 54.501h102c-1.33301 -7.33301 -1.5 -15.166 -0.5 -23.499s3.33301 -16.166 7 -23.499s8.66699 -13.5 15 -18.5
s14.166 -7.5 23.499 -7.5c10 0 19.167 2.5 27.5 7.5s15.666 11.167 21.999 18.5s11.5 15.166 15.5 23.499s7 16.166 9 23.499h103c-4.66699 -19.333 -11.667 -38.833 -21 -58.5s-21.5 -37.834 -36.5 -54.501s-33.5 -30.167 -55.5 -40.5s-48 -15.5 -78 -15.5z" />
    <glyph glyph-name="ibreve" unicode="&#x12d;" horiz-adv-x="280" 
d="M214 548c-29.333 0 -53.166 5.66602 -71.499 16.999s-32.5 25.5 -42.5 42.5s-16.333 35.333 -19 55s-2.66699 37.834 0 54.501h103c-1.33301 -7.33301 -1.5 -15.166 -0.5 -23.499s3.33301 -16.166 7 -23.499s8.66699 -13.333 15 -18s14.166 -7 23.499 -7
c10 0 19 2.33301 27 7s15.167 10.667 21.5 18s11.666 15.166 15.999 23.499s7.16602 16.166 8.49902 23.499h104c-4 -18.667 -10.667 -38 -20 -58s-21.666 -38.167 -36.999 -54.5s-34.166 -29.833 -56.499 -40.5s-48.5 -16 -78.5 -16zM34 -0.000976562l96 495h138l-96 -495
h-138z" />
    <glyph glyph-name="Iogonek" unicode="&#x12e;" horiz-adv-x="265" 
d="M-11 -119c1.33301 15.333 6.83594 32.667 16.5029 52s25.167 41.666 46.5 66.999h-32l135 696h143l-135 -696h-29c-22.667 -26 -37.334 -47.667 -44.001 -65s-10.667 -28.666 -12 -33.999c-1.33301 -10 1 -17.5 7 -22.5s14.333 -7.5 25 -7.5c6 0 14 1 24 3
s22 6.33301 36 13l14 -66c-18.667 -10.667 -37.334 -18 -56.001 -22s-36.334 -6 -53.001 -6c-28.667 0 -51 8.16699 -67 24.5s-22.333 37.5 -19 63.5z" />
    <glyph glyph-name="iogonek" unicode="&#x12f;" horiz-adv-x="245" 
d="M-20 -119c1.33301 15.333 6.83594 32.667 16.5029 52s25.167 41.666 46.5 66.999h-29l96 495h138l-96 -495h-27c-22.667 -26 -37.334 -47.667 -44.001 -65s-10.667 -28.666 -12 -33.999c-1.33301 -10 1 -17.5 7 -22.5s14.333 -7.5 25 -7.5c6 0 14 1 24 3
s22 6.33301 36 13l14 -66c-18.667 -10.667 -37.334 -18 -56.001 -22s-36.334 -6 -53.001 -6c-28.667 0 -51 8.16699 -67 24.5s-22.333 37.5 -19 63.5zM124.003 569.001l25 127h138l-24 -127h-139z" />
    <glyph glyph-name="Idotaccent" unicode="&#x130;" horiz-adv-x="265" 
d="M20 0l135 696h143l-135 -696h-143zM166 737l25 130h133l-25 -130h-133z" />
    <glyph glyph-name="dotlessi" unicode="&#x131;" horiz-adv-x="245" 
d="M14 0l96 495h138l-96 -495h-138z" />
    <glyph glyph-name="IJ" unicode="&#x132;" horiz-adv-x="719" 
d="M20 0l135 696h143l-135 -696h-143zM660 197c-12 -63.333 -35.0029 -112.834 -69.0029 -148.501s-84.333 -53.5 -151 -53.5c-36 0 -69.667 7.83301 -101 23.5s-56.666 39.834 -75.999 72.501l109 83c8.66699 -13.333 18.834 -24.333 30.501 -33s24.834 -13 39.501 -13
c23.333 0 41 7 53 21s20 31.667 24 53l96 494h143z" />
    <glyph glyph-name="ij" unicode="&#x133;" horiz-adv-x="512" 
d="M408 -43c-10 -50.667 -31.1689 -89.332 -63.502 -115.999s-72.5 -40 -120.5 -40h-11c-5.33301 0 -11.166 0.166992 -17.499 0.5s-12.333 0.666016 -18 0.999023s-9.16699 0.5 -10.5 0.5l24 126h24c10.667 0 19.5 2 26.5 6s12.833 9 17.5 15s8.33398 12.833 11.001 20.5
s4.66699 15.5 6 23.5l98 502h138zM13.998 0.00195312l96 495h138l-96 -495h-138zM387.998 569.002l25 127h138l-24 -127h-139zM123.998 569.002l25 127h138l-24 -127h-139z" />
    <glyph glyph-name="Jcircumflex" unicode="&#x134;" horiz-adv-x="431" 
d="M372 198c-12 -63.333 -35.0029 -112.834 -69.0029 -148.501s-84.333 -53.5 -151 -53.5c-36 0 -69.667 7.83301 -101 23.5s-56.666 39.834 -75.999 72.501l109 83c8.66699 -13.333 18.834 -24.333 30.501 -33s24.834 -13 39.501 -13c23.333 0 41 7 53 21s20 31.667 24 53
l96 494h143zM417.997 808.999l-153 -81l-42 52l167 132h89l114 -131l-59 -54z" />
    <glyph glyph-name="jcircumflex" unicode="&#x135;" horiz-adv-x="328" 
d="M191 -44c-10 -50.667 -31.1689 -89.332 -63.502 -115.999s-72.5 -40 -120.5 -40h-11c-5.33301 0 -11.166 0.166992 -17.499 0.5s-12.333 0.666016 -18 0.999023s-9.16699 0.5 -10.5 0.5l24 126h24c10.667 0 19.5 2 26.5 6s12.833 9 17.5 15s8.33398 12.833 11.001 20.5
s4.66699 15.5 6 23.5l98 503h138zM251.998 625.002l-155 -104l-44 47l171 157h91l110 -162l-61 -41z" />
    <glyph glyph-name="Kcommaaccent" unicode="&#x136;" horiz-adv-x="545" 
d="M251 450c2 0 3.66797 -0.332031 5.00098 -0.999023l43.5 51l42.5 50l23.5 27.5l40.5 46l40.5 46c12.333 14.333 20.166 23.166 23.499 26.499h167l-248 -289l127 -407h-151l-43.5 141.5l-42.5 141.5l-78 -84l-38 -199h-143l135 696h143zM144.001 -274.999l53 108h-29
l25 131h136l-25 -126l-93 -113h-67z" />
    <glyph glyph-name="kcommaaccent" unicode="&#x137;" horiz-adv-x="478" 
d="M216 357c1.33301 0 2.16602 -0.166016 2.49902 -0.499023s0.833008 -0.5 1.5 -0.5c11.333 11.333 21.833 22.5 31.5 33.5s19.834 21.833 30.501 32.5l72 72h174l-204 -201l112 -293h-157l-32.5 92l-31.5 93l-40 -36l-14 -75
c-4.66699 -24.667 -9.66699 -49.334 -15 -74.001h-138l71 363l71 363h138zM91 -294.999l53 108h-29l25 131h136l-25 -126l-93 -113h-67z" />
    <glyph glyph-name="kgreenlandic" unicode="&#x138;" horiz-adv-x="478" 
d="M219 357c1.33301 0 2.16699 -0.166016 2.5 -0.499023s0.833008 -0.5 1.5 -0.5l62 66l73 72h175l-103 -99.5l-102 -99.5l111 -295h-157l-32.5 92l-31.5 93l-40 -36l-14 -75c-4.66699 -24.667 -9.66699 -49.334 -15 -74.001h-138l96 494h138l-26 -137v0z" />
    <glyph glyph-name="Lacute" unicode="&#x139;" horiz-adv-x="476" 
d="M20 0l135 696h143l-108 -560h257l-26 -136h-401zM188 784l194 135l78 -91l-224 -106z" />
    <glyph glyph-name="lacute" unicode="&#x13a;" horiz-adv-x="257" 
d="M153 -2c-44 0 -77.001 12 -99.001 36s-27.667 62.667 -17 116l112 576h140l-109 -557c-3.33301 -19.333 -2.16602 -32 3.50098 -38s15.167 -9 28.5 -9h16l-24 -124h-51zM174.999 804l194 135l78 -91l-224 -106z" />
    <glyph glyph-name="Lcommaaccent" unicode="&#x13b;" horiz-adv-x="476" 
d="M20 0l135 696h143l-108 -560h257l-26 -136h-401zM103 -295l53 108h-29l25 131h136l-25 -126l-93 -113h-67z" />
    <glyph glyph-name="lcommaaccent" unicode="&#x13c;" horiz-adv-x="257" 
d="M153 -2c-44 0 -77.001 12 -99.001 36s-27.667 62.667 -17 116l112 576h140l-109 -557c-3.33301 -19.333 -2.16602 -32 3.50098 -38s15.167 -9 28.5 -9h16l-24 -124h-51zM-18.001 -293l53 108h-29l25 131h136l-25 -126l-93 -113h-67z" />
    <glyph glyph-name="Lcaron" unicode="&#x13d;" horiz-adv-x="476" 
d="M20 0l135 696h143l-108 -560h257l-26 -136h-401zM324 457l53 108h-29l25 131h136l-25 -126l-93 -113h-67z" />
    <glyph glyph-name="lcaron" unicode="&#x13e;" horiz-adv-x="356" 
d="M289 487l53 108h-29l25 131h136l-25 -126l-93 -113h-67zM153 -2c-44 0 -77.001 12 -99.001 36s-27.667 62.667 -17 116l112 576h140l-109 -557c-3.33301 -19.333 -2.16602 -32 3.50098 -38s15.167 -9 28.5 -9h16l-24 -124h-51z" />
    <glyph glyph-name="Ldot" unicode="&#x13f;" horiz-adv-x="476" 
d="M20 0l135 696h143l-108 -560h257l-26 -136h-401zM322 301l25 130h133l-25 -130h-133z" />
    <glyph glyph-name="ldot" unicode="&#x140;" horiz-adv-x="359" 
d="M254 319l25 130h133l-25 -130h-133zM153 -2c-44 0 -77.001 12 -99.001 36s-27.667 62.667 -17 116l112 576h140l-109 -557c-3.33301 -19.333 -2.16602 -32 3.50098 -38s15.167 -9 28.5 -9h16l-24 -124h-51z" />
    <glyph glyph-name="Lslash" unicode="&#x141;" horiz-adv-x="476" 
d="M20 0l45 235l-54 -31l-31 73l105 60l70 359h143l-52 -267l82 47l32 -73l-133 -76l-37 -191h257l-26 -136h-401z" />
    <glyph glyph-name="lslash" unicode="&#x142;" horiz-adv-x="305" 
d="M172 -2c-44 0 -77.001 12 -99.001 36s-27.667 62.667 -17 116l23 117l-45 -25l-30 73l94 54l70 357h140l-53 -267l62 35l32 -73l-114 -65l-36 -187c-3.33301 -19.333 -2.16602 -32 3.50098 -38s15.167 -9 28.5 -9h16l-24 -124h-51z" />
    <glyph glyph-name="Nacute" unicode="&#x143;" horiz-adv-x="589" 
d="M367 0l-83 241.999l-45 149h-3l-75 -391h-142l135 696h126l69 -221c0.666992 -5.33301 4 -17.166 10 -35.499l19.5 -59c7 -21 13.333 -40.833 19 -59.5s8.5 -31 8.5 -37h4l76 412h141l-135 -696h-125zM331 783.999l194 135l78 -91l-224 -106z" />
    <glyph glyph-name="nacute" unicode="&#x144;" horiz-adv-x="477" 
d="M244 495l-7.99707 -40.9971l4 -1c13.333 14 29.666 25.333 48.999 34s37.666 13 54.999 13c24.667 0 45.167 -3.83301 61.5 -11.5s28.666 -18.334 36.999 -32.001s13.333 -29.834 15 -48.501s0.166992 -39.334 -4.5 -62.001l-66 -347h-139l61 314
c3.33301 17.333 1.83301 31 -4.5 41s-17.5 15 -33.5 15c-15.333 0 -28.833 -5.5 -40.5 -16.5s-19.5 -25.833 -23.5 -44.5l-59 -309h-138l97 496h137zM222.003 570.003l130 195l111 -48l-171 -183z" />
    <glyph glyph-name="Ncommaaccent" unicode="&#x145;" horiz-adv-x="589" 
d="M367 0l-83 241.999l-45 149h-3l-75 -391h-142l135 696h126l69 -221c0.666992 -5.33301 4 -17.166 10 -35.499l19.5 -59c7 -21 13.333 -40.833 19 -59.5s8.5 -31 8.5 -37h4l76 412h141l-135 -696h-125zM151 -275.001l53 108h-29l25 131h136l-25 -126l-93 -113h-67z" />
    <glyph glyph-name="ncommaaccent" unicode="&#x146;" horiz-adv-x="477" 
d="M244 495l-7.99707 -40.9971l4 -1c13.333 14 29.666 25.333 48.999 34s37.666 13 54.999 13c24.667 0 45.167 -3.83301 61.5 -11.5s28.666 -18.334 36.999 -32.001s13.333 -29.834 15 -48.501s0.166992 -39.334 -4.5 -62.001l-66 -347h-139l61 314
c3.33301 17.333 1.83301 31 -4.5 41s-17.5 15 -33.5 15c-15.333 0 -28.833 -5.5 -40.5 -16.5s-19.5 -25.833 -23.5 -44.5l-59 -309h-138l97 496h137zM76.0029 -294.997l53 108h-29l25 131h136l-25 -126l-93 -113h-67z" />
    <glyph glyph-name="Ncaron" unicode="&#x147;" horiz-adv-x="589" 
d="M367 0l-83 241.999l-45 149h-3l-75 -391h-142l135 696h126l69 -221c0.666992 -5.33301 4 -17.166 10 -35.499l19.5 -59c7 -21 13.333 -40.833 19 -59.5s8.5 -31 8.5 -37h4l76 412h141l-135 -696h-125zM560 911.999l43 -53l-168 -132h-89l-113 131l58 53l117 -82z" />
    <glyph glyph-name="ncaron" unicode="&#x148;" horiz-adv-x="477" 
d="M244 495l-7.99707 -40.9971l4 -1c13.333 14 29.666 25.333 48.999 34s37.666 13 54.999 13c24.667 0 45.167 -3.83301 61.5 -11.5s28.666 -18.334 36.999 -32.001s13.333 -29.834 15 -48.501s0.166992 -39.334 -4.5 -62.001l-66 -347h-139l61 314
c3.33301 17.333 1.83301 31 -4.5 41s-17.5 15 -33.5 15c-15.333 0 -28.833 -5.5 -40.5 -16.5s-19.5 -25.833 -23.5 -44.5l-59 -309h-138l97 496h137zM454.003 732.003l45.001 -48l-169 -157h-91l-110 157l62 48c5.33301 -4 13.166 -10.667 23.499 -20l32 -29.5l31.5 -29.5
c10 -9.33301 17.667 -16 23 -20z" />
    <glyph glyph-name="napostrophe" unicode="&#x149;" horiz-adv-x="575" 
d="M342 495l-7.99707 -40.9971l4 -1c13.333 14 29.666 25.333 48.999 34s37.666 13 54.999 13c24.667 0 45.167 -3.83301 61.5 -11.5s28.666 -18.334 36.999 -32.001s13.333 -29.834 15 -48.501s0.166992 -39.334 -4.5 -62.001l-66 -347h-139l61 314
c3.33301 17.333 1.83301 31 -4.5 41s-17.5 15 -33.5 15c-15.333 0 -28.833 -5.5 -40.5 -16.5s-19.5 -25.833 -23.5 -44.5l-59 -309h-138l97 496h137zM33.0029 432.003l53 108h-29l25 131h136l-25 -126l-93 -113h-67z" />
    <glyph glyph-name="Eng" unicode="&#x14a;" horiz-adv-x="589" 
d="M409 284l38.499 206.003l37.5 206h142l-149 -765c-7.33301 -40 -24 -68.667 -50 -86s-57 -26 -93 -26c-15.333 0 -31 1.66699 -47 5s-30.667 7.66602 -44 12.999l30 96c10.667 -2 20 -3 28 -3c14 0 24.5 3.16699 31.5 9.5s11.5 15.166 13.5 26.499l12 66l-81 246
c-6 19.333 -12.5 38.166 -19.5 56.499s-13.5 37.166 -19.5 56.499c-1.33301 0 -2 -0.166992 -2 -0.5s-0.666992 -0.5 -2 -0.5l-37 -195l-37 -195h-143l135 696h127l15 -47l22.5 -73.5l26.5 -87l26 -86l22 -72.5c6.66699 -21.333 11.334 -36.666 14.001 -45.999h3z" />
    <glyph glyph-name="eng" unicode="&#x14b;" horiz-adv-x="477" 
d="M235 451c1.33301 0 1.99902 -0.170898 1.99902 -0.503906s0.666992 -0.5 2 -0.5c14 15.333 31 27.5 51 36.5s38.667 13.5 56 13.5c26.667 0 48 -4.33301 64 -13s27.833 -20.167 35.5 -34.5s11.834 -30.666 12.501 -48.999s-1 -37.5 -5 -57.5l-80 -415
c-8 -39.333 -24.5 -68.166 -49.5 -86.499s-55.5 -27.5 -91.5 -27.5c-15.333 0 -31.333 1.83301 -48 5.5s-31.667 8.5 -45 14.5l29 96c10.667 -2 20.334 -3 29.001 -3c14 0 24.167 3 30.5 9s10.833 15 13.5 27l68 347c3.33301 16 1.66602 29.333 -5.00098 40
s-17.667 16 -33 16s-29 -5.5 -41 -16.5s-19.667 -25.833 -23 -44.5l-6.5 -34l-10.5 -54.5l-12.5 -65.5l-12.5 -65.5l-10.5 -54.5l-6.5 -34h-138l96 495h139c-2 -7.33301 -3.66699 -14.666 -5 -21.999s-3 -14.666 -5 -21.999z" />
    <glyph glyph-name="Omacron" unicode="&#x14c;" horiz-adv-x="535" 
d="M492 219c-6.66699 -34.667 -16 -65.8262 -28 -93.4932s-27.333 -51.334 -46 -71.001s-41.167 -34.667 -67.5 -45s-56.833 -15.5 -91.5 -15.5c-45.333 0 -82.833 6.83301 -112.5 20.5s-52.834 32.167 -69.501 55.5s-27.167 50.166 -31.5 80.499
s-3.16602 62.166 3.50098 95.499l47 232c4.66699 26 12.667 52.167 24 78.5s26.666 50.166 45.999 71.499s43.333 38.833 72 52.5s63.334 20.5 104.001 20.5c38 0 70.833 -6.83301 98.5 -20.5s49.667 -31.834 66 -54.501s27.333 -48.334 33 -77.001
s5.5 -58.334 -0.5 -89.001zM396 478.008c1.33301 8 1.33398 16.667 0.000976562 26s-4.66602 18.333 -9.99902 27s-12.833 15.834 -22.5 21.501s-21.834 8.5 -36.501 8.5s-27 -2.5 -37 -7.5s-18.333 -11.333 -25 -19s-11.834 -16 -15.501 -25s-6.16699 -17.5 -7.5 -25.5
l-49 -253c-6 -32 -2.83301 -56.167 9.5 -72.5s32.833 -24.5 61.5 -24.5c20.667 0 38 6.66699 52 20s23.333 31.666 28 54.999zM221.001 752.008l23 114h292l-22 -114h-293z" />
    <glyph glyph-name="omacron" unicode="&#x14d;" horiz-adv-x="459" 
d="M276 501c30.667 0 56.668 -4.5 78.001 -13.5s38.666 -21.167 51.999 -36.5s23.166 -33.166 29.499 -53.499s9.5 -41.5 9.5 -63.5c0 -20.667 -1.5 -41.834 -4.5 -63.501s-6.5 -41.834 -10.5 -60.501c-7.33301 -32 -16.666 -61.333 -27.999 -88s-26 -49.5 -44 -68.5
s-39.833 -33.667 -65.5 -44s-56.5 -15.5 -92.5 -15.5c-34 0 -61.833 5 -83.5 15s-38.667 23.333 -51 40s-20.666 35.834 -24.999 57.501s-6.5 44.167 -6.5 67.5c0 14.667 1.16699 33.167 3.5 55.5s6.16602 43.5 11.499 63.5c9.33301 38 22.166 71.833 38.499 101.5
s37.5 53.5 63.5 71.5c34.667 23.333 76.334 35 125.001 35zM264.001 374c-18 0 -32.499 -7.83301 -43.499 -23.5s-21.167 -39.5 -30.5 -71.5c-2 -8 -4.16699 -17.333 -6.5 -28s-4.16602 -21.334 -5.49902 -32.001s-2.5 -20.5 -3.5 -29.5s-1.5 -15.5 -1.5 -19.5
c0 -12.667 2.66699 -23.667 8 -33s16.666 -14 33.999 -14c7.33301 0 14.166 1.83301 20.499 5.5s11.833 7.83398 16.5 12.501c6 6 11.833 15.333 17.5 28s10.834 27.167 15.501 43.5s8.5 33.333 11.5 51s4.83301 34.167 5.5 49.5c0.666992 14.667 -1.33301 28.5 -6 41.5
s-15.334 19.5 -32.001 19.5zM156.002 572l22 114h292l-22 -114h-292z" />
    <glyph glyph-name="Obreve" unicode="&#x14e;" horiz-adv-x="535" 
d="M492 219c-6.66699 -34.667 -16 -65.8262 -28 -93.4932s-27.333 -51.334 -46 -71.001s-41.167 -34.667 -67.5 -45s-56.833 -15.5 -91.5 -15.5c-45.333 0 -82.833 6.83301 -112.5 20.5s-52.834 32.167 -69.501 55.5s-27.167 50.166 -31.5 80.499
s-3.16602 62.166 3.50098 95.499l47 232c4.66699 26 12.667 52.167 24 78.5s26.666 50.166 45.999 71.499s43.333 38.833 72 52.5s63.334 20.5 104.001 20.5c38 0 70.833 -6.83301 98.5 -20.5s49.667 -31.834 66 -54.501s27.333 -48.334 33 -77.001
s5.5 -58.334 -0.5 -89.001zM396 478.008c1.33301 8 1.33398 16.667 0.000976562 26s-4.66602 18.333 -9.99902 27s-12.833 15.834 -22.5 21.501s-21.834 8.5 -36.501 8.5s-27 -2.5 -37 -7.5s-18.333 -11.333 -25 -19s-11.834 -16 -15.501 -25s-6.16699 -17.5 -7.5 -25.5
l-49 -253c-6 -32 -2.83301 -56.167 9.5 -72.5s32.833 -24.5 61.5 -24.5c20.667 0 38 6.66699 52 20s23.333 31.666 28 54.999zM368.001 728.008c-29.333 0 -53.165 5.66699 -71.498 17s-32.5 25.5 -42.5 42.5s-16.333 35.333 -19 55s-2.66699 37.834 0 54.501h102
c-1.33301 -7.33301 -1.5 -15.166 -0.5 -23.499s3.33301 -16.166 7 -23.499s8.66699 -13.5 15 -18.5s14.166 -7.5 23.499 -7.5c10 0 19.167 2.5 27.5 7.5s15.666 11.167 21.999 18.5s11.5 15.166 15.5 23.499s7 16.166 9 23.499h103
c-4.66699 -19.333 -11.667 -38.833 -21 -58.5s-21.5 -37.834 -36.5 -54.501s-33.5 -30.167 -55.5 -40.5s-48 -15.5 -78 -15.5z" />
    <glyph glyph-name="obreve" unicode="&#x14f;" horiz-adv-x="459" 
d="M276 501c30.667 0 56.668 -4.5 78.001 -13.5s38.666 -21.167 51.999 -36.5s23.166 -33.166 29.499 -53.499s9.5 -41.5 9.5 -63.5c0 -20.667 -1.5 -41.834 -4.5 -63.501s-6.5 -41.834 -10.5 -60.501c-7.33301 -32 -16.666 -61.333 -27.999 -88s-26 -49.5 -44 -68.5
s-39.833 -33.667 -65.5 -44s-56.5 -15.5 -92.5 -15.5c-34 0 -61.833 5 -83.5 15s-38.667 23.333 -51 40s-20.666 35.834 -24.999 57.501s-6.5 44.167 -6.5 67.5c0 14.667 1.16699 33.167 3.5 55.5s6.16602 43.5 11.499 63.5c9.33301 38 22.166 71.833 38.499 101.5
s37.5 53.5 63.5 71.5c34.667 23.333 76.334 35 125.001 35zM264.001 374c-18 0 -32.499 -7.83301 -43.499 -23.5s-21.167 -39.5 -30.5 -71.5c-2 -8 -4.16699 -17.333 -6.5 -28s-4.16602 -21.334 -5.49902 -32.001s-2.5 -20.5 -3.5 -29.5s-1.5 -15.5 -1.5 -19.5
c0 -12.667 2.66699 -23.667 8 -33s16.666 -14 33.999 -14c7.33301 0 14.166 1.83301 20.499 5.5s11.833 7.83398 16.5 12.501c6 6 11.833 15.333 17.5 28s10.834 27.167 15.501 43.5s8.5 33.333 11.5 51s4.83301 34.167 5.5 49.5c0.666992 14.667 -1.33301 28.5 -6 41.5
s-15.334 19.5 -32.001 19.5zM294.002 542c-29.333 0 -53.166 5.66602 -71.499 16.999s-32.5 25.5 -42.5 42.5s-16.333 35.333 -19 55s-2.66699 37.834 0 54.501h103c-1.33301 -7.33301 -1.5 -15.166 -0.5 -23.499s3.33301 -16.166 7 -23.499s8.66699 -13.333 15 -18
s14.166 -7 23.499 -7c10 0 19 2.33301 27 7s15.167 10.667 21.5 18s11.666 15.166 15.999 23.499s7.16602 16.166 8.49902 23.499h104c-4 -18.667 -10.667 -38 -20 -58s-21.666 -38.167 -36.999 -54.5s-34.166 -29.833 -56.499 -40.5s-48.5 -16 -78.5 -16z" />
    <glyph glyph-name="Ohungarumlaut" unicode="&#x150;" horiz-adv-x="535" 
d="M492 219c-6.66699 -34.667 -16 -65.8262 -28 -93.4932s-27.333 -51.334 -46 -71.001s-41.167 -34.667 -67.5 -45s-56.833 -15.5 -91.5 -15.5c-45.333 0 -82.833 6.83301 -112.5 20.5s-52.834 32.167 -69.501 55.5s-27.167 50.166 -31.5 80.499
s-3.16602 62.166 3.50098 95.499l47 232c4.66699 26 12.667 52.167 24 78.5s26.666 50.166 45.999 71.499s43.333 38.833 72 52.5s63.334 20.5 104.001 20.5c38 0 70.833 -6.83301 98.5 -20.5s49.667 -31.834 66 -54.501s27.333 -48.334 33 -77.001
s5.5 -58.334 -0.5 -89.001zM396 478.008c1.33301 8 1.33398 16.667 0.000976562 26s-4.66602 18.333 -9.99902 27s-12.833 15.834 -22.5 21.501s-21.834 8.5 -36.501 8.5s-27 -2.5 -37 -7.5s-18.333 -11.333 -25 -19s-11.834 -16 -15.501 -25s-6.16699 -17.5 -7.5 -25.5
l-49 -253c-6 -32 -2.83301 -56.167 9.5 -72.5s32.833 -24.5 61.5 -24.5c20.667 0 38 6.66699 52 20s23.333 31.666 28 54.999zM186.001 785.008l192 141l72 -94l-219 -111zM398.001 785.008l191 141l72 -94l-219 -111z" />
    <glyph glyph-name="ohungarumlaut" unicode="&#x151;" horiz-adv-x="459" 
d="M276 501c30.667 0 56.668 -4.5 78.001 -13.5s38.666 -21.167 51.999 -36.5s23.166 -33.166 29.499 -53.499s9.5 -41.5 9.5 -63.5c0 -20.667 -1.5 -41.834 -4.5 -63.501s-6.5 -41.834 -10.5 -60.501c-7.33301 -32 -16.666 -61.333 -27.999 -88s-26 -49.5 -44 -68.5
s-39.833 -33.667 -65.5 -44s-56.5 -15.5 -92.5 -15.5c-34 0 -61.833 5 -83.5 15s-38.667 23.333 -51 40s-20.666 35.834 -24.999 57.501s-6.5 44.167 -6.5 67.5c0 14.667 1.16699 33.167 3.5 55.5s6.16602 43.5 11.499 63.5c9.33301 38 22.166 71.833 38.499 101.5
s37.5 53.5 63.5 71.5c34.667 23.333 76.334 35 125.001 35zM264.001 374c-18 0 -32.499 -7.83301 -43.499 -23.5s-21.167 -39.5 -30.5 -71.5c-2 -8 -4.16699 -17.333 -6.5 -28s-4.16602 -21.334 -5.49902 -32.001s-2.5 -20.5 -3.5 -29.5s-1.5 -15.5 -1.5 -19.5
c0 -12.667 2.66699 -23.667 8 -33s16.666 -14 33.999 -14c7.33301 0 14.166 1.83301 20.499 5.5s11.833 7.83398 16.5 12.501c6 6 11.833 15.333 17.5 28s10.834 27.167 15.501 43.5s8.5 33.333 11.5 51s4.83301 34.167 5.5 49.5c0.666992 14.667 -1.33301 28.5 -6 41.5
s-15.334 19.5 -32.001 19.5zM315.002 570l130 195l112 -48l-171 -183zM135.002 570l130 195l112 -48l-171 -183z" />
    <glyph glyph-name="OE" unicode="&#x152;" horiz-adv-x="737" 
d="M336 0c-19.333 -4 -39.333 -5.99707 -60 -5.99707c-45.333 0 -82.833 6.83301 -112.5 20.5s-52.834 32.167 -69.501 55.5s-27.167 50.166 -31.5 80.499s-3.16602 62.166 3.50098 95.499l45 232c4.66699 26 12.667 52.167 24 78.5s26.833 50.166 46.5 71.499
s44 38.833 73 52.5s63.833 20.5 104.5 20.5c9.33301 0 18.333 -0.5 27 -1.5s17 -2.16699 25 -3.5h399l-26 -134h-257l-29 -144h222l-26 -133h-222l-28 -151h257l-26 -134h-339zM281 134.003l9.50098 -0.000976562c3 0 6.16699 0.666992 9.5 2l81 416
c-5.33301 2.66699 -11 4.83398 -17 6.50098s-12.667 2.5 -20 2.5c-14.667 0 -27 -2.5 -37 -7.5s-18.333 -11.333 -25 -19s-11.834 -16 -15.501 -25s-6.16699 -17.5 -7.5 -25.5l-49 -253c-6 -32 -3.66699 -56.167 7 -72.5s32 -24.5 64 -24.5z" />
    <glyph glyph-name="oe" unicode="&#x153;" horiz-adv-x="716" 
d="M455 -5c-51.333 0 -91.332 12.668 -119.999 38.001c-16.667 -12.667 -36 -22.334 -58 -29.001s-47.667 -10 -77 -10c-34 0 -61.833 5 -83.5 15s-38.667 23.333 -51 40s-20.666 35.834 -24.999 57.501s-6.5 44.167 -6.5 67.5c0 14.667 1.16699 33.167 3.5 55.5
s6.16602 43.5 11.499 63.5c9.33301 38 22.166 71.833 38.499 101.5s37.5 53.5 63.5 71.5c34.667 23.333 76.334 35 125.001 35c28 0 51.833 -3.66699 71.5 -11s36.167 -17.333 49.5 -30c16.667 13.333 35.5 23.666 56.5 30.999s44.5 11 70.5 11
c29.333 0 54.833 -3.5 76.5 -10.5s39.5 -16.333 53.5 -28s24.333 -25.5 31 -41.5s10 -33 10 -51c0 -33.333 -6.5 -61.166 -19.5 -83.499s-30.333 -40.333 -52 -54s-46 -23.334 -73 -29.001s-54.5 -8.5 -82.5 -8.5h-17c-5.33301 0 -11 0.333008 -17 1
c-1.33301 -6 -2.33301 -12.333 -3 -19s-1 -12 -1 -16c0.666992 -12.667 5.16699 -22.334 13.5 -29.001s17.833 -10 28.5 -10c14 0 27.5 3.16699 40.5 9.5s26.5 17.833 40.5 34.5l106 -67c-24.667 -37.333 -54.834 -64.166 -90.501 -80.499s-73.5 -24.5 -113.5 -24.5z
M264.001 374.001c-18 0 -32.499 -7.83301 -43.499 -23.5s-21.167 -39.5 -30.5 -71.5c-2 -8 -4.16699 -17.333 -6.5 -28s-4.16602 -21.334 -5.49902 -32.001s-2.5 -20.5 -3.5 -29.5s-1.5 -15.5 -1.5 -19.5c0 -12.667 2.66699 -23.667 8 -33s16.666 -14 33.999 -14
c7.33301 0 14.166 1.83301 20.499 5.5s11.833 7.83398 16.5 12.501c6 6 11.833 15.333 17.5 28s10.834 27.167 15.501 43.5s8.5 33.333 11.5 51s4.83301 34.167 5.5 49.5c0.666992 14.667 -1.33301 28.5 -6 41.5s-15.334 19.5 -32.001 19.5zM519.002 375.001
c-15.333 0 -28.5 -6.50098 -39.5 -19.501s-19.5 -30.5 -25.5 -52.5c4.66699 -1.33301 9.5 -1.66602 14.5 -0.999023s9.5 1 13.5 1c28 1.33301 47 6.33301 57 15s15 19 15 31c0 7.33301 -2.66699 13.5 -8 18.5s-14.333 7.5 -27 7.5z" />
    <glyph glyph-name="Racute" unicode="&#x154;" horiz-adv-x="543" 
d="M333 0l-56.001 275.002h-61l-53 -275h-143l135 696h217c58.667 0 104.834 -14.833 138.501 -44.5s49.5 -75.834 47.5 -138.501c-1.33301 -56.667 -15 -102.334 -41 -137.001s-59 -59.667 -99 -75l69 -301h-154zM419.999 497.002
c1.33301 24.667 -4.66602 41.999 -17.999 51.999s-31 15 -53 15h-76l-31 -157h77c12.667 0 25.167 1.5 37.5 4.5s23.166 8 32.499 15s16.833 16.333 22.5 28s8.5 25.834 8.5 42.501zM273 784.001l194 135l78 -91l-224 -106z" />
    <glyph glyph-name="racute" unicode="&#x155;" horiz-adv-x="359" 
d="M307 368c-26 0 -47.332 -7.66699 -63.999 -23s-27.667 -37 -33 -65l-56 -281h-140l96 496h139l-11 -58h2c30.667 42.667 69 64 115 64c12 0 22.5 -1.16699 31.5 -3.5s18.167 -6.5 27.5 -12.5l-48 -131c-10.667 5.33301 -20.834 9 -30.501 11s-19.167 3 -28.5 3z
M185.001 570l130 195l111 -48l-171 -183z" />
    <glyph glyph-name="Rcommaaccent" unicode="&#x156;" horiz-adv-x="543" 
d="M333 0l-56.001 275.002h-61l-53 -275h-143l135 696h217c58.667 0 104.834 -14.833 138.501 -44.5s49.5 -75.834 47.5 -138.501c-1.33301 -56.667 -15 -102.334 -41 -137.001s-59 -59.667 -99 -75l69 -301h-154zM419.999 497.002
c1.33301 24.667 -4.66602 41.999 -17.999 51.999s-31 15 -53 15h-76l-31 -157h77c12.667 0 25.167 1.5 37.5 4.5s23.166 8 32.499 15s16.833 16.333 22.5 28s8.5 25.834 8.5 42.501zM130 -274.999l53 108h-29l25 131h136l-25 -126l-93 -113h-67z" />
    <glyph glyph-name="rcommaaccent" unicode="&#x157;" horiz-adv-x="359" 
d="M307 368c-26 0 -47.332 -7.66699 -63.999 -23s-27.667 -37 -33 -65l-56 -281h-140l96 496h139l-11 -58h2c30.667 42.667 69 64 115 64c12 0 22.5 -1.16699 31.5 -3.5s18.167 -6.5 27.5 -12.5l-48 -131c-10.667 5.33301 -20.834 9 -30.501 11s-19.167 3 -28.5 3z
M-35.999 -294l53 108h-29l25 131h136l-25 -126l-93 -113h-67z" />
    <glyph glyph-name="Rcaron" unicode="&#x158;" horiz-adv-x="543" 
d="M333 0l-56.001 275.002h-61l-53 -275h-143l135 696h217c58.667 0 104.834 -14.833 138.501 -44.5s49.5 -75.834 47.5 -138.501c-1.33301 -56.667 -15 -102.334 -41 -137.001s-59 -59.667 -99 -75l69 -301h-154zM419.999 497.002
c1.33301 24.667 -4.66602 41.999 -17.999 51.999s-31 15 -53 15h-76l-31 -157h77c12.667 0 25.167 1.5 37.5 4.5s23.166 8 32.499 15s16.833 16.333 22.5 28s8.5 25.834 8.5 42.501zM503 912.001l43 -53l-168 -132h-89l-113 131l58 53l117 -82z" />
    <glyph glyph-name="rcaron" unicode="&#x159;" horiz-adv-x="359" 
d="M307 368c-26 0 -47.332 -7.66699 -63.999 -23s-27.667 -37 -33 -65l-56 -281h-140l96 496h139l-11 -58h2c30.667 42.667 69 64 115 64c12 0 22.5 -1.16699 31.5 -3.5s18.167 -6.5 27.5 -12.5l-48 -131c-10.667 5.33301 -20.834 9 -30.501 11s-19.167 3 -28.5 3z
M420.001 732l45.001 -48l-169 -157h-91l-110 157l62 48c5.33301 -4 13.166 -10.667 23.499 -20l32 -29.5l31.5 -29.5c10 -9.33301 17.667 -16 23 -20z" />
    <glyph glyph-name="Sacute" unicode="&#x15a;" horiz-adv-x="523" 
d="M136 202c13.333 -23.333 29.8359 -40.668 49.5029 -52.001s41.167 -17 64.5 -17c30 0 52.833 7.5 68.5 22.5s23.5 33.167 23.5 54.5c0 20.667 -8.16699 36.834 -24.5 48.501s-39.166 21.167 -68.499 28.5c-48.667 16 -85.667 37.667 -111 65s-38 62 -38 104
c0 36 5.66699 69.167 17 99.5s27.5 56.166 48.5 77.499s46.333 38 76 50s63.167 18 100.5 18c55.333 0 99.666 -10.167 132.999 -30.5s59 -47.833 77 -82.5l-119 -89c-16.667 20.667 -33.334 35.5 -50.001 44.5s-36 13.5 -58 13.5c-18 0 -34.167 -6.5 -48.5 -19.5
s-21.5 -28.167 -21.5 -45.5c0 -11.333 2.5 -20.666 7.5 -27.999s12.167 -14 21.5 -20s20.5 -11.333 33.5 -16l43.5 -15c52 -17.333 88.5 -40 109.5 -68s31.5 -62.333 31.5 -103c0 -39.333 -6.33301 -74.333 -19 -105s-30.334 -56.5 -53.001 -77.5s-49.834 -37 -81.501 -48
s-66.5 -16.5 -104.5 -16.5c-30 0 -57 3 -81 9s-45.333 14.5 -64 25.5s-34.667 24 -48 39s-25 31.167 -35 48.5zM288.003 783.998l194 135l78 -91l-224 -106z" />
    <glyph glyph-name="sacute" unicode="&#x15b;" horiz-adv-x="437" 
d="M113 165c11.333 -18 24.1699 -31.001 38.5029 -39.001s31.5 -12 51.5 -12c13.333 0 26.166 3.5 38.499 10.5s18.5 17.167 18.5 30.5c0 10.667 -5.5 19 -16.5 25s-24.167 10.667 -39.5 14c-15.333 4 -31.5 8.66699 -48.5 14s-32.5 13 -46.5 23s-25.5 22.667 -34.5 38
s-13.5 34.666 -13.5 57.999c0 28 5.33301 52.833 16 74.5s24.834 39.834 42.501 54.501s37.834 25.834 60.501 33.501s46 11.5 70 11.5c42.667 0 79.167 -8.5 109.5 -25.5s52.166 -40.833 65.499 -71.5l-100 -67c-10 17.333 -22 28.833 -36 34.5s-27 8.5 -39 8.5
c-10.667 0 -19.334 -1.33301 -26.001 -4s-11.834 -5.83398 -15.501 -9.50098s-6.16699 -7.5 -7.5 -11.5s-2 -7.33301 -2 -10c0 -6 3.16699 -11.333 9.5 -16s13.666 -8.66699 21.999 -12s16.833 -6 25.5 -8l21 -5c14 -4 28.5 -8.83301 43.5 -14.5s28.667 -13.5 41 -23.5
s22.5 -22.5 30.5 -37.5s12 -33.5 12 -55.5c0 -26.667 -5 -51 -15 -73s-24.167 -40.667 -42.5 -56s-40.333 -27.333 -66 -36s-54.5 -13 -86.5 -13c-53.333 1.33301 -94.833 11.833 -124.5 31.5s-51.5 46.834 -65.5 81.501zM200.004 569.999l130 195l111 -48l-171 -183z" />
    <glyph glyph-name="Scircumflex" unicode="&#x15c;" horiz-adv-x="523" 
d="M136 202c13.333 -23.333 29.8359 -40.668 49.5029 -52.001s41.167 -17 64.5 -17c30 0 52.833 7.5 68.5 22.5s23.5 33.167 23.5 54.5c0 20.667 -8.16699 36.834 -24.5 48.501s-39.166 21.167 -68.499 28.5c-48.667 16 -85.667 37.667 -111 65s-38 62 -38 104
c0 36 5.66699 69.167 17 99.5s27.5 56.166 48.5 77.499s46.333 38 76 50s63.167 18 100.5 18c55.333 0 99.666 -10.167 132.999 -30.5s59 -47.833 77 -82.5l-119 -89c-16.667 20.667 -33.334 35.5 -50.001 44.5s-36 13.5 -58 13.5c-18 0 -34.167 -6.5 -48.5 -19.5
s-21.5 -28.167 -21.5 -45.5c0 -11.333 2.5 -20.666 7.5 -27.999s12.167 -14 21.5 -20s20.5 -11.333 33.5 -16l43.5 -15c52 -17.333 88.5 -40 109.5 -68s31.5 -62.333 31.5 -103c0 -39.333 -6.33301 -74.333 -19 -105s-30.334 -56.5 -53.001 -77.5s-49.834 -37 -81.501 -48
s-66.5 -16.5 -104.5 -16.5c-30 0 -57 3 -81 9s-45.333 14.5 -64 25.5s-34.667 24 -48 39s-25 31.167 -35 48.5zM371.003 806.998l-153 -81l-42 52l167 132h89l114 -131l-59 -54z" />
    <glyph glyph-name="scircumflex" unicode="&#x15d;" horiz-adv-x="437" 
d="M113 165c11.333 -18 24.1699 -31.001 38.5029 -39.001s31.5 -12 51.5 -12c13.333 0 26.166 3.5 38.499 10.5s18.5 17.167 18.5 30.5c0 10.667 -5.5 19 -16.5 25s-24.167 10.667 -39.5 14c-15.333 4 -31.5 8.66699 -48.5 14s-32.5 13 -46.5 23s-25.5 22.667 -34.5 38
s-13.5 34.666 -13.5 57.999c0 28 5.33301 52.833 16 74.5s24.834 39.834 42.501 54.501s37.834 25.834 60.501 33.501s46 11.5 70 11.5c42.667 0 79.167 -8.5 109.5 -25.5s52.166 -40.833 65.499 -71.5l-100 -67c-10 17.333 -22 28.833 -36 34.5s-27 8.5 -39 8.5
c-10.667 0 -19.334 -1.33301 -26.001 -4s-11.834 -5.83398 -15.501 -9.50098s-6.16699 -7.5 -7.5 -11.5s-2 -7.33301 -2 -10c0 -6 3.16699 -11.333 9.5 -16s13.666 -8.66699 21.999 -12s16.833 -6 25.5 -8l21 -5c14 -4 28.5 -8.83301 43.5 -14.5s28.667 -13.5 41 -23.5
s22.5 -22.5 30.5 -37.5s12 -33.5 12 -55.5c0 -26.667 -5 -51 -15 -73s-24.167 -40.667 -42.5 -56s-40.333 -27.333 -66 -36s-54.5 -13 -86.5 -13c-53.333 1.33301 -94.833 11.833 -124.5 31.5s-51.5 46.834 -65.5 81.501zM298.004 624.999l-155 -104l-44 47l171 157h91
l110 -162l-61 -41z" />
    <glyph glyph-name="Scedilla" unicode="&#x15e;" horiz-adv-x="523" 
d="M136 202c13.333 -23.333 29.8291 -40.6729 49.4961 -52.0059s41.167 -17 64.5 -17c30 0 52.833 7.5 68.5 22.5s23.5 33.167 23.5 54.5c0 20.667 -8.16699 36.834 -24.5 48.501s-39.166 21.167 -68.499 28.5c-48.667 16 -85.667 37.667 -111 65s-38 62 -38 104
c0 36 5.66699 69.167 17 99.5s27.5 56.166 48.5 77.499s46.333 38 76 50s63.167 18 100.5 18c55.333 0 99.666 -10.167 132.999 -30.5s59 -47.833 77 -82.5l-119 -89c-16.667 20.667 -33.334 35.5 -50.001 44.5s-36 13.5 -58 13.5c-18 0 -34.167 -6.5 -48.5 -19.5
s-21.5 -28.167 -21.5 -45.5c0 -11.333 2.5 -20.666 7.5 -27.999s12.167 -14 21.5 -20s20.5 -11.333 33.5 -16l43.5 -15c52 -17.333 88.5 -40 109.5 -68s31.5 -62.333 31.5 -103c0 -37.333 -5.66699 -70.5 -17 -99.5s-27.166 -54 -47.499 -75s-44.666 -37.5 -72.999 -49.5
s-59.833 -19.333 -94.5 -22c-3.33301 -5.33301 -6.16602 -10.666 -8.49902 -15.999s-5.16602 -10.666 -8.49902 -15.999c28.667 -3.33301 48.5 -12.833 59.5 -28.5s16.5 -33.5 16.5 -53.5c0 -11.333 -2.33301 -22.666 -7 -33.999s-12.167 -21.666 -22.5 -30.999
s-23.333 -17 -39 -23s-34.5 -9 -56.5 -9c-13.333 0 -29.833 1.83301 -49.5 5.5s-38.167 10.5 -55.5 20.5l34 60c14.667 -7.33301 27.5 -12.166 38.5 -14.499s21.167 -3.5 30.5 -3.5c12 0 21.667 2.66699 29 8s11 13.333 11 24c0 6 -2.5 11 -7.5 15s-11.167 6 -18.5 6
c-5.33301 0 -9.66602 -0.666992 -12.999 -2l-34 24l35 69c-48 5.33301 -87 18.833 -117 40.5s-53.667 48.167 -71 79.5z" />
    <glyph glyph-name="scedilla" unicode="&#x15f;" horiz-adv-x="437" 
d="M113 165c11.333 -18 24.1699 -31.0029 38.5029 -39.0029s31.5 -12 51.5 -12c13.333 0 26.166 3.5 38.499 10.5s18.5 17.167 18.5 30.5c0 10.667 -5.5 19 -16.5 25s-24.167 10.667 -39.5 14c-15.333 4 -31.5 8.66699 -48.5 14s-32.5 13 -46.5 23s-25.5 22.667 -34.5 38
s-13.5 34.666 -13.5 57.999c0 28 5.33301 52.833 16 74.5s24.834 39.834 42.501 54.501s37.834 25.834 60.501 33.501s46 11.5 70 11.5c42.667 0 79.167 -8.5 109.5 -25.5s52.166 -40.833 65.499 -71.5l-100 -67c-10 17.333 -22 28.833 -36 34.5s-27 8.5 -39 8.5
c-10.667 0 -19.334 -1.33301 -26.001 -4s-11.834 -5.83398 -15.501 -9.50098s-6.16699 -7.5 -7.5 -11.5s-2 -7.33301 -2 -10c0 -6 3.16699 -11.333 9.5 -16s13.666 -8.66699 21.999 -12s16.833 -6 25.5 -8l21 -5c14 -4 28.5 -8.83301 43.5 -14.5s28.667 -13.5 41 -23.5
s22.5 -22.5 30.5 -37.5s12 -33.5 12 -55.5c0 -51.333 -17.333 -92.833 -52 -124.5s-81.334 -49.167 -140.001 -52.5l-16 -32c28.667 -3.33301 48.5 -12.833 59.5 -28.5s16.5 -33.5 16.5 -53.5c0 -11.333 -2.33301 -22.666 -7 -33.999s-12.167 -21.666 -22.5 -30.999
s-23.333 -17 -39 -23s-34.5 -9 -56.5 -9c-13.333 0 -29.833 1.83301 -49.5 5.5s-38.167 10.5 -55.5 20.5l34 60c14.667 -7.33301 27.5 -12.166 38.5 -14.499s21.167 -3.5 30.5 -3.5c12 0 21.667 2.66699 29 8s11 13.333 11 24c0 6 -2.5 11 -7.5 15s-11.167 6 -18.5 6
c-5.33301 0 -9.66602 -0.666992 -12.999 -2l-34 24l36 71c-38.667 5.33301 -69.5 17.333 -92.5 36s-40.167 43 -51.5 73z" />
    <glyph glyph-name="Scaron" unicode="&#x160;" horiz-adv-x="523" 
d="M136 202c13.333 -23.333 29.8359 -40.668 49.5029 -52.001s41.167 -17 64.5 -17c30 0 52.833 7.5 68.5 22.5s23.5 33.167 23.5 54.5c0 20.667 -8.16699 36.834 -24.5 48.501s-39.166 21.167 -68.499 28.5c-48.667 16 -85.667 37.667 -111 65s-38 62 -38 104
c0 36 5.66699 69.167 17 99.5s27.5 56.166 48.5 77.499s46.333 38 76 50s63.167 18 100.5 18c55.333 0 99.666 -10.167 132.999 -30.5s59 -47.833 77 -82.5l-119 -89c-16.667 20.667 -33.334 35.5 -50.001 44.5s-36 13.5 -58 13.5c-18 0 -34.167 -6.5 -48.5 -19.5
s-21.5 -28.167 -21.5 -45.5c0 -11.333 2.5 -20.666 7.5 -27.999s12.167 -14 21.5 -20s20.5 -11.333 33.5 -16l43.5 -15c52 -17.333 88.5 -40 109.5 -68s31.5 -62.333 31.5 -103c0 -39.333 -6.33301 -74.333 -19 -105s-30.334 -56.5 -53.001 -77.5s-49.834 -37 -81.501 -48
s-66.5 -16.5 -104.5 -16.5c-30 0 -57 3 -81 9s-45.333 14.5 -64 25.5s-34.667 24 -48 39s-25 31.167 -35 48.5zM539.003 911.998l43 -53l-168 -132h-89l-113 131l58 53l117 -82z" />
    <glyph glyph-name="scaron" unicode="&#x161;" horiz-adv-x="437" 
d="M113 165c11.333 -18 24.1699 -31.001 38.5029 -39.001s31.5 -12 51.5 -12c13.333 0 26.166 3.5 38.499 10.5s18.5 17.167 18.5 30.5c0 10.667 -5.5 19 -16.5 25s-24.167 10.667 -39.5 14c-15.333 4 -31.5 8.66699 -48.5 14s-32.5 13 -46.5 23s-25.5 22.667 -34.5 38
s-13.5 34.666 -13.5 57.999c0 28 5.33301 52.833 16 74.5s24.834 39.834 42.501 54.501s37.834 25.834 60.501 33.501s46 11.5 70 11.5c42.667 0 79.167 -8.5 109.5 -25.5s52.166 -40.833 65.499 -71.5l-100 -67c-10 17.333 -22 28.833 -36 34.5s-27 8.5 -39 8.5
c-10.667 0 -19.334 -1.33301 -26.001 -4s-11.834 -5.83398 -15.501 -9.50098s-6.16699 -7.5 -7.5 -11.5s-2 -7.33301 -2 -10c0 -6 3.16699 -11.333 9.5 -16s13.666 -8.66699 21.999 -12s16.833 -6 25.5 -8l21 -5c14 -4 28.5 -8.83301 43.5 -14.5s28.667 -13.5 41 -23.5
s22.5 -22.5 30.5 -37.5s12 -33.5 12 -55.5c0 -26.667 -5 -51 -15 -73s-24.167 -40.667 -42.5 -56s-40.333 -27.333 -66 -36s-54.5 -13 -86.5 -13c-53.333 1.33301 -94.833 11.833 -124.5 31.5s-51.5 46.834 -65.5 81.501zM460.004 731.999l45.001 -48l-169 -157h-91
l-110 157l62 48c5.33301 -4 13.166 -10.667 23.499 -20l32 -29.5l31.5 -29.5c10 -9.33301 17.667 -16 23 -20z" />
    <glyph glyph-name="Tcommaaccent" unicode="&#x162;" horiz-adv-x="453" 
d="M366 564l-110 -564h-143l110 564h-147l25 132h437l-26 -132h-146zM61 -295l53 108h-29l25 131h136l-25 -126l-93 -113h-67z" />
    <glyph glyph-name="tcommaaccent" unicode="&#x163;" horiz-adv-x="303" 
d="M99 386h-49.002l21 109h49l13.5 66.5l12.5 66.5h135l-13.5 -66.5l-12.5 -66.5h64l-22 -109h-64l-41 -214c-0.666992 -4 -1.16699 -7.66699 -1.5 -11s-0.5 -6.66602 -0.5 -9.99902c0 -8 2.33301 -14.5 7 -19.5s14.334 -7.5 29.001 -7.5h21l-24 -124
c-9.33301 -0.666992 -19.166 -1 -29.499 -1h-29.5c-21.333 0 -39.5 2.66699 -54.5 8s-27.167 12.666 -36.5 21.999s-16 20.333 -20 33s-6 26 -6 40c0 10 1 20.667 3 32zM-13.002 -295l53 108h-29l25 131h136l-25 -126l-93 -113h-67z" />
    <glyph glyph-name="Tcaron" unicode="&#x164;" horiz-adv-x="453" 
d="M366 564l-110 -564h-143l110 564h-147l25 132h437l-26 -132h-146zM501 912l43 -53l-168 -132h-89l-113 131l58 53l117 -82z" />
    <glyph glyph-name="tcaron" unicode="&#x165;" horiz-adv-x="362" 
d="M99 386h-49.002l21 109h49l13.5 66.5l12.5 66.5h135l-13.5 -66.5l-12.5 -66.5h64l-22 -109h-64l-41 -214c-0.666992 -4 -1.16699 -7.66699 -1.5 -11s-0.5 -6.66602 -0.5 -9.99902c0 -8 2.33301 -14.5 7 -19.5s14.334 -7.5 29.001 -7.5h21l-24 -124
c-9.33301 -0.666992 -19.166 -1 -29.499 -1h-29.5c-21.333 0 -39.5 2.66699 -54.5 8s-27.167 12.666 -36.5 21.999s-16 20.333 -20 33s-6 26 -6 40c0 10 1 20.667 3 32zM309.998 550l53 108h-29l25 131h136l-25 -126l-93 -113h-67z" />
    <glyph glyph-name="Tbar" unicode="&#x166;" horiz-adv-x="453" 
d="M366 564l-31 -156h126l-20 -96h-124l-61 -312h-143l61 312h-122l19 96h121l31 156h-147l25 132h437l-26 -132h-146z" />
    <glyph glyph-name="tbar" unicode="&#x167;" horiz-adv-x="303" 
d="M68 227h-50.002l17 90h51l6 34.5c2 11.667 4.33301 23.167 7 34.5h-49l21 109h49l13.5 66.5l12.5 66.5h135l-13.5 -66.5l-12.5 -66.5h64l-22 -109h-64l-13 -69h65l-18 -90h-65l-10 -55c-0.666992 -4 -1.16699 -7.66699 -1.5 -11s-0.5 -6.66602 -0.5 -9.99902
c0 -8 2.33301 -14.5 7 -19.5s14.334 -7.5 29.001 -7.5h21l-24 -124c-9.33301 -0.666992 -19.166 -1 -29.499 -1h-29.5c-21.333 0 -39.5 2.66699 -54.5 8s-27.167 12.666 -36.5 21.999s-16 20.333 -20 33s-6 26 -6 40c0 10 1 20.667 3 32z" />
    <glyph glyph-name="Utilde" unicode="&#x168;" horiz-adv-x="545" 
d="M494 207c-13.333 -67.333 -41 -119.5 -83 -156.5s-96.333 -55.5 -163 -55.5c-31.333 0 -60.5 5 -87.5 15s-49.5 24.5 -67.5 43.5s-30.833 42.167 -38.5 69.5s-8.16699 58 -1.5 92l93 481h143l-93 -475c-5.33301 -28 -1.5 -49.5 11.5 -64.5s30.167 -22.5 51.5 -22.5
c22 0 41.5 6.33301 58.5 19s28.167 32.667 33.5 60l94 483h144zM321 873c12 0 23.4971 -2.33203 34.4971 -6.99902s21.667 -9.5 32 -14.5l29 -14c9 -4.33301 17.167 -6.5 24.5 -6.5c10 0 19.833 2.5 29.5 7.5s22.834 16.167 39.501 33.5l62 -37
c-20 -39.333 -40.833 -66.333 -62.5 -81s-44.167 -22 -67.5 -22c-12.667 0 -24.5 2.16699 -35.5 6.5s-21.5 9 -31.5 14l-28.5 14c-9 4.33301 -17.833 6.5 -26.5 6.5c-9.33301 0 -19.5 -2.83301 -30.5 -8.5s-24.833 -17.167 -41.5 -34.5l-60 41
c22.667 39.333 44.834 66.166 66.501 80.499s43.834 21.5 66.501 21.5z" />
    <glyph glyph-name="utilde" unicode="&#x169;" horiz-adv-x="477" 
d="M244 496l-60.998 -314.004c-3.33301 -17.333 -1.5 -31 5.5 -41s17.5 -15 31.5 -15c14.667 0 28.167 5.5 40.5 16.5s20.166 25.833 23.499 44.5l59 309h139l-96 -496h-139l11 46h-3c-13.333 -15.333 -30.333 -27.666 -51 -36.999s-39.334 -14 -56.001 -14
c-23.333 0 -43 3.83301 -59 11.5s-28.5 18.334 -37.5 32.001s-14.5 29.834 -16.5 48.501s-1 39.334 3 62.001l67 347h139zM247.002 697.996c12 0 23.4971 -2.33203 34.4971 -6.99902s21.667 -9.5 32 -14.5l29 -14c9 -4.33301 17.167 -6.5 24.5 -6.5
c10 0 19.833 2.5 29.5 7.5s22.834 16.167 39.501 33.5l62 -37c-20 -39.333 -40.833 -66.333 -62.5 -81s-44.167 -22 -67.5 -22c-12.667 0 -24.5 2.16699 -35.5 6.5s-21.5 9 -31.5 14l-28.5 14c-9 4.33301 -17.833 6.5 -26.5 6.5c-9.33301 0 -19.5 -2.83301 -30.5 -8.5
s-24.833 -17.167 -41.5 -34.5l-60 41c22.667 39.333 44.834 66.166 66.501 80.499s43.834 21.5 66.501 21.5z" />
    <glyph glyph-name="Umacron" unicode="&#x16a;" horiz-adv-x="545" 
d="M494 207c-13.333 -67.333 -41 -119.5 -83 -156.5s-96.333 -55.5 -163 -55.5c-31.333 0 -60.5 5 -87.5 15s-49.5 24.5 -67.5 43.5s-30.833 42.167 -38.5 69.5s-8.16699 58 -1.5 92l93 481h143l-93 -475c-5.33301 -28 -1.5 -49.5 11.5 -64.5s30.167 -22.5 51.5 -22.5
c22 0 41.5 6.33301 58.5 19s28.167 32.667 33.5 60l94 483h144zM227 752l23 114h292l-22 -114h-293z" />
    <glyph glyph-name="umacron" unicode="&#x16b;" horiz-adv-x="477" 
d="M244 496l-60.998 -314.004c-3.33301 -17.333 -1.5 -31 5.5 -41s17.5 -15 31.5 -15c14.667 0 28.167 5.5 40.5 16.5s20.166 25.833 23.499 44.5l59 309h139l-96 -496h-139l11 46h-3c-13.333 -15.333 -30.333 -27.666 -51 -36.999s-39.334 -14 -56.001 -14
c-23.333 0 -43 3.83301 -59 11.5s-28.5 18.334 -37.5 32.001s-14.5 29.834 -16.5 48.501s-1 39.334 3 62.001l67 347h139zM161.002 571.996l22 114h292l-22 -114h-292z" />
    <glyph glyph-name="Ubreve" unicode="&#x16c;" horiz-adv-x="545" 
d="M494 207c-13.333 -67.333 -41 -119.5 -83 -156.5s-96.333 -55.5 -163 -55.5c-31.333 0 -60.5 5 -87.5 15s-49.5 24.5 -67.5 43.5s-30.833 42.167 -38.5 69.5s-8.16699 58 -1.5 92l93 481h143l-93 -475c-5.33301 -28 -1.5 -49.5 11.5 -64.5s30.167 -22.5 51.5 -22.5
c22 0 41.5 6.33301 58.5 19s28.167 32.667 33.5 60l94 483h144zM371 728c-29.333 0 -53.165 5.66699 -71.498 17s-32.5 25.5 -42.5 42.5s-16.333 35.333 -19 55s-2.66699 37.834 0 54.501h102c-1.33301 -7.33301 -1.5 -15.166 -0.5 -23.499s3.33301 -16.166 7 -23.499
s8.66699 -13.5 15 -18.5s14.166 -7.5 23.499 -7.5c10 0 19.167 2.5 27.5 7.5s15.666 11.167 21.999 18.5s11.5 15.166 15.5 23.499s7 16.166 9 23.499h103c-4.66699 -19.333 -11.667 -38.833 -21 -58.5s-21.5 -37.834 -36.5 -54.501s-33.5 -30.167 -55.5 -40.5
s-48 -15.5 -78 -15.5z" />
    <glyph glyph-name="ubreve" unicode="&#x16d;" horiz-adv-x="477" 
d="M244 496l-60.998 -314.004c-3.33301 -17.333 -1.5 -31 5.5 -41s17.5 -15 31.5 -15c14.667 0 28.167 5.5 40.5 16.5s20.166 25.833 23.499 44.5l59 309h139l-96 -496h-139l11 46h-3c-13.333 -15.333 -30.333 -27.666 -51 -36.999s-39.334 -14 -56.001 -14
c-23.333 0 -43 3.83301 -59 11.5s-28.5 18.334 -37.5 32.001s-14.5 29.834 -16.5 48.501s-1 39.334 3 62.001l67 347h139zM298.002 541.996c-29.333 0 -53.166 5.66602 -71.499 16.999s-32.5 25.5 -42.5 42.5s-16.333 35.333 -19 55s-2.66699 37.834 0 54.501h103
c-1.33301 -7.33301 -1.5 -15.166 -0.5 -23.499s3.33301 -16.166 7 -23.499s8.66699 -13.333 15 -18s14.166 -7 23.499 -7c10 0 19 2.33301 27 7s15.167 10.667 21.5 18s11.666 15.166 15.999 23.499s7.16602 16.166 8.49902 23.499h104c-4 -18.667 -10.667 -38 -20 -58
s-21.666 -38.167 -36.999 -54.5s-34.166 -29.833 -56.499 -40.5s-48.5 -16 -78.5 -16z" />
    <glyph glyph-name="Uring" unicode="&#x16e;" horiz-adv-x="545" 
d="M494 207c-13.333 -67.333 -41 -119.5 -83 -156.5s-96.333 -55.5 -163 -55.5c-31.333 0 -60.5 5 -87.5 15s-49.5 24.5 -67.5 43.5s-30.833 42.167 -38.5 69.5s-8.16699 58 -1.5 92l93 481h143l-93 -475c-5.33301 -28 -1.5 -49.5 11.5 -64.5s30.167 -22.5 51.5 -22.5
c22 0 41.5 6.33301 58.5 19s28.167 32.667 33.5 60l94 483h144zM386 784c10.667 0 20.334 3.83398 29.001 11.501s13 17.5 13 29.5c0 7.33301 -2.83301 13.666 -8.5 18.999s-12.834 8 -21.501 8c-11.333 0 -21.333 -3.83301 -30 -11.5s-13 -17.167 -13 -28.5
c0 -8 3 -14.667 9 -20s13.333 -8 22 -8zM377 710.001c-28 0 -51.667 8.33398 -71 25.001s-29 37.667 -29 63c0 17.333 3 33.833 9 49.5s14.5 29.5 25.5 41.5s24.5 21.5 40.5 28.5s33.667 10.5 53 10.5c14 0 27.167 -2.16699 39.5 -6.5s23 -10.5 32 -18.5
s16.167 -17.5 21.5 -28.5s8 -22.833 8 -35.5c0 -17.333 -3 -33.833 -9 -49.5s-14.5 -29.334 -25.5 -41.001s-24.5 -21 -40.5 -28s-34 -10.5 -54 -10.5z" />
    <glyph glyph-name="uring" unicode="&#x16f;" horiz-adv-x="477" 
d="M244 496l-60.998 -314.004c-3.33301 -17.333 -1.5 -31 5.5 -41s17.5 -15 31.5 -15c14.667 0 28.167 5.5 40.5 16.5s20.166 25.833 23.499 44.5l59 309h139l-96 -496h-139l11 46h-3c-13.333 -15.333 -30.333 -27.666 -51 -36.999s-39.334 -14 -56.001 -14
c-23.333 0 -43 3.83301 -59 11.5s-28.5 18.334 -37.5 32.001s-14.5 29.834 -16.5 48.501s-1 39.334 3 62.001l67 347h139zM310.002 596.996c10.667 0 20.334 3.83398 29.001 11.501s13 17.5 13 29.5c0 7.33301 -2.83301 13.666 -8.5 18.999s-12.834 8 -21.501 8
c-11.333 0 -21.333 -3.83301 -30 -11.5s-13 -17.167 -13 -28.5c0 -8 3 -14.667 9 -20s13.333 -8 22 -8zM301.002 522.997c-28 0 -51.667 8.33398 -71 25.001s-29 37.667 -29 63c0 17.333 3 33.833 9 49.5s14.5 29.5 25.5 41.5s24.5 21.5 40.5 28.5s33.667 10.5 53 10.5
c14 0 27.167 -2.16699 39.5 -6.5s23 -10.5 32 -18.5s16.167 -17.5 21.5 -28.5s8 -22.833 8 -35.5c0 -17.333 -3 -33.833 -9 -49.5s-14.5 -29.334 -25.5 -41.001s-24.5 -21 -40.5 -28s-34 -10.5 -54 -10.5z" />
    <glyph glyph-name="Uhungarumlaut" unicode="&#x170;" horiz-adv-x="545" 
d="M494 207c-13.333 -67.333 -41 -119.5 -83 -156.5s-96.333 -55.5 -163 -55.5c-31.333 0 -60.5 5 -87.5 15s-49.5 24.5 -67.5 43.5s-30.833 42.167 -38.5 69.5s-8.16699 58 -1.5 92l93 481h143l-93 -475c-5.33301 -28 -1.5 -49.5 11.5 -64.5s30.167 -22.5 51.5 -22.5
c22 0 41.5 6.33301 58.5 19s28.167 32.667 33.5 60l94 483h144zM195 785l192 141l72 -94l-219 -111zM407 785l191 141l72 -94l-219 -111z" />
    <glyph glyph-name="uhungarumlaut" unicode="&#x171;" horiz-adv-x="477" 
d="M244 496l-60.998 -314.004c-3.33301 -17.333 -1.5 -31 5.5 -41s17.5 -15 31.5 -15c14.667 0 28.167 5.5 40.5 16.5s20.166 25.833 23.499 44.5l59 309h139l-96 -496h-139l11 46h-3c-13.333 -15.333 -30.333 -27.666 -51 -36.999s-39.334 -14 -56.001 -14
c-23.333 0 -43 3.83301 -59 11.5s-28.5 18.334 -37.5 32.001s-14.5 29.834 -16.5 48.501s-1 39.334 3 62.001l67 347h139zM329.002 569.996l130 195l112 -48l-171 -183zM149.002 569.996l130 195l112 -48l-171 -183z" />
    <glyph glyph-name="Uogonek" unicode="&#x172;" horiz-adv-x="545" 
d="M139 -120c1.33301 15.333 6.83496 32.666 16.502 51.999s25.167 41.666 46.5 66.999c-26 4.66699 -49.5 12.834 -70.5 24.501s-38.333 26.667 -52 45s-23 39.833 -28 64.5s-4.5 52 1.5 82l93 481h143l-93 -475c-5.33301 -28 -1.5 -49.5 11.5 -64.5
s30.167 -22.5 51.5 -22.5c22 0 41.5 6.33301 58.5 19s28.167 32.667 33.5 60l94 483h144l-95 -489c-12 -61.333 -36 -110.166 -72 -146.499s-82.667 -57.5 -140 -63.5c-21.333 -25.333 -35.333 -46.5 -42 -63.5s-10.667 -28.167 -12 -33.5c-1.33301 -10 1 -17.5 7 -22.5
s14.333 -7.5 25 -7.5c6 0 14 1 24 3s22 6.33301 36 13l14 -66c-18.667 -10.667 -37.334 -18 -56.001 -22s-36.334 -6 -53.001 -6c-28.667 0 -51 8.16699 -67 24.5s-22.333 37.5 -19 63.5z" />
    <glyph glyph-name="uogonek" unicode="&#x173;" horiz-adv-x="477" 
d="M186 -118c1.33301 15.333 6.67188 32.6631 16.0049 51.9961s24.666 41.333 45.999 66h-1l11 46h-3c-13.333 -15.333 -30.333 -27.666 -51 -36.999s-39.334 -14 -56.001 -14c-23.333 0 -43 3.83301 -59 11.5s-28.5 18.334 -37.5 32.001s-14.5 29.834 -16.5 48.501
s-1 39.334 3 62.001l67 347h139l-61 -314c-3.33301 -17.333 -1.5 -31 5.5 -41s17.5 -15 31.5 -15c14.667 0 28.167 5.5 40.5 16.5s20.166 25.833 23.499 44.5l59 309h139l-96 -496h-56c-22 -26 -36.333 -47.5 -43 -64.5s-10.667 -28.167 -12 -33.5
c-1.33301 -10 1 -17.5 7 -22.5s14.333 -7.5 25 -7.5c6 0 14 1 24 3s22 6.33301 36 13l14 -66c-18.667 -10.667 -37.334 -18 -56.001 -22s-36.334 -6 -53.001 -6c-28.667 0 -51 8.16699 -67 24.5s-22.333 37.5 -19 63.5z" />
    <glyph glyph-name="Wcircumflex" unicode="&#x174;" horiz-adv-x="739" 
d="M399 366l-65.002 -151.001l-97 -215h-128c-2 116 -3.83301 231.833 -5.5 347.5s-3.16699 231.834 -4.5 348.501h156l-3 -203c-1.33301 -28.667 -2.16602 -58.667 -2.49902 -90s-1.83301 -62 -4.5 -92h4l78 190l82 195h112l8 -215
c1.33301 -26.667 2.16602 -55.667 2.49902 -87s0.5 -62.333 0.5 -93h5l33.5 98l33.5 98l14 39.5l21 60l21 60l14 39.5h156l-140.5 -348.5l-140.5 -347.5h-128c-1.33301 36 -3.16602 72.167 -5.49902 108.5s-4.16602 72.5 -5.49902 108.5l-6 149h-5zM484.998 806.999
l-153 -81l-42 52l167 132h89l114 -131l-59 -54z" />
    <glyph glyph-name="wcircumflex" unicode="&#x175;" horiz-adv-x="681" 
d="M334 264l-26.999 -74.002c-8.66699 -24.667 -17.667 -48.334 -27 -71.001c-18.667 -40.667 -38 -80.334 -58 -119.001h-140l-38 494h149c-1.33301 -33.333 -1.66602 -66.833 -0.999023 -100.5s1 -67.5 1 -101.5l-2 -50
c-0.666992 -17.333 -2.33398 -36.666 -5.00098 -57.999h5c22 48 43.167 98.667 63.5 152s38.166 106 53.499 158h134l1 -184c0 -17.333 -0.5 -34.5 -1.5 -51.5s-2.5 -38.833 -4.5 -65.5h7c19.333 44 38.666 91.667 57.999 143s37 104 53 158h156
c-17.333 -49.333 -34.666 -95.166 -51.999 -137.499s-35.5 -83.333 -54.5 -123s-39.167 -78.5 -60.5 -116.5s-44.333 -77 -69 -117h-137l-3 116c0 22.667 0.333008 46.334 1 71.001s1.66699 50.334 3 77.001h-5zM405.001 624.998l-155 -104l-44 47l171 157h91l110 -162
l-61 -41z" />
    <glyph glyph-name="Ycircumflex" unicode="&#x176;" horiz-adv-x="504" 
d="M298 415l34.002 70.498c11.333 24.333 22.666 47.5 33.999 69.5l75 141h155l-259 -417l-54 -279h-141l27.5 139.5l27.5 139.5l-97 417h151c4.66699 -23.333 8.66699 -45 12 -65l11 -65c2 -11.333 3.83301 -23.666 5.5 -36.999s3.16699 -26.666 4.5 -39.999l4 -39.5
c1.33301 -13 2.66602 -24.5 3.99902 -34.5h6zM369.002 806.998l-153 -81l-42 52l167 132h89l114 -131l-59 -54z" />
    <glyph glyph-name="ycircumflex" unicode="&#x177;" horiz-adv-x="428" 
d="M197 179c21.333 41.333 41.833 89.1699 61.5 143.503s38.167 111.5 55.5 171.5h148c-43.333 -112 -87 -214.833 -131 -308.5s-90 -178.5 -138 -254.5c-28 -44.667 -63 -79.334 -105 -104.001s-88.667 -35.334 -140 -32.001l-1 115c34 3.33301 63.167 13.333 87.5 30
s46.166 44 65.499 82l-59 472h146l6.5 -85c1.66699 -22 2.83398 -40 3.50098 -54s1.16699 -25.333 1.5 -34s0.5 -17.334 0.5 -26.001c0 -18 -0.5 -37.333 -1.5 -58s-2.5 -40 -4.5 -58h4zM286 625.004l-155 -104l-44 47l171 157h91l110 -162l-61 -41z" />
    <glyph glyph-name="Ydieresis" unicode="&#x178;" horiz-adv-x="504" 
d="M298 415l34.002 70.498c11.333 24.333 22.666 47.5 33.999 69.5l75 141h155l-259 -417l-54 -279h-141l27.5 139.5l27.5 139.5l-97 417h151c4.66699 -23.333 8.66699 -45 12 -65l11 -65c2 -11.333 3.83301 -23.666 5.5 -36.999s3.16699 -26.666 4.5 -39.999l4 -39.5
c1.33301 -13 2.66602 -24.5 3.99902 -34.5h6zM192.002 736.998l25 131h136l-26 -131h-135zM386.002 736.998l26 131h135l-25 -131h-136z" />
    <glyph glyph-name="Zacute" unicode="&#x179;" horiz-adv-x="449" 
d="M-15 0l24 126l318 438h-222l25 132h390l-24 -122l-318 -439h232l-26 -135h-399zM262 784l194 135l78 -91l-224 -106z" />
    <glyph glyph-name="zacute" unicode="&#x17a;" horiz-adv-x="410" 
d="M-12 0l23 120l230 253h-168l23 122h334l-22 -113l-232 -254h182l-24 -128h-346zM213 570l130 195l111 -48l-171 -183z" />
    <glyph glyph-name="Zdotaccent" unicode="&#x17b;" horiz-adv-x="449" 
d="M-15 0l24 126l318 438h-222l25 132h390l-24 -122l-318 -439h232l-26 -135h-399zM263 737l25 130h133l-25 -130h-133z" />
    <glyph glyph-name="zdotaccent" unicode="&#x17c;" horiz-adv-x="410" 
d="M-12 0l23 120l230 253h-168l23 122h334l-22 -113l-232 -254h182l-24 -128h-346zM205 557l25 130h133l-25 -130h-133z" />
    <glyph glyph-name="Zcaron" unicode="&#x17d;" horiz-adv-x="449" 
d="M-15 0l24 126l318 438h-222l25 132h390l-24 -122l-318 -439h232l-26 -135h-399zM509 912l43 -53l-168 -132h-89l-113 131l58 53l117 -82z" />
    </font>
</defs>
</svg>
